<svg width="192" height="49" viewBox="0 0 192 49" fill="none" xmlns="http://www.w3.org/2000/svg">
    <path d="M0 8.26563C0 3.84735 3.58172 0.265625 8 0.265625H184C188.418 0.265625 192 3.84735 192 8.26562V40.2656C192 44.6839 188.418 48.2656 184 48.2656H8C3.58173 48.2656 0 44.6839 0 40.2656V8.26563Z" fill="#292931"/>
    <path fill-rule="evenodd" clip-rule="evenodd" d="M61.0392 23.6026C61.061 21.9061 61.9504 20.3391 63.3957 19.4505C62.4798 18.1424 61.0007 17.3428 59.4046 17.2928C57.7253 17.1166 56.0974 18.2977 55.2417 18.2977C54.3694 18.2977 53.0519 17.3103 51.6332 17.3395C49.7665 17.3998 48.0684 18.4354 47.1603 20.0674C45.2263 23.4158 46.6689 28.3369 48.5215 31.0435C49.4484 32.3688 50.5316 33.8493 51.9491 33.7968C53.3362 33.7392 53.8542 32.9123 55.5285 32.9123C57.1873 32.9123 57.6733 33.7968 59.1195 33.7634C60.6079 33.7392 61.5456 32.4322 62.44 31.0943C63.106 30.1499 63.6185 29.1062 63.9584 28.0017C62.1907 27.2541 61.0413 25.5219 61.0392 23.6026Z" fill="white"/>
    <path fill-rule="evenodd" clip-rule="evenodd" d="M58.3076 15.5126C59.1191 14.5384 59.5189 13.2862 59.4221 12.022C58.1822 12.1522 57.037 12.7448 56.2145 13.6816C55.4023 14.6059 54.9909 15.8151 55.0708 17.043C56.3272 17.0559 57.5202 16.4919 58.3076 15.5126Z" fill="white"/>
    <path fill-rule="evenodd" clip-rule="evenodd" d="M73.8392 30.4414H78.5726L79.7083 33.7979H81.7474L77.264 21.3799H75.181L70.6976 33.7979H72.7025L73.8392 30.4414ZM78.0814 28.8926H74.3294L76.18 23.4453H76.2318L78.0814 28.8926Z" fill="white"/>
    <path fill-rule="evenodd" clip-rule="evenodd" d="M87.6517 33.8928C89.9241 33.8928 91.43 32.0852 91.43 29.2717C91.43 26.466 89.9153 24.6496 87.6175 24.6496C86.4351 24.6115 85.3275 25.2265 84.7347 26.2502H84.7005V24.7444H82.9016V36.7932H84.76V32.3088H84.803C85.3706 33.339 86.4771 33.9542 87.6517 33.8928ZM87.1273 26.2336C88.5726 26.2336 89.5198 27.4387 89.5198 29.2717C89.5198 31.1213 88.5726 32.3176 87.1273 32.3176C85.7073 32.3176 84.7523 31.0959 84.7523 29.2717C84.7523 27.4641 85.7073 26.2336 87.1273 26.2336Z" fill="white"/>
    <path fill-rule="evenodd" clip-rule="evenodd" d="M97.6165 33.8928C99.889 33.8928 101.395 32.0852 101.395 29.2717C101.395 26.466 99.8802 24.6496 97.5823 24.6496C96.3999 24.6115 95.2923 25.2265 94.6995 26.2502H94.6653V24.7443H92.8665V36.7932H94.7249V32.3088H94.7679C95.3355 33.339 96.4419 33.9542 97.6165 33.8928ZM97.0921 26.2336C98.5374 26.2336 99.4847 27.4387 99.4847 29.2717H99.4847C99.4847 31.1213 98.5374 32.3176 97.0921 32.3176C95.6722 32.3176 94.7171 31.0959 94.7171 29.2717C94.7171 27.4641 95.6722 26.2336 97.0921 26.2336Z" fill="white"/>
    <path fill-rule="evenodd" clip-rule="evenodd" d="M107.981 30.3379C108.118 31.5694 109.315 32.3779 110.95 32.3779C112.516 32.3779 113.643 31.5694 113.643 30.459C113.643 29.4951 112.963 28.918 111.354 28.5225L109.744 28.1348C107.464 27.584 106.406 26.5176 106.406 24.7871C106.406 22.6445 108.273 21.1729 110.924 21.1729C113.548 21.1729 115.347 22.6445 115.408 24.7871H113.532C113.419 23.5479 112.395 22.7998 110.898 22.7998C109.401 22.7998 108.376 23.5567 108.376 24.6582C108.376 25.5361 109.031 26.0527 110.631 26.4482L111.999 26.7842C114.547 27.3867 115.606 28.4102 115.606 30.2265C115.606 32.5498 113.755 34.0049 110.812 34.0049C108.058 34.0049 106.199 32.584 106.078 30.3379L107.981 30.3379Z" fill="white"/>
    <path fill-rule="evenodd" clip-rule="evenodd" d="M119.617 22.6016V24.7441H121.338V26.2158H119.617V31.207C119.617 31.9824 119.961 32.3438 120.718 32.3438C120.922 32.3402 121.127 32.3258 121.329 32.3008V33.7636C120.989 33.8272 120.643 33.856 120.297 33.8496C118.464 33.8496 117.749 33.1611 117.749 31.4052V26.2158H116.433V24.7441H117.749V22.6016H119.617Z" fill="white"/>
    <path fill-rule="evenodd" clip-rule="evenodd" d="M126.629 24.6328C124.013 24.6328 122.335 26.4229 122.335 29.2715C122.335 32.1279 123.996 33.9102 126.629 33.9102C129.263 33.9102 130.924 32.1279 130.924 29.2715C130.924 26.4228 129.254 24.6328 126.629 24.6328ZM126.629 26.1641C128.135 26.1641 129.031 27.3174 129.031 29.2715H129.031C129.031 31.2334 128.135 32.3779 126.629 32.3779C125.123 32.3779 124.229 31.2334 124.229 29.2715C124.229 27.3262 125.123 26.1641 126.629 26.1641Z" fill="white"/>
    <path fill-rule="evenodd" clip-rule="evenodd" d="M132.456 24.7443H134.229V26.2853H134.272C134.519 25.2933 135.428 24.6105 136.45 24.6495C136.664 24.6488 136.877 24.672 137.086 24.7189V26.4572C136.816 26.3745 136.534 26.3366 136.251 26.3449C135.705 26.3227 135.176 26.5404 134.804 26.9409C134.432 27.3414 134.253 27.8846 134.315 28.4279V33.798H132.456L132.456 24.7443Z" fill="white"/>
    <path fill-rule="evenodd" clip-rule="evenodd" d="M141.756 33.9102C143.804 33.9102 145.405 32.7822 145.655 31.1387L143.89 31.1387C143.551 31.9787 142.701 32.4966 141.799 32.4121C141.123 32.437 140.469 32.1702 140.003 31.6795C139.537 31.1889 139.304 30.5217 139.364 29.8477V29.7354H145.758V29.0986C145.758 26.3535 144.183 24.6328 141.678 24.6328C139.131 24.6328 137.488 26.4746 137.488 29.3145C137.488 32.1455 139.122 33.9102 141.756 33.9102ZM143.899 28.4365L139.372 28.4365C139.371 27.8253 139.613 27.2387 140.046 26.8072C140.479 26.3757 141.067 26.135 141.678 26.1387C142.285 26.1256 142.869 26.3662 143.29 26.8024C143.712 27.2386 143.932 27.8309 143.899 28.4365Z" fill="white"/>
    <path fill-rule="evenodd" clip-rule="evenodd" d="M76.2019 12.8505C75.6581 12.2762 74.8853 11.976 74.0964 12.0327H71.9411V17.9995H74.0964C75.8737 17.9995 76.904 16.9037 76.904 14.9975C77.0035 14.2128 76.7458 13.4249 76.2019 12.8505ZM73.9928 17.1557H72.8678V12.8759H73.9928C74.5537 12.8447 75.0991 13.0659 75.4798 13.4788C75.8606 13.8917 76.037 14.4532 75.9606 15.0097C76.043 15.5685 75.8691 16.1346 75.4874 16.5509C75.1057 16.9672 74.5567 17.1894 73.9928 17.1557Z" fill="white"/>
    <path fill-rule="evenodd" clip-rule="evenodd" d="M78.9496 13.7303C78.2607 14.1578 77.8736 14.9389 77.9509 15.746C77.8722 16.554 78.2588 17.3367 78.9484 17.7651C79.6379 18.1935 80.5109 18.1935 81.2004 17.7651C81.8899 17.3367 82.2766 16.554 82.1979 15.746C82.2751 14.9389 81.8881 14.1578 81.1992 13.7303C80.5103 13.3028 79.6385 13.3028 78.9496 13.7303ZM80.0759 14.1992C80.8454 14.1992 81.2839 14.77 81.2839 15.746H81.2839C81.2839 16.726 80.8454 17.2963 80.0759 17.2963C79.3034 17.2963 78.8689 16.7299 78.8689 15.7461C78.8689 14.77 79.3034 14.1992 80.0759 14.1992Z" fill="white"/>
    <path fill-rule="evenodd" clip-rule="evenodd" d="M87.8434 17.9995H86.9216L85.9909 14.6831H85.9206L84.9938 17.9995H84.0807L82.8395 13.4966H83.7409L84.5475 16.9326H84.614L85.5397 13.4966H86.3923L87.3181 16.9326H87.3884L88.1911 13.4966H89.0798L87.8434 17.9995Z" fill="white"/>
    <path fill-rule="evenodd" clip-rule="evenodd" d="M90.1237 13.4967H90.9792V14.212H91.0456C91.2765 13.6853 91.8161 13.3631 92.3893 13.4097C92.8331 13.3764 93.2681 13.5466 93.5713 13.8724C93.8745 14.1982 94.0131 14.6443 93.9479 15.0845V17.9995H93.0593V15.3077C93.0593 14.5841 92.7448 14.2242 92.0876 14.2242C91.7865 14.2102 91.4944 14.3283 91.2877 14.5476C91.0811 14.767 90.9805 15.0656 91.0124 15.3653V17.9996H90.1237L90.1237 13.4967Z" fill="white"/>
    <path fill-rule="evenodd" clip-rule="evenodd" d="M95.3639 11.7388H96.2526V17.9995H95.3639V11.7388Z" fill="white"/>
    <path fill-rule="evenodd" clip-rule="evenodd" d="M98.4869 13.7303C97.7979 14.1578 97.4108 14.939 97.488 15.7461C97.4094 16.5541 97.7961 17.3367 98.4857 17.7652C99.1753 18.1936 100.048 18.1936 100.738 17.7652C101.427 17.3367 101.814 16.5541 101.736 15.7461C101.813 14.939 101.426 14.1578 100.737 13.7303C100.048 13.3028 99.1759 13.3028 98.4869 13.7303ZM99.613 14.1993C100.382 14.1993 100.821 14.7701 100.821 15.7461H100.821C100.821 16.7261 100.382 17.2964 99.613 17.2964C98.8405 17.2964 98.406 16.73 98.406 15.7461C98.406 14.7701 98.8405 14.1993 99.613 14.1993Z" fill="white"/>
    <path fill-rule="evenodd" clip-rule="evenodd" d="M104.346 15.3818C103.275 15.4482 102.671 15.9155 102.671 16.7261C102.673 17.1104 102.837 17.4761 103.123 17.7329C103.409 17.9897 103.79 18.1135 104.172 18.0737C104.717 18.0989 105.234 17.8288 105.525 17.3667H105.595V17.9995H106.45V14.9228C106.45 13.9717 105.814 13.4097 104.685 13.4097C103.663 13.4097 102.936 13.9058 102.845 14.6792H103.705C103.804 14.3608 104.148 14.1787 104.644 14.1787C105.251 14.1787 105.566 14.4473 105.566 14.9228V15.3115L104.346 15.3818ZM105.566 15.9648V16.3413C105.546 16.6283 105.411 16.8951 105.191 17.0807C104.972 17.2662 104.686 17.3546 104.4 17.3257C103.916 17.3257 103.565 17.0898 103.565 16.6846C103.565 16.2876 103.846 16.0766 104.466 16.0351L105.566 15.9648Z" fill="white"/>
    <path fill-rule="evenodd" clip-rule="evenodd" d="M109.487 13.4219C108.35 13.4219 107.618 14.3233 107.618 15.7461C107.618 17.1724 108.342 18.0738 109.487 18.0737C110.068 18.0951 110.613 17.7925 110.902 17.2881H110.972V17.9995H111.823V11.7388H110.935V14.2119H110.868C110.6 13.7032 110.062 13.3954 109.487 13.4219ZM109.739 17.2759C108.987 17.2759 108.536 16.7012 108.536 15.7461H108.536C108.536 14.7988 108.991 14.2202 109.739 14.2202C110.484 14.2202 110.951 14.8115 110.951 15.75C110.951 16.6929 110.488 17.2759 109.739 17.2759Z" fill="white"/>
    <path fill-rule="evenodd" clip-rule="evenodd" d="M116.499 13.7303C115.81 14.1578 115.423 14.9389 115.5 15.746C115.421 16.554 115.808 17.3367 116.498 17.7651C117.187 18.1935 118.06 18.1935 118.75 17.7651C119.439 17.3367 119.826 16.554 119.747 15.746C119.824 14.9389 119.437 14.1578 118.749 13.7303C118.06 13.3028 117.188 13.3028 116.499 13.7303ZM117.625 14.1992C118.395 14.1992 118.833 14.77 118.833 15.746C118.833 16.726 118.395 17.2963 117.625 17.2963C116.853 17.2963 116.418 16.7299 116.418 15.7461C116.418 14.77 116.853 14.1992 117.625 14.1992Z" fill="white"/>
    <path fill-rule="evenodd" clip-rule="evenodd" d="M120.94 13.4967H121.795V14.212H121.862C122.092 13.6853 122.632 13.3631 123.205 13.4097C123.649 13.3764 124.084 13.5466 124.387 13.8724C124.69 14.1982 124.829 14.6443 124.764 15.0845V17.9995H123.875V15.3077C123.875 14.5841 123.561 14.2242 122.903 14.2242C122.602 14.2102 122.31 14.3283 122.104 14.5476C121.897 14.767 121.796 15.0656 121.828 15.3653V17.9996H120.94V13.4967Z" fill="white"/>
    <path fill-rule="evenodd" clip-rule="evenodd" d="M129.785 12.3755V13.5171H130.761V14.2656H129.785V16.5811C129.785 17.0527 129.98 17.2593 130.422 17.2593C130.535 17.2589 130.648 17.2521 130.761 17.2388V17.979C130.601 18.0075 130.44 18.0227 130.278 18.0244C129.289 18.0244 128.896 17.6767 128.896 16.8086V14.2656H128.181V13.517H128.896V12.3755H129.785Z" fill="white"/>
    <path fill-rule="evenodd" clip-rule="evenodd" d="M131.975 11.7388H132.856V14.2202H132.926C133.168 13.6889 133.717 13.3664 134.299 13.4136C134.74 13.3896 135.169 13.5636 135.469 13.8882C135.769 14.2128 135.909 14.6543 135.85 15.0923V17.9995H134.96V15.3115C134.96 14.5923 134.625 14.228 133.997 14.228C133.688 14.2027 133.384 14.3151 133.165 14.5352C132.946 14.7553 132.836 15.0606 132.863 15.3696V17.9995H131.975L131.975 11.7388Z" fill="white"/>
    <path fill-rule="evenodd" clip-rule="evenodd" d="M139.08 18.0865C139.96 18.1819 140.782 17.6331 141.031 16.7838L140.176 16.7837C139.963 17.1662 139.539 17.3818 139.105 17.3296C138.769 17.3334 138.448 17.1955 138.22 16.9499C137.991 16.7043 137.877 16.3738 137.905 16.0396V15.9898H141.085V15.6797C141.085 14.2657 140.329 13.4097 139.076 13.4097C138.474 13.4046 137.9 13.6609 137.501 14.1123C137.103 14.5636 136.92 15.1656 137 15.7623C136.918 16.3573 137.102 16.9583 137.502 17.4059C137.903 17.8535 138.48 18.1023 139.08 18.0865ZM140.18 15.3326H137.905C137.901 15.0221 138.023 14.7231 138.242 14.5035C138.462 14.2839 138.761 14.1622 139.071 14.1661C139.378 14.1591 139.673 14.2817 139.884 14.5039C140.095 14.726 140.202 15.027 140.18 15.3326Z" fill="white"/>
</svg>
