<svg width="192" height="49" viewBox="0 0 192 49" fill="none" xmlns="http://www.w3.org/2000/svg">
    <path d="M0 8.26563C0 3.84735 3.58172 0.265625 8 0.265625H184C188.418 0.265625 192 3.84735 192 8.26562V40.2656C192 44.6839 188.418 48.2656 184 48.2656H8C3.58173 48.2656 0 44.6839 0 40.2656V8.26563Z" fill="#292931"/>
    <path d="M42.8112 23.4615C42.8219 22.6268 43.0436 21.8084 43.4557 21.0825C43.8677 20.3565 44.4566 19.7466 45.1677 19.3094C44.716 18.6642 44.12 18.1333 43.4272 17.7587C42.7344 17.3842 41.9638 17.1764 41.1766 17.1517C39.4973 16.9755 37.8694 18.1566 37.0137 18.1566C36.1414 18.1566 34.8239 17.1692 33.4052 17.1984C32.4875 17.2281 31.5931 17.4949 30.8093 17.973C30.0254 18.451 29.3787 19.124 28.9322 19.9263C26.9982 23.2747 28.4408 28.1958 30.2934 30.9024C31.2203 32.2277 32.3036 33.7082 33.7211 33.6557C35.1081 33.5981 35.6262 32.7712 37.3005 32.7712C38.9592 32.7712 39.4453 33.6557 40.8915 33.6223C42.3799 33.5981 43.3176 32.291 44.212 30.9531C44.878 30.0088 45.3904 28.9651 45.7304 27.8606C44.8657 27.4949 44.1278 26.8827 43.6087 26.1004C43.0895 25.3181 42.8122 24.4003 42.8112 23.4615Z" fill="white"/>
    <path d="M40.0796 15.3715C40.8911 14.3973 41.2909 13.1451 41.1941 11.8809C39.9543 12.0111 38.809 12.6036 37.9865 13.5405C37.5844 13.9981 37.2764 14.5306 37.0801 15.1073C36.8839 15.6841 36.8032 16.2939 36.8428 16.9019C37.4629 16.9082 38.0764 16.7738 38.6371 16.5087C39.1978 16.2437 39.691 15.8548 40.0796 15.3715Z" fill="white"/>
    <path d="M64.1912 33.6563V24.5166H64.1307L60.3875 33.5616H58.9588L55.2059 24.5166H55.1463V33.6563H53.3904V21.2383H55.6199L59.6385 31.04H59.7068L63.7176 21.2383H65.9549V33.6563L64.1912 33.6563Z" fill="white"/>
    <path d="M67.4383 31.083C67.4383 29.5 68.6512 28.544 70.8035 28.4151L73.282 28.2773V27.5889C73.282 26.582 72.619 26.0137 71.491 26.0137C71.0733 25.9581 70.6496 26.0569 70.2995 26.2916C69.9495 26.5262 69.697 26.8805 69.5897 27.2881H67.8514C67.9032 25.6523 69.4266 24.4912 71.5428 24.4912C73.703 24.4912 75.1317 25.6699 75.1317 27.4512V33.6563H73.3504V32.167H73.3074C73.0222 32.672 72.6065 33.0911 72.1038 33.3804C71.6011 33.6697 71.0299 33.8186 70.45 33.8116C70.0691 33.8488 69.6847 33.806 69.3213 33.6859C68.9579 33.5658 68.6237 33.371 68.3401 33.114C68.0565 32.8571 67.8298 32.5437 67.6744 32.1939C67.5191 31.8441 67.4387 31.4657 67.4383 31.083ZM73.282 30.2657V29.5684L71.0526 29.7061C69.9422 29.7754 69.3143 30.2569 69.3143 31.0313C69.3143 31.8233 69.9686 32.3399 70.9666 32.3399C71.2557 32.3595 71.5457 32.321 71.8197 32.2268C72.0936 32.1325 72.346 31.9844 72.5617 31.7911C72.7775 31.5977 72.9524 31.3632 73.0762 31.1012C73.1999 30.8392 73.2699 30.5551 73.282 30.2657Z" fill="white"/>
    <path d="M82.9354 27.7176C82.8541 27.2224 82.5896 26.7758 82.1943 26.4666C81.7989 26.1574 81.3018 26.0082 80.8016 26.0487C79.3729 26.0487 78.4266 27.245 78.4266 29.1297C78.4266 31.0574 79.3817 32.2186 80.8182 32.2186C81.3118 32.268 81.8056 32.1273 82.199 31.8252C82.5924 31.523 82.8558 31.0822 82.9354 30.5926H84.7254C84.614 31.5288 84.1416 32.3846 83.4087 32.9777C82.6759 33.5709 81.7404 33.8546 80.8016 33.7684C78.2196 33.7684 76.533 32.0037 76.533 29.1297C76.533 26.3153 78.2195 24.4911 80.784 24.4911C81.7298 24.4109 82.6695 24.7033 83.4027 25.3061C84.1359 25.9088 84.6046 26.7742 84.7088 27.7176H82.9354Z" fill="white"/>
    <path d="M96.8016 30.2998H92.0682L90.9315 33.6563H88.9266L93.41 21.2383H95.493L99.9764 33.6563H97.9373L96.8016 30.2998ZM92.5584 28.751H96.3104L94.4608 23.3037H94.409L92.5584 28.751Z" fill="white"/>
    <path d="M109.659 29.1296C109.659 31.9431 108.153 33.7507 105.881 33.7507C105.305 33.7808 104.733 33.6482 104.229 33.3681C103.725 33.0879 103.31 32.6716 103.032 32.1667H102.989V36.6511H101.131V24.6023H102.93V26.1081H102.964C103.255 25.6057 103.676 25.1915 104.184 24.9096C104.692 24.6278 105.266 24.4888 105.846 24.5075C108.144 24.5075 109.659 26.3239 109.659 29.1296ZM107.749 29.1296C107.749 27.2966 106.802 26.0915 105.356 26.0915C103.936 26.0915 102.981 27.322 102.981 29.1296C102.981 30.9538 103.936 32.1755 105.356 32.1755C106.802 32.1755 107.749 30.9792 107.749 29.1296Z" fill="white"/>
    <path d="M119.624 29.1296C119.624 31.9431 118.118 33.7507 115.846 33.7507C115.27 33.7808 114.697 33.6482 114.194 33.3681C113.69 33.0879 113.275 32.6716 112.997 32.1667H112.954V36.6511H111.095V24.6023H112.894V26.1081H112.929C113.219 25.6057 113.641 25.1915 114.149 24.9096C114.656 24.6278 115.231 24.4888 115.811 24.5075C118.109 24.5075 119.624 26.3239 119.624 29.1296ZM117.714 29.1296C117.714 27.2966 116.766 26.0915 115.321 26.0915C113.901 26.0915 112.946 27.322 112.946 29.1296C112.946 30.9538 113.901 32.1755 115.321 32.1755C116.766 32.1755 117.714 30.9792 117.714 29.1296Z" fill="white"/>
    <path d="M126.21 30.1963C126.347 31.4278 127.544 32.2363 129.179 32.2363C130.745 32.2363 131.872 31.4278 131.872 30.3174C131.872 29.3535 131.192 28.7764 129.583 28.3809L127.973 27.9932C125.693 27.4424 124.635 26.376 124.635 24.6455C124.635 22.5029 126.502 21.0312 129.153 21.0312C131.777 21.0312 133.576 22.5029 133.637 24.6455H131.761C131.648 23.4062 130.624 22.6582 129.127 22.6582C127.63 22.6582 126.605 23.415 126.605 24.5166C126.605 25.3945 127.26 25.9111 128.86 26.3066L130.228 26.6425C132.776 27.2451 133.835 28.2686 133.835 30.0849C133.835 32.4082 131.984 33.8632 129.041 33.8632C126.287 33.8632 124.428 32.4423 124.307 30.1962L126.21 30.1963Z" fill="white"/>
    <path d="M137.846 22.46V24.6025H139.567V26.0742H137.846V31.0654C137.846 31.8408 138.19 32.2022 138.947 32.2022C139.151 32.1986 139.356 32.1842 139.558 32.1591V33.622C139.218 33.6856 138.872 33.7144 138.526 33.708C136.693 33.708 135.978 33.0195 135.978 31.2636V26.0742H134.662V24.6025H135.978V22.46H137.846Z" fill="white"/>
    <path d="M140.563 29.1299C140.563 26.2813 142.241 24.4912 144.857 24.4912C147.482 24.4912 149.152 26.2812 149.152 29.1299C149.152 31.9863 147.491 33.7686 144.857 33.7686C142.224 33.7686 140.563 31.9863 140.563 29.1299ZM147.259 29.1299C147.259 27.1758 146.363 26.0225 144.857 26.0225C143.351 26.0225 142.456 27.1846 142.456 29.1299C142.456 31.0918 143.351 32.2363 144.857 32.2363C146.363 32.2363 147.259 31.0918 147.259 29.1299Z" fill="white"/>
    <path d="M150.685 24.6022H152.458V26.1432H152.501C152.621 25.6619 152.903 25.2366 153.299 24.9387C153.696 24.6408 154.183 24.4885 154.679 24.5074C154.893 24.5067 155.106 24.5299 155.315 24.5768V26.3151C155.045 26.2324 154.763 26.1945 154.48 26.2028C154.21 26.1918 153.941 26.2394 153.691 26.3423C153.441 26.4452 153.217 26.6009 153.033 26.7988C152.849 26.9967 152.71 27.2321 152.625 27.4887C152.541 27.7454 152.513 28.0173 152.544 28.2858V33.6559H150.685V24.6022Z" fill="white"/>
    <path d="M163.883 30.9971C163.633 32.6406 162.032 33.7686 159.984 33.7686C157.35 33.7686 155.716 32.0039 155.716 29.1728C155.716 26.333 157.359 24.4912 159.906 24.4912C162.411 24.4912 163.986 26.2119 163.986 28.957V29.5938H157.592V29.7061C157.562 30.0393 157.604 30.3749 157.714 30.6908C157.824 31.0066 158 31.2954 158.231 31.5379C158.461 31.7805 158.74 31.9712 159.05 32.0975C159.36 32.2238 159.693 32.2828 160.027 32.2705C160.466 32.3116 160.907 32.2099 161.284 31.9805C161.66 31.7511 161.953 31.4061 162.118 30.9971L163.883 30.9971ZM157.6 28.2949H162.127C162.143 27.9953 162.098 27.6955 161.993 27.4143C161.889 27.1331 161.727 26.8766 161.518 26.6608C161.31 26.445 161.059 26.2747 160.782 26.1605C160.504 26.0463 160.206 25.9906 159.906 25.9971C159.603 25.9953 159.303 26.0534 159.023 26.1682C158.743 26.2829 158.489 26.452 158.274 26.6656C158.06 26.8792 157.89 27.1332 157.774 27.4129C157.659 27.6925 157.6 27.9923 157.6 28.2949Z" fill="white"/>
    <path d="M55.1688 12.1743C55.5584 12.1463 55.9493 12.2052 56.3134 12.3466C56.6776 12.488 57.0057 12.7085 57.2743 12.9921C57.5429 13.2757 57.7452 13.6154 57.8666 13.9867C57.988 14.358 58.0255 14.7516 57.9764 15.1391C57.9764 17.0453 56.9461 18.1411 55.1688 18.1411H53.0135V12.1743H55.1688ZM53.9402 17.2973H55.0652C55.3436 17.3139 55.6223 17.2682 55.8808 17.1636C56.1393 17.059 56.3713 16.8981 56.5598 16.6925C56.7483 16.4869 56.8886 16.2419 56.9704 15.9753C57.0523 15.7087 57.0737 15.4272 57.033 15.1513C57.0707 14.8764 57.0472 14.5966 56.9641 14.332C56.8809 14.0673 56.7403 13.8243 56.5522 13.6204C56.3642 13.4165 56.1333 13.2566 55.8763 13.1524C55.6192 13.0482 55.3422 13.0021 55.0652 13.0175H53.9402V17.2973Z" fill="white"/>
    <path d="M59.0232 15.8876C58.9949 15.5917 59.0288 15.2932 59.1226 15.0111C59.2165 14.729 59.3682 14.4697 59.5682 14.2497C59.7681 14.0297 60.0118 13.854 60.2837 13.7337C60.5555 13.6134 60.8495 13.5513 61.1468 13.5513C61.444 13.5513 61.738 13.6134 62.0099 13.7337C62.2817 13.854 62.5254 14.0297 62.7254 14.2497C62.9253 14.4697 63.0771 14.729 63.1709 15.0111C63.2648 15.2932 63.2986 15.5917 63.2703 15.8876C63.2991 16.1839 63.2657 16.4829 63.1721 16.7654C63.0785 17.0479 62.9268 17.3077 62.7269 17.5281C62.5269 17.7485 62.283 17.9247 62.0108 18.0452C61.7387 18.1658 61.4444 18.228 61.1468 18.228C60.8491 18.228 60.5548 18.1658 60.2827 18.0452C60.0106 17.9247 59.7667 17.7485 59.5667 17.5281C59.3667 17.3077 59.215 17.0479 59.1214 16.7654C59.0278 16.4829 58.9944 16.1839 59.0232 15.8876ZM62.3562 15.8876C62.3562 14.9116 61.9177 14.3408 61.1482 14.3408C60.3758 14.3408 59.9412 14.9116 59.9412 15.8877C59.9412 16.8715 60.3758 17.4379 61.1482 17.4379C61.9178 17.4379 62.3562 16.8676 62.3562 15.8876Z" fill="white"/>
    <path d="M68.9158 18.1411H67.994L67.0633 14.8247H66.993L66.0662 18.1411H65.1531L63.9119 13.6382H64.8133L65.6199 17.0742H65.6863L66.6121 13.6382H67.4647L68.3904 17.0742H68.4608L69.2635 13.6382H70.1522L68.9158 18.1411Z" fill="white"/>
    <path d="M71.1961 13.6382H72.0516V14.3536H72.118C72.2306 14.0966 72.4206 13.8813 72.6615 13.7375C72.9024 13.5937 73.1821 13.5286 73.4617 13.5513C73.6808 13.5348 73.9008 13.5679 74.1054 13.648C74.31 13.7281 74.494 13.8532 74.6437 14.014C74.7933 14.1749 74.9049 14.3673 74.9701 14.5771C75.0353 14.787 75.0525 15.0088 75.0203 15.2261V18.1411H74.1317V15.4493C74.1317 14.7256 73.8172 14.3658 73.16 14.3658C73.0112 14.3588 72.8627 14.3842 72.7247 14.44C72.5866 14.4958 72.4623 14.5808 72.3601 14.6892C72.258 14.7976 72.1805 14.9268 72.133 15.0679C72.0855 15.2091 72.069 15.3588 72.0848 15.5069V18.1412H71.1961L71.1961 13.6382Z" fill="white"/>
    <path d="M76.4363 11.8804H77.325V18.1411H76.4363V11.8804Z" fill="white"/>
    <path d="M78.5604 15.8876C78.5321 15.5917 78.5659 15.2932 78.6598 15.0111C78.7536 14.729 78.9054 14.4697 79.1053 14.2497C79.3052 14.0297 79.5489 13.854 79.8208 13.7337C80.0926 13.6134 80.3866 13.5513 80.6839 13.5513C80.9812 13.5513 81.2752 13.6134 81.547 13.7337C81.8189 13.854 82.0626 14.0297 82.2625 14.2497C82.4625 14.4697 82.6142 14.729 82.7081 15.0111C82.8019 15.2932 82.8357 15.5917 82.8074 15.8876C82.8363 16.1839 82.8028 16.4829 82.7092 16.7654C82.6157 17.0479 82.464 17.3077 82.264 17.5281C82.064 17.7485 81.8201 17.9247 81.548 18.0452C81.2759 18.1658 80.9815 18.228 80.6839 18.228C80.3863 18.228 80.0919 18.1658 79.8198 18.0452C79.5477 17.9247 79.3038 17.7485 79.1038 17.5281C78.9038 17.3077 78.7522 17.0479 78.6586 16.7654C78.565 16.4829 78.5315 16.1839 78.5604 15.8876ZM81.8934 15.8876C81.8934 14.9116 81.4549 14.3408 80.6854 14.3408C79.9129 14.3408 79.4784 14.9116 79.4784 15.8877C79.4784 16.8715 79.9129 17.4379 80.6854 17.4379C81.4549 17.4379 81.8934 16.8676 81.8934 15.8876Z" fill="white"/>
    <path d="M83.743 16.8677C83.743 16.0571 84.3465 15.5898 85.4178 15.5234L86.6375 15.4531V15.0645C86.6375 14.5889 86.3231 14.3203 85.7156 14.3203C85.2195 14.3203 84.8758 14.5024 84.7772 14.8208H83.9168C84.0076 14.0474 84.7352 13.5513 85.7566 13.5513C86.8856 13.5513 87.5223 14.1133 87.5223 15.0645V18.1411H86.6668V17.5083H86.5965C86.4538 17.7353 86.2534 17.9203 86.0158 18.0446C85.7781 18.1688 85.5118 18.2277 85.244 18.2153C85.0549 18.235 84.8639 18.2148 84.6831 18.1561C84.5023 18.0974 84.3359 18.0015 84.1945 17.8745C84.0531 17.7475 83.9398 17.5923 83.8621 17.4189C83.7843 17.2455 83.7437 17.0577 83.743 16.8677ZM86.6375 16.4829V16.1064L85.5379 16.1768C84.9178 16.2183 84.6365 16.4292 84.6365 16.8262C84.6365 17.2314 84.9881 17.4673 85.4715 17.4673C85.6132 17.4816 85.7563 17.4673 85.8923 17.4252C86.0283 17.3831 86.1544 17.3141 86.2632 17.2223C86.372 17.1304 86.4612 17.0176 86.5255 16.8906C86.5898 16.7636 86.6279 16.6249 86.6375 16.4829Z" fill="white"/>
    <path d="M88.6902 15.8877C88.6902 14.4649 89.4217 13.5635 90.5594 13.5635C90.8408 13.5505 91.1201 13.6179 91.3646 13.7578C91.6091 13.8977 91.8088 14.1043 91.9402 14.3535H92.0067V11.8804H92.8953V18.1411H92.0438V17.4297H91.9735C91.8319 17.6772 91.6252 17.8812 91.376 18.0197C91.1267 18.1582 90.8443 18.2258 90.5594 18.2153C89.4139 18.2154 88.6902 17.314 88.6902 15.8877ZM89.6082 15.8877C89.6082 16.8428 90.0584 17.4175 90.8114 17.4175C91.5604 17.4175 92.0233 16.8345 92.0233 15.8916C92.0233 14.9531 91.5555 14.3618 90.8114 14.3618C90.0633 14.3618 89.6082 14.9404 89.6082 15.8877Z" fill="white"/>
    <path d="M96.5721 15.8877C96.5438 15.5918 96.5777 15.2932 96.6715 15.0111C96.7654 14.729 96.9172 14.4697 97.1172 14.2497C97.3171 14.0297 97.5608 13.854 97.8327 13.7337C98.1046 13.6134 98.3986 13.5513 98.6959 13.5513C98.9932 13.5513 99.2872 13.6134 99.559 13.7337C99.8309 13.854 100.075 14.0297 100.275 14.2497C100.475 14.4697 100.626 14.729 100.72 15.0111C100.814 15.2932 100.848 15.5918 100.82 15.8877C100.848 16.184 100.815 16.483 100.721 16.7655C100.628 17.048 100.476 17.3078 100.276 17.5282C100.076 17.7486 99.8321 17.9248 99.56 18.0453C99.2878 18.1658 98.9935 18.2281 98.6959 18.2281C98.3982 18.2281 98.1039 18.1658 97.8318 18.0453C97.5596 17.9248 97.3157 17.7486 97.1157 17.5282C96.9157 17.3078 96.764 17.048 96.6704 16.7655C96.5768 16.483 96.5433 16.184 96.5721 15.8877ZM99.9051 15.8877C99.9051 14.9117 99.4666 14.3409 98.6971 14.3409C97.9246 14.3409 97.4901 14.9117 97.4901 15.8877C97.4901 16.8716 97.9247 17.438 98.6971 17.438C99.4666 17.438 99.9051 16.8677 99.9051 15.8877Z" fill="white"/>
    <path d="M102.012 13.6382H102.867V14.3536H102.934C103.047 14.0966 103.237 13.8813 103.477 13.7375C103.718 13.5937 103.998 13.5286 104.278 13.5513C104.497 13.5348 104.717 13.5679 104.921 13.648C105.126 13.7281 105.31 13.8532 105.46 14.014C105.609 14.1749 105.721 14.3673 105.786 14.5771C105.851 14.787 105.868 15.0088 105.836 15.2261V18.1411H104.948V15.4493C104.948 14.7256 104.633 14.3658 103.976 14.3658C103.827 14.3588 103.679 14.3842 103.541 14.44C103.403 14.4958 103.278 14.5808 103.176 14.6892C103.074 14.7976 102.996 14.9268 102.949 15.0679C102.901 15.2091 102.885 15.3588 102.901 15.5069V18.1412H102.012V13.6382Z" fill="white"/>
    <path d="M110.858 12.5171V13.6587H111.833V14.4072H110.858V16.7227C110.858 17.1943 111.052 17.4009 111.494 17.4009C111.608 17.4005 111.721 17.3937 111.833 17.3804V18.1206C111.674 18.1492 111.512 18.1643 111.35 18.166C110.362 18.166 109.968 17.8183 109.968 16.9502V14.4072H109.253V13.6586H109.968V12.5171H110.858Z" fill="white"/>
    <path d="M113.047 11.8804H113.928V14.3618H113.998C114.116 14.1025 114.312 13.8859 114.557 13.7416C114.803 13.5972 115.087 13.5321 115.371 13.5552C115.589 13.5433 115.807 13.5797 116.009 13.6618C116.212 13.7438 116.393 13.8695 116.542 14.0298C116.69 14.1901 116.801 14.3812 116.866 14.5893C116.932 14.7975 116.951 15.0176 116.922 15.2339V18.1411H116.033V15.4531C116.033 14.7339 115.698 14.3696 115.07 14.3696C114.917 14.3571 114.763 14.3781 114.62 14.4311C114.476 14.4842 114.345 14.568 114.237 14.6768C114.129 14.7855 114.046 14.9165 113.994 15.0607C113.942 15.2048 113.922 15.3586 113.936 15.5112V18.1411H113.047L113.047 11.8804Z" fill="white"/>
    <path d="M122.104 16.9254C121.983 17.3369 121.721 17.6929 121.365 17.931C121.008 18.1692 120.579 18.2743 120.153 18.2281C119.856 18.2359 119.561 18.1791 119.289 18.0616C119.016 17.944 118.773 17.7686 118.575 17.5475C118.377 17.3264 118.229 17.0648 118.143 16.781C118.056 16.4972 118.032 16.1979 118.073 15.9039C118.033 15.609 118.057 15.3091 118.144 15.0244C118.23 14.7397 118.377 14.477 118.574 14.2539C118.771 14.0308 119.013 13.8526 119.285 13.7314C119.557 13.6102 119.851 13.5488 120.149 13.5513C121.402 13.5513 122.158 14.4073 122.158 15.8213V16.1314H118.978V16.1812C118.964 16.3465 118.985 16.5128 119.039 16.6696C119.093 16.8263 119.179 16.97 119.292 17.0915C119.405 17.2129 119.542 17.3095 119.694 17.3748C119.847 17.4402 120.011 17.4731 120.177 17.4712C120.39 17.4968 120.605 17.4585 120.796 17.3613C120.987 17.2641 121.144 17.1123 121.248 16.9253L122.104 16.9254ZM118.978 15.4742H121.252C121.263 15.3231 121.243 15.1713 121.192 15.0285C121.141 14.8858 121.061 14.7554 120.956 14.6455C120.852 14.5356 120.726 14.4488 120.586 14.3907C120.446 14.3325 120.295 14.3042 120.144 14.3077C119.99 14.3058 119.838 14.3346 119.695 14.3926C119.553 14.4505 119.424 14.5364 119.315 14.6451C119.206 14.7538 119.12 14.8832 119.063 15.0256C119.005 15.168 118.976 15.3205 118.978 15.4742Z" fill="white"/>
</svg>
