<svg width="192" height="49" viewBox="0 0 192 49" fill="none" xmlns="http://www.w3.org/2000/svg">
    <path d="M0 8.26563C0 3.84735 3.58172 0.265625 8 0.265625H184C188.418 0.265625 192 3.84735 192 8.26562V40.2656C192 44.6839 188.418 48.2656 184 48.2656H8C3.58173 48.2656 0 44.6839 0 40.2656V8.26563Z" fill="#292931"/>
    <path fill-rule="evenodd" clip-rule="evenodd" d="M38.5529 11.8044C38.2341 12.1984 38.0768 12.6988 38.1129 13.2044V35.3244C38.0788 35.8348 38.2477 36.3379 38.5829 36.7244L38.6529 36.8044L51.0129 24.4144V24.1144L38.6229 11.7344L38.5529 11.8044Z" fill="url(#paint0_linear_5620_3074)"/>
    <path fill-rule="evenodd" clip-rule="evenodd" d="M55.1131 28.5444L51.0131 24.4144V24.1144L55.1131 19.9844L55.2031 20.0444L60.1131 22.8244C61.5131 23.6144 61.5131 24.9144 60.1131 25.7144L55.2231 28.4944L55.1131 28.5444Z" fill="url(#paint1_linear_5620_3074)"/>
    <path fill-rule="evenodd" clip-rule="evenodd" d="M55.2331 28.4942L51.0131 24.2642L38.5531 36.7242C39.1361 37.2431 40.0063 37.2726 40.6231 36.7942L55.2331 28.4942Z" fill="url(#paint2_linear_5620_3074)"/>
    <path fill-rule="evenodd" clip-rule="evenodd" d="M55.2331 20.0441L40.6231 11.7441C40.0101 11.2589 39.137 11.2842 38.5531 11.8041L51.0131 24.2641L55.2331 20.0441Z" fill="url(#paint3_linear_5620_3074)"/>
    <path opacity="0.2" fill-rule="evenodd" clip-rule="evenodd" d="M55.1131 28.394L40.6231 36.644C40.0313 37.0907 39.2149 37.0907 38.6231 36.644L38.5531 36.714L38.6231 36.794C39.2149 37.2407 40.0313 37.2407 40.6231 36.794L55.2331 28.494L55.1131 28.394Z" fill="#292931"/>
    <path opacity="0.12" fill-rule="evenodd" clip-rule="evenodd" d="M38.5531 36.5838C38.2319 36.1872 38.0745 35.6828 38.1131 35.1738V35.3238C38.0791 35.8342 38.248 36.3374 38.5831 36.7238L38.6531 36.6538L38.5531 36.5838Z" fill="#292931"/>
    <path opacity="0.12" fill-rule="evenodd" clip-rule="evenodd" d="M60.1127 25.5642L55.1127 28.3942L55.2027 28.4942L60.1127 25.7042C60.7031 25.4545 61.1097 24.9021 61.1727 24.2642C61.0459 24.8413 60.6524 25.3238 60.1127 25.5642Z" fill="#292931"/>
    <path opacity="0.25" fill-rule="evenodd" clip-rule="evenodd" d="M40.6227 11.8841L60.1127 22.9641C60.6524 23.2045 61.0459 23.687 61.1727 24.2641C61.1097 23.6262 60.7031 23.0738 60.1127 22.8241L40.6227 11.7441C39.2327 10.9441 38.1127 11.6041 38.1127 13.2041V13.3541C38.1127 11.7541 39.2327 11.0941 40.6227 11.8841Z" fill="white"/>
    <path fill-rule="evenodd" clip-rule="evenodd" d="M75.2437 14.0028C75.2768 14.7438 75.0059 15.4662 74.4937 16.0028C73.9191 16.596 73.1188 16.9161 72.2937 16.8828C71.4642 16.9012 70.6642 16.5754 70.0837 15.9828C69.4847 15.4015 69.155 14.5971 69.1737 13.7628C69.1522 12.9249 69.4821 12.1163 70.0837 11.5328C70.9946 10.6427 72.3508 10.3864 73.5237 10.8828C73.8843 11.031 74.2059 11.2602 74.4637 11.5528L73.9337 12.0828C73.531 11.5977 72.9232 11.3309 72.2937 11.3628C71.6625 11.3597 71.0573 11.6138 70.6177 12.0667C70.178 12.5195 69.9419 13.132 69.9637 13.7628C69.9503 14.7159 70.5116 15.5836 71.3866 15.962C72.2615 16.3404 73.2782 16.1553 73.9637 15.4928C74.272 15.1588 74.4526 14.7268 74.4737 14.2728H72.2937V13.5528H75.2037C75.226 13.7018 75.2394 13.8521 75.2437 14.0028Z" fill="white" stroke="white" stroke-width="0.5"/>
    <path fill-rule="evenodd" clip-rule="evenodd" d="M79.8236 11.5027H77.1236V13.4027H79.5836V14.1227H77.1236V16.0227H79.8236V16.7627H76.3436V10.7627H79.8236V11.5027Z" fill="white" stroke="white" stroke-width="0.5"/>
    <path fill-rule="evenodd" clip-rule="evenodd" d="M83.1041 16.7627H82.3341V11.5027H80.6541V10.7627H84.8241V11.5027H83.1041V16.7627Z" fill="white" stroke="white" stroke-width="0.5"/>
    <path fill-rule="evenodd" clip-rule="evenodd" d="M87.7642 16.7627V10.7627H88.5342V16.7627H87.7642Z" fill="white" stroke="white" stroke-width="0.5"/>
    <path fill-rule="evenodd" clip-rule="evenodd" d="M91.9537 16.7627H91.1837V11.5027H89.5037V10.7627H93.6237V11.5027H91.9537V16.7627Z" fill="white" stroke="white" stroke-width="0.5"/>
    <path fill-rule="evenodd" clip-rule="evenodd" d="M99.2337 16.8941C100.059 16.8941 100.85 16.5661 101.434 15.9824C102.022 15.396 102.34 14.5922 102.314 13.7624C102.332 12.9339 102.015 12.1333 101.434 11.5424C100.857 10.9486 100.061 10.6193 99.2337 10.6324C98.4046 10.6107 97.6052 10.9413 97.0337 11.5424C96.4458 12.1287 96.1272 12.9325 96.1537 13.7624C96.1272 14.5922 96.4458 15.396 97.0337 15.9824C97.617 16.5661 98.4084 16.8941 99.2337 16.8941ZM99.2337 16.1639C98.6211 16.1639 98.034 15.9184 97.6037 15.4824C97.1561 15.0238 96.9142 14.4029 96.9337 13.7624C96.9036 13.1276 97.1307 12.5075 97.5637 12.0424C97.994 11.6063 98.5811 11.3608 99.1937 11.3608C99.8063 11.3608 100.393 11.6063 100.824 12.0424C101.286 12.4942 101.543 13.116 101.534 13.7624C101.553 14.4029 101.311 15.0238 100.864 15.4824C100.433 15.9184 99.8463 16.1639 99.2337 16.1639Z" fill="white"/>
    <path d="M101.434 15.9824L101.257 15.8053L101.257 15.8056L101.434 15.9824ZM102.314 13.7624L102.063 13.7568L102.064 13.7703L102.314 13.7624ZM101.434 11.5424L101.254 11.7165L101.255 11.7176L101.434 11.5424ZM99.2337 10.6324L99.2271 10.8825L99.2376 10.8823L99.2337 10.6324ZM97.0337 11.5424L97.2103 11.7194L97.2149 11.7146L97.0337 11.5424ZM96.1537 13.7624L96.4036 13.7703L96.4038 13.7624L96.4036 13.7544L96.1537 13.7624ZM97.0337 15.9824L97.2105 15.8056L97.2102 15.8053L97.0337 15.9824ZM97.6037 15.4824L97.4248 15.657L97.4257 15.658L97.6037 15.4824ZM96.9337 13.7624L97.1836 13.7699L97.1839 13.7602L97.1834 13.7505L96.9337 13.7624ZM97.5637 12.0424L97.3857 11.8667L97.3807 11.872L97.5637 12.0424ZM100.824 12.0424L100.646 12.218L100.649 12.2211L100.824 12.0424ZM101.534 13.7624L101.283 13.7589L101.284 13.7699L101.534 13.7624ZM100.864 15.4824L101.042 15.658L101.043 15.657L100.864 15.4824ZM101.257 15.8056C100.72 16.3425 99.9926 16.6441 99.2337 16.6441V17.1441C100.125 17.1441 100.98 16.7898 101.611 16.1591L101.257 15.8056ZM102.064 13.7703C102.088 14.5311 101.796 15.2679 101.257 15.8053L101.61 16.1594C102.247 15.5242 102.592 14.6534 102.564 13.7544L102.064 13.7703ZM101.255 11.7176C101.789 12.2604 102.081 12.9959 102.064 13.7568L102.564 13.7679C102.583 12.872 102.24 12.0061 101.612 11.3671L101.255 11.7176ZM99.2376 10.8823C99.9962 10.8703 100.726 11.1722 101.254 11.7165L101.613 11.3682C100.989 10.7249 100.126 10.3682 99.2297 10.3824L99.2376 10.8823ZM97.2149 11.7146C97.7376 11.1649 98.4688 10.8624 99.2272 10.8823L99.2402 10.3824C98.3404 10.3589 97.4728 10.7178 96.8525 11.3701L97.2149 11.7146ZM96.4036 13.7544C96.3793 12.9936 96.6713 12.2568 97.2102 11.7194L96.8572 11.3653C96.2203 12.0005 95.8751 12.8713 95.9038 13.7703L96.4036 13.7544ZM97.2102 15.8053C96.6713 15.2679 96.3793 14.5311 96.4036 13.7703L95.9038 13.7544C95.8751 14.6534 96.2203 15.5242 96.8572 16.1594L97.2102 15.8053ZM99.2337 16.6441C98.4748 16.6441 97.747 16.3425 97.2105 15.8056L96.8568 16.1591C97.487 16.7898 98.3421 17.1441 99.2337 17.1441V16.6441ZM97.4257 15.658C97.903 16.1416 98.5542 16.4139 99.2337 16.4139V15.9139C98.688 15.9139 98.165 15.6952 97.7816 15.3068L97.4257 15.658ZM96.6838 13.7548C96.6623 14.4631 96.9298 15.1498 97.4248 15.657L97.7826 15.3077C97.3824 14.8977 97.1662 14.3426 97.1836 13.7699L96.6838 13.7548ZM97.3807 11.872C96.9018 12.3864 96.6506 13.0722 96.684 13.7742L97.1834 13.7505C97.1565 13.183 97.3595 12.6286 97.7467 12.2127L97.3807 11.872ZM99.1937 11.1108C98.5142 11.1108 97.863 11.3831 97.3857 11.8668L97.7416 12.218C98.125 11.8295 98.648 11.6108 99.1937 11.6108V11.1108ZM101.002 11.8668C100.524 11.3831 99.8732 11.1108 99.1937 11.1108V11.6108C99.7394 11.6108 100.262 11.8295 100.646 12.218L101.002 11.8668ZM101.784 13.7658C101.793 13.0509 101.51 12.3634 100.998 11.8636L100.649 12.2211C101.062 12.6251 101.292 13.181 101.284 13.7589L101.784 13.7658ZM101.043 15.657C101.538 15.1498 101.805 14.4631 101.784 13.7548L101.284 13.7699C101.301 14.3426 101.085 14.8977 100.685 15.3077L101.043 15.657ZM99.2337 16.4139C99.9132 16.4139 100.564 16.1416 101.042 15.658L100.686 15.3068C100.302 15.6952 99.7794 15.9139 99.2337 15.9139V16.4139Z" fill="white"/>
    <path fill-rule="evenodd" clip-rule="evenodd" d="M103.404 16.7627V10.7627H104.334L107.254 15.4327V14.2727V10.7627H108.024V16.7627H107.224L104.174 11.8727V13.0227V16.7627H103.404Z" fill="white" stroke="white" stroke-width="0.5"/>
    <path fill-rule="evenodd" clip-rule="evenodd" d="M76.0397 26.9091V28.7091H80.3597C80.292 29.5569 79.9396 30.3569 79.3597 30.9791C78.4834 31.8719 77.2697 32.3516 76.0197 32.2991C73.3688 32.2991 71.2197 30.15 71.2197 27.4991C71.2197 24.8481 73.3688 22.6991 76.0197 22.6991C77.2402 22.6809 78.4186 23.1444 79.2997 23.9891L80.5697 22.7191C79.3657 21.5282 77.733 20.8722 76.0397 20.8991C73.6187 20.8048 71.3401 22.0427 70.1016 24.1251C68.863 26.2075 68.863 28.8006 70.1016 30.883C71.3401 32.9654 73.6187 34.2033 76.0397 34.1091C77.7699 34.1782 79.4473 33.505 80.6497 32.2591C81.6998 31.1055 82.2594 29.5882 82.2097 28.0291C82.2133 27.6538 82.1832 27.279 82.1197 26.9091H76.0397ZM87.1197 25.5991C84.767 25.6046 82.8642 27.5163 82.8697 29.8691C82.8753 32.2218 84.787 34.1246 87.1397 34.119C89.4925 34.1135 91.3952 32.2018 91.3897 29.8491C91.4062 28.7134 90.961 27.6198 90.156 26.8186C89.351 26.0174 88.2553 25.5773 87.1197 25.5991ZM92.1897 29.8691C92.1842 27.5163 94.087 25.6046 96.4397 25.5991C97.5753 25.5773 98.671 26.0174 99.476 26.8186C100.281 27.6198 100.726 28.7134 100.71 29.8491C100.715 32.2018 98.8125 34.1135 96.4597 34.119C94.107 34.1246 92.1953 32.2218 92.1897 29.8691ZM93.9317 30.9675C94.3884 31.9234 95.3829 32.503 96.4397 32.4291C97.103 32.4137 97.732 32.131 98.1839 31.6452C98.6358 31.1595 98.8723 30.5117 98.8397 29.8491C98.8371 28.7897 98.1873 27.8396 97.2009 27.4531C96.2146 27.0667 95.0922 27.3225 94.3707 28.0981C93.6492 28.8737 93.4751 30.0116 93.9317 30.9675ZM84.6117 30.9675C85.0684 31.9234 86.0629 32.503 87.1197 32.4291C87.783 32.4137 88.412 32.131 88.8639 31.6452C89.3158 31.1595 89.5523 30.5117 89.5197 29.8491C89.5171 28.7897 88.8673 27.8396 87.8809 27.4531C86.8946 27.0667 85.7722 27.3225 85.0507 28.0981C84.3292 28.8737 84.1551 30.0116 84.6117 30.9675ZM117.71 25.5991C119.368 25.6601 120.816 26.7383 121.35 28.3091L121.56 28.7491L115.87 31.0991C116.224 31.9132 117.043 32.4257 117.93 32.3891C118.785 32.3974 119.58 31.9522 120.02 31.2191L121.47 32.2191C120.437 33.7838 118.497 34.4819 116.704 33.9342C114.911 33.3866 113.692 31.7239 113.71 29.8491C113.641 28.7456 114.031 27.6627 114.789 26.8576C115.547 26.0525 116.604 25.5969 117.71 25.5991ZM115.55 29.7291C115.509 29.1026 115.722 28.4861 116.142 28.0192C116.562 27.5524 117.152 27.2747 117.78 27.2491C118.436 27.207 119.054 27.5613 119.35 28.1491L115.55 29.7291ZM112.8 33.8491H110.93V21.3491H112.8V33.8491ZM107.87 26.5491H107.8C107.225 25.9238 106.409 25.5774 105.56 25.5991C103.29 25.7091 101.506 27.5815 101.506 29.8541C101.506 32.1266 103.29 33.999 105.56 34.1091C106.418 34.1263 107.239 33.7596 107.8 33.1091H107.87V33.7191C107.87 35.3491 107 36.2191 105.6 36.2191C104.643 36.1981 103.794 35.6017 103.45 34.7091L101.83 35.3791C102.443 36.9191 103.942 37.9213 105.6 37.8991C107.79 37.8991 109.6 36.6091 109.6 33.4691V25.8491H107.87V26.5491ZM103.3 29.8541C103.3 31.2166 104.36 32.3443 105.72 32.4291C106.37 32.4041 106.981 32.1142 107.412 31.6269C107.842 31.1395 108.055 30.4971 108 29.8491C108.049 29.2033 107.834 28.5652 107.405 28.0807C106.975 27.5963 106.367 27.307 105.72 27.2791C104.36 27.3639 103.3 28.4915 103.3 29.8541ZM130.11 21.3491H125.63V33.8491H127.5V29.1091H130.11C131.562 29.2134 132.952 28.4976 133.71 27.254C134.468 26.0105 134.468 24.4476 133.71 23.2041C132.952 21.9606 131.562 21.2447 130.11 21.3491ZM127.5 27.3491H130.11L130.15 27.3691C131.332 27.3691 132.29 26.411 132.29 25.2291C132.29 24.0472 131.332 23.0891 130.15 23.0891H127.5V27.3491ZM141.65 25.5591C140.258 25.4732 138.948 26.2243 138.32 27.4691L139.97 28.1591C140.31 27.545 140.98 27.1885 141.68 27.2491C142.159 27.1931 142.641 27.332 143.017 27.6348C143.393 27.9375 143.632 28.3786 143.68 28.8591V28.9791C143.078 28.663 142.409 28.4982 141.73 28.4991C139.95 28.4991 138.13 29.4991 138.13 31.3191C138.165 32.1006 138.516 32.8344 139.102 33.3527C139.688 33.8709 140.46 34.1294 141.24 34.0691C142.195 34.1219 143.105 33.6556 143.62 32.8491H143.68V33.8491H145.48V29.0391C145.48 26.8491 143.82 25.5791 141.69 25.5791L141.65 25.5591ZM139.96 31.3491C139.96 32.0991 140.81 32.4091 141.42 32.4091L141.46 32.4291C142.59 32.4065 143.53 31.5522 143.66 30.4291C143.141 30.1395 142.554 29.9944 141.96 30.0091C141.02 30.0091 139.96 30.3491 139.96 31.3491ZM152.04 25.8491L149.9 31.2691H149.84L147.62 25.8491H145.62L148.95 33.4291L147.05 37.6391H149.05L154.12 25.8491H152.04ZM137.1 33.8491H135.24V21.3491H137.1V33.8491Z" fill="white"/>
    <defs>
        <linearGradient id="paint0_linear_5620_3074" x1="45.594" y1="-3.32444" x2="25.7603" y2="1.93108" gradientUnits="userSpaceOnUse">
            <stop stop-color="#00A0FF"/>
            <stop offset="0.01" stop-color="#00A1FF"/>
            <stop offset="0.26" stop-color="#00BEFF"/>
            <stop offset="0.51" stop-color="#00D2FF"/>
            <stop offset="0.76" stop-color="#00DFFF"/>
            <stop offset="1" stop-color="#00E3FF"/>
        </linearGradient>
        <linearGradient id="paint1_linear_5620_3074" x1="61.9431" y1="14.0641" x2="37.7531" y2="14.0641" gradientUnits="userSpaceOnUse">
            <stop stop-color="#FFE000"/>
            <stop offset="0.41" stop-color="#FFBD00"/>
            <stop offset="0.78" stop-color="#FFA500"/>
            <stop offset="1" stop-color="#FF9C00"/>
        </linearGradient>
        <linearGradient id="paint2_linear_5620_3074" x1="38.2006" y1="17.7836" x2="22.2391" y2="44.5828" gradientUnits="userSpaceOnUse">
            <stop stop-color="#FF3A44"/>
            <stop offset="1" stop-color="#C31162"/>
        </linearGradient>
        <linearGradient id="paint3_linear_5620_3074" x1="28.828" y1="8.36306" x2="35.9503" y2="20.3309" gradientUnits="userSpaceOnUse">
            <stop stop-color="#32A071"/>
            <stop offset="0.07" stop-color="#2DA771"/>
            <stop offset="0.48" stop-color="#15CF74"/>
            <stop offset="0.8" stop-color="#06E775"/>
            <stop offset="1" stop-color="#00F076"/>
        </linearGradient>
    </defs>
</svg>
