<svg width="192" height="49" viewBox="0 0 192 49" fill="none" xmlns="http://www.w3.org/2000/svg">
    <path d="M0 8.26563C0 3.84735 3.58172 0.265625 8 0.265625H184C188.418 0.265625 192 3.84735 192 8.26562V40.2656C192 44.6839 188.418 48.2656 184 48.2656H8C3.58173 48.2656 0 44.6839 0 40.2656V8.26563Z" fill="#292931"/>
    <path d="M40.9652 12.2656V23.8785H52.595V12.2656H40.9652Z" fill="#D03F42"/>
    <path d="M44.0663 15.3623V23.8784H52.5948V15.3623H44.0663Z" fill="#DA773C"/>
    <path d="M46.3926 17.6851V23.1044H51.8198V17.6851H46.3926Z" fill="#E39735"/>
    <path d="M40.9652 24.6528V36.2657H52.595V24.6528H40.9652Z" fill="#3C68AC"/>
    <path d="M44.0663 24.6528V33.1689H52.5948V24.6528H44.0663Z" fill="#467BC0"/>
    <path d="M46.3926 25.4268V30.8461H51.8198V25.4268H46.3926Z" fill="#84ACDD"/>
    <path d="M51.82 12.2656V23.8785H63.4498V12.2656H51.82V12.2656Z" fill="#7AB951"/>
    <path d="M52.5948 15.3623V23.8784H61.1233V15.3623H52.5948Z" fill="#91BF4E"/>
    <path d="M52.5948 17.6851V23.1044H58.022V17.6851H52.5948Z" fill="#C5D743"/>
    <path d="M51.82 24.6528V36.2657H63.4498V24.6528H51.82V24.6528Z" fill="#ECB842"/>
    <path d="M52.5948 24.6528V33.1689H61.1233V24.6528H52.5948Z" fill="#F3D332"/>
    <path d="M52.5948 25.4268V30.8461H58.022V25.4268H52.5948Z" fill="#F8E67A"/>
    <path fill-rule="evenodd" clip-rule="evenodd" d="M114.558 20.0355C114.919 19.6522 115.367 19.4624 115.907 19.4624V19.4626C116.198 19.4626 116.432 19.4945 116.603 19.5683V20.4776C116.417 20.367 116.201 20.3158 115.964 20.3158C115.295 20.3158 114.963 20.7593 114.963 21.649V22.6207H117.692V21.0818L118.649 20.7579V22.6205H120.156V23.4801H118.649V27.0313C118.649 27.4531 118.715 27.7539 118.851 27.9343C118.987 28.1147 119.214 28.2022 119.529 28.2022C119.77 28.2022 119.981 28.1362 120.156 27.9967V28.8563C119.93 28.9874 119.625 29.0556 119.257 29.0556C118.212 29.0556 117.692 28.4354 117.692 27.2055V23.4803H114.963V28.9188H114.02V23.4803H112.994V22.6207H114.02V21.5991C114.02 20.9391 114.196 20.4188 114.558 20.0355ZM82.089 19.8986C82.2094 19.7736 82.3614 19.7116 82.5324 19.7116H82.5322C82.7023 19.7088 82.8656 19.7767 82.9821 19.8986C83.1043 20.0235 83.1657 20.1834 83.1657 20.372C83.1657 20.5522 83.1045 20.7057 82.9821 20.8329C82.8595 20.96 82.7071 21.0198 82.5324 21.0198C82.3614 21.0198 82.2094 20.9622 82.089 20.8392C81.9684 20.7162 81.9117 20.5606 81.9117 20.372C81.9117 20.1836 81.9684 20.0235 82.089 19.8986ZM127.356 19.9548C126.995 19.9548 126.634 19.9972 126.286 20.0917C125.938 20.186 125.634 20.3289 125.362 20.5215C125.089 20.715 124.864 20.9662 124.703 21.2567C124.536 21.5539 124.45 21.9077 124.45 22.3094C124.45 22.6375 124.508 22.9189 124.614 23.1627C124.719 23.4047 124.867 23.6262 125.051 23.8168C125.238 24.0095 125.464 24.1863 125.716 24.3464C125.98 24.5141 126.25 24.672 126.526 24.8198C126.785 24.9587 127.043 25.0999 127.299 25.2434C127.538 25.3766 127.745 25.5151 127.92 25.6608C128.095 25.8064 128.232 25.9704 128.331 26.1468C128.43 26.3231 128.483 26.5256 128.483 26.7636C128.483 27.2063 128.331 27.5492 128.034 27.7852C127.736 28.0208 127.281 28.134 126.678 28.134C126.487 28.1344 126.296 28.1178 126.108 28.0842C125.902 28.0471 125.704 27.9897 125.5 27.9223C125.299 27.8557 125.104 27.7724 124.918 27.6732C124.733 27.5747 124.569 27.4661 124.436 27.3431V28.564C124.545 28.642 124.693 28.7121 124.873 28.7757C125.054 28.8391 125.248 28.8881 125.45 28.9314C125.652 28.9743 125.851 29.0085 126.045 29.0311C126.239 29.0536 126.401 29.0686 126.533 29.0686C126.929 29.0686 127.303 29.0219 127.66 28.9378C128.018 28.8537 128.336 28.7213 128.61 28.5331C128.884 28.3442 129.101 28.0992 129.262 27.7978C129.424 27.4964 129.503 27.1234 129.503 26.689C129.503 26.3609 129.444 26.0711 129.326 25.8169C129.207 25.5628 129.046 25.3345 128.844 25.1254C128.634 24.908 128.398 24.7157 128.141 24.5523C127.864 24.3755 127.579 24.2112 127.286 24.0602C127.026 23.9257 126.769 23.7865 126.514 23.6427C126.291 23.5156 126.106 23.3856 125.95 23.2502C125.795 23.1149 125.675 22.9658 125.596 22.8017C125.516 22.6377 125.475 22.4415 125.475 22.2161C125.475 21.9743 125.529 21.7676 125.633 21.5993C125.738 21.4311 125.878 21.2947 126.045 21.1883C126.212 21.0816 126.402 21.0049 126.615 20.9578C126.825 20.9118 127.039 20.8888 127.255 20.8893C128.028 20.8893 128.661 21.0643 129.154 21.4251V20.2665C128.778 20.0568 128.18 19.9546 127.356 19.9546V19.9548ZM71.4498 28.9184V20.0981H72.7417L75.3063 26.2467C75.504 26.7181 75.6341 27.0718 75.6925 27.3056H75.7239C75.8911 26.8218 76.0218 26.4592 76.1231 26.2218L78.7388 20.0981H79.9673V28.9188H78.9921V23.0007C78.9921 22.5332 79.0261 21.9641 79.0809 21.2877H79.0555C78.9621 21.6852 78.876 21.9687 78.8022 22.1409L75.946 28.9184H75.4647L72.615 22.1908C72.5332 21.994 72.4535 21.6934 72.368 21.2876H72.3427C72.3737 21.64 72.3933 22.2137 72.3933 23.013V28.9184H71.4498ZM132.309 20.7581L131.352 21.082V22.6209H130.327V23.4803H131.352V27.2055C131.352 28.4354 131.878 29.0556 132.923 29.0556C133.292 29.0556 133.584 28.9874 133.81 28.8563V27.9967C133.635 28.1362 133.424 28.2022 133.183 28.2022C132.868 28.2022 132.647 28.1147 132.511 27.9343C132.375 27.7539 132.309 27.4531 132.309 27.0313V23.4801H133.81V22.6205H132.309V20.7581ZM85.3696 23.4181C85.9327 22.7888 86.69 22.4712 87.6303 22.4712C88.1548 22.4712 88.6108 22.5777 89.0108 22.7828V23.8106C88.5678 23.4825 88.0973 23.3246 87.5923 23.3246C86.9823 23.3246 86.4819 23.555 86.0914 24.0161C85.7009 24.4772 85.5023 25.0786 85.5023 25.8291C85.5023 26.5666 85.6863 27.1529 86.0535 27.5793C86.4203 28.0057 86.9111 28.2148 87.5288 28.2148C88.0494 28.2148 88.5396 28.0314 88.998 27.6666V28.6258C88.5399 28.9167 88 29.0682 87.3708 29.0682C86.5196 29.0682 85.8286 28.7739 85.3061 28.1899C84.7835 27.6056 84.5209 26.8467 84.5209 25.9162C84.5209 24.8792 84.8062 24.0474 85.3696 23.4181ZM97.2438 22.4712C96.3112 22.4712 95.5686 22.7676 95.0207 23.3623C94.4729 23.9565 94.1977 24.7836 94.1977 25.8415C94.1977 26.8128 94.4628 27.5956 94.9893 28.1837C95.5158 28.7719 96.2224 29.0683 97.1045 29.0683C98.0098 29.0683 98.7258 28.7636 99.264 28.159C99.8023 27.5544 100.075 26.7463 100.075 25.742C100.075 24.7168 99.8264 23.9154 99.3272 23.3374C98.8279 22.7589 98.1332 22.4712 97.2438 22.4712ZM102.69 22.5896C102.964 22.5117 103.247 22.4712 103.539 22.4712C104.055 22.4712 104.511 22.5691 104.919 22.7583V23.7799C104.479 23.4767 103.983 23.3252 103.411 23.3252C103.233 23.3252 103.068 23.3443 102.924 23.3874C102.78 23.4304 102.653 23.4902 102.55 23.568C102.451 23.6426 102.371 23.7385 102.316 23.8483C102.259 23.9569 102.227 24.0785 102.227 24.2097C102.227 24.3735 102.26 24.5099 102.316 24.6207C102.372 24.7313 102.454 24.8274 102.563 24.9135C102.683 25.0084 102.815 25.088 102.956 25.1503C103.087 25.2092 103.234 25.2699 103.396 25.3367L103.488 25.3746C103.73 25.4716 103.967 25.5818 104.197 25.7047C104.407 25.8171 104.587 25.9431 104.735 26.0846C104.881 26.2247 104.998 26.3921 105.077 26.577C105.157 26.7612 105.198 26.9767 105.198 27.2308C105.198 27.5426 105.131 27.8173 105.001 28.0469C104.874 28.2722 104.697 28.4661 104.482 28.6139C104.254 28.7715 103.998 28.8875 103.728 28.9565C103.445 29.0301 103.146 29.0685 102.836 29.0685C102.222 29.0685 101.69 28.9386 101.239 28.6886V27.6112C101.76 28.0166 102.33 28.2152 102.956 28.2152C103.795 28.2152 104.216 27.9208 104.216 27.3305C104.216 27.1623 104.18 27.0237 104.109 26.9069C104.033 26.7858 103.934 26.6801 103.817 26.5957C103.684 26.4988 103.539 26.4172 103.387 26.3526C103.221 26.2808 103.045 26.2062 102.855 26.1283C102.59 26.0175 102.352 25.9042 102.152 25.7918C101.951 25.679 101.791 25.5534 101.658 25.4119C101.524 25.2713 101.421 25.1061 101.354 24.9259C101.285 24.7453 101.252 24.5322 101.252 24.2904C101.252 23.9952 101.314 23.7392 101.442 23.5116C101.571 23.2839 101.741 23.0922 101.955 22.9385C102.169 22.785 102.416 22.6676 102.69 22.5896ZM109.295 22.4712C108.362 22.4712 107.62 22.7676 107.072 23.3623C106.524 23.9565 106.249 24.7836 106.249 25.8415C106.249 26.8128 106.514 27.5956 107.041 28.1837C107.567 28.7719 108.274 29.0683 109.156 29.0683C110.061 29.0683 110.777 28.7636 111.315 28.159C111.854 27.5544 112.126 26.7463 112.126 25.742C112.126 24.7168 111.878 23.9154 111.379 23.3374C110.879 22.7589 110.185 22.4712 109.295 22.4712ZM135.513 23.3623C136.061 22.7676 136.804 22.4712 137.736 22.4712C138.626 22.4712 139.32 22.7589 139.819 23.3374C140.319 23.9154 140.567 24.7168 140.567 25.742C140.567 26.7463 140.294 27.5544 139.756 28.159C139.218 28.7636 138.502 29.0683 137.597 29.0683C136.715 29.0683 136.008 28.7719 135.481 28.1837C134.955 27.5956 134.69 26.8128 134.69 25.8415C134.69 24.7836 134.965 23.9565 135.513 23.3623ZM148.591 22.4712C147.81 22.4712 147.148 22.7824 146.621 23.3993C146.095 24.0163 145.829 24.8115 145.829 25.7914C145.829 26.8286 146.07 27.6365 146.551 28.2084C147.033 28.7805 147.703 29.068 148.546 29.068C149.409 29.068 150.105 28.8654 150.629 28.464V27.5171C150.066 27.9841 149.446 28.2148 148.774 28.2148C148.176 28.2148 147.704 28.0226 147.362 27.6415C147.02 27.2601 146.839 26.7227 146.824 26.0219H151.035V25.4924C151.035 24.5455 150.829 23.8076 150.402 23.2748C149.974 22.7417 149.372 22.4714 148.591 22.4714V22.4712ZM92.0634 22.8823C92.343 22.6343 92.6547 22.5085 93.0006 22.5085V22.5087C93.2493 22.5087 93.4384 22.5384 93.5705 22.5958V23.6421C93.4033 23.507 93.1569 23.4366 92.8422 23.4366C92.4342 23.4366 92.0966 23.6411 91.8224 24.0472C91.5488 24.4529 91.411 25.0092 91.411 25.7105V28.9188H90.4545V22.6207H91.411V23.9164H91.4364C91.5723 23.4735 91.7835 23.1302 92.0634 22.8823ZM144.632 22.5085C144.287 22.5085 143.975 22.6343 143.695 22.8823C143.415 23.1302 143.204 23.4735 143.068 23.9164H143.049V22.6207H142.093V28.9188H143.049V25.7105C143.049 25.0092 143.187 24.4529 143.46 24.0472C143.735 23.6411 144.079 23.4366 144.486 23.4366C144.801 23.4366 145.041 23.507 145.208 23.6421V22.5958C145.077 22.5384 144.881 22.5087 144.632 22.5087V22.5085ZM82.0448 28.9188V22.6207H82.9949V28.9188H82.0448ZM97.1678 23.3246C97.7855 23.3246 98.2668 23.5339 98.5989 23.9601C98.931 24.3867 99.093 24.9919 99.093 25.7791C99.093 26.5577 98.9308 27.1631 98.5989 27.5855C98.2666 28.0075 97.7853 28.2146 97.1678 28.2146C96.5616 28.2146 96.0787 28.0033 95.7176 27.5729C95.3563 27.1423 95.1793 26.5497 95.1793 25.8038C95.1793 25.0289 95.3536 24.4255 95.7113 23.9848C96.0686 23.5443 96.5537 23.3246 97.1678 23.3246ZM110.65 23.9601C110.318 23.5339 109.837 23.3246 109.219 23.3246C108.605 23.3246 108.12 23.5443 107.763 23.9848C107.405 24.4255 107.231 25.0289 107.231 25.8038C107.231 26.5497 107.408 27.1423 107.769 27.5729C108.13 28.0033 108.613 28.2146 109.219 28.2146C109.837 28.2146 110.318 28.0075 110.65 27.5855C110.982 27.1631 111.144 26.5577 111.144 25.7791C111.144 24.9919 110.982 24.3867 110.65 23.9601ZM137.66 23.3246C138.278 23.3246 138.759 23.5339 139.091 23.9601C139.423 24.3867 139.585 24.9919 139.585 25.7791C139.585 26.5577 139.423 27.1631 139.091 27.5855C138.759 28.0075 138.278 28.2146 137.66 28.2146C137.054 28.2146 136.571 28.0033 136.21 27.5729C135.849 27.1423 135.672 26.5497 135.672 25.8038C135.672 25.0289 135.846 24.4255 136.203 23.9848C136.561 23.5443 137.046 23.3246 137.66 23.3246ZM149.661 23.8042C149.398 23.4805 149.038 23.3246 148.572 23.3246V23.3248C148.121 23.3248 147.734 23.4889 147.419 23.8291C147.104 24.1694 146.91 24.6191 146.836 25.1685H150.06C150.056 24.5862 149.923 24.1281 149.661 23.8042Z" fill="white"/>
    <path d="M115.907 19.4624H116.157V19.2124H115.907V19.4624ZM114.558 20.0355L114.74 20.207L114.74 20.2069L114.558 20.0355ZM115.907 19.4626H115.657V19.7126H115.907V19.4626ZM116.603 19.5683H116.853V19.4038L116.702 19.3387L116.603 19.5683ZM116.603 20.4776L116.476 20.6927L116.853 20.9164V20.4776H116.603ZM114.963 22.6207H114.713V22.8707H114.963V22.6207ZM117.692 22.6207V22.8707H117.942V22.6207H117.692ZM117.692 21.0818L117.612 20.845L117.442 20.9025V21.0818H117.692ZM118.649 20.7579H118.899V20.4093L118.569 20.5211L118.649 20.7579ZM118.649 22.6205H118.399V22.8705H118.649V22.6205ZM120.156 22.6205H120.406V22.3705H120.156V22.6205ZM120.156 23.4801V23.7301H120.406V23.4801H120.156ZM118.649 23.4801V23.2301H118.399V23.4801H118.649ZM118.851 27.9343L118.652 28.0848V28.0848L118.851 27.9343ZM120.156 27.9967H120.406V27.4774L120 27.8013L120.156 27.9967ZM120.156 28.8563L120.282 29.0724L120.406 29.0001V28.8563H120.156ZM117.692 23.4803H117.942V23.2303H117.692V23.4803ZM114.963 23.4803V23.2303H114.713V23.4803H114.963ZM114.963 28.9188V29.1688H115.213V28.9188H114.963ZM114.02 28.9188H113.77V29.1688H114.02V28.9188ZM114.02 23.4803H114.27V23.2303H114.02V23.4803ZM112.994 23.4803H112.744V23.7303H112.994V23.4803ZM112.994 22.6207V22.3707H112.744V22.6207H112.994ZM114.02 22.6207V22.8707H114.27V22.6207H114.02ZM82.089 19.8986L82.2689 20.0721L82.2691 20.072L82.089 19.8986ZM82.5322 19.7116L82.5281 19.4616L82.5322 19.9616V19.7116ZM82.9821 19.8986L82.8014 20.0713L82.8034 20.0733L82.9821 19.8986ZM82.9821 20.8329L83.1621 21.0064L83.1622 21.0062L82.9821 20.8329ZM82.089 20.8392L82.2677 20.6644L82.2675 20.6642L82.089 20.8392ZM126.286 20.0917L126.351 20.333L126.352 20.333L126.286 20.0917ZM127.356 19.9548V20.2048H127.606V19.9548H127.356ZM125.362 20.5215L125.217 20.3175L125.217 20.3176L125.362 20.5215ZM124.703 21.2567L124.921 21.3791L124.922 21.3778L124.703 21.2567ZM124.614 23.1627L124.844 23.0634L124.843 23.0626L124.614 23.1627ZM125.051 23.8168L124.871 23.9905L124.871 23.9906L125.051 23.8168ZM125.716 24.3464L125.85 24.1353L125.85 24.1353L125.716 24.3464ZM126.526 24.8198L126.645 24.5995L126.644 24.5994L126.526 24.8198ZM127.299 25.2434L127.177 25.4615L127.177 25.4619L127.299 25.2434ZM127.92 25.6608L127.76 25.8528L127.76 25.853L127.92 25.6608ZM128.331 26.1468L128.113 26.2689L128.113 26.2696L128.331 26.1468ZM128.034 27.7852L128.189 27.9811L128.189 27.981L128.034 27.7852ZM126.678 28.134V27.884L126.678 27.884L126.678 28.134ZM126.108 28.0842L126.064 28.3303L126.064 28.3303L126.108 28.0842ZM125.5 27.9223L125.422 28.1597L125.422 28.1597L125.5 27.9223ZM124.918 27.6732L124.8 27.8937L124.8 27.8939L124.918 27.6732ZM124.436 27.3431L124.607 27.1601L124.186 26.7688V27.3431H124.436ZM124.436 28.564H124.186V28.6925L124.291 28.7673L124.436 28.564ZM124.873 28.7757L124.79 29.0115L124.791 29.0116L124.873 28.7757ZM125.45 28.9314L125.397 29.1759L125.398 29.176L125.45 28.9314ZM126.045 29.0311L126.016 29.2794H126.016L126.045 29.0311ZM127.66 28.9378L127.603 28.6944L127.603 28.6944L127.66 28.9378ZM128.61 28.5331L128.751 28.7392L128.752 28.7389L128.61 28.5331ZM129.262 27.7978L129.042 27.6798L129.042 27.6799L129.262 27.7978ZM129.326 25.8169L129.099 25.9225L129.099 25.9226L129.326 25.8169ZM128.844 25.1254L129.024 24.9517L129.024 24.9514L128.844 25.1254ZM128.141 24.5523L128.007 24.7631L128.007 24.7632L128.141 24.5523ZM127.286 24.0602L127.172 24.2822L127.172 24.2823L127.286 24.0602ZM126.514 23.6427L126.39 23.86L126.391 23.8605L126.514 23.6427ZM125.596 22.8017L125.371 22.9109L125.371 22.9111L125.596 22.8017ZM125.633 21.5993L125.846 21.7313L125.633 21.5993ZM126.045 21.1883L126.179 21.3991L126.18 21.399L126.045 21.1883ZM126.615 20.9578L126.561 20.7136L126.561 20.7137L126.615 20.9578ZM127.255 20.8893L127.254 21.1393H127.255V20.8893ZM129.154 21.4251L129.007 21.6269L129.404 21.9176V21.4251H129.154ZM129.154 20.2665H129.404V20.1197L129.276 20.0482L129.154 20.2665ZM127.356 19.9546V19.7046H127.106V19.9546H127.356ZM71.4498 20.0981V19.8481H71.1998V20.0981H71.4498ZM71.4498 28.9184H71.1998V29.1684H71.4498V28.9184ZM72.7417 20.0981L72.9724 20.0019L72.9083 19.8481H72.7417V20.0981ZM75.3063 26.2467L75.0755 26.3429L75.0757 26.3434L75.3063 26.2467ZM75.6925 27.3056L75.45 27.3661L75.4972 27.5556H75.6925V27.3056ZM75.7239 27.3056V27.5556H75.902L75.9602 27.3873L75.7239 27.3056ZM76.1231 26.2218L75.8932 26.1236L75.8932 26.1237L76.1231 26.2218ZM78.7388 20.0981V19.8481H78.5737L78.5089 19.9999L78.7388 20.0981ZM79.9673 20.0981H80.2173V19.8481H79.9673V20.0981ZM79.9673 28.9188V29.1688H80.2173V28.9188H79.9673ZM78.9921 28.9188H78.7421V29.1688H78.9921V28.9188ZM79.0809 21.2877L79.33 21.3079L79.3519 21.0377H79.0809V21.2877ZM79.0555 21.2877V21.0377H78.8575L78.8122 21.2305L79.0555 21.2877ZM78.8022 22.1409L78.5724 22.0425L78.5718 22.0438L78.8022 22.1409ZM75.946 28.9184V29.1684H76.112L76.1764 29.0155L75.946 28.9184ZM75.4647 28.9184L75.2345 29.016L75.2991 29.1684H75.4647V28.9184ZM72.615 22.1908L72.3842 22.2868L72.3848 22.2883L72.615 22.1908ZM72.368 21.2876L72.6126 21.236L72.5708 21.0376H72.368V21.2876ZM72.3427 21.2876V21.0376H72.0697L72.0936 21.3095L72.3427 21.2876ZM72.3933 28.9184V29.1684H72.6433V28.9184H72.3933ZM131.352 21.082L131.272 20.8452L131.102 20.9027V21.082H131.352ZM132.309 20.7581H132.559V20.4095L132.229 20.5213L132.309 20.7581ZM131.352 22.6209V22.8709H131.602V22.6209H131.352ZM130.327 22.6209V22.3709H130.077V22.6209H130.327ZM130.327 23.4803H130.077V23.7303H130.327V23.4803ZM131.352 23.4803H131.602V23.2303H131.352V23.4803ZM133.81 28.8563L133.935 29.0723L134.06 28.9999V28.8563H133.81ZM133.81 27.9967H134.06V27.477L133.653 27.8014L133.81 27.9967ZM132.511 27.9343L132.711 27.7838V27.7838L132.511 27.9343ZM132.309 23.4801V23.2301H132.059V23.4801H132.309ZM133.81 23.4801V23.7301H134.06V23.4801H133.81ZM133.81 22.6205H134.06V22.3705H133.81V22.6205ZM132.309 22.6205H132.059V22.8705H132.309V22.6205ZM85.3696 23.4181L85.5558 23.5848L85.5559 23.5848L85.3696 23.4181ZM89.0108 22.7828H89.2608V22.63L89.1249 22.5603L89.0108 22.7828ZM89.0108 23.8106L88.862 24.0115L89.2608 24.3069V23.8106H89.0108ZM86.0914 24.0161L85.9006 23.8545L86.0914 24.0161ZM86.0535 27.5793L86.243 27.4162L86.2429 27.4161L86.0535 27.5793ZM88.998 27.6666H89.248V27.1482L88.8424 27.471L88.998 27.6666ZM88.998 28.6258L89.132 28.8369L89.248 28.7632V28.6258H88.998ZM85.3061 28.1899L85.4925 28.0232L85.4925 28.0232L85.3061 28.1899ZM95.0207 23.3623L95.2045 23.5317L95.2045 23.5317L95.0207 23.3623ZM94.9893 28.1837L95.1755 28.017L95.1755 28.0169L94.9893 28.1837ZM99.264 28.159L99.4507 28.3252V28.3252L99.264 28.159ZM99.3272 23.3374L99.138 23.5007L99.138 23.5007L99.3272 23.3374ZM102.69 22.5896L102.758 22.8301H102.758L102.69 22.5896ZM104.919 22.7583H105.169V22.5987L105.024 22.5315L104.919 22.7583ZM104.919 23.7799L104.777 23.9856L105.169 24.2562V23.7799H104.919ZM102.924 23.3874L102.996 23.6269L102.996 23.6269L102.924 23.3874ZM102.55 23.568L102.4 23.3685L102.4 23.3685L102.55 23.568ZM102.316 23.8483L102.538 23.9637L102.539 23.9608L102.316 23.8483ZM102.316 24.6207L102.093 24.7337L102.093 24.7345L102.316 24.6207ZM102.563 24.9135L102.408 25.1096L102.408 25.1098L102.563 24.9135ZM102.956 25.1503L103.058 24.9223L103.057 24.9218L102.956 25.1503ZM103.396 25.3367L103.491 25.1057L103.491 25.1056L103.396 25.3367ZM103.488 25.3746L103.392 25.6057L103.395 25.6067L103.488 25.3746ZM104.197 25.7047L104.315 25.4844L104.315 25.4842L104.197 25.7047ZM104.735 26.0846L104.908 25.9041L104.908 25.904L104.735 26.0846ZM105.077 26.577L104.848 26.6757L104.848 26.6762L105.077 26.577ZM105.001 28.0469L104.784 27.9237L104.784 27.9241L105.001 28.0469ZM104.482 28.6139L104.34 28.4079L104.34 28.4081L104.482 28.6139ZM103.728 28.9565L103.667 28.7143L103.666 28.7145L103.728 28.9565ZM101.239 28.6886H100.989V28.8359L101.118 28.9073L101.239 28.6886ZM101.239 27.6112L101.393 27.4139L100.989 27.0997V27.6112H101.239ZM104.109 26.9069L104.322 26.7761L104.32 26.7742L104.109 26.9069ZM103.817 26.5957L103.67 26.7982L103.671 26.7983L103.817 26.5957ZM103.387 26.3526L103.287 26.5819L103.289 26.5827L103.387 26.3526ZM102.855 26.1283L102.758 26.3589L102.76 26.3596L102.855 26.1283ZM102.152 25.7918L102.029 26.0096L102.029 26.0097L102.152 25.7918ZM101.658 25.4119L101.839 25.2402L101.839 25.2399L101.658 25.4119ZM101.354 24.9259L101.588 24.8382L101.587 24.8377L101.354 24.9259ZM101.442 23.5116L101.225 23.3888L101.442 23.5116ZM101.955 22.9385L101.809 22.7355L101.809 22.7355L101.955 22.9385ZM107.072 23.3623L107.256 23.5317L107.256 23.5317L107.072 23.3623ZM107.041 28.1837L107.227 28.017L107.227 28.0169L107.041 28.1837ZM111.315 28.159L111.502 28.3252V28.3252L111.315 28.159ZM111.379 23.3374L111.189 23.5007L111.189 23.5007L111.379 23.3374ZM135.513 23.3623L135.329 23.1928L135.329 23.1929L135.513 23.3623ZM139.819 23.3374L139.63 23.5007L139.63 23.5008L139.819 23.3374ZM135.481 28.1837L135.295 28.3504L135.295 28.3504L135.481 28.1837ZM146.621 23.3993L146.431 23.237L146.431 23.2371L146.621 23.3993ZM148.591 22.4712H148.841V22.2212H148.591V22.4712ZM146.551 28.2084L146.36 28.3694L146.36 28.3695L146.551 28.2084ZM150.629 28.464L150.781 28.6624L150.879 28.5874V28.464H150.629ZM150.629 27.5171H150.879V26.9849L150.47 27.3247L150.629 27.5171ZM147.362 27.6415L147.176 27.8083L147.176 27.8085L147.362 27.6415ZM146.824 26.0219V25.7719H146.568L146.574 26.0274L146.824 26.0219ZM151.035 26.0219V26.2719H151.285V26.0219H151.035ZM150.402 23.2748L150.207 23.4311L150.207 23.4312L150.402 23.2748ZM148.591 22.4714H148.341V22.7214H148.591V22.4714ZM93.0006 22.5085H93.2506V22.2585H93.0006V22.5085ZM92.0634 22.8823L92.2292 23.0694L92.2292 23.0693L92.0634 22.8823ZM93.0006 22.5087H92.7506V22.7587H93.0006V22.5087ZM93.5705 22.5958H93.8205V22.4319L93.6701 22.3665L93.5705 22.5958ZM93.5705 23.6421L93.4133 23.8366L93.8205 24.1657V23.6421H93.5705ZM91.8224 24.0472L91.6152 23.9073L91.6151 23.9074L91.8224 24.0472ZM91.411 28.9188V29.1688H91.661V28.9188H91.411ZM90.4545 28.9188H90.2045V29.1688H90.4545V28.9188ZM90.4545 22.6207V22.3707H90.2045V22.6207H90.4545ZM91.411 22.6207H91.661V22.3707H91.411V22.6207ZM91.411 23.9164H91.161V24.1664H91.411V23.9164ZM91.4364 23.9164V24.1664H91.6211L91.6754 23.9898L91.4364 23.9164ZM143.695 22.8823L143.529 22.6951L143.529 22.6952L143.695 22.8823ZM144.632 22.5085H144.882V22.2585H144.632V22.5085ZM143.068 23.9164V24.1664H143.253L143.307 23.9899L143.068 23.9164ZM143.049 23.9164H142.799V24.1664H143.049V23.9164ZM143.049 22.6207H143.299V22.3707H143.049V22.6207ZM142.093 22.6207V22.3707H141.843V22.6207H142.093ZM142.093 28.9188H141.843V29.1688H142.093V28.9188ZM143.049 28.9188V29.1688H143.299V28.9188H143.049ZM143.46 24.0472L143.253 23.9073L143.253 23.9074L143.46 24.0472ZM145.208 23.6421L145.051 23.8365L145.458 24.1661V23.6421H145.208ZM145.208 22.5958H145.458V22.4321L145.308 22.3666L145.208 22.5958ZM144.632 22.5087H144.382V22.7587H144.632V22.5087ZM82.0448 22.6207V22.3707H81.7948V22.6207H82.0448ZM82.0448 28.9188H81.7948V29.1688H82.0448V28.9188ZM82.9949 22.6207H83.2449V22.3707H82.9949V22.6207ZM82.9949 28.9188V29.1688H83.2449V28.9188H82.9949ZM98.5989 23.9601L98.7962 23.8065L98.7961 23.8064L98.5989 23.9601ZM98.5989 27.5855L98.7953 27.7401L98.7955 27.7399L98.5989 27.5855ZM95.7176 27.5729L95.9091 27.4122L95.9091 27.4122L95.7176 27.5729ZM95.7113 23.9848L95.9054 24.1423L95.9055 24.1423L95.7113 23.9848ZM110.65 23.9601L110.847 23.8065L110.847 23.8064L110.65 23.9601ZM107.763 23.9848L107.957 24.1423L107.957 24.1423L107.763 23.9848ZM107.769 27.5729L107.96 27.4122L107.96 27.4122L107.769 27.5729ZM110.65 27.5855L110.847 27.7401L110.847 27.7399L110.65 27.5855ZM139.091 23.9601L138.894 24.1137L138.894 24.1137L139.091 23.9601ZM139.091 27.5855L139.287 27.7401L139.288 27.7401L139.091 27.5855ZM136.21 27.5729L136.018 27.7336L136.018 27.7337L136.21 27.5729ZM136.203 23.9848L136.398 24.1423L136.398 24.1423L136.203 23.9848ZM148.572 23.3246V23.0746H148.322V23.3246H148.572ZM149.661 23.8042L149.855 23.6468L149.855 23.6468L149.661 23.8042ZM148.572 23.3248V23.5748H148.822V23.3248H148.572ZM147.419 23.8291L147.236 23.6594V23.6594L147.419 23.8291ZM146.836 25.1685L146.589 25.1351L146.551 25.4185H146.836V25.1685ZM150.06 25.1685V25.4185H150.311L150.31 25.1668L150.06 25.1685ZM115.907 19.2124C115.3 19.2124 114.786 19.429 114.376 19.8641L114.74 20.2069C115.052 19.8753 115.433 19.7124 115.907 19.7124V19.2124ZM116.157 19.4626V19.4624H115.657V19.4626H116.157ZM116.702 19.3387C116.485 19.2448 116.21 19.2126 115.907 19.2126V19.7126C116.186 19.7126 116.38 19.7441 116.504 19.7978L116.702 19.3387ZM116.853 20.4776V19.5683H116.353V20.4776H116.853ZM115.964 20.5658C116.164 20.5658 116.334 20.6089 116.476 20.6927L116.731 20.2626C116.499 20.1251 116.237 20.0658 115.964 20.0658V20.5658ZM115.213 21.649C115.213 21.228 115.293 20.9584 115.413 20.7988C115.522 20.6528 115.69 20.5658 115.964 20.5658V20.0658C115.569 20.0658 115.237 20.2005 115.013 20.4987C114.799 20.7833 114.713 21.1803 114.713 21.649H115.213ZM115.213 22.6207V21.649H114.713V22.6207H115.213ZM117.692 22.3707H114.963V22.8707H117.692V22.3707ZM117.442 21.0818V22.6207H117.942V21.0818H117.442ZM118.569 20.5211L117.612 20.845L117.772 21.3186L118.729 20.9947L118.569 20.5211ZM118.899 22.6205V20.7579H118.399V22.6205H118.899ZM120.156 22.3705H118.649V22.8705H120.156V22.3705ZM120.406 23.4801V22.6205H119.906V23.4801H120.406ZM118.649 23.7301H120.156V23.2301H118.649V23.7301ZM118.899 27.0313V23.4801H118.399V27.0313H118.899ZM119.051 27.7838C118.966 27.6712 118.899 27.4404 118.899 27.0313H118.399C118.399 27.4658 118.465 27.8366 118.652 28.0848L119.051 27.7838ZM119.529 27.9522C119.257 27.9522 119.122 27.8777 119.051 27.7838L118.652 28.0848C118.853 28.3517 119.171 28.4522 119.529 28.4522V27.9522ZM120 27.8013C119.876 27.9005 119.722 27.9522 119.529 27.9522V28.4522C119.818 28.4522 120.087 28.372 120.312 28.1921L120 27.8013ZM120.406 28.8563V27.9967H119.906V28.8563H120.406ZM119.257 29.3056C119.653 29.3056 120.006 29.2329 120.282 29.0724L120.03 28.6401C119.855 28.742 119.598 28.8056 119.257 28.8056V29.3056ZM117.442 27.2055C117.442 27.8497 117.577 28.3806 117.892 28.753C118.212 29.1335 118.683 29.3056 119.257 29.3056V28.8056C118.785 28.8056 118.474 28.6677 118.274 28.4306C118.067 28.1854 117.942 27.7913 117.942 27.2055H117.442ZM117.442 23.4803V27.2055H117.942V23.4803H117.442ZM114.963 23.7303H117.692V23.2303H114.963V23.7303ZM115.213 28.9188V23.4803H114.713V28.9188H115.213ZM114.02 29.1688H114.963V28.6688H114.02V29.1688ZM113.77 23.4803V28.9188H114.27V23.4803H113.77ZM112.994 23.7303H114.02V23.2303H112.994V23.7303ZM112.744 22.6207V23.4803H113.244V22.6207H112.744ZM114.02 22.3707H112.994V22.8707H114.02V22.3707ZM113.77 21.5991V22.6207H114.27V21.5991H113.77ZM114.376 19.864C113.96 20.3054 113.77 20.8933 113.77 21.5991H114.27C114.27 20.9849 114.433 20.5323 114.74 20.207L114.376 19.864ZM82.5324 19.4616C82.2957 19.4616 82.078 19.5497 81.909 19.7251L82.2691 20.072C82.3408 19.9975 82.4271 19.9616 82.5324 19.9616V19.4616ZM82.5322 19.9616H82.5324V19.4616H82.5322V19.9616ZM83.1629 19.7258C82.9977 19.553 82.7672 19.4577 82.5281 19.4616L82.5364 19.9615C82.6374 19.9599 82.7335 20.0003 82.8014 20.0713L83.1629 19.7258ZM83.4157 20.372C83.4157 20.1247 83.3332 19.9 83.1609 19.7238L82.8034 20.0733C82.8755 20.1471 82.9157 20.2421 82.9157 20.372H83.4157ZM83.1622 21.0062C83.3305 20.8314 83.4157 20.6154 83.4157 20.372H82.9157C82.9157 20.489 82.8786 20.5799 82.802 20.6595L83.1622 21.0062ZM82.5324 21.2698C82.7703 21.2698 82.9892 21.1857 83.1621 21.0064L82.8021 20.6593C82.7298 20.7343 82.644 20.7698 82.5324 20.7698V21.2698ZM81.9104 21.0141C82.0821 21.1896 82.3006 21.2698 82.5324 21.2698V20.7698C82.4222 20.7698 82.3367 20.7349 82.2677 20.6644L81.9104 21.0141ZM81.6617 20.372C81.6617 20.6155 81.7372 20.8375 81.9105 21.0143L82.2675 20.6642C82.1997 20.595 82.1617 20.5057 82.1617 20.372H81.6617ZM81.9091 19.725C81.7364 19.904 81.6617 20.13 81.6617 20.372H82.1617C82.1617 20.2373 82.2005 20.1431 82.2689 20.0721L81.9091 19.725ZM126.352 20.333C126.676 20.245 127.015 20.2048 127.356 20.2048V19.7048C126.976 19.7048 126.592 19.7495 126.221 19.8505L126.352 20.333ZM125.506 20.7255C125.753 20.5508 126.031 20.42 126.351 20.333L126.221 19.8504C125.846 19.952 125.514 20.1071 125.217 20.3175L125.506 20.7255ZM124.922 21.3778C125.064 21.1204 125.264 20.8974 125.506 20.7254L125.217 20.3176C124.914 20.5327 124.663 20.8121 124.484 21.1355L124.922 21.3778ZM124.7 22.3094C124.7 21.9438 124.778 21.6334 124.921 21.3791L124.485 21.1342C124.294 21.4743 124.2 21.8716 124.2 22.3094H124.7ZM124.843 23.0626C124.752 22.8541 124.7 22.6074 124.7 22.3094H124.2C124.2 22.6676 124.263 22.9837 124.385 23.2629L124.843 23.0626ZM125.231 23.643C125.067 23.474 124.936 23.2776 124.844 23.0634L124.385 23.262C124.501 23.5317 124.666 23.7785 124.871 23.9905L125.231 23.643ZM125.85 24.1353C125.61 23.9833 125.401 23.8185 125.231 23.643L124.871 23.9906C125.074 24.2005 125.317 24.3894 125.582 24.5575L125.85 24.1353ZM126.644 24.5994C126.374 24.4545 126.109 24.2997 125.85 24.1353L125.582 24.5575C125.851 24.7284 126.127 24.8895 126.408 25.0402L126.644 24.5994ZM127.421 25.0253C127.164 24.881 126.905 24.7391 126.645 24.5995L126.408 25.0402C126.666 25.1783 126.922 25.3187 127.177 25.4615L127.421 25.0253ZM128.08 25.4689C127.891 25.3111 127.67 25.1641 127.421 25.025L127.177 25.4619C127.406 25.5891 127.599 25.7191 127.76 25.8528L128.08 25.4689ZM128.549 26.0248C128.434 25.8193 128.276 25.632 128.08 25.4687L127.76 25.853C127.913 25.9807 128.03 26.1216 128.113 26.2689L128.549 26.0248ZM128.733 26.7636C128.733 26.4867 128.671 26.2412 128.549 26.0241L128.113 26.2696C128.189 26.4049 128.233 26.5644 128.233 26.7636H128.733ZM128.189 27.981C128.556 27.6899 128.733 27.2693 128.733 26.7636H128.233C128.233 27.1433 128.106 27.4085 127.878 27.5894L128.189 27.981ZM126.678 28.384C127.303 28.384 127.827 28.2682 128.189 27.9811L127.878 27.5893C127.646 27.7735 127.258 27.884 126.678 27.884V28.384ZM126.064 28.3303C126.267 28.3665 126.473 28.3845 126.679 28.384L126.678 27.884C126.501 27.8844 126.326 27.869 126.152 27.8381L126.064 28.3303ZM125.422 28.1597C125.631 28.2288 125.842 28.2902 126.064 28.3303L126.153 27.8382C125.963 27.8041 125.778 27.7507 125.579 27.685L125.422 28.1597ZM124.8 27.8939C125 27.9997 125.207 28.0886 125.422 28.1597L125.579 27.685C125.391 27.6228 125.209 27.545 125.035 27.4524L124.8 27.8939ZM124.266 27.5261C124.419 27.6687 124.604 27.7891 124.8 27.8937L125.036 27.4526C124.863 27.3603 124.718 27.2634 124.607 27.1601L124.266 27.5261ZM124.686 28.564V27.3431H124.186V28.564H124.686ZM124.957 28.5399C124.787 28.4803 124.664 28.4196 124.582 28.3608L124.291 28.7673C124.426 28.8644 124.599 28.9439 124.79 29.0115L124.957 28.5399ZM125.502 28.687C125.305 28.6448 125.123 28.5983 124.956 28.5398L124.791 29.0116C124.985 29.0799 125.19 29.1315 125.397 29.1759L125.502 28.687ZM126.074 28.7827C125.889 28.7613 125.698 28.7284 125.502 28.6868L125.398 29.176C125.606 29.2201 125.813 29.2558 126.016 29.2794L126.074 28.7827ZM126.533 28.8186C126.417 28.8186 126.268 28.8052 126.074 28.7827L126.016 29.2794C126.211 29.302 126.385 29.3186 126.533 29.3186V28.8186ZM127.603 28.6944C127.263 28.7743 126.909 28.8186 126.533 28.8186V29.3186C126.949 29.3186 127.342 29.2695 127.717 29.1811L127.603 28.6944ZM128.468 28.327C128.224 28.4948 127.936 28.6161 127.603 28.6944L127.717 29.1811C128.099 29.0912 128.448 28.9478 128.751 28.7392L128.468 28.327ZM129.042 27.6799C128.899 27.9472 128.708 28.1616 128.468 28.3273L128.752 28.7389C129.06 28.5267 129.303 28.2512 129.483 27.9156L129.042 27.6799ZM129.253 26.689C129.253 27.0943 129.179 27.424 129.042 27.6798L129.483 27.9157C129.668 27.5687 129.753 27.1525 129.753 26.689H129.253ZM129.099 25.9226C129.2 26.1384 129.253 26.3911 129.253 26.689H129.753C129.753 26.3307 129.689 26.0038 129.552 25.7112L129.099 25.9226ZM128.665 25.2991C128.849 25.4902 128.993 25.6957 129.099 25.9225L129.552 25.7114C129.421 25.4298 129.244 25.1789 129.024 24.9517L128.665 25.2991ZM128.007 24.7632C128.247 24.9161 128.468 25.0961 128.665 25.2995L129.024 24.9514C128.799 24.7199 128.548 24.5153 128.275 24.3415L128.007 24.7632ZM127.172 24.2823C127.457 24.4299 127.736 24.5903 128.007 24.7631L128.276 24.3416C127.992 24.1606 127.7 23.9926 127.401 23.838L127.172 24.2823ZM126.391 23.8605C126.649 24.0058 126.909 24.1464 127.172 24.2822L127.401 23.8381C127.144 23.705 126.889 23.5673 126.637 23.425L126.391 23.8605ZM125.786 23.4388C125.956 23.5866 126.155 23.7259 126.39 23.86L126.638 23.4255C126.426 23.3052 126.256 23.1846 126.114 23.0617L125.786 23.4388ZM125.371 22.9111C125.468 23.1103 125.61 23.2853 125.786 23.4388L126.114 23.0617C125.98 22.9445 125.883 22.8212 125.82 22.6923L125.371 22.9111ZM125.225 22.2161C125.225 22.4712 125.271 22.7062 125.371 22.9109L125.821 22.6925C125.761 22.5692 125.725 22.4119 125.725 22.2161H125.225ZM125.421 21.4673C125.287 21.6827 125.225 21.9373 125.225 22.2161H125.725C125.725 22.0113 125.77 21.8525 125.846 21.7313L125.421 21.4673ZM125.911 20.9775C125.715 21.1022 125.547 21.2645 125.421 21.4673L125.846 21.7313C125.929 21.5976 126.041 21.4873 126.179 21.3991L125.911 20.9775ZM126.561 20.7137C126.322 20.7665 126.105 20.8537 125.911 20.9775L126.18 21.399C126.32 21.3096 126.481 21.2433 126.669 21.202L126.561 20.7137ZM127.255 20.6393C127.022 20.6388 126.789 20.6637 126.561 20.7136L126.668 21.202C126.861 21.1599 127.057 21.1389 127.254 21.1393L127.255 20.6393ZM129.302 21.2233C128.755 20.823 128.065 20.6393 127.255 20.6393V21.1393C127.99 21.1393 128.567 21.3056 129.007 21.6269L129.302 21.2233ZM128.904 20.2665V21.4251H129.404V20.2665H128.904ZM127.356 20.2046C128.171 20.2046 128.715 20.3076 129.033 20.4849L129.276 20.0482C128.842 19.806 128.19 19.7046 127.356 19.7046V20.2046ZM127.606 19.9548V19.9546H127.106V19.9548H127.606ZM71.1998 20.0981V28.9184H71.6998V20.0981H71.1998ZM72.7417 19.8481H71.4498V20.3481H72.7417V19.8481ZM75.537 26.1505L72.9724 20.0019L72.511 20.1943L75.0755 26.3429L75.537 26.1505ZM75.9351 27.2451C75.8717 26.9911 75.7349 26.6223 75.5368 26.15L75.0757 26.3434C75.2731 26.814 75.3966 27.1524 75.45 27.3661L75.9351 27.2451ZM75.7239 27.0556H75.6925V27.5556H75.7239V27.0556ZM75.8932 26.1237C75.7879 26.3704 75.6545 26.7412 75.4876 27.2239L75.9602 27.3873C76.1278 26.9024 76.2557 26.548 76.3531 26.3199L75.8932 26.1237ZM78.5089 19.9999L75.8932 26.1236L76.3531 26.32L78.9687 20.1963L78.5089 19.9999ZM79.9673 19.8481H78.7388V20.3481H79.9673V19.8481ZM80.2173 28.9188V20.0981H79.7173V28.9188H80.2173ZM78.9921 29.1688H79.9673V28.6688H78.9921V29.1688ZM78.7421 23.0007V28.9188H79.2421V23.0007H78.7421ZM78.8317 21.2676C78.7768 21.9455 78.7421 22.5228 78.7421 23.0007H79.2421C79.2421 22.5437 79.2754 21.9828 79.33 21.3079L78.8317 21.2676ZM79.0555 21.5377H79.0809V21.0377H79.0555V21.5377ZM79.032 22.2393C79.1145 22.0467 79.2046 21.7462 79.2989 21.345L78.8122 21.2305C78.7196 21.6243 78.6374 21.8907 78.5724 22.0425L79.032 22.2393ZM76.1764 29.0155L79.0326 22.238L78.5718 22.0438L75.7157 28.8214L76.1764 29.0155ZM75.4647 29.1684H75.946V28.6684H75.4647V29.1684ZM72.3848 22.2883L75.2345 29.016L75.6949 28.8209L72.8452 22.0932L72.3848 22.2883ZM72.1234 21.3391C72.2091 21.7461 72.2926 22.0667 72.3842 22.2868L72.8458 22.0947C72.7737 21.9213 72.6979 21.6407 72.6126 21.236L72.1234 21.3391ZM72.3427 21.5376H72.368V21.0376H72.3427V21.5376ZM72.6433 23.013C72.6433 22.2115 72.6237 21.6291 72.5917 21.2656L72.0936 21.3095C72.1237 21.6509 72.1433 22.2159 72.1433 23.013H72.6433ZM72.6433 28.9184V23.013H72.1433V28.9184H72.6433ZM71.4498 29.1684H72.3933V28.6684H71.4498V29.1684ZM131.432 21.3188L132.389 20.9949L132.229 20.5213L131.272 20.8452L131.432 21.3188ZM131.602 22.6209V21.082H131.102V22.6209H131.602ZM130.327 22.8709H131.352V22.3709H130.327V22.8709ZM130.577 23.4803V22.6209H130.077V23.4803H130.577ZM131.352 23.2303H130.327V23.7303H131.352V23.2303ZM131.602 27.2055V23.4803H131.102V27.2055H131.602ZM132.923 28.8056C132.451 28.8056 132.138 28.6676 131.936 28.43C131.728 28.1847 131.602 27.7907 131.602 27.2055H131.102C131.102 27.8503 131.239 28.3813 131.555 28.7535C131.878 29.1335 132.35 29.3056 132.923 29.3056V28.8056ZM133.684 28.6402C133.508 28.7426 133.263 28.8056 132.923 28.8056V29.3056C133.321 29.3056 133.661 29.2322 133.935 29.0723L133.684 28.6402ZM133.56 27.9967V28.8563H134.06V27.9967H133.56ZM133.183 28.4522C133.472 28.4522 133.74 28.372 133.966 28.192L133.653 27.8014C133.529 27.9005 133.376 27.9522 133.183 27.9522V28.4522ZM132.312 28.0848C132.512 28.3505 132.823 28.4522 133.183 28.4522V27.9522C132.913 27.9522 132.783 27.8789 132.711 27.7838L132.312 28.0848ZM132.059 27.0313C132.059 27.4658 132.125 27.8366 132.312 28.0848L132.711 27.7838C132.626 27.6712 132.559 27.4404 132.559 27.0313H132.059ZM132.059 23.4801V27.0313H132.559V23.4801H132.059ZM133.81 23.2301H132.309V23.7301H133.81V23.2301ZM133.56 22.6205V23.4801H134.06V22.6205H133.56ZM132.309 22.8705H133.81V22.3705H132.309V22.8705ZM132.059 20.7581V22.6205H132.559V20.7581H132.059ZM87.6303 22.2212C86.6278 22.2212 85.7995 22.5628 85.1833 23.2514L85.5559 23.5848C86.066 23.0148 86.7523 22.7212 87.6303 22.7212V22.2212ZM89.1249 22.5603C88.6857 22.3351 88.1899 22.2212 87.6303 22.2212V22.7212C88.1198 22.7212 88.5359 22.8202 88.8967 23.0053L89.1249 22.5603ZM89.2608 23.8106V22.7828H88.7608V23.8106H89.2608ZM87.5923 23.5746C88.0403 23.5746 88.4593 23.7132 88.862 24.0115L89.1596 23.6097C88.6763 23.2517 88.1542 23.0746 87.5923 23.0746V23.5746ZM86.2822 24.1777C86.6246 23.7733 87.0549 23.5746 87.5923 23.5746V23.0746C86.9096 23.0746 86.3392 23.3367 85.9006 23.8545L86.2822 24.1777ZM85.7523 25.8291C85.7523 25.1243 85.9378 24.5843 86.2822 24.1777L85.9006 23.8545C85.464 24.37 85.2523 25.0328 85.2523 25.8291H85.7523ZM86.2429 27.4161C85.9258 27.0478 85.7523 26.526 85.7523 25.8291H85.2523C85.2523 26.6073 85.4469 27.258 85.8641 27.7424L86.2429 27.4161ZM87.5288 27.9648C86.9748 27.9648 86.5567 27.7808 86.243 27.4162L85.864 27.7423C86.284 28.2305 86.8475 28.4648 87.5288 28.4648V27.9648ZM88.8424 27.471C88.4222 27.8054 87.9856 27.9648 87.5288 27.9648V28.4648C88.1133 28.4648 88.6571 28.2574 89.1537 27.8622L88.8424 27.471ZM89.248 28.6258V27.6666H88.748V28.6258H89.248ZM87.3708 29.3182C88.042 29.3182 88.6294 29.1559 89.132 28.8369L88.8641 28.4147C88.4503 28.6774 87.958 28.8182 87.3708 28.8182V29.3182ZM85.1198 28.3565C85.694 28.9985 86.4553 29.3182 87.3708 29.3182V28.8182C86.584 28.8182 85.9631 28.5494 85.4925 28.0232L85.1198 28.3565ZM84.2709 25.9162C84.2709 26.8963 84.5488 27.7182 85.1198 28.3565L85.4925 28.0232C85.0182 27.493 84.7709 26.7972 84.7709 25.9162H84.2709ZM85.1833 23.2513C84.5705 23.9358 84.2709 24.8315 84.2709 25.9162H84.7709C84.7709 24.927 85.0418 24.159 85.5558 23.5848L85.1833 23.2513ZM95.2045 23.5317C95.6975 22.9967 96.3688 22.7212 97.2438 22.7212V22.2212C96.2535 22.2212 95.4398 22.5386 94.8368 23.1929L95.2045 23.5317ZM94.4477 25.8415C94.4477 24.8266 94.711 24.0671 95.2045 23.5317L94.8369 23.1928C94.2348 23.8459 93.9477 24.7405 93.9477 25.8415H94.4477ZM95.1755 28.0169C94.6989 27.4846 94.4477 26.7659 94.4477 25.8415H93.9477C93.9477 26.8597 94.2266 27.7067 94.803 28.3504L95.1755 28.0169ZM97.1045 28.8183C96.2845 28.8183 95.6489 28.5459 95.1755 28.017L94.803 28.3504C95.3826 28.998 96.1603 29.3183 97.1045 29.3183V28.8183ZM99.0773 27.9927C98.5917 28.5381 97.9467 28.8183 97.1045 28.8183V29.3183C98.0728 29.3183 98.8598 28.989 99.4507 28.3252L99.0773 27.9927ZM99.8246 25.742C99.8246 26.6999 99.5658 27.4439 99.0773 27.9927L99.4507 28.3252C100.039 27.6648 100.325 26.7926 100.325 25.742H99.8246ZM99.138 23.5007C99.5861 24.0197 99.8246 24.7558 99.8246 25.742H100.325C100.325 24.6778 100.067 23.8112 99.5165 23.174L99.138 23.5007ZM97.2438 22.7212C98.0741 22.7212 98.6944 22.9868 99.138 23.5007L99.5165 23.174C98.9614 22.531 98.1923 22.2212 97.2438 22.2212V22.7212ZM103.539 22.2212C103.224 22.2212 102.917 22.265 102.621 22.3492L102.758 22.8301C103.01 22.7584 103.271 22.7212 103.539 22.7212V22.2212ZM105.024 22.5315C104.58 22.3255 104.088 22.2212 103.539 22.2212V22.7212C104.023 22.7212 104.442 22.8127 104.814 22.9851L105.024 22.5315ZM105.169 23.7799V22.7583H104.669V23.7799H105.169ZM103.411 23.5752C103.935 23.5752 104.382 23.7129 104.777 23.9856L105.061 23.5741C104.577 23.2405 104.03 23.0752 103.411 23.0752V23.5752ZM102.996 23.6269C103.11 23.5927 103.249 23.5752 103.411 23.5752V23.0752C103.216 23.0752 103.026 23.0959 102.852 23.1479L102.996 23.6269ZM102.701 23.7675C102.775 23.7117 102.873 23.6636 102.996 23.6269L102.852 23.1479C102.687 23.1973 102.532 23.2688 102.4 23.3685L102.701 23.7675ZM102.539 23.9608C102.577 23.8854 102.632 23.8192 102.701 23.7675L102.4 23.3685C102.27 23.466 102.165 23.5915 102.093 23.7357L102.539 23.9608ZM102.477 24.2097C102.477 24.1205 102.499 24.0384 102.538 23.9637L102.094 23.7328C102.02 23.8754 101.977 24.0364 101.977 24.2097H102.477ZM102.539 24.5077C102.503 24.4369 102.477 24.3403 102.477 24.2097H101.977C101.977 24.4068 102.016 24.5828 102.093 24.7337L102.539 24.5077ZM102.718 24.7175C102.633 24.6503 102.576 24.5811 102.538 24.5069L102.093 24.7345C102.168 24.8816 102.275 25.0046 102.408 25.1096L102.718 24.7175ZM103.057 24.9218C102.936 24.8679 102.822 24.7991 102.718 24.7172L102.408 25.1098C102.545 25.2176 102.695 25.308 102.854 25.3788L103.057 24.9218ZM103.491 25.1056C103.328 25.0384 103.185 24.9792 103.058 24.9223L102.853 25.3784C102.989 25.4392 103.14 25.5014 103.301 25.5678L103.491 25.1056ZM103.583 25.1435L103.491 25.1057L103.301 25.5678L103.392 25.6057L103.583 25.1435ZM104.315 25.4842C104.077 25.3569 103.832 25.2428 103.58 25.1425L103.395 25.6067C103.629 25.7003 103.857 25.8066 104.079 25.9252L104.315 25.4842ZM104.908 25.904C104.74 25.7437 104.54 25.6051 104.315 25.4844L104.079 25.925C104.273 26.0292 104.434 26.1426 104.562 26.2653L104.908 25.904ZM105.307 26.4783C105.214 26.2623 105.078 26.0671 104.908 25.9041L104.562 26.2652C104.685 26.3822 104.781 26.5218 104.848 26.6757L105.307 26.4783ZM105.448 27.2308C105.448 26.95 105.403 26.6995 105.307 26.4778L104.848 26.6762C104.911 26.8229 104.948 27.0034 104.948 27.2308H105.448ZM105.219 28.1702C105.374 27.8968 105.448 27.5781 105.448 27.2308H104.948C104.948 27.5071 104.889 27.7378 104.784 27.9237L105.219 28.1702ZM104.624 28.8198C104.87 28.6506 105.073 28.4284 105.219 28.1697L104.784 27.9241C104.675 28.1161 104.524 28.2816 104.34 28.4079L104.624 28.8198ZM103.79 29.1987C104.089 29.1225 104.371 28.9941 104.624 28.8196L104.34 28.4081C104.136 28.5488 103.908 28.6526 103.667 28.7143L103.79 29.1987ZM102.836 29.3185C103.167 29.3185 103.487 29.2775 103.791 29.1985L103.666 28.7145C103.403 28.7827 103.125 28.8185 102.836 28.8185V29.3185ZM101.118 28.9073C101.611 29.1807 102.186 29.3185 102.836 29.3185V28.8185C102.258 28.8185 101.769 28.6965 101.361 28.47L101.118 28.9073ZM100.989 27.6112V28.6886H101.489V27.6112H100.989ZM102.956 27.9652C102.388 27.9652 101.872 27.7867 101.393 27.4139L101.086 27.8085C101.649 28.2466 102.272 28.4652 102.956 28.4652V27.9652ZM103.966 27.3305C103.966 27.5581 103.89 27.6964 103.757 27.7895C103.608 27.894 103.354 27.9652 102.956 27.9652V28.4652C103.397 28.4652 103.773 28.3892 104.044 28.1989C104.332 27.9972 104.466 27.6932 104.466 27.3305H103.966ZM103.896 27.0377C103.939 27.1078 103.966 27.199 103.966 27.3305H104.466C104.466 27.1256 104.422 26.9396 104.322 26.7761L103.896 27.0377ZM103.671 26.7983C103.761 26.8639 103.838 26.9459 103.897 27.0397L104.32 26.7742C104.227 26.6256 104.106 26.4963 103.964 26.3932L103.671 26.7983ZM103.289 26.5827C103.424 26.64 103.552 26.7123 103.67 26.7982L103.964 26.3933C103.815 26.2853 103.654 26.1944 103.484 26.1224L103.289 26.5827ZM102.76 26.3596C102.949 26.4369 103.123 26.5108 103.287 26.5818L103.486 26.1233C103.319 26.0508 103.141 25.9755 102.949 25.897L102.76 26.3596ZM102.029 26.0097C102.24 26.1282 102.488 26.2456 102.758 26.3588L102.951 25.8978C102.693 25.7894 102.463 25.6802 102.274 25.5739L102.029 26.0097ZM101.476 25.5836C101.628 25.7447 101.808 25.8854 102.029 26.0096L102.274 25.574C102.094 25.4726 101.955 25.3621 101.839 25.2402L101.476 25.5836ZM101.119 25.0136C101.199 25.2253 101.32 25.4191 101.476 25.5838L101.839 25.2399C101.729 25.1235 101.643 24.9869 101.588 24.8382L101.119 25.0136ZM101.002 24.2904C101.002 24.554 101.038 24.7985 101.12 25.0141L101.587 24.8377C101.533 24.6921 101.502 24.5104 101.502 24.2904H101.002ZM101.225 23.3888C101.072 23.6591 101.002 23.9585 101.002 24.2904H101.502C101.502 24.0318 101.556 23.8193 101.66 23.6343L101.225 23.3888ZM101.809 22.7355C101.566 22.9106 101.37 23.1298 101.225 23.3888L101.66 23.6343C101.771 23.4381 101.917 23.2738 102.101 23.1415L101.809 22.7355ZM102.621 22.3492C102.322 22.4344 102.048 22.5638 101.809 22.7355L102.101 23.1415C102.289 23.0062 102.51 22.9008 102.758 22.8301L102.621 22.3492ZM107.256 23.5317C107.749 22.9967 108.42 22.7212 109.295 22.7212V22.2212C108.305 22.2212 107.491 22.5386 106.888 23.1929L107.256 23.5317ZM106.499 25.8415C106.499 24.8266 106.762 24.0671 107.256 23.5317L106.888 23.1928C106.286 23.8459 105.999 24.7405 105.999 25.8415H106.499ZM107.227 28.0169C106.75 27.4846 106.499 26.7659 106.499 25.8415H105.999C105.999 26.8597 106.278 27.7067 106.854 28.3504L107.227 28.0169ZM109.156 28.8183C108.336 28.8183 107.7 28.5459 107.227 28.017L106.854 28.3504C107.434 28.998 108.212 29.3183 109.156 29.3183V28.8183ZM111.129 27.9927C110.643 28.5381 109.998 28.8183 109.156 28.8183V29.3183C110.124 29.3183 110.911 28.989 111.502 28.3252L111.129 27.9927ZM111.876 25.742C111.876 26.6999 111.617 27.4439 111.129 27.9927L111.502 28.3252C112.09 27.6648 112.376 26.7926 112.376 25.742H111.876ZM111.189 23.5007C111.637 24.0197 111.876 24.7558 111.876 25.742H112.376C112.376 24.6778 112.118 23.8112 111.568 23.174L111.189 23.5007ZM109.295 22.7212C110.126 22.7212 110.746 22.9868 111.189 23.5007L111.568 23.174C111.013 22.531 110.244 22.2212 109.295 22.2212V22.7212ZM137.736 22.2212C136.746 22.2212 135.932 22.5386 135.329 23.1928L135.697 23.5317C136.19 22.9967 136.861 22.7212 137.736 22.7212V22.2212ZM140.009 23.174C139.454 22.531 138.685 22.2212 137.736 22.2212V22.7212C138.567 22.7212 139.187 22.9868 139.63 23.5007L140.009 23.174ZM140.817 25.742C140.817 24.6778 140.559 23.8112 140.009 23.1739L139.63 23.5008C140.078 24.0197 140.317 24.7557 140.317 25.742H140.817ZM139.943 28.3252C140.531 27.6648 140.817 26.7926 140.817 25.742H140.317C140.317 26.6999 140.058 27.4439 139.569 27.9927L139.943 28.3252ZM137.597 29.3183C138.565 29.3183 139.352 28.989 139.943 28.3252L139.569 27.9927C139.084 28.5382 138.439 28.8183 137.597 28.8183V29.3183ZM135.295 28.3504C135.875 28.998 136.653 29.3183 137.597 29.3183V28.8183C136.777 28.8183 136.141 28.5459 135.668 28.0169L135.295 28.3504ZM134.44 25.8415C134.44 26.8598 134.719 27.7067 135.295 28.3504L135.668 28.017C135.191 27.4846 134.94 26.7659 134.94 25.8415H134.44ZM135.329 23.1929C134.727 23.8459 134.44 24.7404 134.44 25.8415H134.94C134.94 24.8267 135.203 24.0671 135.697 23.5317L135.329 23.1929ZM146.811 23.5617C147.292 22.9981 147.886 22.7212 148.591 22.7212V22.2212C147.733 22.2212 147.003 22.5667 146.431 23.237L146.811 23.5617ZM146.079 25.7914C146.079 24.8587 146.331 24.1248 146.811 23.5616L146.431 23.2371C145.858 23.9078 145.579 24.7643 145.579 25.7914H146.079ZM146.743 28.0474C146.312 27.5355 146.079 26.7927 146.079 25.7914H145.579C145.579 26.8645 145.828 27.7375 146.36 28.3694L146.743 28.0474ZM148.546 28.818C147.766 28.818 147.17 28.5552 146.743 28.0473L146.36 28.3695C146.896 29.0058 147.64 29.318 148.546 29.318V28.818ZM150.477 28.2655C150.008 28.6247 149.371 28.818 148.546 28.818V29.318C149.447 29.318 150.202 29.1062 150.781 28.6624L150.477 28.2655ZM150.379 27.5171V28.464H150.879V27.5171H150.379ZM148.774 28.4648C149.509 28.4648 150.185 28.2109 150.789 27.7095L150.47 27.3247C149.948 27.7574 149.384 27.9648 148.774 27.9648V28.4648ZM147.176 27.8085C147.573 28.2513 148.118 28.4648 148.774 28.4648V27.9648C148.234 27.9648 147.835 27.794 147.548 27.4744L147.176 27.8085ZM146.574 26.0274C146.59 26.767 146.782 27.3691 147.176 27.8083L147.548 27.4747C147.258 27.1512 147.088 26.6784 147.074 26.0163L146.574 26.0274ZM151.035 25.7719H146.824V26.2719H151.035V25.7719ZM150.785 25.4924V26.0219H151.285V25.4924H150.785ZM150.207 23.4312C150.586 23.9042 150.785 24.5788 150.785 25.4924H151.285C151.285 24.5123 151.072 23.711 150.597 23.1183L150.207 23.4312ZM148.591 22.7214C149.307 22.7214 149.833 22.9654 150.207 23.4311L150.597 23.1184C150.116 22.518 149.436 22.2214 148.591 22.2214V22.7214ZM148.341 22.4712V22.4714H148.841V22.4712H148.341ZM93.0006 22.2585C92.5874 22.2585 92.218 22.411 91.8975 22.6952L92.2292 23.0693C92.468 22.8576 92.722 22.7585 93.0006 22.7585V22.2585ZM93.2506 22.5087V22.5085H92.7506V22.5087H93.2506ZM93.6701 22.3665C93.4923 22.2893 93.2636 22.2587 93.0006 22.2587V22.7587C93.235 22.7587 93.3844 22.7875 93.4709 22.8251L93.6701 22.3665ZM93.8205 23.6421V22.5958H93.3205V23.6421H93.8205ZM92.8422 23.6866C93.1244 23.6866 93.3066 23.7503 93.4133 23.8366L93.7277 23.4477C93.5 23.2637 93.1894 23.1866 92.8422 23.1866V23.6866ZM92.0296 24.1871C92.2689 23.8327 92.5361 23.6866 92.8422 23.6866V23.1866C92.3324 23.1866 91.9243 23.4496 91.6152 23.9073L92.0296 24.1871ZM91.661 25.7105C91.661 25.0385 91.7936 24.5371 92.0297 24.187L91.6151 23.9074C91.3041 24.3686 91.161 24.9799 91.161 25.7105H91.661ZM91.661 28.9188V25.7105H91.161V28.9188H91.661ZM90.4545 29.1688H91.411V28.6688H90.4545V29.1688ZM90.2045 22.6207V28.9188H90.7045V22.6207H90.2045ZM91.411 22.3707H90.4545V22.8707H91.411V22.3707ZM91.661 23.9164V22.6207H91.161V23.9164H91.661ZM91.4364 23.6664H91.411V24.1664H91.4364V23.6664ZM91.8976 22.6951C91.5771 22.9791 91.3442 23.3649 91.1974 23.8431L91.6754 23.9898C91.8005 23.5821 91.9899 23.2814 92.2292 23.0694L91.8976 22.6951ZM143.861 23.0694C144.1 22.8576 144.354 22.7585 144.632 22.7585V22.2585C144.219 22.2585 143.85 22.411 143.529 22.6951L143.861 23.0694ZM143.307 23.9899C143.432 23.5821 143.622 23.2813 143.861 23.0693L143.529 22.6952C143.209 22.9791 142.976 23.3649 142.829 23.843L143.307 23.9899ZM143.049 24.1664H143.068V23.6664H143.049V24.1664ZM142.799 22.6207V23.9164H143.299V22.6207H142.799ZM142.093 22.8707H143.049V22.3707H142.093V22.8707ZM142.343 28.9188V22.6207H141.843V28.9188H142.343ZM143.049 28.6688H142.093V29.1688H143.049V28.6688ZM142.799 25.7105V28.9188H143.299V25.7105H142.799ZM143.253 23.9074C142.942 24.3686 142.799 24.9799 142.799 25.7105H143.299C143.299 25.0385 143.432 24.5371 143.668 24.187L143.253 23.9074ZM144.486 23.1866C143.978 23.1866 143.563 23.4482 143.253 23.9073L143.668 24.1871C143.906 23.8341 144.179 23.6866 144.486 23.6866V23.1866ZM145.366 23.4478C145.139 23.2643 144.835 23.1866 144.486 23.1866V23.6866C144.767 23.6866 144.944 23.7497 145.051 23.8365L145.366 23.4478ZM144.958 22.5958V23.6421H145.458V22.5958H144.958ZM144.632 22.7587C144.868 22.7587 145.023 22.7878 145.108 22.825L145.308 22.3666C145.13 22.289 144.894 22.2587 144.632 22.2587V22.7587ZM144.382 22.5085V22.5087H144.882V22.5085H144.382ZM81.7948 22.6207V28.9188H82.2948V22.6207H81.7948ZM82.9949 22.3707H82.0448V22.8707H82.9949V22.3707ZM83.2449 28.9188V22.6207H82.7449V28.9188H83.2449ZM82.0448 29.1688H82.9949V28.6688H82.0448V29.1688ZM98.7961 23.8064C98.4082 23.3086 97.8477 23.0746 97.1678 23.0746V23.5746C97.7232 23.5746 98.1254 23.7592 98.4017 24.1138L98.7961 23.8064ZM99.343 25.7791C99.343 24.9619 99.1755 24.2937 98.7962 23.8065L98.4016 24.1137C98.6866 24.4797 98.843 25.0218 98.843 25.7791H99.343ZM98.7955 27.7399C99.1753 27.2566 99.343 26.5876 99.343 25.7791H98.843C98.843 26.5277 98.6864 27.0695 98.4023 27.431L98.7955 27.7399ZM97.1678 28.4646C97.8466 28.4646 98.4068 28.2334 98.7953 27.7401L98.4025 27.4308C98.1263 27.7815 97.7239 27.9646 97.1678 27.9646V28.4646ZM95.5261 27.7336C95.9395 28.2263 96.4956 28.4646 97.1678 28.4646V27.9646C96.6277 27.9646 96.2179 27.7803 95.9091 27.4122L95.5261 27.7336ZM94.9293 25.8038C94.9293 26.5875 95.1154 27.2442 95.5261 27.7336L95.9091 27.4122C95.5972 27.0405 95.4293 26.5119 95.4293 25.8038H94.9293ZM95.5172 23.8273C95.1116 24.327 94.9293 24.9934 94.9293 25.8038H95.4293C95.4293 25.0645 95.5956 24.5241 95.9054 24.1423L95.5172 23.8273ZM97.1678 23.0746C96.4856 23.0746 95.9263 23.3229 95.5171 23.8273L95.9055 24.1423C96.2109 23.7657 96.6219 23.5746 97.1678 23.5746V23.0746ZM109.219 23.5746C109.775 23.5746 110.177 23.7592 110.453 24.1138L110.847 23.8064C110.459 23.3086 109.899 23.0746 109.219 23.0746V23.5746ZM107.957 24.1423C108.262 23.7657 108.673 23.5746 109.219 23.5746V23.0746C108.537 23.0746 107.978 23.3229 107.568 23.8273L107.957 24.1423ZM107.481 25.8038C107.481 25.0645 107.647 24.5241 107.957 24.1423L107.569 23.8273C107.163 24.327 106.981 24.9934 106.981 25.8038H107.481ZM107.96 27.4122C107.648 27.0405 107.481 26.5119 107.481 25.8038H106.981C106.981 26.5875 107.167 27.2442 107.577 27.7336L107.96 27.4122ZM109.219 27.9646C108.679 27.9646 108.269 27.7803 107.96 27.4122L107.577 27.7336C107.991 28.2263 108.547 28.4646 109.219 28.4646V27.9646ZM110.454 27.4308C110.178 27.7815 109.775 27.9646 109.219 27.9646V28.4646C109.898 28.4646 110.458 28.2334 110.847 27.7401L110.454 27.4308ZM110.894 25.7791C110.894 26.5277 110.738 27.0695 110.454 27.431L110.847 27.7399C111.227 27.2566 111.394 26.5876 111.394 25.7791H110.894ZM110.453 24.1137C110.738 24.4797 110.894 25.0218 110.894 25.7791H111.394C111.394 24.9619 111.227 24.2937 110.847 23.8065L110.453 24.1137ZM139.288 23.8065C138.901 23.3086 138.34 23.0746 137.66 23.0746V23.5746C138.216 23.5746 138.618 23.7592 138.894 24.1137L139.288 23.8065ZM139.835 25.7791C139.835 24.962 139.668 24.2937 139.288 23.8064L138.894 24.1137C139.179 24.4797 139.335 25.0217 139.335 25.7791H139.835ZM139.288 27.7401C139.668 27.2566 139.835 26.5875 139.835 25.7791H139.335C139.335 26.5279 139.179 27.0695 138.895 27.4309L139.288 27.7401ZM137.66 28.4646C138.339 28.4646 138.899 28.2334 139.287 27.7401L138.895 27.4308C138.618 27.7815 138.216 27.9646 137.66 27.9646V28.4646ZM136.018 27.7337C136.432 28.2263 136.988 28.4646 137.66 28.4646V27.9646C137.12 27.9646 136.71 27.7803 136.401 27.4122L136.018 27.7337ZM135.422 25.8038C135.422 26.5875 135.608 27.2442 136.018 27.7336L136.401 27.4123C136.089 27.0405 135.922 26.5119 135.922 25.8038H135.422ZM136.009 23.8273C135.604 24.327 135.422 24.9934 135.422 25.8038H135.922C135.922 25.0645 136.088 24.5241 136.398 24.1423L136.009 23.8273ZM137.66 23.0746C136.978 23.0746 136.419 23.3229 136.009 23.8273L136.398 24.1423C136.703 23.7656 137.114 23.5746 137.66 23.5746V23.0746ZM148.572 23.5746C148.974 23.5746 149.259 23.7053 149.467 23.9616L149.855 23.6468C149.538 23.2557 149.101 23.0746 148.572 23.0746V23.5746ZM148.822 23.3248V23.3246H148.322V23.3248H148.822ZM147.603 23.9989C147.869 23.7105 148.19 23.5748 148.572 23.5748V23.0748C148.052 23.0748 147.598 23.2672 147.236 23.6594L147.603 23.9989ZM147.084 25.2018C147.153 24.6923 147.33 24.2939 147.603 23.9989L147.236 23.6594C146.879 24.0449 146.668 24.5459 146.589 25.1351L147.084 25.2018ZM150.06 24.9185H146.836V25.4185H150.06V24.9185ZM149.467 23.9616C149.681 24.2264 149.806 24.6217 149.81 25.1701L150.31 25.1668C150.306 24.5508 150.165 24.0298 149.855 23.6468L149.467 23.9616Z" fill="white"/>
</svg>
