<svg width="16" height="10" viewBox="0 0 16 10" fill="none" xmlns="http://www.w3.org/2000/svg">
<path fill-rule="evenodd" clip-rule="evenodd" d="M0.599669 0.17786C0.796424 0.0575949 1.01489 0 1.24361 0C1.58834 0 1.89285 0.131864 2.13276 0.378993L2.13747 0.383843L8 6.79405L13.8653 0.380797L13.873 0.373126C14.114 0.133819 14.4145 0 14.7564 0C14.9833 0 15.2013 0.0567673 15.3958 0.180396C15.5867 0.298122 15.7364 0.460362 15.842 0.658033C15.9499 0.860123 16 1.08064 16 1.30972C16 1.65365 15.8786 1.96235 15.6448 2.21346L8.92389 9.57918C8.80815 9.71124 8.66941 9.81588 8.51101 9.89119L8.50511 9.89399L8.49913 9.89662C8.34192 9.96587 8.17555 10 8.00434 10C7.64498 10 7.33514 9.84751 7.08852 9.5925L7.08404 9.58787L0.355302 2.22288C0.24438 2.10375 0.156523 1.968 0.0947583 1.81699L0.0911736 1.80822C0.0296529 1.64841 0 1.48107 0 1.30972C0 1.08064 0.0500761 0.860123 0.158034 0.658033C0.26148 0.464388 0.40568 0.302234 0.591252 0.183133L0.599669 0.17786Z" fill="#707078"/>
</svg>
