<svg width="48" height="48" fill="none" xmlns="http://www.w3.org/2000/svg"><path opacity=".5" d="M31.5 0C40.613 0 48 7.387 48 16.5v1C48 26.613 40.613 34 31.5 34S15 26.613 15 17.5v-1C15 7.387 22.387 0 31.5 0Z" fill="#FFB6AD"/><path fill-rule="evenodd" clip-rule="evenodd" d="M10.5 19v5.596c0 1.064-.484 2.07-1.314 2.734-.608.488-1.27 1.016-1.828 1.462A4.954 4.954 0 0 0 5.5 32.66c0 1.548.616 3.034 1.71 4.13a5.849 5.849 0 0 0 4.13 1.71h25.32a5.849 5.849 0 0 0 4.13-1.71 5.849 5.849 0 0 0 1.71-4.13 4.954 4.954 0 0 0-1.858-3.868c-.558-.446-1.22-.974-1.828-1.462a3.502 3.502 0 0 1-1.314-2.734V19c0-7.456-6.044-13.5-13.5-13.5S10.5 11.544 10.5 19Zm3 0c0-5.8 4.702-10.5 10.5-10.5S34.5 13.202 34.5 19v5.596c0 1.976.898 3.844 2.44 5.076.608.488 1.27 1.018 1.828 1.462.462.372.732.932.732 1.526a2.84 2.84 0 0 1-2.84 2.84H11.34a2.84 2.84 0 0 1-2.84-2.84c0-.594.27-1.154.732-1.526.558-.444 1.22-.974 1.828-1.462a6.497 6.497 0 0 0 2.44-5.076V19Z" fill="url(#a)"/><path fill-rule="evenodd" clip-rule="evenodd" d="M26.248 39.898A4.465 4.465 0 0 1 24 40.5a4.465 4.465 0 0 1-2.248-.602 1.502 1.502 0 0 0-2.05.546 1.501 1.501 0 0 0 .546 2.05A7.459 7.459 0 0 0 24 43.5a7.459 7.459 0 0 0 3.752-1.006c.716-.414.96-1.332.546-2.05a1.502 1.502 0 0 0-2.05-.546Z" fill="url(#b)"/><defs><linearGradient id="a" x1="37.743" y1="13.115" x2="7.279" y2="35.605" gradientUnits="userSpaceOnUse"><stop stop-color="#FF6A58"/><stop offset="1" stop-color="#BD060A"/></linearGradient><linearGradient id="b" x1="27.343" y1="40.574" x2="24.002" y2="45.778" gradientUnits="userSpaceOnUse"><stop stop-color="#FF6A58"/><stop offset="1" stop-color="#BD060A"/></linearGradient></defs></svg>