<svg width="85" height="72" fill="none" xmlns="http://www.w3.org/2000/svg"><path d="M33.738 34.572c0 .707.573 1.28 1.28 1.28H50.27a1.28 1.28 0 0 0 1.28-1.28V19.267c0-.706.573-1.28 1.28-1.28h.09c1.139 0 1.71-1.376.906-2.183L43.55 5.496a1.28 1.28 0 0 0-1.813 0L31.462 15.803c-.805.807-.233 2.183.906 2.183h.09c.707 0 1.28.574 1.28 1.28v15.306Z" fill="url(#a)"/><g filter="url(#b)"><path d="M35.448 23.263c3.538 0 6.752 1.387 9.128 3.646 1.661 1.58 4.078 2.396 6.367 2.262a11.772 11.772 0 0 1 10.963 5.982c.92 1.633 2.44 2.936 4.16 3.687a10.307 10.307 0 0 1 6.182 9.447c0 5.69-4.613 10.304-10.304 10.304h-36.8c-6.503 0-11.776-5.273-11.776-11.776 0-4.373 2.384-8.19 5.923-10.22 1.659-.953 2.99-2.509 3.601-4.322 1.768-5.238 6.721-9.01 12.556-9.01Z" fill="url(#c)" fill-opacity=".4" shape-rendering="crispEdges"/></g><g filter="url(#d)"><path fill-rule="evenodd" clip-rule="evenodd" d="M22.468 32.13c1.826-5.414 6.947-9.315 12.98-9.315a13.65 13.65 0 0 1 9.437 3.77c1.565 1.488 3.858 2.267 6.031 2.14a12.22 12.22 0 0 1 11.38 6.209c.869 1.541 2.311 2.78 3.949 3.496a10.754 10.754 0 0 1 6.45 9.857c0 5.939-4.813 10.752-10.751 10.752h-36.8c-6.751 0-12.224-5.472-12.224-12.224a12.22 12.22 0 0 1 6.147-10.608c1.57-.902 2.826-2.373 3.4-4.076Zm12.98-8.419c-5.637 0-10.424 3.644-12.131 8.706-.65 1.923-2.055 3.563-3.804 4.567a11.324 11.324 0 0 0-5.697 9.831c0 6.257 5.072 11.328 11.328 11.328h36.8c5.443 0 9.856-4.412 9.856-9.856a9.858 9.858 0 0 0-5.914-9.036c-1.8-.786-3.398-2.152-4.37-3.877a11.324 11.324 0 0 0-10.547-5.755c-2.403.14-4.944-.713-6.702-2.384a12.755 12.755 0 0 0-8.82-3.524Z" fill="url(#e)" shape-rendering="crispEdges"/></g><defs><linearGradient id="a" x1="56.003" y1="35.852" x2="22.603" y2="15.613" gradientUnits="userSpaceOnUse"><stop stop-color="#FFB6AD"/><stop offset="1" stop-color="#E5322D"/></linearGradient><linearGradient id="c" x1="42.808" y1="25.98" x2="42.808" y2="58.591" gradientUnits="userSpaceOnUse"><stop stop-color="#fff" stop-opacity=".2"/><stop offset="1" stop-color="#fff" stop-opacity=".5"/></linearGradient><linearGradient id="e" x1="72.248" y1="23.263" x2="13.368" y2="58.591" gradientUnits="userSpaceOnUse"><stop stop-color="#fff"/><stop offset="1" stop-color="#fff" stop-opacity="0"/></linearGradient><filter id="b" x="1.368" y="11.263" width="82.88" height="59.328" filterUnits="userSpaceOnUse" color-interpolation-filters="sRGB"><feFlood flood-opacity="0" result="BackgroundImageFix"/><feGaussianBlur in="BackgroundImageFix" stdDeviation="6"/><feComposite in2="SourceAlpha" operator="in" result="effect1_backgroundBlur_2843_2734"/><feColorMatrix in="SourceAlpha" values="0 0 0 0 0 0 0 0 0 0 0 0 0 0 0 0 0 0 127 0" result="hardAlpha"/><feOffset/><feGaussianBlur stdDeviation="6"/><feComposite in2="hardAlpha" operator="out"/><feColorMatrix values="0 0 0 0 0 0 0 0 0 0 0 0 0 0 0 0 0 0 0.15 0"/><feBlend in2="effect1_backgroundBlur_2843_2734" result="effect2_dropShadow_2843_2734"/><feBlend in="SourceGraphic" in2="effect2_dropShadow_2843_2734" result="shape"/></filter><filter id="d" x=".92" y="10.815" width="83.776" height="60.224" filterUnits="userSpaceOnUse" color-interpolation-filters="sRGB"><feFlood flood-opacity="0" result="BackgroundImageFix"/><feGaussianBlur in="BackgroundImageFix" stdDeviation="6"/><feComposite in2="SourceAlpha" operator="in" result="effect1_backgroundBlur_2843_2734"/><feColorMatrix in="SourceAlpha" values="0 0 0 0 0 0 0 0 0 0 0 0 0 0 0 0 0 0 127 0" result="hardAlpha"/><feOffset/><feGaussianBlur stdDeviation="6"/><feComposite in2="hardAlpha" operator="out"/><feColorMatrix values="0 0 0 0 0 0 0 0 0 0 0 0 0 0 0 0 0 0 0.15 0"/><feBlend in2="effect1_backgroundBlur_2843_2734" result="effect2_dropShadow_2843_2734"/><feBlend in="SourceGraphic" in2="effect2_dropShadow_2843_2734" result="shape"/></filter></defs></svg>