<svg width="82" height="76" fill="none" xmlns="http://www.w3.org/2000/svg"><g filter="url(#a)"><path d="M13.088 17.768a4.48 4.48 0 0 1 4.48-4.48h47.36a4.48 4.48 0 0 1 4.48 4.48v33.28a4.48 4.48 0 0 1-4.48 4.48h-47.36a4.48 4.48 0 0 1-4.48-4.48v-33.28Z" fill="url(#b)" fill-opacity=".4" shape-rendering="crispEdges"/></g><g filter="url(#c)"><path fill-rule="evenodd" clip-rule="evenodd" d="M12.64 17.768a4.928 4.928 0 0 1 4.928-4.928h47.36a4.928 4.928 0 0 1 4.928 4.928v33.28a4.928 4.928 0 0 1-4.928 4.928h-47.36a4.928 4.928 0 0 1-4.928-4.928v-33.28Zm4.928-4.032a4.032 4.032 0 0 0-4.032 4.032v33.28a4.032 4.032 0 0 0 4.032 4.032h47.36a4.032 4.032 0 0 0 4.032-4.032v-33.28a4.032 4.032 0 0 0-4.032-4.032h-47.36Z" fill="url(#d)" shape-rendering="crispEdges"/></g><path d="M28.448 17.448a1.6 1.6 0 1 1-3.2 0 1.6 1.6 0 0 1 3.2 0ZM23.968 17.448a1.6 1.6 0 1 1-3.2 0 1.6 1.6 0 0 1 3.2 0ZM19.488 17.448a1.6 1.6 0 1 1-3.2 0 1.6 1.6 0 0 1 3.2 0Z" fill="#FDE4DF"/><path d="M38.589 31.397a3.72 3.72 0 0 1-3.716-3.716 3.72 3.72 0 0 1 3.716-3.716 3.72 3.72 0 0 1 3.716 3.716 3.72 3.72 0 0 1-3.716 3.716ZM31.899 39.632c-.555 0-1.06-.359-1.248-.88a1.337 1.337 0 0 1 .407-1.473 1.34 1.34 0 0 1 1.523-.112c.474.284.728.855.619 1.397a1.34 1.34 0 0 1-1.301 1.068Z" fill="#FFB6AD"/><path d="M53.167 69.247a22.576 22.576 0 0 1-15.297-5.95 22.575 22.575 0 0 1-7.246-14.59 1.327 1.327 0 0 1 1.655-1.405 5.505 5.505 0 0 0 6.852-5.958 1.327 1.327 0 0 1 1.128-1.464c1.916-.277 3.66-1.45 4.786-3.22 1.087-1.709 1.428-3.728.934-5.539a1.327 1.327 0 0 1 1.187-1.672 5.5 5.5 0 0 0 5.003-4.41 1.329 1.329 0 0 1 1.32-1.07 22.505 22.505 0 0 1 15.793 6.734 22.503 22.503 0 0 1 6.526 15.903 22.493 22.493 0 0 1-6.631 16.01 22.493 22.493 0 0 1-16.01 6.63Z" fill="url(#e)"/><g filter="url(#f)"><path d="M43.684 58.48a3.72 3.72 0 0 1-3.716-3.716 3.72 3.72 0 0 1 3.716-3.716 3.72 3.72 0 0 1 3.716 3.716 3.72 3.72 0 0 1-3.716 3.716Z" fill="#fff" fill-opacity=".3" shape-rendering="crispEdges"/></g><g filter="url(#g)"><path d="M55.204 43.76a3.72 3.72 0 0 1-3.716-3.716 3.72 3.72 0 0 1 3.716-3.716 3.72 3.72 0 0 1 3.716 3.716 3.72 3.72 0 0 1-3.716 3.716Z" fill="#fff" fill-opacity=".3" shape-rendering="crispEdges"/></g><g filter="url(#h)"><path d="M62.1 58.537a3.566 3.566 0 1 0-5.043-5.043 3.566 3.566 0 0 0 5.043 5.043Z" fill="url(#i)" fill-opacity=".4" shape-rendering="crispEdges"/></g><g filter="url(#j)"><path d="M51.444 63.035a1.337 1.337 0 0 1-1.248-.88 1.34 1.34 0 0 1 .407-1.472 1.338 1.338 0 0 1 1.523-.112c.473.285.73.853.62 1.397a1.341 1.341 0 0 1-1.302 1.067Z" fill="url(#k)" fill-opacity=".4" shape-rendering="crispEdges"/></g><g filter="url(#l)"><path d="M52.813 51.139c-.555 0-1.061-.359-1.248-.88a1.336 1.336 0 0 1 .407-1.473 1.338 1.338 0 0 1 1.522-.112c.475.285.729.854.62 1.397a1.34 1.34 0 0 1-1.301 1.068Z" fill="url(#m)" fill-opacity=".4" shape-rendering="crispEdges"/></g><g filter="url(#n)"><path d="M63.053 46.019c-.555 0-1.061-.36-1.249-.88a1.337 1.337 0 0 1 .408-1.473 1.339 1.339 0 0 1 1.522-.112c.475.285.729.854.62 1.397a1.34 1.34 0 0 1-1.301 1.068Z" fill="url(#o)" fill-opacity=".4" shape-rendering="crispEdges"/></g><g filter="url(#p)"><path d="M60.493 33.858c-.556 0-1.061-.358-1.249-.88a1.337 1.337 0 0 1 .407-1.472 1.339 1.339 0 0 1 1.523-.112c.475.284.729.854.62 1.397a1.34 1.34 0 0 1-1.301 1.068Z" fill="url(#q)" fill-opacity=".4" shape-rendering="crispEdges"/></g><defs><filter id="p" x="47.168" y="19.208" width="26.651" height="26.65" filterUnits="userSpaceOnUse" color-interpolation-filters="sRGB"><feFlood flood-opacity="0" result="BackgroundImageFix"/><feGaussianBlur in="BackgroundImageFix" stdDeviation="6"/><feComposite in2="SourceAlpha" operator="in" result="effect1_backgroundBlur_2799_2744"/><feColorMatrix in="SourceAlpha" values="0 0 0 0 0 0 0 0 0 0 0 0 0 0 0 0 0 0 127 0" result="hardAlpha"/><feOffset/><feGaussianBlur stdDeviation="6"/><feComposite in2="hardAlpha" operator="out"/><feColorMatrix values="0 0 0 0 0 0 0 0 0 0 0 0 0 0 0 0 0 0 0.15 0"/><feBlend in2="effect1_backgroundBlur_2799_2744" result="effect2_dropShadow_2799_2744"/><feBlend in="SourceGraphic" in2="effect2_dropShadow_2799_2744" result="shape"/></filter><filter id="a" x="1.088" y="1.288" width="80.32" height="66.24" filterUnits="userSpaceOnUse" color-interpolation-filters="sRGB"><feFlood flood-opacity="0" result="BackgroundImageFix"/><feGaussianBlur in="BackgroundImageFix" stdDeviation="6"/><feComposite in2="SourceAlpha" operator="in" result="effect1_backgroundBlur_2799_2744"/><feColorMatrix in="SourceAlpha" values="0 0 0 0 0 0 0 0 0 0 0 0 0 0 0 0 0 0 127 0" result="hardAlpha"/><feOffset/><feGaussianBlur stdDeviation="6"/><feComposite in2="hardAlpha" operator="out"/><feColorMatrix values="0 0 0 0 0 0 0 0 0 0 0 0 0 0 0 0 0 0 0.15 0"/><feBlend in2="effect1_backgroundBlur_2799_2744" result="effect2_dropShadow_2799_2744"/><feBlend in="SourceGraphic" in2="effect2_dropShadow_2799_2744" result="shape"/></filter><filter id="f" x="27.968" y="39.048" width="31.432" height="31.432" filterUnits="userSpaceOnUse" color-interpolation-filters="sRGB"><feFlood flood-opacity="0" result="BackgroundImageFix"/><feGaussianBlur in="BackgroundImageFix" stdDeviation="6"/><feComposite in2="SourceAlpha" operator="in" result="effect1_backgroundBlur_2799_2744"/><feColorMatrix in="SourceAlpha" values="0 0 0 0 0 0 0 0 0 0 0 0 0 0 0 0 0 0 127 0" result="hardAlpha"/><feOffset/><feGaussianBlur stdDeviation="6"/><feComposite in2="hardAlpha" operator="out"/><feColorMatrix values="0 0 0 0 0 0 0 0 0 0 0 0 0 0 0 0 0 0 0.15 0"/><feBlend in2="effect1_backgroundBlur_2799_2744" result="effect2_dropShadow_2799_2744"/><feBlend in="SourceGraphic" in2="effect2_dropShadow_2799_2744" result="shape"/></filter><filter id="g" x="39.488" y="24.328" width="31.432" height="31.432" filterUnits="userSpaceOnUse" color-interpolation-filters="sRGB"><feFlood flood-opacity="0" result="BackgroundImageFix"/><feGaussianBlur in="BackgroundImageFix" stdDeviation="6"/><feComposite in2="SourceAlpha" operator="in" result="effect1_backgroundBlur_2799_2744"/><feColorMatrix in="SourceAlpha" values="0 0 0 0 0 0 0 0 0 0 0 0 0 0 0 0 0 0 127 0" result="hardAlpha"/><feOffset/><feGaussianBlur stdDeviation="6"/><feComposite in2="hardAlpha" operator="out"/><feColorMatrix values="0 0 0 0 0 0 0 0 0 0 0 0 0 0 0 0 0 0 0.15 0"/><feBlend in2="effect1_backgroundBlur_2799_2744" result="effect2_dropShadow_2799_2744"/><feBlend in="SourceGraphic" in2="effect2_dropShadow_2799_2744" result="shape"/></filter><filter id="h" x="44.012" y="40.449" width="31.132" height="31.133" filterUnits="userSpaceOnUse" color-interpolation-filters="sRGB"><feFlood flood-opacity="0" result="BackgroundImageFix"/><feGaussianBlur in="BackgroundImageFix" stdDeviation="6"/><feComposite in2="SourceAlpha" operator="in" result="effect1_backgroundBlur_2799_2744"/><feColorMatrix in="SourceAlpha" values="0 0 0 0 0 0 0 0 0 0 0 0 0 0 0 0 0 0 127 0" result="hardAlpha"/><feOffset/><feGaussianBlur stdDeviation="6"/><feComposite in2="hardAlpha" operator="out"/><feColorMatrix values="0 0 0 0 0 0 0 0 0 0 0 0 0 0 0 0 0 0 0.15 0"/><feBlend in2="effect1_backgroundBlur_2799_2744" result="effect2_dropShadow_2799_2744"/><feBlend in="SourceGraphic" in2="effect2_dropShadow_2799_2744" result="shape"/></filter><filter id="j" x="38.121" y="48.385" width="26.649" height="26.65" filterUnits="userSpaceOnUse" color-interpolation-filters="sRGB"><feFlood flood-opacity="0" result="BackgroundImageFix"/><feGaussianBlur in="BackgroundImageFix" stdDeviation="6"/><feComposite in2="SourceAlpha" operator="in" result="effect1_backgroundBlur_2799_2744"/><feColorMatrix in="SourceAlpha" values="0 0 0 0 0 0 0 0 0 0 0 0 0 0 0 0 0 0 127 0" result="hardAlpha"/><feOffset/><feGaussianBlur stdDeviation="6"/><feComposite in2="hardAlpha" operator="out"/><feColorMatrix values="0 0 0 0 0 0 0 0 0 0 0 0 0 0 0 0 0 0 0.15 0"/><feBlend in2="effect1_backgroundBlur_2799_2744" result="effect2_dropShadow_2799_2744"/><feBlend in="SourceGraphic" in2="effect2_dropShadow_2799_2744" result="shape"/></filter><filter id="l" x="39.488" y="36.488" width="26.651" height="26.65" filterUnits="userSpaceOnUse" color-interpolation-filters="sRGB"><feFlood flood-opacity="0" result="BackgroundImageFix"/><feGaussianBlur in="BackgroundImageFix" stdDeviation="6"/><feComposite in2="SourceAlpha" operator="in" result="effect1_backgroundBlur_2799_2744"/><feColorMatrix in="SourceAlpha" values="0 0 0 0 0 0 0 0 0 0 0 0 0 0 0 0 0 0 127 0" result="hardAlpha"/><feOffset/><feGaussianBlur stdDeviation="6"/><feComposite in2="hardAlpha" operator="out"/><feColorMatrix values="0 0 0 0 0 0 0 0 0 0 0 0 0 0 0 0 0 0 0.15 0"/><feBlend in2="effect1_backgroundBlur_2799_2744" result="effect2_dropShadow_2799_2744"/><feBlend in="SourceGraphic" in2="effect2_dropShadow_2799_2744" result="shape"/></filter><filter id="n" x="49.728" y="31.368" width="26.651" height="26.65" filterUnits="userSpaceOnUse" color-interpolation-filters="sRGB"><feFlood flood-opacity="0" result="BackgroundImageFix"/><feGaussianBlur in="BackgroundImageFix" stdDeviation="6"/><feComposite in2="SourceAlpha" operator="in" result="effect1_backgroundBlur_2799_2744"/><feColorMatrix in="SourceAlpha" values="0 0 0 0 0 0 0 0 0 0 0 0 0 0 0 0 0 0 127 0" result="hardAlpha"/><feOffset/><feGaussianBlur stdDeviation="6"/><feComposite in2="hardAlpha" operator="out"/><feColorMatrix values="0 0 0 0 0 0 0 0 0 0 0 0 0 0 0 0 0 0 0.15 0"/><feBlend in2="effect1_backgroundBlur_2799_2744" result="effect2_dropShadow_2799_2744"/><feBlend in="SourceGraphic" in2="effect2_dropShadow_2799_2744" result="shape"/></filter><filter id="c" x=".64" y=".84" width="81.216" height="67.136" filterUnits="userSpaceOnUse" color-interpolation-filters="sRGB"><feFlood flood-opacity="0" result="BackgroundImageFix"/><feGaussianBlur in="BackgroundImageFix" stdDeviation="6"/><feComposite in2="SourceAlpha" operator="in" result="effect1_backgroundBlur_2799_2744"/><feColorMatrix in="SourceAlpha" values="0 0 0 0 0 0 0 0 0 0 0 0 0 0 0 0 0 0 127 0" result="hardAlpha"/><feOffset/><feGaussianBlur stdDeviation="6"/><feComposite in2="hardAlpha" operator="out"/><feColorMatrix values="0 0 0 0 0 0 0 0 0 0 0 0 0 0 0 0 0 0 0.15 0"/><feBlend in2="effect1_backgroundBlur_2799_2744" result="effect2_dropShadow_2799_2744"/><feBlend in="SourceGraphic" in2="effect2_dropShadow_2799_2744" result="shape"/></filter><linearGradient id="b" x1="50.635" y1="16.537" x2="50.635" y2="55.528" gradientUnits="userSpaceOnUse"><stop stop-color="#fff" stop-opacity=".2"/><stop offset="1" stop-color="#fff" stop-opacity=".5"/></linearGradient><linearGradient id="d" x1="88.181" y1="13.288" x2="15.73" y2="59.657" gradientUnits="userSpaceOnUse"><stop stop-color="#fff"/><stop offset="1" stop-color="#fff" stop-opacity="0"/></linearGradient><linearGradient id="e" x1="53.233" y1="32.924" x2="86.415" y2="68.392" gradientUnits="userSpaceOnUse"><stop stop-color="#FFB6AD"/><stop offset="1" stop-color="#E5322D"/></linearGradient><linearGradient id="i" x1="58.285" y1="53.041" x2="62.941" y2="57.697" gradientUnits="userSpaceOnUse"><stop stop-color="#fff" stop-opacity=".2"/><stop offset="1" stop-color="#fff" stop-opacity=".5"/></linearGradient><linearGradient id="k" x1="51.888" y1="60.589" x2="51.888" y2="63.035" gradientUnits="userSpaceOnUse"><stop stop-color="#fff" stop-opacity=".2"/><stop offset="1" stop-color="#fff" stop-opacity=".5"/></linearGradient><linearGradient id="m" x1="53.255" y1="48.692" x2="53.255" y2="51.139" gradientUnits="userSpaceOnUse"><stop stop-color="#fff" stop-opacity=".2"/><stop offset="1" stop-color="#fff" stop-opacity=".5"/></linearGradient><linearGradient id="o" x1="63.495" y1="43.572" x2="63.495" y2="46.019" gradientUnits="userSpaceOnUse"><stop stop-color="#fff" stop-opacity=".2"/><stop offset="1" stop-color="#fff" stop-opacity=".5"/></linearGradient><linearGradient id="q" x1="60.935" y1="31.412" x2="60.935" y2="33.858" gradientUnits="userSpaceOnUse"><stop stop-color="#fff" stop-opacity=".2"/><stop offset="1" stop-color="#fff" stop-opacity=".5"/></linearGradient></defs></svg>