<svg xmlns="http://www.w3.org/2000/svg" width="174" height="60" fill="none"><path fill="#0E3E84" d="M20.036 39.118c-1.18.714-1.968 1.723-2.328 3.06-.079.29-.136.58-.136.882 0 2.185-.006 4.368.006 6.554 0 .305-.088.38-.384.38-4.616-.009-9.229.034-13.845-.03-1.562-.02-2.871-1.206-3.246-2.799a4.191 4.191 0 0 1-.09-.97c0-10.789.011-21.578-.013-32.363-.006-2.17 1.654-3.66 3.358-3.767.13-.048.263-.024.396-.024h36.483c.133 0 .267-.018.396.018.306.06.623.082.913.185 1.24.435 2.05 1.29 2.373 2.57.094.365.118.758.118 1.139.006 10.74.006 21.477.003 32.217 0 1.944-1.142 3.253-2.678 3.68-.206.063-.184-.082-.184-.2V43.28c0-.132.02-.265-.022-.395-.166-1.581-.94-2.79-2.27-3.64-.211-.136-.287-.272-.287-.517.01-1.605.042-3.21-.009-4.812-.033-1.076-.058-2.158-.296-3.22-.556-2.475-2.153-4.005-4.459-4.866-.907-.339-1.86-.481-2.832-.55a19.056 19.056 0 0 0-2.386-.04c-1.42.076-2.826.248-4.171.756-2.089.789-3.389 2.276-3.97 4.416a10.732 10.732 0 0 0-.38 2.7c-.048.505-.018 1.01-.021 1.514-.006 1.373 0 2.742-.003 4.114 0 .13.036.266-.036.39v-.012Z"/><path fill="#33333B" d="M159.904 23.487c.045.874.529 1.496 1.166 2.025.517.43 1.134.68 1.745.94 1.937.82 3.945 1.463 5.846 2.37 1.342.641 2.591 1.397 3.522 2.59.798 1.029 1.281 2.193 1.502 3.465.142.825.239 1.66.221 2.5-.1 4.199-1.996 7.554-6.463 9.307-1.225.481-2.5.76-3.806.92-.348.042-.692.036-1.037.072-.994.045-1.989.042-2.984 0-1.593-.01-3.149-.266-4.679-.677a22.368 22.368 0 0 1-2.587-.874c-.167-.066-.206-.166-.2-.33.027-.54.142-1.07.254-1.592.251-1.182.589-2.343.973-3.489.085-.25.167-.314.427-.205 1.239.526 2.524.919 3.839 1.188 1.215.248 2.454.28 3.697.232 1.175-.045 2.306-.272 3.361-.8 1.188-.596 1.874-1.554 2.031-2.881a4.95 4.95 0 0 0 .003-1.167c-.19-1.518-1.097-2.485-2.412-3.138-.958-.474-1.968-.816-2.962-1.2-1.751-.674-3.531-1.285-5.103-2.343-1.369-.922-2.328-2.173-2.841-3.724-.254-.768-.418-1.58-.405-2.406a8.177 8.177 0 0 1 0-1.451c.166-4.102 2.705-7.028 6.459-8.135 1.101-.323 2.225-.483 3.371-.574a19.623 19.623 0 0 1 3.098.024c1.711.136 3.395.441 5.036.98.463.15.922.314 1.394.447.242.066.296.136.26.417-.1.798-.236 1.59-.475 2.355-.241.765-.477 1.53-.813 2.261-.103.224-.22.19-.399.121-.855-.342-1.711-.698-2.618-.886-.961-.2-1.928-.363-2.917-.344-.408.009-.81-.118-1.221-.073-.831.094-1.678.079-2.47.432-1.109.493-1.711 1.33-1.822 2.527-.034.37-.04.738 0 1.107l.009.009ZM85.3 14.34c.806.03 1.607.135 2.408.226.091.01.182.051.27.079.072.124.036.26.036.39v31.734c0 .13.033.266-.037.39-.789.16-1.584.26-2.39.278-.575-.049-1.15-.006-1.727-.024-.13-.003-.263.024-.393-.025-.71 0-1.411-.072-2.104-.226-.042-.13-.02-.263-.02-.396V14.98c0-.133-.067-.284.063-.402.882-.082 1.765-.163 2.65-.242a6.26 6.26 0 0 1 1.237 0l.006.003Z"/><path fill="#2C4375" d="M30.201 28.532c1.05.082 2.026.35 2.763 1.155.68.74.946 1.662 1.064 2.636.04.332.055.668.082 1.003.06 1.092.018 2.186.021 3.277 0 .623.04 1.248-.024 1.871-.079.046-.163.03-.248.03h-9.041c-.073 0-.146.007-.215-.018-.079-.124-.04-.26-.04-.387-.002-1.58 0-3.158 0-4.74 0-.132.019-.266-.02-.395.169-1.817.532-3.362 2.415-4.115a4.395 4.395 0 0 1 1.475-.314c.59-.045 1.176-.04 1.765-.003h.003Z"/><path fill="#85858E" d="M40.63 10.06c-.145.005-.29.014-.435.014H3.755c-.134 0-.267-.006-.4-.009.149-.078.309-.063.463-.063h36.35c.157 0 .314-.018.462.057Z"/><path fill="#fff" d="M81.415 14.582c-.01.193-.03.384-.03.577v31.465c0 .182-.01.363-.012.541-.079-.145-.058-.305-.058-.462V15.06c0-.164-.045-.342.103-.478h-.003ZM94.495 14.63c.006.205.012.411.012.614 0 10.637 0 21.275.003 31.912-.109-.109-.073-.248-.073-.378V15.014c0-.13-.024-.266.058-.387v.003Z"/><path fill="#85858E" d="M87.98 47.16V14.645c.127.102.073.247.073.371v31.774c0 .124.054.269-.07.372l-.002-.003ZM61.004 37.44c.185-.087.378-.054.572-.054 4.812 0 9.622-.003 14.434-.003-.076.115-.197.073-.3.073H61.187c-.06 0-.121-.01-.182-.016ZM24.612 38.46h9.483c.045.024.045.051 0 .072-3.08 0-6.16.006-9.24.01-.107 0-.221.011-.306-.08.018-.048.04-.05.066-.002h-.003ZM41.15 42.882c.085.157.058.33.058.496 0 2.01 0 4.017.003 6.027 0 .157-.064.348.148.441-.085.049-.166.064-.203-.05-.018-.055-.018-.119-.018-.18.003-2.245.006-4.488.012-6.734ZM20.035 39.118v-5.52c0-.166-.027-.338.058-.495l.012 5.743c0 .097 0 .194-.073.272h.003Z"/><path fill="#85858E" d="m24.612 38.46-.066.002v-5.498c.085.157.054.33.054.499.006 1.665.006 3.33.01 4.996h.002Z"/><path fill="#fff" d="M34.092 38.532v-.073l.018-5.133c.07.121.063.254.063.387v4.44c0 .134.012.267-.081.379Z"/><path fill="#85858E" d="M100.45 47.673c1.261 0 2.518 0 3.779.003-.68.127-1.37.054-2.053.06-.574.006-1.154.043-1.726-.063ZM159.62 47.679h2.983c-.994.108-1.989.1-2.983 0ZM65.644 47.676h2.69c-.897.109-1.792.112-2.69 0ZM83.474 47.389c.704.006 1.414-.064 2.116.048-.708.003-1.415.076-2.116-.048ZM145.481 47.437a6.747 6.747 0 0 1 1.959 0h-1.959ZM30.201 28.532c-.59 0-1.175 0-1.765.003a4.95 4.95 0 0 1 1.765-.003ZM124.6 47.44c.58-.1 1.16-.097 1.741 0H124.6ZM120.546 31.884v-1.608a3.89 3.89 0 0 1 0 1.608Z"/><path fill="#fff" d="M153.015 22.822v1.451c-.1-.483-.1-.967 0-1.45ZM136.93 14.34c-.484 0-.967 0-1.454-.003.484-.097.967-.1 1.454.003ZM54.617 34.992c0 .411 0 .822-.003 1.233a2.616 2.616 0 0 1 .003-1.233ZM85.3 14.34h-1.237a2.67 2.67 0 0 1 1.236 0Z"/><path fill="#85858E" d="M166.741 37.087c.1.39.1.78-.003 1.167 0-.39 0-.777.003-1.167ZM66.455 23.252h-1.176a2.159 2.159 0 0 1 1.176 0ZM159.904 23.487a2.048 2.048 0 0 1 0-1.106v1.106Z"/><path fill="#F1CD23" d="M30.014 19.66c-.74-.492-1.493-.97-2.219-1.487-.293-.212-.498-.209-.795 0-.725.517-1.478.998-2.252 1.514-.036-.211.049-.347.097-.486.242-.696.484-1.39.744-2.08.093-.248.048-.387-.176-.535-.78-.505-1.544-1.03-2.336-1.563.136-.133.272-.088.39-.088.846-.003 1.692-.009 2.536 0 .257.003.393-.087.474-.335.236-.71.493-1.412.741-2.12.042-.12.088-.244.145-.392.17.133.175.296.227.435.218.602.432 1.203.647 1.808.239.665.115.595.858.598.75.003 1.5 0 2.246 0 .115 0 .239-.039.35.052-.032.154-.177.187-.28.257-.671.453-1.34.907-2.023 1.342-.226.145-.269.287-.175.535.27.71.514 1.43.768 2.146.04.112.07.224.103.339l-.07.054v.006ZM13.781 21.933c.284-.804.547-1.614.859-2.406.13-.333.09-.505-.224-.699-.768-.474-1.508-.991-2.276-1.505.12-.106.232-.07.332-.07.87-.002 1.738-.012 2.609.004.278.006.408-.1.493-.36.23-.71.486-1.415.737-2.12.043-.117.049-.262.215-.365l.396 1.082c.166.466.344.928.486 1.403.085.29.248.363.53.36.834-.016 1.665-.006 2.5-.006h.368c-.057.184-.196.217-.299.287-.671.453-1.342.904-2.022 1.342-.224.142-.275.293-.182.541.263.701.508 1.406.756 2.113.045.133.13.26.097.463-.396-.264-.771-.514-1.146-.762-.423-.281-.85-.556-1.26-.85-.188-.133-.33-.13-.517 0-.783.541-1.578 1.067-2.367 1.6-.027-.016-.052-.034-.079-.049l-.006-.003ZM5.32 39.125c.306-.862.584-1.681.895-2.491.112-.294.057-.45-.209-.614-.674-.423-1.333-.873-1.992-1.318-.096-.063-.217-.103-.29-.287h.544c.786 0 1.57-.006 2.355.009.275.006.411-.097.496-.357.239-.722.499-1.436.753-2.149.039-.109.057-.233.199-.35l.653 1.82c.246.688.742 1.033 1.487 1.033h2.122c-.036.178-.175.218-.275.284-.68.457-1.36.92-2.052 1.36-.215.136-.257.27-.17.505.312.834.602 1.675.901 2.512-.145.076-.208-.024-.28-.072-.714-.475-1.43-.947-2.132-1.436-.212-.148-.369-.148-.58 0-.662.465-1.337.91-2.008 1.36-.108.073-.202.175-.417.194v-.003ZM34.189 17.175h.54c.75 0 1.497-.015 2.247.006.33.009.498-.088.601-.414.224-.714.49-1.412.74-2.116.037-.1.082-.194.125-.3.172.067.166.218.208.333.257.716.514 1.43.75 2.152.088.263.236.348.505.345.952-.012 1.904-.006 2.856-.006.015.16-.105.175-.178.224-.713.477-1.42.955-2.143 1.42-.212.136-.251.275-.163.511.311.835.601 1.675.9 2.512-.142.076-.2-.03-.272-.078-.722-.481-1.45-.959-2.164-1.454-.206-.142-.348-.124-.544.015-.774.532-1.56 1.046-2.364 1.58-.072-.169.012-.283.051-.395.251-.717.493-1.44.768-2.147.112-.287.04-.429-.205-.586-.674-.426-1.333-.874-1.992-1.318-.094-.063-.224-.097-.27-.284h.004ZM8.576 44.19c.339-.933.677-1.867 1.05-2.89.374 1.026.716 1.96 1.054 2.894.535.078 1.076.02 1.611.033.469.009.937 0 1.403.006.087 0 .227-.07.25.106-.773.514-1.544 1.037-2.327 1.535-.245.158-.272.312-.175.569.272.722.523 1.454.783 2.18.03.087.087.172.063.283-.139.046-.217-.072-.308-.133-.686-.45-1.373-.9-2.047-1.369-.226-.157-.393-.148-.613.006-.653.457-1.321.892-1.986 1.333-.11.073-.22.136-.39.242.036-.327.154-.55.236-.783.214-.602.417-1.21.646-1.808.091-.236.049-.368-.163-.505-.81-.526-1.608-1.07-2.412-1.608.115-.1.254-.045.38-.048.983-.027 1.969.045 2.948-.04l-.003-.002ZM13.355 24.705c-.774.514-1.542 1.037-2.321 1.539-.218.139-.251.269-.164.502.309.822.596 1.653.895 2.503-.178.048-.269-.067-.369-.133-.634-.418-1.275-.829-1.892-1.27-.308-.22-.541-.242-.861-.01-.71.515-1.457.983-2.192 1.473-.112-.127-.024-.22.009-.311.263-.75.523-1.503.801-2.25.088-.235.04-.371-.172-.507-.68-.435-1.348-.889-2.02-1.34-.117-.078-.226-.178-.338-.265.502-.079 1.004-.015 1.508-.034.587-.02 1.176.037 1.763-.03.362-.825.598-1.696.925-2.536.033-.088.07-.175.15-.378.367 1.031.7 1.968 1.029 2.905.592.09 1.19.024 1.786.04.42.012.838 0 1.258.005.075 0 .202-.06.208.103l-.003-.006Z"/><path fill="#85858E" d="M13.355 24.706c-.142-.094-.302-.07-.456-.07h-2.343c-.154 0-.314.021-.454-.076.977 0 1.953 0 2.93.013.105 0 .308-.124.323.136v-.003ZM13.947 44.336c-.139-.097-.302-.07-.456-.073h-2.352c-.154 0-.317.027-.456-.07.976 0 1.952-.006 2.932.006.115 0 .305-.102.335.14l-.003-.003ZM8.002 24.567c-.13.078-.279.066-.42.066H4.733c.078-.112.2-.07.3-.07h2.968v.004ZM8.576 44.19c-.14.103-.3.073-.454.073-.958.006-1.916.012-2.877.015.133-.109.296-.084.447-.084h2.88l.004-.004Z"/><path fill="#33333B" fill-rule="evenodd" d="M119.851 37.292c.474-1.771.671-3.579.695-5.408v-.003a8.308 8.308 0 0 0 0-1.608c.052-1.082-.094-2.155-.245-3.22-.226-1.613-.65-3.185-1.324-4.678-1.768-3.903-4.854-6.237-8.89-7.422-1.025-.302-2.077-.483-3.141-.634-1.037-.147-2.074-.189-3.111-.23l-.362-.015c-.896-.038-1.794-.006-2.691.027a78.28 78.28 0 0 1-1.175.036l-.073.002c-.036 0-.072 0-.109.004-.295.025-.59.048-.886.072-.803.064-1.607.128-2.409.21-.149.015-.298.027-.448.04-.398.033-.796.065-1.187.162-.03.099-.026.2-.023.3l.002.096v31.743c0 .032-.002.065-.005.098-.006.1-.013.199.041.292l.06.022a.637.637 0 0 0 .146.044l.73.086c.665.08 1.33.16 2 .205.253.017.507.036.761.056.747.057 1.495.115 2.246.104.191.046.385.04.578.032.071-.002.141-.005.211-.005.339-.003.677 0 1.015.004.658.007 1.316.014 1.975-.028.683-.018 1.36-.067 2.04-.148 1.406-.172 2.796-.414 4.154-.82 4.833-1.447 8.095-4.467 9.425-9.416Zm-6.72-2.092c.263-1.06.339-2.152.393-3.24.03-.659.03-1.315 0-1.974 0-.698-.091-1.387-.187-2.074a13.525 13.525 0 0 0-.614-2.49c-.653-1.893-1.753-3.416-3.498-4.444-1.52-.895-3.21-1.11-4.921-1.185-.948-.044-1.895.034-2.841.113l-.284.023c-.055.093-.048.193-.041.292.002.033.004.066.004.098v21.205l-.001.081c-.002.094-.004.187.019.28.425.117.859.124 1.294.13.179.004.357.007.535.017a7.28 7.28 0 0 0 1.309-.003c.599-.006 1.194-.06 1.787-.154 1.306-.209 2.569-.529 3.679-1.297 1.895-1.312 2.835-3.222 3.367-5.378Z" clip-rule="evenodd"/><path fill="#fff" d="M101.181 19.929c0 7.113 0 14.225-.003 21.341 0 .206-.012.408-.018.614-.078-.133-.051-.281-.051-.423V20.343c0-.14-.04-.293.072-.414ZM113.524 31.96a20.961 20.961 0 0 1 0-1.974 7.498 7.498 0 0 1 0 1.974Z"/><path fill="#85858E" d="M102.989 42.032c.436 0 .871 0 1.309-.003-.435.1-.87.097-1.309.003Z"/><path fill="#33333B" fill-rule="evenodd" d="M143.278 47.195c.729.136 1.463.22 2.204.242l-.006-.012a18.446 18.446 0 0 1 1.959 0c.686 0 1.36-.094 2.034-.19a.861.861 0 0 1 .187.002c.154.013.31.027.363-.139.041-.13-.018-.298-.075-.457l-.043-.126c-.146-.464-.296-.927-.446-1.39-.182-.561-.364-1.122-.539-1.685-.228-.73-.451-1.46-.674-2.191-.223-.731-.446-1.462-.674-2.192-.241-.773-.489-1.544-.737-2.316-.172-.536-.345-1.073-.515-1.61-.427-1.355-.849-2.715-1.271-4.072l-.15-.48-.441-1.432c-.274-.89-.549-1.781-.828-2.67a219.57 219.57 0 0 0-.555-1.736c-.151-.47-.303-.939-.452-1.409-.493-1.56-.985-3.12-1.472-4.682a433.384 433.384 0 0 1-1.176-3.836c-.051-.166-.13-.242-.299-.254-.55-.044-1.099-.09-1.649-.137l-1.099-.093a8.346 8.346 0 0 0-1.454-.003c-.09.009-.181.02-.271.032-.219.027-.439.055-.657.047-.393-.015-.778.035-1.163.086-.234.03-.467.061-.702.077-.121.006-.212.045-.254.2-.166.586-.351 1.169-.535 1.752-.19.6-.383 1.198-.576 1.796-.193.599-.385 1.197-.576 1.796l-1.101 3.488-.549 1.745-.869 2.752c-.29.917-.581 1.835-.869 2.752-.201.64-.4 1.28-.599 1.92a724.191 724.191 0 0 1-.94 3.004c-.294.937-.594 1.871-.893 2.805-.229.716-.458 1.431-.685 2.147-.208.657-.413 1.317-.618 1.976a376.878 376.878 0 0 1-1.329 4.212c-.045.142-.066.257.133.284.188.024.374.052.561.08.537.079 1.074.158 1.619.156.58-.04 1.161-.037 1.741 0 .514 0 1.018-.075 1.522-.15.205-.03.41-.06.615-.086.188-.023.225-.152.266-.293l.009-.034.442-1.54c.424-1.477.847-2.953 1.251-4.436.069-.26.19-.26.354-.257h2.274c2.601.002 5.204.003 7.804-.009.339 0 .463.127.538.42.203.79.417 1.572.632 2.355l.173.631c.244.886.486 1.77.743 2.652.011.038.019.08.028.123.032.165.066.344.289.385Zm-10.782-13.556-.415 1.47h.003c.052.084.128.075.2.066.022-.002.043-.005.063-.005h7.137c.021 0 .042.002.064.005.072.009.148.018.199-.066a.647.647 0 0 0-.022-.044c-.015-.028-.03-.055-.038-.086l-.314-1.163c-.15-.56-.3-1.12-.454-1.678-.129-.461-.26-.922-.391-1.383-.17-.6-.341-1.199-.507-1.8-.214-.778-.422-1.558-.631-2.337a302.156 302.156 0 0 0-.983-3.624c-.071-.26-.145-.519-.221-.782l-.16-.56-.04.04c-.02.02-.031.03-.035.044l-.228.768c-.251.844-.503 1.69-.749 2.536-.187.645-.37 1.29-.553 1.937-.151.53-.301 1.06-.453 1.588-.142.494-.29.987-.437 1.48-.147.492-.295.985-.437 1.48-.201.704-.4 1.41-.598 2.114Z" clip-rule="evenodd"/><path fill="#85858E" d="M132.081 35.11c.109.008.215.024.324.024h7.016c.109 0 .214-.016.323-.025-.112.127-.266.097-.408.097h-6.85c-.142 0-.293.027-.408-.097h.003Z"/><path fill="#33333B" fill-rule="evenodd" d="M74.864 28.333c-1.825-3.292-4.652-4.96-8.41-5.081a4.503 4.503 0 0 0-1.175 0 8.257 8.257 0 0 0-1.929.19c-4.38.946-6.992 3.73-8.207 7.935a13.27 13.27 0 0 0-.526 3.612 6.009 6.009 0 0 0-.003 1.234l.01.22c.013.346.026.69.069 1.037.184 1.506.486 2.975 1.149 4.356.885 1.853 2.2 3.298 4.005 4.296 1.804.994 3.751 1.448 5.795 1.538.897.049 1.792.052 2.69 0 1.119-.009 2.216-.181 3.31-.393.97-.187 1.92-.46 2.857-.77.284-.094.423-.236.365-.545a6.522 6.522 0 0 1-.078-.64c-.106-1.285-.532-2.473-1.046-3.64-.097-.227-.215-.209-.42-.14-2.016.681-4.078 1.086-6.215 1.053-.279-.005-.55-.032-.825-.06a34.87 34.87 0 0 0-.106-.01c-1.089-.112-2.104-.429-3.038-1-.644-.393-1.13-.925-1.509-1.578-.323-.563-.477-1.18-.592-1.799a1.223 1.223 0 0 0-.052-.176c-.06-.172-.126-.359.022-.537.106-.032.214-.028.323-.024.036.001.072.003.109.003h14.147c.036 0 .072.002.11.005.106.007.215.015.316-.042.13-.78.188-1.569.22-2.358.046-1.018-.042-2.03-.199-3.043-.2-1.28-.54-2.516-1.167-3.643Zm-11.774.499c-1.348.9-1.85 2.285-2.025 3.824h.003c-.085.278.083.275.252.272H69.853c.02 0 .042 0 .063.002.075.005.152.01.218-.042-.043-.795-.16-1.575-.49-2.303-.626-1.379-1.614-2.27-3.201-2.419-1.197-.111-2.343-.009-3.353.666Z" clip-rule="evenodd"/><path fill="#fff" d="M61.065 32.655c.058.297.293.236.49.236h6.804c.593 0 1.182 0 1.775-.003-.088.124-.221.076-.333.076-2.808.003-5.616.003-8.422 0-.193 0-.468.06-.31-.309h-.004Z"/></svg>