<svg width="67" height="64" fill="none" xmlns="http://www.w3.org/2000/svg"><path d="M14.913 14.958a4.44 4.44 0 0 0-4.261-1.914l-2.563.34a4.48 4.48 0 0 0-3.853 5.03l3.987 30.088a4.48 4.48 0 0 0 5.03 3.852l37.32-4.945a4.48 4.48 0 0 0 3.852-5.03l-3.341-25.216a4.48 4.48 0 0 0-5.03-3.853l-26.88 3.562a4.44 4.44 0 0 1-4.261-1.914Z" fill="url(#a)"/><g filter="url(#b)"><path d="m7.656 26.606 1.37 25.12a4.48 4.48 0 0 0 5.063 4.198l40.708-5.395a4.48 4.48 0 0 0 3.885-4.685l-1.371-25.12a4.48 4.48 0 0 0-5.062-4.197L11.54 21.92a4.48 4.48 0 0 0-3.885 4.685Z" fill="url(#c)" shape-rendering="crispEdges"/></g><g filter="url(#d)"><path fill-rule="evenodd" clip-rule="evenodd" d="M11.6 22.365a4.032 4.032 0 0 0-3.497 4.216l1.371 25.12a4.032 4.032 0 0 0 4.556 3.778l40.708-5.394a4.032 4.032 0 0 0 3.496-4.217l-1.37-25.12a4.032 4.032 0 0 0-4.556-3.778L11.6 22.365ZM7.209 26.63a4.928 4.928 0 0 1 4.273-5.153l40.708-5.395a4.928 4.928 0 0 1 5.568 4.617l1.371 25.12a4.928 4.928 0 0 1-4.273 5.154l-40.708 5.394a4.928 4.928 0 0 1-5.568-4.616L7.209 26.63Z" fill="url(#e)" shape-rendering="crispEdges"/></g><defs><linearGradient id="a" x1="3.647" y1="13.973" x2="55.066" y2="46.738" gradientUnits="userSpaceOnUse"><stop stop-color="#FFB6AD"/><stop offset="1" stop-color="#E5322D"/></linearGradient><linearGradient id="c" x1="31.277" y1="21.947" x2="35.405" y2="53.099" gradientUnits="userSpaceOnUse"><stop stop-color="#fff" stop-opacity=".2"/><stop offset="1" stop-color="#fff" stop-opacity=".5"/></linearGradient><linearGradient id="e" x1="57.047" y1="15.89" x2="6.844" y2="53.273" gradientUnits="userSpaceOnUse"><stop stop-color="#fff"/><stop offset="1" stop-color="#fff" stop-opacity="0"/></linearGradient><filter id="b" x="-4.351" y="4.487" width="75.039" height="63.476" filterUnits="userSpaceOnUse" color-interpolation-filters="sRGB"><feFlood flood-opacity="0" result="BackgroundImageFix"/><feGaussianBlur in="BackgroundImageFix" stdDeviation="6"/><feComposite in2="SourceAlpha" operator="in" result="effect1_backgroundBlur_2843_2757"/><feColorMatrix in="SourceAlpha" values="0 0 0 0 0 0 0 0 0 0 0 0 0 0 0 0 0 0 127 0" result="hardAlpha"/><feOffset/><feGaussianBlur stdDeviation="3.5"/><feComposite in2="hardAlpha" operator="out"/><feColorMatrix values="0 0 0 0 0 0 0 0 0 0 0 0 0 0 0 0 0 0 0.1 0"/><feBlend in2="effect1_backgroundBlur_2843_2757" result="effect2_dropShadow_2843_2757"/><feBlend in="SourceGraphic" in2="effect2_dropShadow_2843_2757" result="shape"/></filter><filter id="d" x="-4.799" y="4.039" width="75.935" height="64.372" filterUnits="userSpaceOnUse" color-interpolation-filters="sRGB"><feFlood flood-opacity="0" result="BackgroundImageFix"/><feGaussianBlur in="BackgroundImageFix" stdDeviation="6"/><feComposite in2="SourceAlpha" operator="in" result="effect1_backgroundBlur_2843_2757"/><feColorMatrix in="SourceAlpha" values="0 0 0 0 0 0 0 0 0 0 0 0 0 0 0 0 0 0 127 0" result="hardAlpha"/><feOffset/><feGaussianBlur stdDeviation="3.5"/><feComposite in2="hardAlpha" operator="out"/><feColorMatrix values="0 0 0 0 0 0 0 0 0 0 0 0 0 0 0 0 0 0 0.1 0"/><feBlend in2="effect1_backgroundBlur_2843_2757" result="effect2_dropShadow_2843_2757"/><feBlend in="SourceGraphic" in2="effect2_dropShadow_2843_2757" result="shape"/></filter></defs></svg>