<svg xmlns="http://www.w3.org/2000/svg" width="178" height="60" fill="none"><circle cx="25" cy="29" r="21" fill="#F1CD23"/><g clip-path="url(#a)"><path fill="#33333B" d="M77.04 27.19h12.363v15.735a34.431 34.431 0 0 1-5.092 1.274c-1.83.32-3.82.48-5.972.48-4.386 0-7.844-1.287-10.372-3.861-2.529-2.574-3.793-6.407-3.793-11.5 0-3.116.6-5.815 1.802-8.097 1.201-2.282 2.969-4.049 5.302-5.3 2.332-1.253 5.19-1.879 8.57-1.879 1.704 0 3.36.167 4.966.5 1.607.335 3.025.78 4.254 1.337l-2.305 5.634a16.731 16.731 0 0 0-3.206-1.148 15.135 15.135 0 0 0-3.709-.438c-1.816 0-3.346.41-4.59 1.232-1.242.82-2.171 1.947-2.786 3.38-.615 1.433-.922 3.068-.922 4.905 0 2.866.594 5.14 1.781 6.824 1.188 1.684 3.038 2.525 5.553 2.525.698 0 1.376-.041 2.033-.125a29.572 29.572 0 0 0 1.655-.25v-5.51H77.04V27.19ZM121.087 28.9c0 5.12-1.425 8.96-4.275 11.52-2.85 2.56-6.775 3.84-11.777 3.84h-9.01V14.46h9.849c4.721 0 8.437 1.231 11.148 3.694 2.71 2.463 4.065 6.045 4.065 10.748Zm-7.376.251c0-3.033-.65-5.273-1.949-6.72s-3.192-2.17-5.679-2.17h-2.933v18.156h2.305c2.821 0 4.903-.772 6.244-2.316 1.341-1.545 2.012-3.861 2.012-6.95ZM136.845 14.459c3.827 0 6.656.82 8.486 2.463 1.83 1.641 2.745 3.95 2.745 6.928 0 1.753-.363 3.402-1.089 4.946-.727 1.545-1.928 2.797-3.604 3.757-1.677.96-3.954 1.44-6.832 1.44h-2.514V44.26h-7.125V14.459h9.933Zm-.252 5.802h-2.556v7.93h1.886c1.453 0 2.64-.32 3.562-.96.922-.64 1.383-1.697 1.383-3.172 0-2.532-1.425-3.798-4.275-3.798ZM162.536 14.459c8.046 0 12.069 2.963 12.069 8.89 0 1.948-.509 3.562-1.529 4.842-1.02 1.28-2.298 2.31-3.835 3.089L178 44.26h-8.005l-6.747-11.185h-2.808V44.26h-7.125V14.459h9.221Zm-.294 5.593h-1.802v7.471h1.802c1.704 0 2.983-.313 3.835-.939.852-.626 1.278-1.62 1.278-2.984 0-1.197-.405-2.087-1.215-2.672-.811-.584-2.11-.876-3.898-.876Z"/><path fill="#0E3E84" d="M24.632.18a2.384 2.384 0 0 1 1.813 0L49.62 9.715a2.343 2.343 0 0 1 1.458 2.164v11.593c0 15.962-9.734 30.321-24.645 36.353a2.384 2.384 0 0 1-1.787 0C9.735 53.794 0 39.436 0 23.473V11.88c0-.947.575-1.801 1.458-2.164L24.632.179Zm.907 42.369-.783 1.45-1.75.233 1.267 1.13-.3 1.594 1.566-.752 1.564.752-.298-1.594 1.266-1.13L26.32 44l-.782-1.451Zm8.229-1.89-.783 1.452-1.75.232 1.267 1.13-.3 1.595 1.566-.753 1.565.753-.3-1.595 1.267-1.13-1.75-.232-.782-1.451Zm-16.459 0-.782 1.452-1.75.232 1.267 1.13-.3 1.595 1.566-.753 1.564.753-.298-1.595 1.265-1.13-1.75-.232-.782-1.451Zm22.156-6.296-.783 1.45-1.75.233 1.267 1.13-.3 1.595 1.566-.753 1.565.753-.3-1.595 1.267-1.13-1.75-.232-.782-1.451Zm-27.853 0-.782 1.45-1.75.233 1.266 1.13-.298 1.595 1.564-.753 1.565.753-.299-1.595 1.266-1.13-1.75-.232-.782-1.451Zm30.385-7.556-.783 1.45-1.75.233 1.267 1.13-.3 1.594 1.566-.752 1.565.752-.3-1.594 1.267-1.13-1.75-.232-.782-1.451Zm-32.917 0-.782 1.45-1.75.233 1.266 1.13-.298 1.594 1.564-.752 1.565.752-.299-1.594 1.266-1.13-1.75-.232-.782-1.451Zm31.018-8.816-.783 1.451-1.75.233 1.267 1.129-.3 1.595 1.566-.753 1.565.753-.3-1.595 1.267-1.13-1.75-.232-.782-1.451Zm-29.119 0-.782 1.451-1.75.233 1.266 1.129-.298 1.595 1.564-.753 1.565.753-.299-1.595 1.266-1.13-1.75-.232-.782-1.451Zm22.789-5.667-.783 1.45-1.75.234 1.267 1.129-.3 1.595 1.566-.753 1.565.753-.3-1.595 1.267-1.13-1.75-.232-.782-1.451Zm-16.459 0-.782 1.45-1.75.234 1.267 1.129-.3 1.595 1.566-.753 1.564.753-.298-1.595 1.265-1.13-1.75-.232-.782-1.451Zm8.23-1.89-.783 1.452-1.75.232 1.267 1.13-.3 1.595 1.566-.753 1.564.753-.298-1.595 1.266-1.13-1.75-.232-.782-1.451Z"/></g><defs><clipPath id="a"><path fill="#fff" d="M0 0h178v60H0z"/></clipPath></defs></svg>