<svg width="48" height="48" fill="none" xmlns="http://www.w3.org/2000/svg"><path opacity=".5" d="M31.5 0C40.613 0 48 7.387 48 16.5v1C48 26.613 40.613 34 31.5 34S15 26.613 15 17.5v-1C15 7.387 22.387 0 31.5 0Z" fill="#FFB6AD"/><path fill-rule="evenodd" clip-rule="evenodd" d="M43.5 16c0-5.246-4.254-9.5-9.5-9.5H14c-5.246 0-9.5 4.254-9.5 9.5v16c0 5.246 4.254 9.5 9.5 9.5h20c5.246 0 9.5-4.254 9.5-9.5V16Zm-3 0v16a6.5 6.5 0 0 1-6.5 6.5H14A6.5 6.5 0 0 1 7.5 32V16A6.5 6.5 0 0 1 14 9.5h20a6.5 6.5 0 0 1 6.5 6.5Z" fill="url(#a)"/><path fill-rule="evenodd" clip-rule="evenodd" d="M28 24.5h8a1.5 1.5 0 0 0 0-3h-8a1.5 1.5 0 0 0 0 3Z" fill="url(#b)"/><path fill-rule="evenodd" clip-rule="evenodd" d="M28 29.5h5.142a1.5 1.5 0 0 0 0-3H28a1.5 1.5 0 0 0 0 3Z" fill="url(#c)"/><path fill-rule="evenodd" clip-rule="evenodd" d="M17 15.5c-2.208 0-4 1.792-4 4s1.792 4 4 4 4-1.792 4-4-1.792-4-4-4Zm0 3a1 1 0 1 1 0 2 1 1 0 0 1 0-2Z" fill="url(#d)"/><path fill-rule="evenodd" clip-rule="evenodd" d="M13.5 29v-.778c0 .008-.014 0-.02.004a6.34 6.34 0 0 1 2.936-.726h1.168c1.02 0 2.024.248 2.936.724-.006-.004-.02.006-.02-.002V29a1.5 1.5 0 0 0 3 0v-.778a2.994 2.994 0 0 0-1.59-2.656 9.332 9.332 0 0 0-4.326-1.066h-1.168c-1.5 0-2.982.364-4.324 1.066a2.996 2.996 0 0 0-1.592 2.656V29a1.5 1.5 0 0 0 3 0Z" fill="url(#e)"/><defs><linearGradient id="a" x1="38.486" y1="14.577" x2="6.235" y2="38.239" gradientUnits="userSpaceOnUse"><stop stop-color="#FF6A58"/><stop offset="1" stop-color="#BD060A"/></linearGradient><linearGradient id="b" x1="36.086" y1="22.192" x2="34.037" y2="27.139" gradientUnits="userSpaceOnUse"><stop stop-color="#FF6A58"/><stop offset="1" stop-color="#BD060A"/></linearGradient><linearGradient id="c" x1="33.595" y1="27.192" x2="31.125" y2="31.606" gradientUnits="userSpaceOnUse"><stop stop-color="#FF6A58"/><stop offset="1" stop-color="#BD060A"/></linearGradient><linearGradient id="d" x1="19.971" y1="17.346" x2="12.873" y2="22.02" gradientUnits="userSpaceOnUse"><stop stop-color="#FF6A58"/><stop offset="1" stop-color="#BD060A"/></linearGradient><linearGradient id="e" x1="21.829" y1="25.885" x2="16.38" y2="33.657" gradientUnits="userSpaceOnUse"><stop stop-color="#FF6A58"/><stop offset="1" stop-color="#BD060A"/></linearGradient></defs></svg>