<svg xmlns="http://www.w3.org/2000/svg" width="131" height="60" fill="none"><g clip-path="url(#a)"><path fill="#0E3E84" d="M88.964 37.534v-2.53h-4.94c.334-.778 1.358-1.634 2.717-2.918 1.732-1.634 2.203-2.412 2.203-4.476 0-2.16-.925-3.852-4.31-3.852-2.992 0-4.487 1.382-4.487 4.144v.448h3.07c0-1.05 0-2.53 1.26-2.53.944 0 1.161.72 1.161 1.81 0 1.032-.04 1.596-2.42 3.698-1.162 1.032-3.15 2.958-3.15 6.208h8.896v-.002Zm7.216 0c.137-3.056 1.634-7.862 3.78-11.072V24.03h-8.877v2.764h5.71c-2.009 2.588-3.838 7.57-4.035 10.742h3.425l-.003-.002Zm10.444.272c4.154 0 4.566-3.074 4.586-7.024 0-4.436-.412-7.024-4.586-7.024-4.153 0-4.566 3.074-4.586 7.024 0 4.436.413 7.024 4.586 7.024Zm0-2.062c-1.082 0-1.267-.978-1.278-4.536v-.406c0-3.93.157-4.982 1.28-4.982s1.28 1.05 1.28 4.982c0 3.892-.157 4.942-1.28 4.942h-.002Zm11.054 2.062c4.153 0 4.566-3.074 4.586-7.024 0-4.436-.413-7.024-4.586-7.024-4.154 0-4.566 3.074-4.586 7.024 0 4.436.412 7.024 4.586 7.024Zm0-2.062c-1.083 0-1.268-.978-1.278-4.536v-.406c0-3.93.157-4.982 1.28-4.982 1.082 0 1.268.98 1.278 4.586v.396c0 3.892-.157 4.942-1.28 4.942Zm13.12 1.79V23.758h-2.322c-.157.876-.749 2.16-3.248 2.16h-.413v2.062h2.677v9.554h3.308-.002ZM37.468.107a16.683 16.683 0 0 0-3.393-.038c-.419-.038-.916 0-1.41.038-9.362.722-17.83 5.795-22.844 13.685.382-.038.839.114 1.22-.038a35.393 35.393 0 0 1 3.088-3.796C15.121 9 16.037 8.08 17.103 7.39l3.051 1.802c-1.181 1.496-2.403 2.99-3.28 4.6.268.114.763.076 1.145 0 .954-1.418 1.982-2.836 3.204-4.102l4.92 1.726.152.154-.953 2.224c.418.076.686.038 1.107 0l.991-2.032c2.212.498 4.538.766 6.903.844.306.268.076.844.19 1.188h1.031c.115-.384-.038-.806.115-1.15 2.211-.116 4.538-.346 6.673-.882l.19.038 1.031 1.994c.344 0 .801.076 1.069-.076l-.954-2.224.076-.076c1.755-.46 3.395-1.15 5.073-1.84 1.181 1.264 2.288 2.76 3.28 4.216.419 0 .84.038 1.145-.076a14.939 14.939 0 0 0-1.64-2.416 16.608 16.608 0 0 0-1.678-2.07v-.194l2.67-1.572.383-.154a28.2 28.2 0 0 1 6.025 6.402c.456 0 .839.154 1.219-.038C55.124 5.856 46.696.835 37.583.106l-.039.077-.076-.076Zm3.928 1.725v.076c-3.319 2.454-8.695 2.684-12.203.422-.19-.154-.571-.23-.61-.498 4.043-.957 8.81-1.035 12.815 0h-.002Zm10.486 4.676-.077.154-2.632 1.496h-.19c-2.021-2.07-4.386-3.872-6.788-5.29.076-.268.456-.46.724-.652 3.204.844 6.216 2.3 8.96 4.294l.003-.002ZM27.857 2.866c-2.364 1.496-4.69 3.258-6.826 5.406-1.03-.384-1.982-.958-2.897-1.61v-.076c2.402-1.802 5.07-3.144 7.894-4.064.115-.114.191-.23.344-.23v.076c.306.076.533-.268.8-.038.23.192.496.346.687.536h-.002Zm20.02 5.788-.076.116c-1.487.652-3.013 1.266-4.653 1.61a64.9 64.9 0 0 0-3.928-6.018c.534-.306 1.182-.536 1.755-.844 2.48 1.266 4.882 3.066 6.902 5.136Zm-17.16-4.37-.115.306c-1.449 1.84-2.594 3.834-3.737 5.788l-.153.038a30.207 30.207 0 0 1-4.538-1.572l.077-.23c2.097-2.032 4.308-3.718 6.75-5.022.57.23 1.144.422 1.716.69v.002Zm3.698.728c.115 1.994.038 4.294.038 6.402-1.068.154-2.02-.038-3.089-.114-1.03-.154-2.326-.268-3.356-.614 1.107-2.108 2.403-4.14 3.966-6.018l2.441.344ZM38 4.706c1.487 1.916 2.936 3.872 3.928 5.98a26.68 26.68 0 0 1-6.292.766c-.077-2.032-.039-4.294 0-6.402l2.364-.344Zm-16.97 13.84c-2.479 1.84-3.241 5.136-2.593 8.05.494 2.76 3.088 4.792 5.567 5.75 3.395 1.226 6.94 2.108 10.374 3.298.344.154.8.498.724.92 0 .346-.344.536-.61.69-3.583.996-7.473.23-10.067-2.53-.306-.384-.495-.844-.8-1.226l-5.148.038c-.077 3.106-.115 6.67 0 9.736l5.72-.038.077-1.84c.648.306 1.296.69 1.944 1.036 3.966 1.686 9.075 2.07 13.004 0 2.859-1.61 4.384-4.716 3.966-8.05-.419-3.258-3.47-6.21-6.558-7.016L27.4 24.642l-.686-.344c-.306-.268-.495-.614-.418-1.036.724-1.266 2.402-.882 3.66-.844 2.67.384 5.415 1.304 6.979 3.796 1.678 0 3.622.038 5.453-.038.076-3.144-.038-5.904-.077-9.086a88.735 88.735 0 0 0-5.53.038c-.076.46.077 1.112-.114 1.572l-1.755-.958c-4.197-1.804-10.07-1.996-13.883.804Zm46.219.42c-4.959-3.22-12.509-3.45-17.618-.536-2.783 1.456-4.614 4.332-5.186 7.284-1.03 4.868-.762 10.658 2.898 14.3 4.272 3.834 10.486 4.676 16.016 3.106a7.134 7.134 0 0 0 1.668-.58l.163-.072a11.3 11.3 0 0 0 4.576-3.526c2.821-4.216 3.013-10.542 1.296-15.296-.686-1.84-2.097-3.488-3.813-4.676v-.004Zm-5.607 5.52c.572.882.534 2.032.648 3.066-.038 2.186.153 4.792-.229 7.016-.191.92-.8 1.878-1.755 2.224-1.525.69-3.584.498-4.994-.306-1.183-.844-1.334-2.262-1.487-3.604-.115-2.646-.306-5.444.418-7.858.572-1.496 2.135-1.878 3.548-1.994 1.487 0 2.936.23 3.852 1.456ZM2.46 16.666l-2.365.038a182.93 182.93 0 0 0 0 6.478c1.296.038 2.518 0 3.776.114V36.33l-.039.536-3.775.076a87.42 87.42 0 0 0 0 6.326h16.817v-6.326c-1.258-.076-2.67.038-3.89-.114l.038-13.456.077-.116 3.775-.038c.038-2.186.076-4.524-.038-6.518L2.46 16.662v.004Zm24.178 29.442c-.383 0-.801-.076-1.069.038l.954 2.261-.115.115a46.187 46.187 0 0 0-5.035 1.802l-.152-.076c-1.069-1.188-2.097-2.492-2.936-3.794-.192-.653-.954-.269-1.373-.346.916 1.686 2.135 3.181 3.357 4.715-1.03.614-2.059 1.304-3.127 1.802a27.778 27.778 0 0 1-6.025-6.477c-.457-.077-.763-.039-1.22 0 2.745 4.37 7.017 8.203 11.478 10.465 0 0 0-.038.039-.038.038 0 .114.076.038.116 3.012 1.494 6.216 2.568 9.609 3.028 11.707 1.572 22.88-3.526 29.363-13.57a6.532 6.532 0 0 0-1.22 0c-1.601 2.338-3.621 4.6-5.833 6.364-.077.114-.306.076-.382-.038-.954-.614-1.982-1.112-2.898-1.726 1.22-1.495 2.403-2.99 3.318-4.638h-1.183c-.954 1.419-1.944 2.915-3.204 4.178-1.678-.69-3.203-1.303-4.92-1.764l-.19-.154c.267-.766.762-1.494.915-2.262h-1.03l-1.03 2.07c-2.25-.498-4.73-.766-7.018-.92-.114-.346.038-.843-.114-1.15h-.992c-.077.46.114.804-.115 1.188a44.208 44.208 0 0 0-6.864.845l-1.03-2.033.004-.002Zm8.009 8.817c-.801.192-1.679.192-2.441.384-1.564-1.878-2.86-3.91-3.967-6.017l.192-.154c1.982-.384 4.042-.69 6.177-.69l.039 6.477Zm7.511-5.711.039.114c-1.069 2.07-2.403 4.063-3.852 5.941-.648.078-1.26-.192-1.907-.23l-.649-.076c-.076-2.262-.114-4.256 0-6.516 2.174.038 4.347.268 6.37.767Zm-15.064.343c1.107 2.108 2.48 4.102 3.852 6.096-.533.306-1.181.498-1.716.806a25.723 25.723 0 0 1-6.94-5.136v-.116c1.486-.728 3.05-1.264 4.652-1.685l.152.038v-.003Zm20.975 1.61c-1.22 1.418-2.786 2.646-4.234 3.68-.878.536-1.755 1.112-2.67 1.572l-1.64-.728.114-.268a46.551 46.551 0 0 0 3.66-5.826l.115-.078c1.64.385 3.204.92 4.652 1.648h.003Zm4.08 2.184c-2.135 1.726-4.614 2.876-7.131 3.834l-1.793.576c-.306-.154-.572-.384-.84-.614l.077-.114a34.17 34.17 0 0 0 6.75-5.328c1.03.422 2.02.996 2.935 1.648l.003-.002Zm-24.177 3.796c-.191.23-.495.46-.763.614-3.203-.844-6.178-2.3-8.924-4.294v-.116c.915-.576 1.83-1.188 2.82-1.61 2.174 2.184 4.424 3.834 6.865 5.406h.002Zm13.651.882c.115.23-.191.154-.267.23-4.043.882-8.543.92-12.585-.076-.077-.192.19-.23.305-.344 3.546-2.338 9.076-2.338 12.547.192v-.002Z"/></g><defs><clipPath id="a"><path fill="#fff" d="M0 0h130.8v60H0z"/></clipPath></defs></svg>