<svg width="48" height="48" fill="none" xmlns="http://www.w3.org/2000/svg"><path opacity=".5" d="M31.5 0C40.613 0 48 7.387 48 16.5v1C48 26.613 40.613 34 31.5 34S15 26.613 15 17.5v-1C15 7.387 22.387 0 31.5 0Z" fill="#FFB6AD"/><path fill-rule="evenodd" clip-rule="evenodd" d="M16.572 37.758a3.5 3.5 0 0 1-1.026 2.474l-.242.242a3.5 3.5 0 0 1-2.476 1.026H8A1.5 1.5 0 0 1 6.5 40v-4.828a3.5 3.5 0 0 1 1.026-2.476L21.062 19.16a.502.502 0 0 0 .094-.578l-.894-1.788a5.5 5.5 0 0 1 1.03-6.35l4.37-4.37a5.497 5.497 0 0 1 6.94-.686l5.092 3.394c.604.402 1.122.92 1.524 1.524l3.394 5.092a5.497 5.497 0 0 1-.686 6.94l-4.37 4.37a5.5 5.5 0 0 1-6.35 1.03l-1.788-.894a.502.502 0 0 0-.578.094l-5.052 5.052a3.498 3.498 0 0 1-2.474 1.024.503.503 0 0 0-.5.5c0 .928-.37 1.82-1.026 2.476l-.242.242a3.5 3.5 0 0 1-2.474 1.026.498.498 0 0 0-.5.5Zm4.742-7.744c.132 0 .26-.052.354-.146 1.132-1.134 3.638-3.64 5.052-5.052a3.504 3.504 0 0 1 4.04-.656l1.788.896c.962.48 2.124.292 2.886-.47l4.37-4.37a2.496 2.496 0 0 0 .312-3.154l-3.394-5.092a2.478 2.478 0 0 0-.692-.692l-5.092-3.394a2.496 2.496 0 0 0-3.154.312l-4.37 4.37a2.501 2.501 0 0 0-.47 2.886l.896 1.788a3.504 3.504 0 0 1-.656 4.04L9.646 34.818a.498.498 0 0 0-.146.354V38.5h3.328c.134 0 .26-.052.354-.146l.242-.244a.495.495 0 0 0 .148-.352 3.5 3.5 0 0 1 3.5-3.5.498.498 0 0 0 .352-.148l.244-.242a.498.498 0 0 0 .146-.354 3.498 3.498 0 0 1 3.5-3.5Z" fill="url(#a)"/><path fill-rule="evenodd" clip-rule="evenodd" d="M31.526 14.974c0 .826.674 1.5 1.5 1.5a1.5 1.5 0 1 0-1.5-1.5Z" fill="url(#b)"/><defs><linearGradient id="a" x1="38.775" y1="13.01" x2="5.91" y2="34.65" gradientUnits="userSpaceOnUse"><stop stop-color="#FF6A58"/><stop offset="1" stop-color="#BD060A"/></linearGradient><linearGradient id="b" x1="34.14" y1="14.166" x2="31.478" y2="15.919" gradientUnits="userSpaceOnUse"><stop stop-color="#FF6A58"/><stop offset="1" stop-color="#BD060A"/></linearGradient></defs></svg>