<svg width="48" height="48" fill="none" xmlns="http://www.w3.org/2000/svg"><path opacity=".5" d="M31.5 0C40.613 0 48 7.387 48 16.5v1C48 26.613 40.613 34 31.5 34S15 26.613 15 17.5v-1C15 7.387 22.387 0 31.5 0Z" fill="#FFB6AD"/><path d="M36 29.5a1.5 1.5 0 1 0 0-3 1.5 1.5 0 0 0 0 3Z" fill="url(#a)"/><path d="M12 29.5a1.5 1.5 0 1 0 0-3 1.5 1.5 0 0 0 0 3Z" fill="url(#b)"/><path fill-rule="evenodd" clip-rule="evenodd" d="M18 29.5h12a1.5 1.5 0 0 0 0-3H18a1.5 1.5 0 0 0 0 3Z" fill="url(#c)"/><path fill-rule="evenodd" clip-rule="evenodd" d="M12 21.5h3a1.5 1.5 0 0 0 0-3h-3a1.5 1.5 0 0 0 0 3Z" fill="url(#d)"/><path fill-rule="evenodd" clip-rule="evenodd" d="M19 21.5h3a1.5 1.5 0 0 0 0-3h-3a1.5 1.5 0 0 0 0 3Z" fill="url(#e)"/><path fill-rule="evenodd" clip-rule="evenodd" d="M26 21.5h3a1.5 1.5 0 0 0 0-3h-3a1.5 1.5 0 0 0 0 3Z" fill="url(#f)"/><path fill-rule="evenodd" clip-rule="evenodd" d="M33 21.5h3a1.5 1.5 0 0 0 0-3h-3a1.5 1.5 0 0 0 0 3Z" fill="url(#g)"/><path fill-rule="evenodd" clip-rule="evenodd" d="M36 39.5a7.5 7.5 0 0 0 7.5-7.5V16A7.5 7.5 0 0 0 36 8.5H12A7.5 7.5 0 0 0 4.5 16v16a7.5 7.5 0 0 0 7.5 7.5h24Zm0-3H12A4.5 4.5 0 0 1 7.5 32V16a4.5 4.5 0 0 1 4.5-4.5h24a4.5 4.5 0 0 1 4.5 4.5v16a4.5 4.5 0 0 1-4.5 4.5Z" fill="url(#h)"/><defs><linearGradient id="a" x1="37.114" y1="27.192" x2="34.452" y2="28.945" gradientUnits="userSpaceOnUse"><stop stop-color="#FF6A58"/><stop offset="1" stop-color="#BD060A"/></linearGradient><linearGradient id="b" x1="13.114" y1="27.192" x2="10.452" y2="28.945" gradientUnits="userSpaceOnUse"><stop stop-color="#FF6A58"/><stop offset="1" stop-color="#BD060A"/></linearGradient><linearGradient id="c" x1="29.571" y1="27.192" x2="27.96" y2="32.499" gradientUnits="userSpaceOnUse"><stop stop-color="#FF6A58"/><stop offset="1" stop-color="#BD060A"/></linearGradient><linearGradient id="d" x1="15.729" y1="19.192" x2="12.937" y2="22.868" gradientUnits="userSpaceOnUse"><stop stop-color="#FF6A58"/><stop offset="1" stop-color="#BD060A"/></linearGradient><linearGradient id="e" x1="22.729" y1="19.192" x2="19.937" y2="22.868" gradientUnits="userSpaceOnUse"><stop stop-color="#FF6A58"/><stop offset="1" stop-color="#BD060A"/></linearGradient><linearGradient id="f" x1="29.729" y1="19.192" x2="26.937" y2="22.868" gradientUnits="userSpaceOnUse"><stop stop-color="#FF6A58"/><stop offset="1" stop-color="#BD060A"/></linearGradient><linearGradient id="g" x1="36.729" y1="19.192" x2="33.937" y2="22.868" gradientUnits="userSpaceOnUse"><stop stop-color="#FF6A58"/><stop offset="1" stop-color="#BD060A"/></linearGradient><linearGradient id="h" x1="38.486" y1="15.654" x2="9.064" y2="40.026" gradientUnits="userSpaceOnUse"><stop stop-color="#FF6A58"/><stop offset="1" stop-color="#BD060A"/></linearGradient></defs></svg>