<svg width="48" height="48" fill="none" xmlns="http://www.w3.org/2000/svg"><path opacity=".5" d="M31.5 0C40.613 0 48 7.387 48 16.5v1C48 26.613 40.613 34 31.5 34S15 26.613 15 17.5v-1C15 7.387 22.387 0 31.5 0Z" fill="#FFB6AD"/><path fill-rule="evenodd" clip-rule="evenodd" d="M25.5 31v-3a1.5 1.5 0 0 0-3 0v3a1.5 1.5 0 0 0 3 0Z" fill="url(#a)"/><path fill-rule="evenodd" clip-rule="evenodd" d="M15.5 15.512v-2.516c0-2.254.896-4.414 2.488-6.008A8.502 8.502 0 0 1 23.996 4.5H24a8.5 8.5 0 0 1 8.5 8.5v2.512c5.014.262 9 4.41 9 9.488v9c0 5.246-4.254 9.5-9.5 9.5H16c-5.246 0-9.5-4.254-9.5-9.5v-9c0-5.078 3.986-9.226 9-9.488ZM32 18.5H16A6.5 6.5 0 0 0 9.5 25v9a6.5 6.5 0 0 0 6.5 6.5h16a6.5 6.5 0 0 0 6.5-6.5v-9a6.5 6.5 0 0 0-6.5-6.5Zm-2.5-3V13A5.5 5.5 0 0 0 24 7.5h-.004a5.497 5.497 0 0 0-5.496 5.496V15.5h11Z" fill="url(#b)"/><defs><linearGradient id="a" x1="25.114" y1="27.885" x2="21.671" y2="29.018" gradientUnits="userSpaceOnUse"><stop stop-color="#E5322D"/><stop offset="1" stop-color="#BD060A"/></linearGradient><linearGradient id="b" x1="37" y1="13.5" x2="4" y2="33" gradientUnits="userSpaceOnUse"><stop stop-color="#FF6A58"/><stop offset="1" stop-color="#BD060A"/></linearGradient></defs></svg>