<svg width="76" height="76" fill="none" xmlns="http://www.w3.org/2000/svg"><path fill-rule="evenodd" clip-rule="evenodd" d="M40.047 22.43c-.205 5.209-1.927 10.26-4.972 14.586-2.838 4.032-6.72 7.285-11.26 9.449a2.341 2.341 0 0 1-2.014 0c-4.54-2.164-8.422-5.417-11.26-9.449C7.496 32.69 5.774 27.64 5.568 22.43v-6.454c0-1.16.782-2.171 1.898-2.49 4.676-1.333 9.39-3.077 13.68-6.126a2.879 2.879 0 0 1 3.324 0c4.29 3.049 9.004 4.793 13.679 6.126a2.599 2.599 0 0 1 1.898 2.49v6.454ZM21.743 44.679a2.325 2.325 0 0 0 2.131 0c4.058-2.092 7.512-5.12 10.041-8.816 2.749-4.016 4.303-8.668 4.498-13.462v-5.269c0-1.15-.768-2.154-1.87-2.486-4.346-1.31-8.424-2.945-12.166-5.428a2.843 2.843 0 0 0-3.137 0c-3.743 2.483-7.82 4.118-12.168 5.428a2.608 2.608 0 0 0-1.87 2.486v5.27c.195 4.793 1.75 9.445 4.499 13.46 2.53 3.697 5.983 6.725 10.041 8.817Zm2.56-42.82c-.4-.372-.937-.58-1.495-.58s-1.094.208-1.494.58C15.968 6.82 9.539 8.762 2.87 10.47a2.15 2.15 0 0 0-1.147.731 1.987 1.987 0 0 0-.443 1.248v10.017l.002.07c.225 6.147 2.297 12.103 5.968 17.158 3.67 5.055 8.786 8.996 14.736 11.353a2.277 2.277 0 0 0 1.643 0c5.951-2.357 11.067-6.298 14.738-11.353 3.67-5.055 5.743-11.011 5.969-17.159V12.448c0-.452-.155-.89-.443-1.248a2.151 2.151 0 0 0-1.147-.73c-6.669-1.708-13.098-3.651-18.443-8.61Z" fill="url(#a)"/><g filter="url(#b)"><path d="M62.72 45.12c0 9.72-7.88 17.6-17.6 17.6-9.72 0-17.6-7.88-17.6-17.6 0-9.72 7.88-17.6 17.6-17.6 9.72 0 17.6 7.88 17.6 17.6Z" fill="url(#c)" fill-opacity=".4" shape-rendering="crispEdges"/></g><g filter="url(#d)"><path fill-rule="evenodd" clip-rule="evenodd" d="M45.12 27.967c-9.472 0-17.152 7.68-17.152 17.152 0 9.473 7.68 17.152 17.152 17.152 9.473 0 17.152-7.679 17.152-17.152 0-9.472-7.679-17.152-17.152-17.152ZM27.072 45.12c0-9.967 8.08-18.048 18.048-18.048 9.968 0 18.048 8.08 18.048 18.048 0 9.968-8.08 18.048-18.048 18.048-9.967 0-18.048-8.08-18.048-18.048Z" fill="url(#e)" shape-rendering="crispEdges"/></g><path fill-rule="evenodd" clip-rule="evenodd" d="m42.102 47.165 8.116-8.147a1.747 1.747 0 0 1 2.48 0 1.764 1.764 0 0 1 0 2.49l-9.357 9.394a1.747 1.747 0 0 1-2.48 0l-3.508-3.523a1.764 1.764 0 0 1 0-2.49 1.747 1.747 0 0 1 2.48 0l2.269 2.276Z" fill="url(#f)"/><defs><linearGradient id="a" x1="16.32" y1="18.239" x2="65.584" y2="28.726" gradientUnits="userSpaceOnUse"><stop stop-color="#FFB6AD"/><stop offset="1" stop-color="#E5322D"/></linearGradient><linearGradient id="c" x1="50.987" y1="30.227" x2="50.987" y2="62.719" gradientUnits="userSpaceOnUse"><stop stop-color="#fff" stop-opacity=".2"/><stop offset="1" stop-color="#fff" stop-opacity=".5"/></linearGradient><linearGradient id="e" x1="74.454" y1="27.519" x2="22.577" y2="52.42" gradientUnits="userSpaceOnUse"><stop stop-color="#fff"/><stop offset="1" stop-color="#fff" stop-opacity="0"/></linearGradient><linearGradient id="f" x1="45.033" y1="41.056" x2="54.092" y2="53.356" gradientUnits="userSpaceOnUse"><stop stop-color="#FFB6AD"/><stop offset="1" stop-color="#E5322D"/></linearGradient><filter id="b" x="15.521" y="15.52" width="59.2" height="59.2" filterUnits="userSpaceOnUse" color-interpolation-filters="sRGB"><feFlood flood-opacity="0" result="BackgroundImageFix"/><feGaussianBlur in="BackgroundImageFix" stdDeviation="6"/><feComposite in2="SourceAlpha" operator="in" result="effect1_backgroundBlur_2799_2742"/><feColorMatrix in="SourceAlpha" values="0 0 0 0 0 0 0 0 0 0 0 0 0 0 0 0 0 0 127 0" result="hardAlpha"/><feOffset/><feGaussianBlur stdDeviation="6"/><feComposite in2="hardAlpha" operator="out"/><feColorMatrix values="0 0 0 0 0 0 0 0 0 0 0 0 0 0 0 0 0 0 0.15 0"/><feBlend in2="effect1_backgroundBlur_2799_2742" result="effect2_dropShadow_2799_2742"/><feBlend in="SourceGraphic" in2="effect2_dropShadow_2799_2742" result="shape"/></filter><filter id="d" x="15.072" y="15.071" width="60.096" height="60.096" filterUnits="userSpaceOnUse" color-interpolation-filters="sRGB"><feFlood flood-opacity="0" result="BackgroundImageFix"/><feGaussianBlur in="BackgroundImageFix" stdDeviation="6"/><feComposite in2="SourceAlpha" operator="in" result="effect1_backgroundBlur_2799_2742"/><feColorMatrix in="SourceAlpha" values="0 0 0 0 0 0 0 0 0 0 0 0 0 0 0 0 0 0 127 0" result="hardAlpha"/><feOffset/><feGaussianBlur stdDeviation="6"/><feComposite in2="hardAlpha" operator="out"/><feColorMatrix values="0 0 0 0 0 0 0 0 0 0 0 0 0 0 0 0 0 0 0.15 0"/><feBlend in2="effect1_backgroundBlur_2799_2742" result="effect2_dropShadow_2799_2742"/><feBlend in="SourceGraphic" in2="effect2_dropShadow_2799_2742" result="shape"/></filter></defs></svg>