<svg width="74" height="64" fill="none" xmlns="http://www.w3.org/2000/svg"><g filter="url(#a)"><path d="M13.008 23.007a4.48 4.48 0 0 1 4.48-4.48h34a4.48 4.48 0 0 1 4.48 4.48v5.808a4.48 4.48 0 0 1-4.48 4.48h-34a4.48 4.48 0 0 1-4.48-4.48v-5.808Z" fill="url(#b)" fill-opacity=".4" shape-rendering="crispEdges"/></g><g filter="url(#c)"><path fill-rule="evenodd" clip-rule="evenodd" d="M12.56 23.007a4.928 4.928 0 0 1 4.928-4.928h34a4.928 4.928 0 0 1 4.928 4.928v5.808a4.928 4.928 0 0 1-4.928 4.928h-34a4.928 4.928 0 0 1-4.928-4.928v-5.808Zm4.928-4.032a4.032 4.032 0 0 0-4.032 4.032v5.808a4.032 4.032 0 0 0 4.032 4.032h34a4.032 4.032 0 0 0 4.032-4.032v-5.808a4.032 4.032 0 0 0-4.032-4.032h-34Z" fill="url(#d)" shape-rendering="crispEdges"/></g><path d="M19.05 25.91a1.343 1.343 0 1 1-2.686 0 1.343 1.343 0 0 1 2.685 0ZM23.077 25.91a1.343 1.343 0 1 1-2.685 0 1.343 1.343 0 0 1 2.685 0ZM27.104 25.91a1.342 1.342 0 1 1-2.685 0 1.342 1.342 0 0 1 2.685 0Z" fill="#FFB6AD"/><path d="M62.955 9.621c-6.978-2.283-14.513 1.537-16.797 8.516l-2.364 7.228c-.027.082-.174.187-.262.188-.76.004-1.38.02-1.953.05-.683.035-1.36.558-1.576 1.216l-5.434 16.608c-.214.654.02 1.475.545 1.912a41.503 41.503 0 0 0 13.682 7.56 41.503 41.503 0 0 0 15.505 1.988c.68-.041 1.355-.566 1.569-1.219l5.434-16.608c.215-.658-.023-1.48-.553-1.913a42.326 42.326 0 0 0-1.545-1.194c-.07-.053-.127-.225-.1-.307l2.365-7.228c2.283-6.979-1.537-14.513-8.516-16.797ZM50.551 35.87a3.626 3.626 0 0 1 4.575-2.32 3.626 3.626 0 0 1 2.32 4.575 3.412 3.412 0 0 1-.55 1.038c-.972 1.25-2.431 2.24-2.923 3.744l-1.07 3.272a1.812 1.812 0 1 1-3.448-1.128l1.071-3.272c.492-1.504-.1-3.165-.144-4.747-.011-.383.042-.774.17-1.162ZM67.12 24.994l-.316.965c-.887 2.713-4.053 3.902-6.688 2.805a41.536 41.536 0 0 0-6.187-2.024c-2.772-.671-4.621-3.501-3.734-6.213l.316-.967c1.498-4.579 6.442-7.085 11.021-5.587 4.58 1.498 7.086 6.442 5.588 11.021Z" fill="url(#e)"/><g filter="url(#f)"><path d="M13.008 41.131a4.48 4.48 0 0 1 4.48-4.48h23.26a4.48 4.48 0 0 1 4.48 4.48v5.808a4.48 4.48 0 0 1-4.48 4.48h-23.26a4.48 4.48 0 0 1-4.48-4.48V41.13Z" fill="url(#g)" fill-opacity=".4" shape-rendering="crispEdges"/></g><g filter="url(#h)"><path fill-rule="evenodd" clip-rule="evenodd" d="M12.56 41.131a4.928 4.928 0 0 1 4.928-4.928h23.26a4.928 4.928 0 0 1 4.928 4.928v5.808a4.928 4.928 0 0 1-4.928 4.928h-23.26a4.928 4.928 0 0 1-4.928-4.928V41.13Zm4.928-4.032a4.032 4.032 0 0 0-4.032 4.032v5.808a4.032 4.032 0 0 0 4.032 4.032h23.26a4.032 4.032 0 0 0 4.032-4.032V41.13a4.032 4.032 0 0 0-4.032-4.032h-23.26Z" fill="url(#i)" shape-rendering="crispEdges"/></g><path d="M19.05 44.035a1.343 1.343 0 1 1-2.686 0 1.343 1.343 0 0 1 2.685 0ZM23.077 44.035a1.343 1.343 0 1 1-2.685 0 1.343 1.343 0 0 1 2.685 0ZM27.104 44.035a1.342 1.342 0 1 1-2.685 0 1.342 1.342 0 0 1 2.685 0Z" fill="#FFB6AD"/><defs><linearGradient id="b" x1="34.488" y1="19.663" x2="34.488" y2="33.295" gradientUnits="userSpaceOnUse"><stop stop-color="#fff" stop-opacity=".2"/><stop offset="1" stop-color="#fff" stop-opacity=".5"/></linearGradient><linearGradient id="d" x1="55.968" y1="18.527" x2="28.104" y2="47.709" gradientUnits="userSpaceOnUse"><stop stop-color="#fff"/><stop offset="1" stop-color="#fff" stop-opacity="0"/></linearGradient><linearGradient id="e" x1="53.328" y1="18.059" x2="86.825" y2="47.413" gradientUnits="userSpaceOnUse"><stop stop-color="#FFB6AD"/><stop offset="1" stop-color="#E5322D"/></linearGradient><linearGradient id="g" x1="34.488" y1="37.787" x2="34.488" y2="51.419" gradientUnits="userSpaceOnUse"><stop stop-color="#fff" stop-opacity=".2"/><stop offset="1" stop-color="#fff" stop-opacity=".5"/></linearGradient><linearGradient id="i" x1="55.968" y1="36.651" x2="28.104" y2="65.833" gradientUnits="userSpaceOnUse"><stop stop-color="#fff"/><stop offset="1" stop-color="#fff" stop-opacity="0"/></linearGradient><filter id="a" x="1.008" y="6.527" width="66.96" height="38.768" filterUnits="userSpaceOnUse" color-interpolation-filters="sRGB"><feFlood flood-opacity="0" result="BackgroundImageFix"/><feGaussianBlur in="BackgroundImageFix" stdDeviation="6"/><feComposite in2="SourceAlpha" operator="in" result="effect1_backgroundBlur_2799_2741"/><feColorMatrix in="SourceAlpha" values="0 0 0 0 0 0 0 0 0 0 0 0 0 0 0 0 0 0 127 0" result="hardAlpha"/><feOffset/><feGaussianBlur stdDeviation="6"/><feComposite in2="hardAlpha" operator="out"/><feColorMatrix values="0 0 0 0 0 0 0 0 0 0 0 0 0 0 0 0 0 0 0.15 0"/><feBlend in2="effect1_backgroundBlur_2799_2741" result="effect2_dropShadow_2799_2741"/><feBlend in="SourceGraphic" in2="effect2_dropShadow_2799_2741" result="shape"/></filter><filter id="c" x=".56" y="6.079" width="67.856" height="39.663" filterUnits="userSpaceOnUse" color-interpolation-filters="sRGB"><feFlood flood-opacity="0" result="BackgroundImageFix"/><feGaussianBlur in="BackgroundImageFix" stdDeviation="6"/><feComposite in2="SourceAlpha" operator="in" result="effect1_backgroundBlur_2799_2741"/><feColorMatrix in="SourceAlpha" values="0 0 0 0 0 0 0 0 0 0 0 0 0 0 0 0 0 0 127 0" result="hardAlpha"/><feOffset/><feGaussianBlur stdDeviation="6"/><feComposite in2="hardAlpha" operator="out"/><feColorMatrix values="0 0 0 0 0 0 0 0 0 0 0 0 0 0 0 0 0 0 0.15 0"/><feBlend in2="effect1_backgroundBlur_2799_2741" result="effect2_dropShadow_2799_2741"/><feBlend in="SourceGraphic" in2="effect2_dropShadow_2799_2741" result="shape"/></filter><filter id="f" x="1.008" y="24.651" width="56.22" height="38.768" filterUnits="userSpaceOnUse" color-interpolation-filters="sRGB"><feFlood flood-opacity="0" result="BackgroundImageFix"/><feGaussianBlur in="BackgroundImageFix" stdDeviation="6"/><feComposite in2="SourceAlpha" operator="in" result="effect1_backgroundBlur_2799_2741"/><feColorMatrix in="SourceAlpha" values="0 0 0 0 0 0 0 0 0 0 0 0 0 0 0 0 0 0 127 0" result="hardAlpha"/><feOffset/><feGaussianBlur stdDeviation="6"/><feComposite in2="hardAlpha" operator="out"/><feColorMatrix values="0 0 0 0 0 0 0 0 0 0 0 0 0 0 0 0 0 0 0.15 0"/><feBlend in2="effect1_backgroundBlur_2799_2741" result="effect2_dropShadow_2799_2741"/><feBlend in="SourceGraphic" in2="effect2_dropShadow_2799_2741" result="shape"/></filter><filter id="h" x=".56" y="24.203" width="57.116" height="39.663" filterUnits="userSpaceOnUse" color-interpolation-filters="sRGB"><feFlood flood-opacity="0" result="BackgroundImageFix"/><feGaussianBlur in="BackgroundImageFix" stdDeviation="6"/><feComposite in2="SourceAlpha" operator="in" result="effect1_backgroundBlur_2799_2741"/><feColorMatrix in="SourceAlpha" values="0 0 0 0 0 0 0 0 0 0 0 0 0 0 0 0 0 0 127 0" result="hardAlpha"/><feOffset/><feGaussianBlur stdDeviation="6"/><feComposite in2="hardAlpha" operator="out"/><feColorMatrix values="0 0 0 0 0 0 0 0 0 0 0 0 0 0 0 0 0 0 0.15 0"/><feBlend in2="effect1_backgroundBlur_2799_2741" result="effect2_dropShadow_2799_2741"/><feBlend in="SourceGraphic" in2="effect2_dropShadow_2799_2741" result="shape"/></filter></defs></svg>