<svg width="48" height="48" fill="none" xmlns="http://www.w3.org/2000/svg"><path opacity=".5" d="M31.5 0C40.613 0 48 7.387 48 16.5v1C48 26.613 40.613 34 31.5 34S15 26.613 15 17.5v-1C15 7.387 22.387 0 31.5 0Z" fill="#FFB6AD"/><path fill-rule="evenodd" clip-rule="evenodd" d="M30.004 37.5c3.58 0 7.012-1.422 9.544-3.952a13.502 13.502 0 0 0 3.952-9.544v-.008c0-3.58-1.422-7.012-3.952-9.544a13.502 13.502 0 0 0-9.544-3.952H17.996c-3.58 0-7.012 1.422-9.544 3.952A13.502 13.502 0 0 0 4.5 23.996v.008c0 3.58 1.422 7.012 3.952 9.544a13.502 13.502 0 0 0 9.544 3.952h12.008Zm0-3H17.996A10.497 10.497 0 0 1 7.5 24.004v-.008A10.497 10.497 0 0 1 17.996 13.5h12.008A10.497 10.497 0 0 1 40.5 23.996v.008A10.497 10.497 0 0 1 30.004 34.5Z" fill="url(#a)"/><path fill-rule="evenodd" clip-rule="evenodd" d="M30 16.5c-4.14 0-7.5 3.36-7.5 7.5 0 4.14 3.36 7.5 7.5 7.5 4.14 0 7.5-3.36 7.5-7.5 0-4.14-3.36-7.5-7.5-7.5Zm0 3c2.484 0 4.5 2.016 4.5 4.5s-2.016 4.5-4.5 4.5a4.502 4.502 0 0 1-4.5-4.5c0-2.484 2.016-4.5 4.5-4.5Z" fill="url(#b)"/><defs><linearGradient id="a" x1="38.486" y1="16.731" x2="12.437" y2="41.505" gradientUnits="userSpaceOnUse"><stop stop-color="#FF6A58"/><stop offset="1" stop-color="#BD060A"/></linearGradient><linearGradient id="b" x1="35.571" y1="19.962" x2="22.261" y2="28.726" gradientUnits="userSpaceOnUse"><stop stop-color="#FF6A58"/><stop offset="1" stop-color="#BD060A"/></linearGradient></defs></svg>