<svg width="78" height="84" fill="none" xmlns="http://www.w3.org/2000/svg"><g filter="url(#a)"><path d="M26.008 37.236a5.12 5.12 0 0 1 5.12-5.12h29.44a5.12 5.12 0 0 1 5.12 5.12v29.44a5.12 5.12 0 0 1-5.12 5.12h-29.44a5.12 5.12 0 0 1-5.12-5.12v-29.44Z" fill="url(#b)" fill-opacity=".15" shape-rendering="crispEdges"/></g><g filter="url(#c)"><path fill-rule="evenodd" clip-rule="evenodd" d="M60.568 33.012h-29.44a4.224 4.224 0 0 0-4.224 4.224v29.44a4.224 4.224 0 0 0 4.224 4.224h29.44a4.224 4.224 0 0 0 4.224-4.224v-29.44a4.224 4.224 0 0 0-4.224-4.224Zm-29.44-.896a5.12 5.12 0 0 0-5.12 5.12v29.44a5.12 5.12 0 0 0 5.12 5.12h29.44a5.12 5.12 0 0 0 5.12-5.12v-29.44a5.12 5.12 0 0 0-5.12-5.12h-29.44Z" fill="url(#d)" shape-rendering="crispEdges"/></g><path d="M17.048 21.877a6.4 6.4 0 0 1 6.4-6.4h26.24a6.4 6.4 0 0 1 6.4 6.4v34.71a3.84 3.84 0 0 1-.957 2.537l-4.936 5.61a3.84 3.84 0 0 1-2.883 1.303H23.448a6.4 6.4 0 0 1-6.4-6.4v-37.76Z" fill="url(#e)"/><g filter="url(#f)"><path d="M13.208 17.187a4.48 4.48 0 0 1 4.48-4.48h17.868a4.48 4.48 0 0 1 4.48 4.48v17.868a4.48 4.48 0 0 1-4.48 4.48H17.688a4.48 4.48 0 0 1-4.48-4.48V17.187Z" fill="url(#g)" fill-opacity=".6" shape-rendering="crispEdges"/></g><g filter="url(#h)"><path fill-rule="evenodd" clip-rule="evenodd" d="M12.76 17.187a4.928 4.928 0 0 1 4.928-4.928h17.868a4.928 4.928 0 0 1 4.928 4.928v17.868a4.928 4.928 0 0 1-4.928 4.928H17.688a4.928 4.928 0 0 1-4.928-4.928V17.187Zm4.928-4.032a4.032 4.032 0 0 0-4.032 4.032v17.868a4.032 4.032 0 0 0 4.032 4.032h17.868a4.032 4.032 0 0 0 4.032-4.032V17.187a4.032 4.032 0 0 0-4.032-4.032H17.688Z" fill="url(#i)" shape-rendering="crispEdges"/></g><path d="M34.255 22.344h-4.781a.956.956 0 1 1 0-1.912h4.781a.956.956 0 1 1 0 1.912ZM34.255 27.125h-4.781a.956.956 0 1 1 0-1.912h4.781a.956.956 0 1 1 0 1.912ZM34.255 31.907h-15.3a.956.956 0 1 1 0-1.913h15.3a.956.956 0 1 1 0 1.913ZM49.997 46.943H28.96a.956.956 0 1 1 0-1.913h21.038a.956.956 0 1 1 0 1.913ZM42.347 56.505H28.959a.956.956 0 1 1 0-1.912h13.388a.956.956 0 1 1 0 1.912ZM49.997 51.724H28.96a.956.956 0 1 1 0-1.912h21.038a.956.956 0 1 1 0 1.912Z" fill="#fff" fill-opacity=".6"/><path d="M22.78 15.65a2.872 2.872 0 0 0-2.868 2.87v1.912a.956.956 0 1 0 1.912 0v-1.913a.957.957 0 0 1 1.913 0v3.825a2.872 2.872 0 0 1-2.87 2.87A2.872 2.872 0 0 1 18 22.343v-9.563a2.872 2.872 0 0 1 2.869-2.868 2.872 2.872 0 0 1 2.869 2.868h1.912A4.787 4.787 0 0 0 20.868 8a4.787 4.787 0 0 0-4.782 4.781v9.563a4.787 4.787 0 0 0 4.782 4.782 4.787 4.787 0 0 0 4.781-4.782V18.52a2.872 2.872 0 0 0-2.869-2.869Z" fill="url(#j)"/><path d="M46.342 57.253a.64.64 0 0 1 .615-.665l6.77-.263a.64.64 0 0 1 .494 1.074l-6.506 7.033a.64.64 0 0 1-1.109-.41l-.264-6.77Z" fill="#fff" fill-opacity=".8"/><defs><linearGradient id="b" x1="52.462" y1="35.169" x2="52.462" y2="71.796" gradientUnits="userSpaceOnUse"><stop stop-color="#fff" stop-opacity=".2"/><stop offset="1" stop-color="#fff" stop-opacity=".5"/></linearGradient><linearGradient id="d" x1="78.915" y1="32.116" x2="20.436" y2="60.186" gradientUnits="userSpaceOnUse"><stop stop-color="#fff"/><stop offset="1" stop-color="#fff" stop-opacity="0"/></linearGradient><linearGradient id="e" x1="36.586" y1="25.476" x2="73.06" y2="55.641" gradientUnits="userSpaceOnUse"><stop stop-color="#FFB6AD"/><stop offset="1" stop-color="#E5322D"/></linearGradient><linearGradient id="g" x1="31.094" y1="14.771" x2="31.094" y2="39.535" gradientUnits="userSpaceOnUse"><stop stop-color="#fff" stop-opacity=".2"/><stop offset="1" stop-color="#fff" stop-opacity=".5"/></linearGradient><linearGradient id="i" x1="48.979" y1="12.707" x2="9.44" y2="31.686" gradientUnits="userSpaceOnUse"><stop stop-color="#fff"/><stop offset="1" stop-color="#fff" stop-opacity="0"/></linearGradient><linearGradient id="j" x1="20.872" y1="11.783" x2="32.564" y2="18.044" gradientUnits="userSpaceOnUse"><stop stop-color="#FFB6AD"/><stop offset="1" stop-color="#E5322D"/></linearGradient><filter id="a" x="14.008" y="20.116" width="63.68" height="63.68" filterUnits="userSpaceOnUse" color-interpolation-filters="sRGB"><feFlood flood-opacity="0" result="BackgroundImageFix"/><feGaussianBlur in="BackgroundImageFix" stdDeviation="6"/><feComposite in2="SourceAlpha" operator="in" result="effect1_backgroundBlur_2799_2743"/><feColorMatrix in="SourceAlpha" values="0 0 0 0 0 0 0 0 0 0 0 0 0 0 0 0 0 0 127 0" result="hardAlpha"/><feOffset/><feGaussianBlur stdDeviation="6"/><feComposite in2="hardAlpha" operator="out"/><feColorMatrix values="0 0 0 0 0 0 0 0 0 0 0 0 0 0 0 0 0 0 0.15 0"/><feBlend in2="effect1_backgroundBlur_2799_2743" result="effect2_dropShadow_2799_2743"/><feBlend in="SourceGraphic" in2="effect2_dropShadow_2799_2743" result="shape"/></filter><filter id="c" x="14.008" y="20.116" width="63.68" height="63.68" filterUnits="userSpaceOnUse" color-interpolation-filters="sRGB"><feFlood flood-opacity="0" result="BackgroundImageFix"/><feGaussianBlur in="BackgroundImageFix" stdDeviation="6"/><feComposite in2="SourceAlpha" operator="in" result="effect1_backgroundBlur_2799_2743"/><feColorMatrix in="SourceAlpha" values="0 0 0 0 0 0 0 0 0 0 0 0 0 0 0 0 0 0 127 0" result="hardAlpha"/><feOffset/><feGaussianBlur stdDeviation="6"/><feComposite in2="hardAlpha" operator="out"/><feColorMatrix values="0 0 0 0 0 0 0 0 0 0 0 0 0 0 0 0 0 0 0.15 0"/><feBlend in2="effect1_backgroundBlur_2799_2743" result="effect2_dropShadow_2799_2743"/><feBlend in="SourceGraphic" in2="effect2_dropShadow_2799_2743" result="shape"/></filter><filter id="f" x="1.208" y=".707" width="50.828" height="50.828" filterUnits="userSpaceOnUse" color-interpolation-filters="sRGB"><feFlood flood-opacity="0" result="BackgroundImageFix"/><feGaussianBlur in="BackgroundImageFix" stdDeviation="6"/><feComposite in2="SourceAlpha" operator="in" result="effect1_backgroundBlur_2799_2743"/><feColorMatrix in="SourceAlpha" values="0 0 0 0 0 0 0 0 0 0 0 0 0 0 0 0 0 0 127 0" result="hardAlpha"/><feOffset/><feGaussianBlur stdDeviation="6"/><feComposite in2="hardAlpha" operator="out"/><feColorMatrix values="0 0 0 0 0 0 0 0 0 0 0 0 0 0 0 0 0 0 0.15 0"/><feBlend in2="effect1_backgroundBlur_2799_2743" result="effect2_dropShadow_2799_2743"/><feBlend in="SourceGraphic" in2="effect2_dropShadow_2799_2743" result="shape"/></filter><filter id="h" x=".76" y=".259" width="51.724" height="51.725" filterUnits="userSpaceOnUse" color-interpolation-filters="sRGB"><feFlood flood-opacity="0" result="BackgroundImageFix"/><feGaussianBlur in="BackgroundImageFix" stdDeviation="6"/><feComposite in2="SourceAlpha" operator="in" result="effect1_backgroundBlur_2799_2743"/><feColorMatrix in="SourceAlpha" values="0 0 0 0 0 0 0 0 0 0 0 0 0 0 0 0 0 0 127 0" result="hardAlpha"/><feOffset/><feGaussianBlur stdDeviation="6"/><feComposite in2="hardAlpha" operator="out"/><feColorMatrix values="0 0 0 0 0 0 0 0 0 0 0 0 0 0 0 0 0 0 0.15 0"/><feBlend in2="effect1_backgroundBlur_2799_2743" result="effect2_dropShadow_2799_2743"/><feBlend in="SourceGraphic" in2="effect2_dropShadow_2799_2743" result="shape"/></filter></defs></svg>