<svg width="299" height="164" viewBox="0 0 299 164" xmlns="http://www.w3.org/2000/svg">
    <g fill="none" fill-rule="evenodd">
        <path d="M23.083 55C10.887 55 1 64.887 1 77.083v61.834C1 151.113 10.887 161 23.083 161h61.834C97.113 161 107 151.113 107 138.917V77.083C107 64.887 97.113 55 84.917 55H23.083z" stroke="#707078" stroke-width=".5" fill="#FFF"/>
        <path d="M70.192 73.649c-2.052 1.022-3.591 2.746-4.715 4.7-1.807-3.138-4.68-5.682-9.031-5.682-4.354 0-9.69 3.815-9.69 10.259 0 6.524 5.272 9.617 7.883 11.363 2.791 1.864 7.554 5.255 10.838 11.53 3.284-6.275 8.047-9.666 10.838-11.53 1.962-1.313 5.428-3.387 7.028-7.107L70.192 73.65z" fill="#E4332E"/>
        <path fill="#FFF" d="M70.035 87.552v-12.26l11.873 12.26z"/>
        <path d="M26.675 100.07h1.727c.547 0 1.179-.782 1.179-1.304V79.85c0-.522-.632-1.261-1.179-1.261h-1.727v-4.566H40.53v4.566h-1.768c-.548 0-1.137.739-1.137 1.26v18.916c0 .522.59 1.304 1.137 1.304h1.768v4.393H26.675v-4.393zM29.336 125.13c3.15 0 3.975-1.86 3.975-4.455 0-2.556-.825-4.377-3.975-4.377H27.16v8.831h2.176zm-11.553 10.03h1.275c.526 0 1.088-.696 1.088-1.16v-16.85c0-.464-.562-1.123-1.088-1.123h-1.275v-4.067h11.928c7.014 0 10.84 2.557 10.84 8.599 0 5.887-4.052 8.56-11.103 8.56h-2.175v6.042h3.038v3.912H17.783v-3.912zM54.09 134.967c4.726 0 7.052-2.905 7.052-9.412 0-6.468-2.288-9.257-7.052-9.257h-1.763v18.669h1.763zm-11.252.194h1.275c.525 0 1.088-.698 1.088-1.162V117.15c0-.464-.563-1.123-1.088-1.123h-1.275v-4.067h11.44c9.34 0 14.215 4.183 14.215 13.402 0 9.063-4.951 13.71-14.403 13.71H42.838v-3.911zM70.893 135.16h1.275c.526 0 1.088-.696 1.088-1.161V117.15c0-.464-.562-1.123-1.088-1.123h-1.275v-4.067h21.342v8.367h-4.2l-.638-3.99h-7.015v7.592h3.414l.3-2.557h3.863v9.412h-3.863l-.3-2.672h-3.414v7.049h3.039v3.912H70.893v-3.912z" fill="#000"/>
        <g fill="#33333B" fill-rule="nonzero">
            <path d="M193.196 39c-.487 0-.97-.152-1.377-.447L177 27.84a2.445 2.445 0 0 1-.56-3.372 2.351 2.351 0 0 1 3.314-.57l11.804 8.533 2.73-14.468c.247-1.312 1.495-2.17 2.782-1.92 1.29.253 2.134 1.52 1.887 2.832l-3.427 18.163a2.41 2.41 0 0 1-1.45 1.788 2.342 2.342 0 0 1-.884.174z"/>
            <path d="M191.606 38a2.397 2.397 0 0 1-2.364-2.074C186.487 16.195 168.317 2.4 148.739 5.173a35.5 35.5 0 0 0-19.52 9.412 36.167 36.167 0 0 0-10.495 18.501 2.39 2.39 0 0 1-2.855 1.825 2.41 2.41 0 0 1-1.81-2.877 40.977 40.977 0 0 1 11.888-20.961A40.242 40.242 0 0 1 148.073.402c22.19-3.143 42.782 12.492 45.903 34.853a2.406 2.406 0 0 1-2.37 2.745z"/>
        </g>
        <g fill="#33333B" fill-rule="nonzero">
            <path d="M238.473 142.892H217.37c-2.988 0-5.419-2.426-5.419-5.408v-5.921a6.425 6.425 0 0 0 3.22-.072v5.993c0 1.21.987 2.194 2.2 2.194h20.68c.889 0 1.61-.719 1.61-1.607 0-.887-.721-1.607-1.61-1.607h-19.659v-7.071l.033-.039c2.122-2.607 1.856-6.383-.518-8.677a6.408 6.408 0 0 0 2.735-1.962c2.121-2.607 1.856-6.383-.518-8.677a6.408 6.408 0 0 0 2.734-1.963 6.385 6.385 0 0 0 1.409-4.72 6.39 6.39 0 0 0-2.35-4.333l-3.525-2.857V64.642h7.13l.047.145a4.037 4.037 0 0 0 3.862 2.82h12.446a4.037 4.037 0 0 0 3.862-2.82l.047-.145h6.399v22.3c0 .887.72 1.606 1.61 1.606.89 0 1.61-.719 1.61-1.607v-23.32c0-1.21-.986-2.193-2.198-2.193h-7.855c-1.15 0-2.157.735-2.505 1.829l-.177.558a.829.829 0 0 1-.793.579h-12.446a.829.829 0 0 1-.792-.58l-.178-.557a2.617 2.617 0 0 0-2.504-1.83h-8.587a2.199 2.199 0 0 0-2.198 2.194v29.943a6.404 6.404 0 0 0-3.22-1.243V75.965c0-.888-.722-1.607-1.611-1.607-.884 0-1.601.71-1.61 1.59a6.413 6.413 0 0 0-3.946-.858 6.411 6.411 0 0 0-4.341 2.344 6.386 6.386 0 0 0-1.409 4.722 6.39 6.39 0 0 0 2.35 4.332l7.346 5.953v.392a6.418 6.418 0 0 0-2.414 1.838 6.386 6.386 0 0 0-1.409 4.721 6.382 6.382 0 0 0 1.922 3.952 6.411 6.411 0 0 0-2.73 1.966c-2.122 2.608-1.856 6.385.52 8.679a6.397 6.397 0 0 0-2.736 1.96 6.384 6.384 0 0 0-1.41 4.722 6.392 6.392 0 0 0 2.35 4.332l5.906 4.786v7.695c0 4.754 3.876 8.622 8.64 8.622h21.103c.89 0 1.61-.72 1.61-1.607 0-.888-.72-1.607-1.61-1.607zm-35.058-58.899a3.2 3.2 0 0 1-1.176-2.169 3.197 3.197 0 0 1 .705-2.364 3.211 3.211 0 0 1 2.174-1.174c.857-.089 1.699.161 2.368.704L208.731 80V88.3l-5.316-4.308zm5.402 12.704a3.211 3.211 0 0 1 2.513-1.192c.738 0 1.448.25 2.03.722l6.527 5.29a3.2 3.2 0 0 1 1.177 2.168 3.197 3.197 0 0 1-.705 2.364 3.237 3.237 0 0 1-4.543.47l-6.528-5.29a3.2 3.2 0 0 1-1.176-2.169 3.197 3.197 0 0 1 .705-2.363zm-2.217 10.64a3.211 3.211 0 0 1 2.174-1.175 3.215 3.215 0 0 1 2.284.642l2.728 2.21c.03.025.063.046.094.07l3.79 3.072a3.221 3.221 0 0 1 .472 4.533 3.238 3.238 0 0 1-4.543.47l-6.528-5.29a3.221 3.221 0 0 1-.47-4.533zm-2.921 13.002a3.197 3.197 0 0 1 .705-2.363 3.227 3.227 0 0 1 4.445-.543l2.74 2.221c.032.026.065.047.097.071l3.788 3.07a3.221 3.221 0 0 1-1.702 5.707 3.214 3.214 0 0 1-2.369-.704l-6.528-5.29a3.198 3.198 0 0 1-1.176-2.169z"/>
            <path d="M210.34 70.724c.89 0 1.611-.72 1.611-1.607V63.62c0-2.981 2.431-5.407 5.42-5.407h35.836c2.988 0 5.419 2.426 5.419 5.407v29.653c0 .887.72 1.607 1.61 1.607.89 0 1.61-.72 1.61-1.607V63.62c0-4.753-3.875-8.621-8.639-8.621H217.37c-4.764 0-8.64 3.868-8.64 8.621v5.496c0 .887.722 1.607 1.61 1.607zM298.616 161.352l-10.986-12.896a1.612 1.612 0 0 0-2.27-.183 1.604 1.604 0 0 0-.183 2.265l10.986 12.896a1.608 1.608 0 0 0 2.27.183c.677-.575.76-1.589.183-2.265zM259.187 156.886a1.61 1.61 0 0 0-1.02-.609c-5.6-.903-10.128-5.234-11.268-10.778l-.594-2.884a13.68 13.68 0 0 1 1.522-9.548l7.966-13.946a5.106 5.106 0 0 0-.412-5.696l-7.46-9.55a7.413 7.413 0 0 1 .26-9.43l.398-.456a.834.834 0 0 1 .618-.288.823.823 0 0 1 .628.264l7.12 7.538c.61.646 1.628.675 2.276.067a1.605 1.605 0 0 0 .067-2.272l-7.12-7.538a4.066 4.066 0 0 0-6.016.116l-.399.456a10.627 10.627 0 0 0-.373 13.519l7.461 9.55c.48.615.541 1.45.154 2.128l-7.965 13.946a16.887 16.887 0 0 0-1.88 11.786l.594 2.885c1.364 6.629 6.652 11.854 13.265 13.187l3.101 4.037a1.609 1.609 0 0 0 2.258.298c.706-.54.84-1.549.298-2.253l-3.479-4.529zM279.016 138.343a2.272 2.272 0 0 1-.543-1.472v-8.273c0-5.795-2.193-11.31-6.176-15.527l-8.3-8.787a1.613 1.613 0 0 0-2.276-.067 1.605 1.605 0 0 0-.068 2.272l8.3 8.787a19.33 19.33 0 0 1 5.3 13.322v8.273c0 1.3.465 2.563 1.309 3.554l4.155 4.878a1.609 1.609 0 0 0 2.27.184c.678-.575.76-1.589.184-2.265l-4.155-4.879z"/>
            <path d="M239.812 127.338h-12.595a.472.472 0 0 1-.472-.47v-6.876c0-.26.212-.471.472-.471h16.164c.89 0 1.61-.72 1.61-1.607 0-.888-.72-1.607-1.61-1.607h-16.164a3.693 3.693 0 0 0-3.692 3.685v6.875a3.693 3.693 0 0 0 3.692 3.685h12.595c.889 0 1.61-.72 1.61-1.607 0-.888-.721-1.607-1.61-1.607z"/>
        </g>
    </g>
</svg>
