<?xml version="1.0" encoding="utf-8"?>
<!-- Generator: Adobe Illustrator 26.3.1, SVG Export Plug-In . SVG Version: 6.00 Build 0)  -->
<svg version="1.1" xmlns="http://www.w3.org/2000/svg" xmlns:xlink="http://www.w3.org/1999/xlink" x="0px" y="0px"
	 viewBox="0 0 600 250" style="enable-background:new 0 0 600 250;" xml:space="preserve">
<style type="text/css">
	.st0{fill:#33333B;}
	.st1{fill-rule:evenodd;clip-rule:evenodd;fill:#C0FDDC;}
	.st2{fill:none;}
	.st3{fill:#FFFFFF;}
	.st4{fill:#33333B;stroke:#33333B;stroke-width:0.5;}
</style>
<g id="ull-02">
	<path class="st0" d="M132.4,176.7c-12,6.7-24.7,10.1-37.9,10.1s-25.9-3.4-37.9-10.1c-1.2-0.7-2.8-0.3-3.5,1c-0.7,1.2-0.3,2.8,1,3.5
		c12.8,7.2,26.4,10.8,40.4,10.8s27.6-3.6,40.4-10.8c1.2-0.7,1.7-2.3,1-3.5C135.2,176.4,133.6,176,132.4,176.7z"/>
	<path class="st0" d="M140.7,96.1c-13.9-8.1-29.9-12.5-46.2-12.5S62.2,88,48.3,96.1c-11.7,6.8-21.8,16.3-29.4,27.4
		c-0.6,0.9-0.6,2,0,2.9c7.6,11.1,17.8,20.6,29.4,27.4c13.9,8.1,29.9,12.4,46.2,12.4s32.3-4.3,46.2-12.5
		c11.7-6.8,21.8-16.3,29.4-27.4c0.6-0.9,0.6-2,0-2.9C162.6,112.4,152.4,102.9,140.7,96.1z M131.1,125c0,20-16.4,36.2-36.6,36.2
		S57.9,145,57.9,125c0-20,16.4-36.2,36.6-36.2S131.1,105,131.1,125z M50.9,149.5c-10.5-6.1-19.7-14.6-26.8-24.5
		c7-9.9,16.3-18.3,26.8-24.5c5.5-3.2,11.4-5.8,17.4-7.7c-9.5,7.6-15.6,19.2-15.6,32.2c0,13,6.1,24.6,15.6,32.2
		C62.3,155.3,56.4,152.7,50.9,149.5z M138.1,149.5c-5.5,3.2-11.4,5.8-17.4,7.7c9.5-7.6,15.6-19.2,15.6-32.2c0-13-6.1-24.6-15.6-32.2
		c6.1,1.9,11.9,4.5,17.4,7.7c10.5,6.1,19.7,14.6,26.8,24.5C157.8,134.9,148.6,143.3,138.1,149.5z"/>
	<path class="st0" d="M182.4,123.7c-8.8-15-21.4-27.6-36.5-36.4c-15.5-9.1-33.3-13.9-51.5-13.9c-16.3,0-31.9,3.7-46.3,11.1
		c-13.6,6.9-25.6,16.9-34.8,29c-4.4,2.2-7.2,6.6-7.2,11.5c0,4.9,2.8,9.3,7.2,11.5c9.2,12.1,21.2,22.1,34.8,29
		c14.4,7.3,30,11.1,46.3,11.1c18.1,0,35.9-4.8,51.5-13.9c15.1-8.8,27.7-21.4,36.5-36.4C182.9,125.5,182.9,124.5,182.4,123.7z
		 M94.5,171.4c-30.8,0-59-14.1-77.4-38.6c-0.3-0.4-0.6-0.6-1.1-0.8c-2.8-1.2-4.7-4-4.7-7.1c0-3.1,1.8-5.8,4.7-7.1
		c0.4-0.2,0.8-0.5,1.1-0.8c18.4-24.5,46.6-38.6,77.4-38.6c33.8,0,65.3,17.8,82.7,46.4C159.8,153.7,128.3,171.4,94.5,171.4z"/>
	<path class="st0" d="M56.6,73.3c12-6.7,24.7-10.1,37.9-10.1s25.9,3.4,37.9,10.1c0.4,0.2,0.8,0.3,1.3,0.3c0.9,0,1.8-0.5,2.3-1.3
		c0.7-1.2,0.3-2.8-1-3.5c-12.8-7.2-26.4-10.8-40.4-10.8s-27.6,3.6-40.4,10.8c-1.2,0.7-1.7,2.3-1,3.5C53.8,73.6,55.4,74,56.6,73.3z"
		/>
</g>
<g id="laser">
	<g>
		<path class="st1" d="M511.3,177.9h-68.4l-342.5-45v-20.2l342.5-70.4h68.4"/>
	</g>
	<path class="st2" d="M433.1,99.2c-0.2,0-0.4,0-0.6,0c-1.6,0.2-3,0.9-4,2.2c-1,1.2-1.5,2.8-1.3,4.4c0.2,1.6,0.9,3,2.2,4l12,9.7
		c2.5,2.1,6.3,1.7,8.4-0.9c1-1.2,1.5-2.8,1.3-4.4c-0.2-1.6-0.9-3-2.2-4l-12-9.7C435.7,99.7,434.4,99.2,433.1,99.2z"/>
	<path class="st2" d="M444.8,129.9l-7-5.7c-0.1,0-0.1-0.1-0.2-0.1l-5-4.1c-1.2-0.9-2.7-1.3-4.2-1.2c-1.6,0.2-3,0.9-4,2.2
		c-2.1,2.5-1.7,6.3,0.9,8.3l12,9.7c2.5,2.1,6.3,1.7,8.4-0.9C447.7,135.7,447.3,132,444.8,129.9z"/>
	<path class="st2" d="M428.3,70.7l-2.3-1.9c-1.2-1-2.8-1.5-4.4-1.3c-1.6,0.2-3,0.9-4,2.2c-1,1.2-1.5,2.8-1.3,4.4
		c0.2,1.6,0.9,3,2.2,4l9.8,7.9V70.7z"/>
	<path class="st2" d="M440.7,149.5l-7-5.7c-0.1,0-0.1-0.1-0.2-0.1l-5.1-4.1c-1.1-0.8-2.3-1.2-3.6-1.2c-1.7,0-3.5,0.7-4.6,2.2
		c-1,1.2-1.5,2.8-1.3,4.4c0.2,1.6,0.9,3,2.2,4l12,9.7c1.2,1,2.8,1.5,4.4,1.3c1.6-0.2,3-0.9,4-2.2
		C443.6,155.3,443.2,151.6,440.7,149.5z"/>
</g>
<g id="mobil">
	<path class="st0" d="M485.6,157.9h-23.2c-0.5,0-0.9-0.4-0.9-0.9v-12.7c0-0.5,0.4-0.9,0.9-0.9h29.8c1.6,0,3-1.3,3-3c0-1.6-1.3-3-3-3
		h-29.8c-3.8,0-6.8,3-6.8,6.8V157c0,3.7,3.1,6.8,6.8,6.8h23.2c1.6,0,3-1.3,3-3C488.6,159.2,487.2,157.9,485.6,157.9z"/>
	<path class="st0" d="M510.3,36.5h-14.5c-2.1,0-4,1.4-4.6,3.4l-0.3,1c-0.2,0.6-0.8,1.1-1.5,1.1h-23c-0.7,0-1.3-0.4-1.5-1.1l-0.3-1
		c-0.6-2-2.5-3.4-4.6-3.4h-15.8c-2.2,0-4.1,1.8-4.1,4v55.3l5.9,4.8V42.4h13.1l0.1,0.3c1,3.1,3.9,5.2,7.1,5.2h23
		c3.3,0,6.1-2.1,7.1-5.2l0.1-0.3h11.8v41.1c0,1.6,1.3,3,3,3c1.6,0,3-1.3,3-3v-43C514.4,38.3,512.5,36.5,510.3,36.5z"/>
</g>
<g id="ma">
	<polygon class="st3" points="520.2,108 502.8,92.2 496.5,98.1 495.2,110 505.8,125.6 514.4,137.5 502,160 496.2,169 494.2,180.1 
		523.3,180.1 	"/>
	<g>
		<path class="st0" d="M431.3,53.6c1.6,0,3-1.3,3-3V40.5c0-5.5,4.5-10,10-10h66.1c5.5,0,10,4.5,10,10v54.6c0,1.6,1.3,3,3,3
			c1.6,0,3-1.3,3-3V40.5c0-8.8-7.1-15.9-15.9-15.9h-66.1c-8.8,0-15.9,7.1-15.9,15.9v10.1C428.3,52.3,429.6,53.6,431.3,53.6z"/>
		<g>
			<path class="st0" d="M594,220.5l-20.3-23.8c-1.1-1.2-2.9-1.4-4.2-0.3c-1.2,1.1-1.4,2.9-0.3,4.2l20.3,23.8c0.6,0.7,1.4,1,2.3,1
				c0.7,0,1.4-0.2,1.9-0.7C594.9,223.6,595.1,221.8,594,220.5z"/>
			<path class="st0" d="M521.3,212.3c-0.5-0.6-1.1-1-1.9-1.1c-10.3-1.7-18.7-9.6-20.8-19.9l-1.1-5.3c-1.2-6-0.2-12.3,2.8-17.6
				l14.7-25.7c1.9-3.3,1.6-7.5-0.8-10.5l-13.8-17.6c-4-5.1-3.8-12.5,0.5-17.4l0.7-0.8c0.4-0.4,0.9-0.5,1.1-0.5
				c0.3,0,0.7,0.1,1.2,0.5l13.1,13.9c1.1,1.2,3,1.2,4.2,0.1c1.2-1.1,1.2-3,0.1-4.2l-13.1-13.9c-1.4-1.5-3.5-2.4-5.6-2.3
				c-2.1,0-4.1,1-5.5,2.6l-0.7,0.8c-6.2,7-6.5,17.5-0.7,24.9l13.8,17.6c0.9,1.1,1,2.7,0.3,3.9l-14.7,25.7c-3.8,6.6-5,14.3-3.5,21.7
				l1.1,5.3c2.5,12.2,12.3,21.8,24.5,24.3l5.7,7.4c0.6,0.8,1.5,1.2,2.4,1.2c0.6,0,1.3-0.2,1.8-0.6c1.3-1,1.5-2.9,0.6-4.1
				L521.3,212.3z"/>
			<path class="st0" d="M557.9,178.1c-0.6-0.8-1-1.7-1-2.7v-15.2c0-10.7-4-20.8-11.4-28.6l-15.3-16.2c-1.1-1.2-3-1.2-4.2-0.1
				c-1.2,1.1-1.2,3-0.1,4.2l15.3,16.2c6.3,6.7,9.8,15.4,9.8,24.5v15.2c0,2.4,0.9,4.7,2.4,6.5l7.7,9c0.6,0.7,1.4,1,2.3,1
				c0.7,0,1.4-0.2,1.9-0.7c1.2-1.1,1.4-2.9,0.3-4.2L557.9,178.1z"/>
			<path class="st0" d="M440.2,95.6c-1.8-1.3-3.8-2.1-5.9-2.3V63.2c0-1.6-1.3-3-3-3c-1.6,0-3,1.3-3,2.9c-2.2-1.3-4.7-1.8-7.3-1.6
				c-3.2,0.3-6,1.9-8,4.3c-2,2.5-2.9,5.5-2.6,8.7c0.3,3.1,1.9,6,4.3,8l13.5,11v0.7c-1.7,0.7-3.2,1.9-4.5,3.4c-2,2.5-2.9,5.5-2.6,8.7
				c0.3,2.8,1.5,5.3,3.5,7.3c-2,0.7-3.7,2-5,3.6c-3.9,4.8-3.4,11.8,1,16c-1.9,0.7-3.7,1.9-5,3.6c-2,2.5-2.9,5.5-2.6,8.7
				c0.3,3.1,1.9,6,4.3,8l10.9,8.8v14.2c0,8.8,7.1,15.9,15.9,15.9h38.9c1.6,0,3-1.3,3-3c0-1.6-1.3-3-3-3h-38.9c-5.5,0-10-4.5-10-10
				v-10.9c0.9,0.2,1.8,0.3,2.7,0.3c0.4,0,0.8,0,1.2-0.1c0.7-0.1,1.4-0.2,2-0.4v11c0,2.2,1.8,4,4.1,4h38.1c1.6,0,3-1.3,3-3
				c0-1.6-1.3-3-3-3h-36.3v-13c0,0,0,0,0.1-0.1c3.9-4.8,3.4-11.8-1-16c1.9-0.7,3.7-1.9,5-3.6c3.9-4.8,3.4-11.8-1-16
				c1.9-0.7,3.7-1.9,5-3.6c2-2.5,2.9-5.5,2.6-8.7c-0.3-3.1-1.9-6-4.3-8l-6.5-5.3L440.2,95.6z M418.5,78c-1.2-1-2-2.4-2.2-4
				c-0.2-1.6,0.3-3.1,1.3-4.4c1-1.2,2.4-2,4-2.2c1.6-0.2,3.1,0.3,4.4,1.3l2.3,1.9V86L418.5,78z M441.6,157.8c-1,1.2-2.4,2-4,2.2
				c-1.6,0.2-3.1-0.3-4.4-1.3l-12-9.7c-1.2-1-2-2.4-2.2-4c-0.2-1.6,0.3-3.1,1.3-4.4c1.2-1.4,2.9-2.2,4.6-2.2c1.2,0,2.5,0.4,3.6,1.2
				l5.1,4.1c0.1,0,0.1,0.1,0.2,0.1l7,5.7C443.2,151.6,443.6,155.3,441.6,157.8z M445.6,138.2c-2.1,2.5-5.8,2.9-8.4,0.9l-12-9.7
				c-2.5-2.1-2.9-5.8-0.9-8.3c1-1.2,2.4-2,4-2.2c1.5-0.2,3,0.3,4.2,1.2l5,4.1c0.1,0,0.1,0.1,0.2,0.1l7,5.7
				C447.3,132,447.7,135.7,445.6,138.2z M448.9,110.3c1.2,1,2,2.4,2.2,4c0.2,1.6-0.3,3.1-1.3,4.4c-2.1,2.5-5.8,2.9-8.4,0.9l-12-9.7
				c-1.2-1-2-2.4-2.2-4c-0.2-1.6,0.3-3.1,1.3-4.4c1-1.2,2.4-2,4-2.2c0.2,0,0.4,0,0.6,0c1.4,0,2.7,0.5,3.7,1.3L448.9,110.3z"/>
		</g>
	</g>
</g>
<g id="ull-01">
	<path class="st4" d="M94.5,143.2c10.2,0,18.5-8.2,18.5-18.3c0-10.1-8.3-18.3-18.5-18.3S76,114.8,76,124.9
		C76,135,84.3,143.2,94.5,143.2z"/>
</g>
</svg>
