<?xml version="1.0" encoding="UTF-8"?>
<svg width="16px" height="16px" viewBox="0 0 16 16" version="1.1" xmlns="http://www.w3.org/2000/svg" xmlns:xlink="http://www.w3.org/1999/xlink">
    <title>edit</title>
    <g id="Page-1" stroke="none" stroke-width="1" fill="none" fill-rule="evenodd">
        <g id="edit" transform="translate(0.800500, 0.799374)" fill="#161616" fill-rule="nonzero">
            <path d="M0.793499603,10.3166256 C0.728866762,10.3818796 0.684722491,10.4646066 0.666499603,10.5546256 L0.00849960256,13.8446256 C-0.0209703007,13.9970386 0.027221533,14.1541328 0.137090118,14.2638009 C0.246958703,14.373469 0.404140685,14.4213738 0.556499603,14.3916256 L3.8454996,13.7336256 C3.93579637,13.7155754 4.01865996,13.6710101 4.0834996,13.6056256 L11.4444996,6.24562557 L8.1554996,2.95562557 L0.793499603,10.3166256 L0.793499603,10.3166256 Z M13.7184996,0.680625574 C12.8099645,-0.226875191 11.3380348,-0.226875191 10.4294996,0.680625574 L9.1414996,1.96862557 L12.4314996,5.25762557 L13.7184996,3.96962557 C14.1584996,3.53162557 14.3994996,2.94762557 14.3994996,2.32562557 C14.3994996,1.70462557 14.1574996,1.12062557 13.7184996,0.680625574 L13.7184996,0.680625574 Z" id="Shape"></path>
        </g>
    </g>
</svg>