<svg xmlns="http://www.w3.org/2000/svg" width="48" height="48" fill="none"><circle cx="24" cy="24" r="24" fill="#292931"/><path fill="#fff" fill-rule="evenodd" d="M24.196 14h.275c.795 0 1.386 0 1.897.136a4 4 0 0 1 2.829 2.829c.082.307.115.643.128 1.035h1.847c.527 0 .982 0 1.356.03.395.033.789.104 1.167.297a3 3 0 0 1 1.311 1.311c.193.378.264.772.296 1.167.031.375.031.83.031 1.356v7.678c0 .527 0 .982-.03 1.356-.033.395-.104.789-.297 1.167a3 3 0 0 1-1.311 1.311c-.378.193-.772.264-1.167.296-.374.031-.83.031-1.356.031H17.494c-.527 0-.982 0-1.356-.03-.395-.033-.789-.104-1.167-.297a3 3 0 0 1-1.311-1.311c-.193-.378-.264-.772-.296-1.167-.031-.375-.031-.83-.031-1.356v-7.677c0-.528 0-.982.03-1.357.033-.395.104-.789.297-1.167a3 3 0 0 1 1.311-1.311c.378-.193.772-.264 1.167-.296.375-.031.83-.031 1.356-.031h1.847c.013-.392.046-.728.128-1.035a4 4 0 0 1 2.829-2.829C22.81 14 23.4 14 24.196 14m-2.853 4a2.3 2.3 0 0 1 .058-.517 2 2 0 0 1 1.415-1.415c.222-.06.523-.068 1.517-.068.995 0 1.296.009 1.518.068a2 2 0 0 1 1.414 1.415c.032.118.05.26.058.517zm-1.01 3a1 1 0 0 1 1 1v8a1 1 0 1 1-2 0v-8a1 1 0 0 1 1-1m9 1a1 1 0 1 0-2 0v8a1 1 0 1 0 2 0z" clip-rule="evenodd"/></svg>