<svg xmlns="http://www.w3.org/2000/svg" width="48" height="48" fill="none"><circle cx="24" cy="24" r="24" fill="#FDEDED"/><path fill="#292931" fill-rule="evenodd" d="M17.67 17a3.03 3.03 0 0 1 .692-3.115A2.95 2.95 0 0 1 20.464 13c1.795 0 2.909 1.219 3.536 2.272C24.628 14.22 25.741 13 27.536 13c.792 0 1.548.32 2.102.885A3.02 3.02 0 0 1 30.33 17h2.197c.21 0 .414 0 .588.012.19.013.416.043.65.14a2 2 0 0 1 1.083 1.083c.097.234.127.46.14.65.012.174.012.378.012.588v.054c0 .21 0 .414-.012.588a2 2 0 0 1-.14.65 2 2 0 0 1-1.083 1.083 2 2 0 0 1-.65.14c-.174.012-.378.012-.589.012H15.473c-.21 0-.414 0-.588-.012a2 2 0 0 1-.65-.14 2 2 0 0 1-1.083-1.083 2 2 0 0 1-.14-.65C13 19.941 13 19.737 13 19.527v-.054c0-.21 0-.414.012-.588a2 2 0 0 1 .14-.65 2 2 0 0 1 1.083-1.083 2 2 0 0 1 .65-.14c.174-.012.379-.012.588-.012zm2.794-2c-.25 0-.493.1-.675.287A1.02 1.02 0 0 0 19.5 16c0 .271.106.527.289.713a.95.95 0 0 0 .675.287h2.17a6 6 0 0 0-.25-.525c-.486-.9-1.11-1.475-1.92-1.475m4.902 2c.072-.171.155-.349.25-.525.486-.9 1.11-1.475 1.92-1.475.25 0 .493.1.675.287s.289.442.289.713-.106.527-.289.713a.95.95 0 0 1-.675.287z" clip-rule="evenodd"/><path fill="#292931" d="M15 25a1 1 0 0 1 1-1h6.2c.28 0 .42 0 .527.055a.5.5 0 0 1 .218.218c.055.107.055.247.055.527v9.4c0 .28 0 .42-.055.527a.5.5 0 0 1-.218.219C22.62 35 22.48 35 22.2 35h-3.039c-.527 0-.982 0-1.356-.03-.395-.033-.789-.104-1.167-.297a3 3 0 0 1-1.311-1.311c-.193-.378-.264-.772-.296-1.167C15 31.82 15 31.365 15 30.838zM30.195 34.97c-.375.03-.83.03-1.357.03H25.8c-.28 0-.42 0-.527-.054a.5.5 0 0 1-.218-.219C25 34.62 25 34.48 25 34.2v-9.4c0-.28 0-.42.055-.527a.5.5 0 0 1 .218-.218C25.38 24 25.52 24 25.8 24H32a1 1 0 0 1 1 1v5.839c0 .527 0 .982-.03 1.356-.033.395-.104.789-.297 1.167a3 3 0 0 1-1.311 1.311c-.378.193-.772.264-1.167.296"/></svg>