<svg xmlns="http://www.w3.org/2000/svg" width="20" height="20" fill-rule="evenodd"><path d="M3.205 0h13.6c1.114 0 1.52.116 1.926.334a2.27 2.27 0 0 1 .945.945c.218.407.334.812.334 1.926v13.6c0 1.114-.116 1.52-.334 1.926a2.27 2.27 0 0 1-.945.945c-.407.218-.812.334-1.926.334h-13.6c-1.114 0-1.52-.116-1.926-.334a2.27 2.27 0 0 1-.945-.945C.116 18.314 0 17.9 0 16.795v-13.6C0 2.1.116 1.686.334 1.28a2.27 2.27 0 0 1 .945-.945C1.686.116 2.1 0 3.205 0z" fill="#EE6C4D"/><g fill="#fff"><circle cx="4.965" cy="5.382" r="1.215"/><circle cx="4.965" cy="10" r="1.215"/><circle cx="4.965" cy="14.618" r="1.215"/><path d="M8.715 4.653h6.806a.73.73 0 0 1 .729.729.73.73 0 0 1-.729.729h-6.806a.73.73 0 0 1-.729-.729.73.73 0 0 1 .729-.729zm0 4.617h6.806a.73.73 0 0 1 .729.729.73.73 0 0 1-.729.729H8.715A.73.73 0 0 1 7.986 10a.73.73 0 0 1 .729-.729zm0 4.62h6.806a.73.73 0 0 1 .729.729.73.73 0 0 1-.729.729H8.715a.73.73 0 0 1-.729-.729.73.73 0 0 1 .729-.729z"/></g></svg>