<svg width="48" height="49" viewBox="0 0 48 49" fill="none" xmlns="http://www.w3.org/2000/svg">
    <g clip-path="url(#clip0_5743_3966)">
        <path d="M6.53499 21.7588C14.405 20.4625 20.569 13.9564 21.8654 6.09114L22.2992 2.30795C22.4052 1.70553 22.0004 0.871771 21.2388 0.929612C15.2918 1.39226 9.68685 3.35375 6.55909 4.63088C5.01207 5.26222 4 6.77068 4 8.44299V20.7805C4 21.5131 4.65543 22.0674 5.37834 21.9516L6.53499 21.7636V21.7588Z" fill="#292931"/>
        <path d="M25.6597 6.09008C26.9562 13.9601 33.1202 20.4615 40.9902 21.7578L42.1469 21.9457C42.8698 22.0662 43.5251 21.5071 43.5251 20.7747V8.4371C43.5251 6.76479 42.513 5.26114 40.9661 4.625C37.8432 3.34787 32.2334 1.38639 26.2863 0.92372C25.5249 0.865895 25.1296 1.70928 25.2213 2.30206L25.6549 6.08525L25.6597 6.09008Z" fill="#292931"/>
        <path d="M40.9853 25.2097C30.2333 27.3303 25.2405 34.4774 25.2405 48.0102C25.2405 48.6897 25.9152 49.1572 26.479 48.7813C31.4237 45.4463 42.3057 36.7425 43.4286 25.8507C43.4721 24.4773 41.7564 25.123 40.9853 25.2097Z" fill="#292931"/>
        <path d="M6.53797 25.2156C17.29 27.3362 22.2828 34.4833 22.2828 48.016C22.2828 48.6955 21.6081 49.1631 21.0443 48.7872C16.0996 45.4522 5.21747 36.7483 4.09456 25.8565C4.05118 24.4831 5.76687 25.1289 6.53797 25.2156Z" fill="#292931"/>
    </g>
    <defs>
        <clipPath id="clip0_5743_3966">
            <rect width="48" height="48" fill="white" transform="translate(0 0.920898)"/>
        </clipPath>
    </defs>
</svg>
