<svg width="48" height="49" viewBox="0 0 48 49" fill="none" xmlns="http://www.w3.org/2000/svg">
    <g clip-path="url(#clip0_5637_282)">
        <path d="M46.2399 15.0931H24.0009C19.0306 15.0882 14.9974 19.1135 14.9924 24.0838C14.9909 25.6276 15.3865 27.1458 16.1413 28.4925L5.02179 9.41332C13.1208 -1.06886 28.1838 -3.00078 38.666 5.0982C42.0323 7.69918 44.6464 11.1487 46.2399 15.0931Z" fill="#F44336"/>
        <path d="M47.9998 24.0926C47.9888 37.3423 37.2506 48.0805 24.0009 48.0915C22.9974 48.0953 21.995 48.0285 21.001 47.8916L31.8006 28.5924C34.2757 24.2835 32.8003 18.7843 28.5007 16.293C27.1394 15.5049 25.5938 15.0908 24.0209 15.093H46.2398C47.4077 17.9495 48.0056 21.0067 47.9998 24.0926Z" fill="#FFC107"/>
        <path d="M31.8005 28.5925L21.001 47.8917H20.9811C7.83902 46.2312 -1.46862 34.2314 0.1918 21.0894C0.729245 16.8357 2.39708 12.8037 5.02177 9.41333L16.1412 28.4925L16.2012 28.5925C18.6809 32.9001 24.183 34.382 28.4907 31.9024C29.8667 31.1103 31.0086 29.9684 31.8005 28.5925Z" fill="#4CAF50"/>
        <path d="M31.8005 28.5925C29.3209 32.9001 23.8187 34.382 19.5111 31.9024C18.1352 31.1103 16.9933 29.9684 16.2012 28.5925L16.1412 28.4925C13.7113 24.1567 15.2564 18.6719 19.5922 16.2419C20.939 15.4871 22.4572 15.0915 24.0009 15.093H24.0209C25.5938 15.0908 27.1394 15.5049 28.5007 16.293C32.8003 18.7844 34.2757 24.2836 31.8005 28.5925Z" fill="#F44336"/>
        <path d="M31.8005 28.5925C29.3209 32.9001 23.8187 34.382 19.5111 31.9024C18.1352 31.1103 16.9933 29.9684 16.2012 28.5925L16.1412 28.4925C13.7113 24.1567 15.2564 18.6719 19.5922 16.2419C20.939 15.4871 22.4572 15.0915 24.0009 15.093H24.0209C25.5938 15.0908 27.1394 15.5049 28.5007 16.293C32.8003 18.7844 34.2757 24.2836 31.8005 28.5925Z" fill="#2196F3"/>
        <path d="M23.9669 34.0923C22.2235 34.0921 20.5107 33.6327 19.0011 32.7604C17.479 31.88 16.2148 30.6152 15.3353 29.0926C12.574 24.3099 14.2127 18.1943 18.9954 15.433C20.5172 14.5544 22.2437 14.0923 24.001 14.0933C29.5235 14.089 34.004 18.5625 34.0082 24.0851C34.0096 25.843 33.5475 27.5702 32.6685 29.0926C30.8664 32.1909 27.5512 34.0957 23.9669 34.0923ZM24.0189 16.0931C21.149 16.0779 18.4921 17.6053 17.0612 20.093C14.8521 23.9234 16.1665 28.8195 19.997 31.0285C23.8275 33.2376 28.7235 31.9232 30.9325 28.0927C33.1416 24.2666 31.8306 19.3741 28.0045 17.1649C26.7931 16.4656 25.4195 16.096 24.0208 16.0932L24.0189 16.0931Z" fill="#FAFAFA"/>
    </g>
    <defs>
        <clipPath id="clip0_5637_282">
            <rect width="48" height="48" fill="white" transform="translate(0 0.0917969)"/>
        </clipPath>
    </defs>
</svg>
