<svg width="48" height="49" viewBox="0 0 48 49" fill="none" xmlns="http://www.w3.org/2000/svg">
    <g clip-path="url(#clip0_5637_1999)">
        <path d="M14.3986 14.9054H11.7479L18.9745 35.3333L23.0201 23.7722L19.8835 14.9054H17.0867V12.9589H29.4716V14.9054H26.5714L33.7978 35.3333L36.3955 27.9099C39.8031 18.3992 33.6026 15.4366 33.6026 13.3141C33.6026 11.1915 35.3233 9.47094 37.4457 9.47094C37.5605 9.47094 37.6721 9.47715 37.7813 9.48734C34.185 6.09241 29.3357 4.0105 23.9998 4.0105C17.0275 4.0105 10.886 7.56444 7.28577 12.9589H14.3984V14.9054H14.3986Z" fill="#00769D"/>
        <path d="M3.9187 24.0919C3.9187 31.78 8.23992 38.458 14.5854 41.8324L5.52305 16.2153C4.49072 18.6338 3.9187 21.296 3.9187 24.0919Z" fill="#00769D"/>
        <path d="M41.4766 14.1963C41.7638 15.8876 41.6769 17.7885 41.2361 19.6968H41.3159L41.0123 20.5645C40.8324 21.191 40.6058 21.8318 40.3485 22.4615L33.4388 41.8193C39.7709 38.4408 44.0811 31.77 44.0811 24.0916C44.0811 20.4936 43.1339 17.1171 41.4766 14.1963Z" fill="#00769D"/>
        <path d="M17.8067 43.1982C19.7576 43.8302 21.8385 44.1729 24 44.1729C26.0616 44.1729 28.0505 43.8618 29.9228 43.2846L24.0488 26.6802L17.8067 43.1982Z" fill="#00769D"/>
        <path d="M40.9705 7.1212C36.4375 2.58822 30.4105 0.0917969 23.9999 0.0917969C17.5893 0.0917969 11.5624 2.58822 7.0294 7.1212C2.49642 11.6542 0 17.6811 0 24.0918C0 30.5024 2.49642 36.5293 7.0294 41.0623C11.5624 45.5953 17.5894 48.0917 24 48.0917C30.4106 48.0917 36.4375 45.5953 40.9706 41.0623C45.5036 36.5293 48 30.5023 48 24.0918C47.9999 17.6811 45.5035 11.6542 40.9705 7.1212ZM23.9999 46.3987C11.6998 46.3987 1.69302 36.3919 1.69302 24.0918C1.69302 11.7917 11.6998 1.78481 23.9999 1.78481C36.2999 1.78481 46.3068 11.7917 46.3068 24.0918C46.3068 36.3919 36.3001 46.3987 23.9999 46.3987Z" fill="#00769D"/>
    </g>
    <defs>
        <clipPath id="clip0_5637_1999">
            <rect width="48" height="48" fill="white" transform="translate(0 0.0917969)"/>
        </clipPath>
    </defs>
</svg>
