<svg width="48" height="49" viewBox="0 0 48 49" fill="none" xmlns="http://www.w3.org/2000/svg">
    <g clip-path="url(#clip0_5637_1989)">
        <path d="M24.015 0.0917969C25.3708 0.0942875 26.7042 0.208857 28.0004 0.425543V14.398L37.9063 4.51767C39.0004 5.29474 40.0239 6.15899 40.9702 7.10296C41.917 8.04692 42.7861 9.07059 43.565 10.1615L33.6587 20.0418H47.6677C47.8851 21.3345 48 22.6595 48 24.0144V24.0468C48 25.4017 47.8851 26.7292 47.6677 28.0219H33.6563L43.565 37.8998C42.7861 38.9907 41.917 40.0143 40.9731 40.9583H40.9702C40.0239 41.9023 39.0004 42.769 37.9092 43.5436L28.0004 33.6632V47.6357C26.7066 47.8524 25.3732 47.9668 24.0174 47.9697H23.9826C22.6263 47.9668 21.2982 47.8524 20.0019 47.6357V33.6632L10.0961 43.5436C7.90839 41.9919 5.99577 40.0816 4.43736 37.8998L14.3437 28.0219H0.334661C0.114891 26.7267 0 25.3942 0 24.0393V23.9698C0.00227728 23.6182 0.0253012 23.1886 0.058371 22.7442L0.0685824 22.6105C0.166499 21.3597 0.334661 20.0418 0.334661 20.0418H14.3437L4.43736 10.1615C5.21394 9.07059 6.08063 8.0494 7.02693 7.10796L7.03169 7.10296C7.97608 6.15899 9.002 5.29474 10.0961 4.51767L20.0019 14.398V0.425543C21.2982 0.208857 22.6292 0.0942875 23.9874 0.0917969H24.015ZM24.0126 18.0468H23.9897C22.2068 18.0468 20.4992 18.3731 18.9207 18.9659C18.3291 20.5375 18.0016 22.2411 17.9992 24.0194V24.0418C18.0016 25.8201 18.3291 27.5238 18.9231 29.0953C20.4992 29.6881 22.2068 30.0144 23.9897 30.0144H24.0126C25.7956 30.0144 27.5032 29.6881 29.0793 29.0953C29.6733 27.5213 30.0008 25.8201 30.0008 24.0418V24.0194C30.0008 22.2411 29.6733 20.5375 29.0793 18.9659C27.5032 18.3731 25.7956 18.0468 24.0126 18.0468Z" fill="#FF4A00"/>
    </g>
    <defs>
        <clipPath id="clip0_5637_1989">
            <rect width="48" height="48" fill="white" transform="translate(0 0.0917969)"/>
        </clipPath>
    </defs>
</svg>
