<svg xmlns="http://www.w3.org/2000/svg" width="60" height="60" fill="none"><rect width="59" height="59" x=".5" y=".5" fill="#fff"/><path fill="#707078" fill-rule="evenodd" d="M38.804 39.738c2.137 0 3.196-1.059 3.196-3.155V24.155C42 22.058 40.941 21 38.804 21H21.196C19.069 21 18 22.048 18 24.155v12.428c0 2.107 1.069 3.155 3.196 3.155h17.608Zm1.557-4.265-5.455-5.13c-.458-.407-.987-.62-1.537-.62-.56 0-1.059.193-1.527.61l-4.6 4.112-1.883-1.71c-.428-.376-.896-.58-1.374-.58-.458 0-.886.194-1.313.57l-3.033 2.738V24.237c0-1.059.56-1.598 1.577-1.598h17.568c1.007 0 1.577.54 1.577 1.598v11.236Zm-14.778-5.017a2.404 2.404 0 0 0 2.392-2.403c0-1.313-1.08-2.402-2.392-2.402a2.413 2.413 0 0 0-2.402 2.402 2.406 2.406 0 0 0 2.402 2.402Z" clip-rule="evenodd"/></svg>
