<svg xmlns="http://www.w3.org/2000/svg" width="166" height="48" fill="none"><path fill="#292931" d="M66.52 0c.487.151 1.97.107 1.924 1.058-.08.039-.162.078-.182.176-1.006 0-1.052-.927-1.743-1.234Zm14.037 2.38c-.284.521-.61.999-.919 1.496-.833-.19-1.3-.79-2.113-.707-.751.078-1.432.931-2.295.883-1.392-.605-2.53-1.448-3.947-2.029 1.956-2.267 7.253-.93 9.274.356Zm-7.984-.264c.041.43.849 1.068 1.103.439-.57.131-.99-.24-.828-.527.98-.122 1.975 1.507 2.752 1.585 1.946.2.625-2.599-1.193-1.848-.147-.507-.904-.424-1.468-.527-.01.444-.411.415-.366.878Zm5.785 4.227c-3.19-1.492-6.166-3.184-9.269-4.758-.05-.074-.096-.142-.091-.264.081-.053.162-.107.183 0 2.595 1.458 5.556 2.853 8.35 4.315.284.151.812.337.827.707Z"/><path fill="#292931" d="M74.042 2.027c-.275.156-.777-.098-.828-.44.294-.17.894-.014.828.44Zm2.295 1.145c-.975.278-1.67-.443-2.112-.97.94-.244 1.894.234 2.112.97Zm7.161-.268c.077.624-.502 1.336.092 1.673-.58-.093-1.64-.483-2.022-1.058-.162.083-.203.273-.182.526-.295-.234-1.113.03-1.285-.088.04-.253.325-.277.274-.614h.92c.075-.366-.564-.044-.64-.263.025-1.35 2.407-.741 2.843-.176Zm-1.655.268c-.173-.039-.168-.253-.457-.175.025.22.406.483.457.175Zm2.112.088c2.474 1.55 5.668.415 8.995 1.322 2.96.804 4.363 3.559 7.435 3.876-.726.287-1.701-.151-2.295.175-1.793-.61-3.688-1.672-6.15-1.76-2.962-.107-6.055.366-7.71-1.409.269-.658-.721-1.146-.275-2.204Zm1.925 2.818c.066-.473-.452-.385-.457-.794.092-.176.407-.142.366-.44-.27-.623-.99-.809-1.742-.97.432.907 1 1.683 1.833 2.204Zm1.285.264c.239-.259-.264-.332-.183-.707.407.165.453.682 1.011.707-.142-.454-.523-.673-.828-.97.163-.02.209-.152.183-.352-.31-.41-.97-.477-1.56-.614.275.82.809 1.4 1.377 1.936Zm.371-1.41c.198.825.802 1.668 1.742 1.497.076-1.004-1.03-2.106-1.742-1.496Zm1.285.088c.533.425.711 1.195 1.468 1.41.015-.371-.452-.274-.366-.708.523.113.645.615 1.194.707.137-.512-1.097-.555-.737-1.32-.33-.332-1.127-.445-1.559-.089Zm1.742.176c-.01.726 1.407.327 1.285.97-.193-.049-.264-.22-.549-.175 0 .414.508.336.737.526.03-.21.32-.166.274-.439.076-.78-1.595-.346-1.285-1.058.249 0 .432.37.549 0-.432-.463-1.006-.204-1.011.176Zm3.306 1.409c.02-.639-.569-1.521-.919-1.234.224.254.716.624.457 1.058-.66-.336-.675-1.292-1.468-1.496.35.794.823 1.891 1.93 1.672Zm.915.263c.055-.375-.3-.36-.275-.707.36.093.305.59.737.615.122-.22-.27-.366 0-.44.213.298.233.776.736.796-.28-.615-.528-1.254-1.194-1.497-.223.117.102.326-.09.35-.402-.204-.565-.633-1.103-.706.29.634.569 1.277 1.189 1.59ZM81.386 4.226c-.01.263-.574.546 0 .614-.188.2-.762.034-1.102.088-.102-.166-.117-.415-.183-.615.37-.082.807-.107 1.285-.087Z"/><path fill="#292931" d="M84.691 4.402c.376.02.595.195.64.527-.386-.005-.548-.234-.64-.527Zm-1.747.532c-.513-.025-.995-.02-1.285.175-.208-.648 1.25-.57 1.285-.175Zm-13.398-.088c.529.122 1.28.453 1.194.883-.67-.035-.853-.537-1.194-.883Zm16.796.088c.239-.215.802.141.549.439-.336 0-.35-.308-.549-.44Zm1.56.088c.466.229.847.536 1.01 1.058-.528-.171-.93-.459-1.01-1.058Zm-13.952.087c-.03.468.482.785.183 1.234-.529-.112-.442-.81-.737-1.146.224.005.275-.151.554-.088Zm10.28 2.643c.66-.97.116-2.482-1.103-2.467 1.168-.512 2.448 1.77 1.102 2.467Zm5.23-2.643c.275 0 .56-.01.549.264-.208.19-.569.034-.549-.264ZM73.584 6.167c-.584.488-.873-.4-1.01-.882.746-.38.624.648 1.01.882Zm.737-.97c.289-.044.325.161.64.088-.097.507.243.955.09 1.233-.223.035-.197-.16-.456-.087-.107-.395-.117-.888-.274-1.234Zm5.87 0c-.299.239-.929.166-1.193.439-.198-.366.686-.454 1.194-.439Zm-10.736.088c.467.258.62.819 1.285.882-.432.366-1.28-.263-1.285-.882Zm11.656.088c.127-.2.64-.035.92-.088-.128.2-.64.034-.92.088Zm-9.269 0h.457c.117.326.528.746.366 1.058-.533-.103-.64-.62-.823-1.058Zm4.038.263c-.04.458-.132.868-.274 1.233-.519-.375-.046-.814-.275-1.32.193-.191.27.116.549.087Zm7.43.356c-.94 2.564-1.97 5.041-4.22 6.343-.427-.439-.493-.95-.64-1.497-.112-.41-.457-1.146-.366-1.76.132-.868 1.66-1.063 1.56-1.76-.087-.62-.732-.346-1.012-.351.148-.444.26-.922.549-1.234 1.33-.526 2.793-.102 4.129.259Zm-3.576.526c.442.473.077 1.307-.182 1.848-1.864.337-1.133 2.682.827 2.204 1.174-.288 1.676-2.287.64-3.174 2.23-.531-.782-2.677-1.285-.878Zm-7.71 0c-.492-.082-.868-.282-.918-.794.553-.468.777.35.919.794Z"/><path fill="#292931" d="M83.772 5.73c1.02.756.386 2.4-.64 2.819.325-.898 1.092-1.673.64-2.819Zm-3.027.352c.335 0 .493.175.64.35.056.317-.107.425-.183.615-.264-.01-.6.049-.736-.088.06-.327.218-.55.28-.877Zm-.553.087c.213.069.09.546-.183.44-.076-.279.08-.332.183-.44Zm-10.097.44c.28-.064.335.087.548.087v.35c.3.025.264-.272.457-.35 2.357.039 1.285 2.506.828 3.788h-.64c-.076-.102-.121-.234-.091-.439-.213.088-.295.303-.274.615.436.044.34 1.058.091 1.233-.305-.092-.315.03-.64-.088-.264.127-.228.547-.457.707-.223-.136-.543-.18-.736-.35.091-.532.142-1.098.828-1.059-.666-.331-.722-2.184.365-2.203-.02-.361-.594-.19-.548-.615.238.137.792.303 1.102.088-.142-.453-.457-.736-1.01-.795-.037-.41.065-.697.177-.97Zm1.193 3.085c.254-.604.305-1.409.458-2.116-.117-.005-.127-.112-.275-.087-.03.672-.548 1.72-.183 2.203Zm-.365 1.936c.122-.127.188-.697-.092-.707.102.351-.28.614.092.707Zm-.549 0c.142-.151-.01-.507-.365-.439.055.21.121.41.365.439Zm6.973-4.759c.391-.112.244.293.457.351-.152.38-.477.6-.645.97-.675-.34.295-.72.188-1.32Zm7.71.093c.28.95-.183 1.887.091 2.73-.873.117.127-1.009-.457-1.145-.29.175 0 .58-.457.707-.096.326.346.141.274.438-.345.02-.39.332-.736.351-.152-.41-.05-1.067-.366-1.32.935-.22 1.402-.883 1.65-1.761Zm-4.774.351h.183c1.27.707.497 3.145-.828 2.994-.696-.078-1.26-1.253-.183-1.585-.066.317-.3.473-.366.795.727 1.048 2.118-.463.92-.97.02-.478.218-.79.274-1.234Zm5.231.088c.295.302.569.629.549 1.233-.214.03-.346.142-.645.088.045-.429-.092-1.034.096-1.321Zm-7.527.175c.188.025.183.234.275.351-.183.41-.524.673-1.011.795.035-.585.498-.76.736-1.146Z"/><path fill="#292931" d="M69.637 7.84c.34.097-.04.575 0 .795-.39-.18-.924-.23-1.376-.351-.315.068-.523-.132-.092-.088.58-.034 1.296.063 1.468-.356Zm10.28.882c.447.093.355.98-.275.795-.03-.38.127-.585.275-.795Zm3.026.088h.275c.172.19.06.644.091.97-.132.137-.467.078-.736.088-.03-.507.457-.507.37-1.058Zm16.522 0c1.051-.102 1.574.307 2.387.439.086.712.726.887 1.011 1.409-1.783.01-2.296-1.204-3.398-1.848Zm-13.124.088c.183.322.539.483.549.97-.457-.21-.798-.526-1.377-.614.122-.268.361-.42.828-.356Zm-13.489.35c.36.098.178 1.078.091 1.322-.741-.131.061-.712-.091-1.321Zm22.758 5.905c-3.428-1.204-6.577-3.437-10.097-4.846-.01-.273.112-.42.183-.614 3.302 1.823 6.623 3.627 9.914 5.46ZM72.39 9.868c.325-.03-.056.605-.274.614-.026-.312.274-.321.274-.614Zm12.758.088c.02.292-.96.434-1.01.088.197-.166.674-.059 1.01-.088Zm-2.936.088c.31 1.165-.005 2.296-.92 2.905-.76.512-1.99.517-1.467 1.76-.508-.092-.183-.853-.183-1.233 1.453-.566 2.631-1.404 2.57-3.432Z"/><path fill="#292931" d="M82.853 10.132h.64c-.071.565.137.868.092 1.409-.6.483-1.062 1.097-1.742 1.497-.016-.576.39-.741.736-.97-.02-.961.28-1.044.274-1.936Zm1.56 2.204c.08-.517-.55-1.341-.366-1.94 1.66-.664 1.401 1.857.365 1.94Zm-6.329-1.585c-.538.341-.233.95-.828 1.234-.208-.244-.543-.342-.828-.088.209.478-.06.678-.365.882-.168-.102-.31-.229-.457-.35-.163.077-.27.214-.457.263-.066.268.091.321.091.526-.162.078-.27.215-.457.263-.523-.21-.538-.229-1.194-.087-.066-.268.158-.259.092-.527 1.712-.531 2.636-1.819 4.312-2.38-.03.137.086.147.091.264Z"/><path fill="#292931" d="M85.606 10.658c.264.015.168.366.183.62-.315.029-.335-.459-.183-.62Zm-14.037.093c1.879.302 1.01 1.623.548 2.467.28-.346.543-.712.828-1.058.269.414-.493.497-.457.97.03.483.457.766 1.193.527-.472.565-1.376-.025-1.833-.264-.158-.94.624-.984.828-1.584-.005-.439-.356-.541-.64-.707-.3.068-.02.687-.457.62-.102-.298-.153-.625-.01-.971Zm33.403.878c-1.047.004-1.387-.727-2.205-.707.762-.366 2.088-.088 2.205.707Zm-32.306-.79c.162-.01.193.107.365.087v.527c-.142-.185-.294-.36-.366-.614Zm8.903 0h.274c-.224.872-.523 1.667-1.377 1.94-.025-.678.97-1.131 1.103-1.94Zm5.14.965c.09.448-.28.795-.64.527.03-.205.4-.088.456-.264-.162-.258-.487.049-.736 0a1.94 1.94 0 0 0-.457 1.058c.239-.39.736-.838 1.285-.438.06 1.15-1.407 1.277-1.65 1.94-.077.21.492.546.09.795.54-.103.28-.966.92-.97-.543.95-1.082 3.266-2.661 2.115.167-.185 1.498.454 1.559-.438-.401-.122-.193.341-.549.263-.665-1.126.25-2.136.828-2.643-.076-.258-.294.054-.457 0 .538-.755.417-2.745 2.011-1.945Zm-8.624.088c-.371.61-.96 1.019-.92 2.028a5.996 5.996 0 0 0-1.742-.263c.777-.693 1.732-1.214 2.662-1.765Zm-7.07.088c0 .365-.478.6-.737.438-.01-.39.447-.336.737-.438Z"/><path fill="#292931" d="M78.266 12.336c.3.239.396.678.92.707-.442.253-.803.58-1.468.614-.35-.619.203-1.072.548-1.321Zm-5.23.614c.192-.039.243.059.365.088-.107.132-.081.395-.366.351v-.439Zm6.332.532c.056.434-.238.536-.182.97-.458-.088-.828-.263-1.285-.351.467-.23.822-.56 1.467-.62Zm1.925.35c-.32.337-1.066.269-1.01.971-.234-.01-.183-.297-.183-.527.431-.082.67-.736 1.193-.443Zm-6.333.176v.264c-.162.165-.27-.04-.457-.088.01-.19.228-.19.457-.176Zm-1.102.088c.147.01.35-.044.366.088.101.312-.56.239-.366-.088Zm1.838 0v.263c-.162-.02-.462.088-.365-.175.081-.068.203-.093.365-.088Zm-2.204.088c.081.336-.305.414-.457.263.081-.151.168-.302.457-.263Zm2.57 0c.132.049.472-.103.457.088.071.336-.594.19-.457-.088Zm1.285.444c-.264.019-.503.01-.457-.264.173-.175.559-.092.457.263Zm16.15 1.584c-1.68-1.097-4.28-1.75-6.881-1.672-.158.034-.173-.068-.183-.176 2.915-.273 5.592.444 7.065 1.848Zm-12.295-1.765c.137.127.137.575 0 .707-.249-.141-.58-.21-.549-.614.107-.103.32-.103.549-.093Zm-3.398.093c.147-.025.158.083.274.088.026.233-.127.287-.365.263-.036-.185.066-.234.091-.351Zm1.01.526c-.218.054-.426.137-.456-.175.137-.142.523-.132.457.175Zm8.35-.088c-.076 2.336-.95 3.906-1.742 5.55-.543-.152-.868-.518-1.559-.527.605-1.887 1.585-3.414 2.387-5.11.31.024.742-.069.914.088Z"/><path fill="#292931" d="M87.536 14.89c.315-.038.513.035.737.089.086.521.376 1.258.274 1.672-.355-.156-.706-.317-1.102-.439.04-.429-.096-1.034.091-1.321Zm-8.075.264c.071.37-.492.303-.457 0 .173-.166.229-.01.457 0Zm9.177-.088h.64c.564 1.136 1.235 2.16 1.468 3.613-.594-.604-1.056-1.33-1.833-1.76.05-.756-.046-1.37-.275-1.853Zm1.006.088c1.676.064 1.89 1.536 2.479 2.643-.168.517-.864.521-1.011 1.058-.198-1.512-.813-2.623-1.468-3.7Zm-9.817.176c.244-.025.3.122.274.35h-.366c-.04-.18.061-.228.092-.35Zm.64.175c.147-.024.157.083.274.088.025.234-.127.288-.366.263-.035-.18.066-.229.092-.35Z"/><path fill="#292931" d="M91.208 15.68c1.142-.126 1.782.99 2.112 1.941-.3.01-.563.044-.736.176-.543-.624-.655-1.668-1.376-2.116Zm10.645 1.766c.391.21.523.673.919.882-.94-.492-2.306-.102-3.763-.175-.742-.434-.97-1.36-2.017-1.497-.02.434.376.463.732.527.584 1.667 2.763 1.808 4.403 2.467.203.36.488.648.645 1.058-.523-.088-.64-.561-1.011-.795-.909-.127-1.813.17-2.57.439.366.16 1.448-.259 1.468.439-1.33-.254-2.036-.171-2.844-.707-1.31-.868-.97-2.633-2.204-3.438-.452.288-1.376.054-1.56-.439 1.448-.122 1.987-.585 3.12-.263 1.665.473 2.239 2.847 4.682 1.502Zm-3.215 2.291c-.046-.57-.569-.682-.92-.97.056.566.422.829.92.97ZM83.68 15.95c.132.107.122.351.366.351-.132.38-.204-.093-.549 0 .046-.132.132-.224.183-.351Z"/><path fill="#292931" d="M92.858 16.387c1.625.258 1.849 2.633 2.113 4.495-.178.122-.371.234-.645.263.177-1.91-.462-3.7-1.468-4.758Zm-12.21.087c.077-.014.087.035.092.088h.183c-.224.4-.417.834-.64 1.234-.437-.302.355-.873.365-1.322Zm6.705.088c.563.132 1.173.224 1.284.795-.462-.234-1.284-.117-1.284-.795Zm-4.775.883c-.452 1.472-1.66 2.223-2.204 3.613-.203-.161-.487-.234-.64-.44-.005-.672.584-1.525.92-2.378.233-.595.106-1.366.919-1.41.431.108.396.668 1.005.615Zm2.017-.088c-.26.956-.757 1.682-1.194 2.467a7.507 7.507 0 0 0-1.559-.088c.472-.955 1.214-1.653 1.742-2.555.528-.082.533.464 1.01.176Zm2.57-.088c.64.176 1.401.24 1.467.97-.66-.043-.94-.448-1.559-.526-.076-.254.132-.234.092-.444Zm1.747.088c.767.527 1.554 1.034 1.742 2.116-.468-.814-1.336-1.243-1.742-2.116Zm-12.484 1.321c0 .21.157.259.091.527.843.068 1.331.205 1.834.263-.254 1.087-1.316.4-2.296.795-.025-.259.209-.273.183-.527-.528-.175-1.026-.887-1.925-.97-.137.478.813.61 1.194.883v.706c-.219.171-.67.117-.64.527-.396-.22-.848-.044-1.194 0-1.457.19-2.636-.746-3.672-.439.523.849 1.077 1.668 2.113 2.028.015.25-.274.205-.274.44.35.272.69-.06.736-.352h1.011c.33.42.782.722.828 1.41-.538.097-1.01.263-1.56.35-.634-.477-1.437-.794-2.204-1.145-.452-1.507-3.047-2.76-1.65-4.408 1.772.317 3.621-.736 5.14-.088.132-.54-1.037-.56-1.468-.614 1.457-.834 2.133.785 3.753.614Zm-2.387 1.76c-1.27-.394-2.697-.638-4.038-.97.833.82 2.372.956 4.038.97ZM69.181 20c.3-.005.492-.113.548-.352-.239-.204-.62-.01-.548.352Zm1.559 2.023a2.116 2.116 0 0 0-.92-1.146c-.086.434.554.868.92 1.146Zm2.661 1.853c.249-.161-.05-.532-.091-.707h-.275c.127.229.005.697.366.707Z"/><path fill="#292931" d="M93.59 18.235c-.213.063-.594.092-1.01.175-.138-.502 1.122-.775 1.01-.175Zm-6.699-.176c.63.22 1.514.195 1.56.97-.544-.18-.955-.492-1.651-.526-.036-.215.168-.195.091-.444Zm3.672 2.028c-.579-.59-1.335-1.009-1.65-1.848.751.073 1.32 1.073 1.65 1.848Zm-10.736-1.852c.147-.025.157.082.274.087.046.278-.132.347-.183.527-.122-.03-.142-.156-.274-.176.035-.165.198-.22.183-.438Zm12.295.092c.092 0 .072.107.092.176-.346.375-.726.712-1.194.97.204-.546.737-.765 1.102-1.146Zm10.925 1.585c-.828-.644-1.727-1.22-3.21-1.234 1.422-.868 2.91.005 3.21 1.234Zm-9.274-1.146c-.122.351-.706.263-1.102.351-.081-.492.813-.512 1.102-.351Zm-7.156 0c.66.273 1.732.156 1.742 1.058-.523.044-1.01-.663-1.833-.614-.03-.21.015-.342.091-.444Zm2.204.176c.772.375 1.158 1.116 1.742 1.672-.528.185-1.071-1.068-1.742-1.322v-.35Zm3.576.087c-.158.673-1.118.576-1.377 1.146.02-.395.864-1.229 1.377-1.146Zm-12.936.088c.147-.024.157.083.274.088-.193.785-.37 1.58-.645 2.291-.223-.112-.447-.22-.731-.263.223-.839.731-1.409 1.102-2.116Zm14.5.444c-.33.073-.879.282-1.194.087.046-.321 1.148-.59 1.194-.087Zm-5.785.614c-.005.497-.188.82-.365 1.146-.549-.327-.99-.756-2.022-.615-.025-1.638 1.564-1.17 2.387-.531Zm.554-.439c.757.385 1.36.927 1.742 1.673-.488-.649-1.57-.727-1.742-1.673Zm3.758 0c-.391.478-1.072.673-1.65.97.38-.487.934-.809 1.65-.97Zm-13.946.176c.025.229-.036.38-.275.35-.167-.15.026-.345.275-.35Zm15.51.088c-.076.458-.873.219-1.285.35.056-.472.762-.321 1.285-.35Zm-10.833.175c.158.234-.066.337.183.527.99-.249 1.255.424 1.925.707-1.326.21-3.322.697-4.403-.088.39.122 1.274-.161 1.65.175.122-.029.142-.156.275-.175-.153-.668-1.179-.083-1.925-.264.127-.911 1.132-.97 2.295-.882Zm9.27.176c-.356.463-1.245.843-1.651.97.39-.478.843-.892 1.65-.97Zm-14.222.175c-.121 1.239-1.518-.005-2.478.176.554-.395 1.671-.244 2.478-.176Zm10.28-.088c.787.39 1.493.858 1.925 1.585-.777-.102-1.214-.912-2.204-.527-.02-.463.223-.668.279-1.058Zm4.403.176h1.102v.707c-.792.03-1.015.61-1.467.97-.366-.434-1.427-.332-1.834-.263.29-.663 1.051-.868 1.742-1.146.071.449-.127.639-.091 1.058.558-.078.31-.936.548-1.326Zm-13.489.444c.462-.064.543.243.92.263.04.331-.184.414-.275.614-.305-.058-.447-.273-.736-.35-.005-.206.157-.26.091-.527Zm6.79.175c-.08.107-.736.375-.736 0 .294-.137.406-.03.736 0Zm9.91 1.058c-.64-.03-1.139-.2-1.469-.526.407-.478 1.27-.113 1.468.526ZM86.8 21.76c.752.043 1.849.219 1.559.97-.467.068-.294-.483-.548-.62-.24-.209-1.047.127-1.011-.35Z"/><path fill="#292931" d="M88.545 21.76c.6.308 1.163.65 1.742.971.731-.122 1.737-.356 2.296.088.497-.22.822-.878 1.467-.883.488 0 1.234.561 1.925.62.3.024.828-.142 1.01-.088 1.27.36 1.545 3.905 2.754 4.583 0 .273-.219.575 0 .795.65-.005.548-.542 1.102-.527.726.015.995.941.919 1.672-.447.059-.97.186-1.194-.263-.32-.039-.05.478-.274.527-.457.024-.67-.18-.645-.615-.284-.107-.487-.297-.548-.614-.31-.078-.407-.005-.737-.176-.482-1.384-1.076-2.667-2.021-3.612-3.377.234-7.293.014-7.796-2.477Zm9.817 4.052c-.269-.419-.284-1.082-.736-1.32.172.511.365 1.003.736 1.32Zm.64 1.502c-.101-.575-.233-1.126-.64-1.409.102.575.219 1.141.64 1.41Z"/><path fill="#292931" d="M96.439 24.759c.046 1.033.406 1.867.64 2.467.29.044.325-.161.64-.088-.087 1.107 1.214.956.828 2.116-.635-.034-.975-.531-1.011-.882-.325-.05-.224.312-.549.263-.335-.39-.548-1.243-1.193-1.058-.31-.936-.244-1.8-.457-2.906.305-.21.752.059 1.102.088Zm-.28 1.409c-.004-.293.036-.624-.274-.615-.02.313.061.527.275.615ZM82.58 5.548c.37-.21.934.161 1.01.527-.345-.16-.42-.59-1.01-.526ZM75.88 7.05c.152-.321.163-.785.274-1.145.833.078.107.663.183 1.233.483-.039.234-.775.737-.795.36.395-.178.849-.366 1.234-.29-.166-.401-.497-.828-.527Zm7.527-.443V6.43c-.503 2.336-1.976 5.27-4.495 6.256 2.402-1.156 3.393-3.667 4.495-6.08Zm-3.855 9.956c-.218-.288-.518.083-.736.088.04-.332.38-.376.183-.707-.376-.069-.173.424-.55.35.052-.312-.146-.385-.273-.526-.488.302.254.683.183 1.146-.458-.093-.28-.79-.737-.883-.234.405.26.863.457 1.146-.482.254-.35-.839-.92-.795-.263.561.808 1.024.55 1.585-.427-.234-.432-.878-.92-1.058-.172.566.467 1.063.731 1.497-.512.068-1.05-.088-1.376-.527-.96.244-.98-.692-2.021-.35.183-.474 1.163-.176 1.376-.615-.31-.234-.757.15-1.193.087.33-.326 1.081-.253 1.467-.526-.259-.454-.772.054-1.193 0 .315-.341 1.143-.195 1.376-.614-.178-.22-.558.102-.828.087.077-.336.681-.17.828-.438.036-.376-.396-.078-.548-.088.081-.156.29-.259.091-.439a.486.486 0 0 0-.365.351c-.3.024-.194-.341-.458-.351-.132.444.336.605.092.883-.285-.142-.29-.547-.549-.707-.31.331.447.76.183 1.057-.376-.107-.294-.653-.736-.706-.183.356.335.794.457 1.145-.407.24-.437-.634-.92-.614-.238.497.818.926.275 1.497-.574.058-1.128-.132-1.925 0-.183.497.487.18.457.526-1.564.59-4.18-.277-4.129 1.76.02.78.787 1.156 1.194 1.76.04.186-.061.235-.092.352.869.312.813 1.511 1.834 1.672-.686.956-1.895-.17-2.022-.882-.147.004-.35-.044-.365.087-.706-.512-.59-2.101-.828-3.174-.188-.838-.34-1.511.365-2.116 1.412.073 2.25.507 3.119-.087.828-.566 1.016-1.902 1.833-2.555 1.422-.23 2.697-.317 3.946 0-.365 1.028-.99 1.808-1.285 2.905.844-.629 1.082-1.838 1.651-2.73 1.128.268 1.986.795 3.027 1.146-.401 1.053-.813 2.096-1.285 3.081-.36-.15-.457-.556-1.102-.439.147-.472.975-.297 1.194-.706-.326-.308-.595.19-1.011.087.284-.341.95-.322 1.193-.707-.304-.287-.589.195-.919.176.122-.468.98-.234 1.102-.707-.31-.263-.589.253-.92.263.128-.448.9-.263 1.042-.687Zm-11.839 2.204c.498.097.508-.278.549-.615-.472-.073-.498.283-.549.614Zm21.2-16.124c.192-.05.116-.57-.092-.527.594-.185 1.706.185 1.102 1.058-.137.337.411.02.274.351-1.432.697-2.397-.258-2.935-1.146-.209.25.35.376.091.707-.391-.053-.604.064-.92.088-.263-.483-.507-.985-1.01-1.233-.035.473.472.424.457.882-1.214.766-1.854-1.229-3.397-.707.121-.526.766-.556 1.467-.526.528-.38 1.56.02 2.016.263 1.22-.39 1.925.497 2.946.79Zm-13.587 4.32c.112.282-.294.068-.182.35.345.127.177-.243.457-.175 1.142.575 1.366 2.038 2.112 2.994-1.548.54-2.473 1.677-3.946 2.291-.868-.916.082-3.09-.828-3.876.077-.804-.294-1.19-.457-1.76 1.047-.224 1.88-.185 2.844.176Zm-2.473 0c-.025.234.127.287.366.263-.005-.24-.208-.424-.366-.263Zm1.377.614c.025-.23-.036-.38-.275-.351-.03.229.03.375.275.35Zm.182.175c-.025.234.127.288.366.264.025-.361-.107-.351-.366-.264Zm.457.532c-.091.263.204.156.366.175v-.263c-.157-.01-.284.02-.366.088Zm-.274.614c-.091.263.203.156.366.176V8.81c-.158-.004-.285.02-.366.088ZM76.8 8.81h-.365c-.076.342.436.342.365 0Zm-1.564.615c.122.029.178.127.366.088v-.264c-.209-.024-.34.025-.366.176Zm-.274 0h-.366c-.071.341.437.341.366 0Zm-1.01.18v.176c.055.005.106.014.09.087h.183c.005-.053.016-.102.092-.087v-.176c-.056-.005-.107-.014-.092-.088h-.182c-.005.054-.01.103-.092.088Zm1.746.439h.366c.025-.23-.036-.38-.274-.351-.03.117-.132.166-.092.351Zm-1.559.439c.229.014.29-.137.366-.264-.122-.029-.178-.126-.366-.087v.35Zm1.188 0c.122.029.178.127.366.087v-.263c-.203-.024-.34.025-.365.176Zm.646 0c.121.029.177.127.365.087v-.263c-.208-.024-.345.025-.365.176Zm-1.377.175v.176c.056.005.107.014.092.088h.182c.005-.054.016-.103.092-.088v-.176c-.056-.005-.107-.014-.092-.088h-.182c-.005.054-.016.108-.092.088Zm-.92.444c.24.024.397-.034.367-.263-.24-.025-.392.029-.366.263Zm10.372.527v.263c.04.36-.229-.068-.366.175.208.449.584.732 1.01.97-.695.444-1.02 1.254-1.467 1.941-.65-.473-1.366.112-1.742.439.203-.424.28-.634.091-1.058.041-1.229 1.336-1.243 2.205-1.672-.275-.171-.94.039-1.103.263.199-.337.798-1.053 1.372-1.321Zm-1.468 1.852c-.03-.234.513.083.366-.263-.254-.093-.635.136-.366.263Z"/><path fill="#292931" d="M83.31 15.416c-.06.585-.239 1.175-.366 1.848-.63-.102-1.056-.395-1.285-.882-.335.02-.35.122-.64 0-.066-.273-.066-.17 0-.439 1.016.005 1.306-1.253 2.291-.527Zm-.274 0h-.737c-.106.386.848.386.737 0Zm-.092 1.59c.026-.405-.573-.21-.736-.439.05.332.33.444.736.439ZM24 39.17v-.327h.538c.315 0 .539-.044.666-.136.132-.093.213-.25.244-.469.03-.219.045-.61.045-1.17v-3.925c0-.56-.015-.955-.045-1.17-.031-.22-.112-.375-.244-.463-.132-.088-.36-.136-.686-.136H24v-.332h7.004c.761 0 1.493.058 2.204.175.706.117 1.29.317 1.757.605.462.288.696.673.696 1.156 0 .35-.168.658-.503.93-.335.274-.777.488-1.32.644a8.466 8.466 0 0 1-1.737.308v.024a7.69 7.69 0 0 1 1.9.263c.614.166 1.122.395 1.518.702.396.303.594.649.594 1.034 0 1.521-1.95 2.287-5.85 2.287H24Zm4.56-7.733v3.267h1.372c.889 0 1.554-.152 1.99-.449.438-.297.656-.707.656-1.224 0-.283-.076-.546-.229-.785-.152-.239-.426-.434-.822-.585-.391-.151-.92-.224-1.58-.224h-1.386Zm0 3.666v3.672h1.392c.95 0 1.681-.127 2.194-.376.513-.248.772-.687.772-1.306 0-.737-.233-1.249-.706-1.546-.472-.293-1.219-.444-2.24-.444h-1.411Zm23.8-4.061v.336h-.518c-.325 0-.554.044-.686.137-.132.088-.213.244-.243.463-.031.22-.046.61-.046 1.17v3.423c0 .843-.442 1.516-1.33 2.018-.885.507-2.109.756-3.663.756-1.777 0-3.149-.253-4.103-.765-.96-.512-1.438-1.195-1.438-2.058v-3.379c0-.56-.015-.95-.045-1.17-.03-.22-.112-.375-.244-.463-.132-.088-.36-.136-.686-.136h-.528v-.337h6.049v.337h-.508c-.325 0-.554.043-.686.136-.132.088-.213.244-.243.463-.03.22-.046.61-.046 1.17v3.618c0 .483.137.878.411 1.195.274.312.645.54 1.107.682.463.142.986.215 1.56.215 1 0 1.833-.21 2.509-.634.675-.424 1.01-1.029 1.01-1.819V33.15c0-.439-.005-.755-.015-.95a1.153 1.153 0 0 0-.112-.478.526.526 0 0 0-.284-.264c-.127-.048-.32-.073-.58-.073h-.507v-.336l3.865-.005Zm2.031 8.128v-.327h.539c.315 0 .538-.044.665-.136.132-.093.213-.25.244-.469.03-.219.046-.61.046-1.17v-3.925c0-.56-.016-.955-.046-1.17-.03-.22-.112-.375-.244-.463-.132-.088-.36-.136-.685-.136h-.519v-.332h6.842c.934 0 1.762.068 2.478.205.721.136 1.28.346 1.681.633.401.288.6.644.6 1.078 0 .527-.326.96-.97 1.302-.646.341-1.423.56-2.332.663v.024c.838.083 1.478.215 1.925.405.447.19.742.434.894.731.152.298.223.683.223 1.146 0 .444.036.805.107 1.078.071.273.239.41.508.41.254 0 .548-.137.884-.41l.508.17c-.224.293-.564.512-1.011.658-.452.142-.96.215-1.524.215-1.016 0-1.696-.249-2.031-.741-.336-.492-.503-1.15-.503-1.96 0-.473-.137-.839-.406-1.097-.275-.254-.833-.385-1.676-.385h-1.63v1.896c0 .561.014.956.045 1.17.03.22.112.376.244.469.132.092.355.136.665.136h.528v.327l-6.049.005Zm4.561-7.733v3.335h1.133c1.813 0 2.717-.566 2.717-1.692 0-.385-.122-.702-.366-.946-.243-.244-.574-.42-.99-.531a5.625 5.625 0 0 0-1.402-.161l-1.092-.005Zm10.62 7.733v-.327h.538c.315 0 .539-.044.666-.136.132-.093.213-.25.243-.469.03-.219.046-.61.046-1.17v-3.925c0-.56-.015-.955-.046-1.17-.03-.22-.111-.375-.243-.463-.132-.088-.361-.136-.686-.136h-.518v-.332h7.004c.761 0 1.493.058 2.204.175.706.117 1.29.317 1.757.605.462.288.696.673.696 1.156 0 .35-.168.658-.503.93-.335.274-.777.488-1.32.644a8.466 8.466 0 0 1-1.737.308v.024c.655.01 1.284.098 1.9.263.614.166 1.122.395 1.518.702.396.303.594.649.594 1.034 0 1.521-1.95 2.287-5.85 2.287h-6.263Zm4.566-7.733v3.267h1.371c.889 0 1.554-.152 1.99-.449.438-.297.656-.707.656-1.224 0-.283-.076-.546-.228-.785-.153-.239-.427-.434-.823-.585-.391-.151-.92-.224-1.58-.224h-1.386Zm0 3.666v3.672h1.391c.95 0 1.681-.127 2.194-.376.513-.248.772-.687.772-1.306 0-.737-.233-1.249-.706-1.546-.472-.293-1.219-.444-2.24-.444h-1.411Zm10.264 4.067v-.327h.538c.315 0 .539-.044.666-.136.132-.093.213-.25.243-.469.03-.219.046-.61.046-1.17v-3.925c0-.56-.015-.955-.046-1.17-.03-.22-.111-.375-.243-.463-.132-.088-.36-.136-.686-.136h-.518v-.332h11.026v1.936h-.742a1.48 1.48 0 0 0-.335-.776 1.75 1.75 0 0 0-.695-.473c-.285-.112-.6-.19-.95-.229a10.58 10.58 0 0 0-1.168-.058h-2.575v3.335h1.711c.518 0 .96-.03 1.32-.093.361-.063.656-.185.885-.375.228-.186.345-.444.35-.77h.746v2.88h-.746c-.02-.492-.254-.823-.696-.994-.447-.17-1.066-.258-1.859-.258h-1.711v3.603h2.255c.72 0 1.35-.04 1.879-.122.528-.083.96-.239 1.295-.478.335-.239.518-.58.543-1.024h.747v2.024h-11.28Zm14.104 0v-.327h.538c.315 0 .538-.044.665-.136.132-.093.214-.25.244-.469.03-.219.046-.61.046-1.17v-3.925c0-.56-.015-.955-.046-1.17-.03-.22-.112-.375-.244-.463-.132-.088-.36-.136-.685-.136h-.518v-.332h6.841c.934 0 1.762.068 2.478.205.722.136 1.28.346 1.681.633.402.288.6.644.6 1.078 0 .527-.325.96-.97 1.302-.645.341-1.422.56-2.332.663v.024c.838.083 1.478.215 1.925.405.447.19.742.434.894.731.153.298.224.683.224 1.146 0 .444.035.805.106 1.078s.239.41.508.41c.254 0 .549-.137.884-.41l.508.17c-.224.293-.564.512-1.011.658-.452.142-.96.215-1.524.215-1.015 0-1.696-.249-2.031-.741-.335-.492-.503-1.15-.503-1.96 0-.473-.137-.839-.406-1.097-.274-.254-.833-.385-1.676-.385h-1.63v1.896c0 .561.015.956.045 1.17.031.22.112.376.244.469.132.092.356.136.665.136h.529v.327l-6.05.005Zm4.561-7.733v3.335h1.132c1.813 0 2.717-.566 2.717-1.692 0-.385-.122-.702-.365-.946-.244-.244-.574-.42-.991-.531a5.624 5.624 0 0 0-1.402-.161l-1.091-.005Zm10.624 7.733v-.327h.539c.315 0 .538-.044.665-.136.132-.093.213-.25.244-.469.03-.219.045-.61.045-1.17v-3.925c0-.56-.015-.955-.045-1.17-.031-.22-.112-.375-.244-.463-.132-.088-.361-.136-.686-.136h-.518v-.332h6.841c.935 0 1.763.068 2.479.205.721.136 1.28.346 1.681.633.401.288.599.644.599 1.078 0 .527-.325.96-.97 1.302-.645.341-1.422.56-2.331.663v.024c.838.083 1.478.215 1.925.405.447.19.741.434.894.731.152.298.223.683.223 1.146 0 .444.036.805.107 1.078.071.273.239.41.508.41.254 0 .548-.137.883-.41l.508.17c-.223.293-.563.512-1.01.658-.452.142-.96.215-1.524.215-1.016 0-1.696-.249-2.031-.741-.336-.492-.503-1.15-.503-1.96 0-.473-.137-.839-.407-1.097-.274-.254-.832-.385-1.676-.385h-1.63v1.896c0 .561.015.956.046 1.17.03.22.112.376.244.469.132.092.355.136.665.136h.528v.327l-6.049.005Zm4.561-7.733v3.335h1.133c1.813 0 2.717-.566 2.717-1.692 0-.385-.122-.702-.366-.946s-.574-.42-.99-.531a5.63 5.63 0 0 0-1.402-.161l-1.092-.005Zm18.38 4.437v1.194c0 .56.015.951.046 1.17.03.22.112.376.244.469.132.092.355.136.675.136h.645v.327h-6.287v-.327h.655c.315 0 .538-.044.665-.136.132-.093.213-.25.244-.469.03-.219.046-.61.046-1.17v-1.048l-3.246-3.627c-.345-.39-.66-.659-.949-.8a2.07 2.07 0 0 0-.92-.215h-.228v-.336h6.511v.336h-.432c-.66 0-.99.103-.99.303 0 .087.045.195.132.326.086.132.203.273.35.434.147.161.244.264.29.317l2.244 2.54 2.535-2.983a.859.859 0 0 0 .213-.58c0-.24-.366-.357-1.097-.357h-.355v-.336h4.169v.336h-.355c-.239 0-.457.054-.666.166a2.341 2.341 0 0 0-.543.395c-.152.151-.35.36-.594.634l-3.002 3.3ZM62.7 45.387h1.742v.132h-.421c-.066 0-.117.01-.148.034-.03.024-.045.058-.045.112v2.014c0 .048.02.083.06.102.041.02.123.03.245.03h.528c.28 0 .513-.064.69-.19.178-.128.31-.352.392-.664h.177l-.086.98H62.7v-.132h.31a.487.487 0 0 0 .224-.039.155.155 0 0 0 .066-.131V45.64c0-.044-.02-.073-.056-.098a.324.324 0 0 0-.158-.034H62.7v-.122Zm8.64-.053c.314 0 .614.058.888.17.28.112.498.273.65.473.158.205.239.43.239.688 0 .253-.081.482-.239.687a1.533 1.533 0 0 1-.65.478 2.299 2.299 0 0 1-1.722.005 1.565 1.565 0 0 1-.64-.483 1.14 1.14 0 0 1-.238-.697c0-.249.076-.478.233-.678.158-.205.371-.36.64-.473.27-.112.549-.17.838-.17Zm.04.131c-.33 0-.6.093-.802.278-.204.185-.31.492-.31.917 0 .458.106.77.315.946.208.175.472.263.782.263.218 0 .406-.04.574-.117a.876.876 0 0 0 .39-.38c.097-.171.148-.4.148-.678 0-.307-.046-.546-.137-.717a.888.888 0 0 0-.391-.385 1.277 1.277 0 0 0-.569-.127Zm5.653-.078h.899l2.27 2.004v-1.453c0-.146-.051-.254-.147-.327-.092-.063-.224-.097-.402-.102v-.132h1.316v.132a.914.914 0 0 0-.3.039.41.41 0 0 0-.173.136.36.36 0 0 0-.076.22v2.028h-.239l-2.346-2.087v1.546c0 .141.05.244.158.312.101.068.264.102.482.107v.132h-1.432v-.132a.781.781 0 0 0 .426-.117c.107-.078.158-.17.158-.278v-1.73l-.046-.03a.97.97 0 0 0-.183-.112.685.685 0 0 0-.193-.024h-.172v-.132Zm7.628 0h1.945c.29 0 .533.034.737.102.248.088.462.235.64.44.177.204.264.443.264.72 0 .23-.051.44-.158.62a1.09 1.09 0 0 1-.37.37 1.817 1.817 0 0 1-.605.24 3.46 3.46 0 0 1-.711.058h-1.742v-.132h.355a.42.42 0 0 0 .188-.029.099.099 0 0 0 .056-.092v-2.048c0-.034-.02-.064-.056-.083a.339.339 0 0 0-.157-.034h-.386v-.132Zm1.366.132a.335.335 0 0 0-.172.034.106.106 0 0 0-.056.097v2.034c0 .039.02.073.066.092.04.02.117.03.218.03h.32c.284 0 .538-.05.752-.152a.712.712 0 0 0 .32-.283c.101-.165.152-.39.152-.677 0-.424-.112-.736-.33-.936-.188-.166-.467-.249-.843-.249h-.427v.01Zm7.923-.185c.315 0 .615.058.889.17.28.112.498.273.65.473.157.205.239.43.239.688 0 .253-.082.482-.239.687a1.534 1.534 0 0 1-.65.478 2.3 2.3 0 0 1-1.722.005 1.566 1.566 0 0 1-.64-.483 1.14 1.14 0 0 1-.239-.697c0-.249.077-.478.234-.678.158-.205.37-.36.64-.473.27-.112.549-.17.838-.17Zm.04.131c-.33 0-.599.093-.802.278-.203.185-.31.492-.31.912 0 .458.107.77.315.946.209.175.473.263.782.263.219 0 .407-.04.574-.117a.876.876 0 0 0 .391-.38c.097-.171.148-.4.148-.678 0-.307-.046-.546-.137-.717a.887.887 0 0 0-.391-.385 1.345 1.345 0 0 0-.57-.122Zm5.653-.078h.899l2.271 2.004v-1.453c0-.146-.051-.254-.148-.327-.091-.063-.223-.097-.401-.102v-.132h1.315v.132a.91.91 0 0 0-.299.039.412.412 0 0 0-.173.136.36.36 0 0 0-.076.22v2.028h-.239l-2.346-2.087v1.546c0 .141.051.244.157.312.102.068.264.102.483.107v.132h-1.432v-.132a.78.78 0 0 0 .426-.117c.107-.078.158-.17.158-.278v-1.73l-.046-.03a.945.945 0 0 0-.183-.112.683.683 0 0 0-.193-.024h-.173v-.132Z"/></svg>