<svg xmlns="http://www.w3.org/2000/svg" width="156" height="49" fill="none"><g clip-path="url(#a)"><path fill="#292931" d="M24.665 9.81H38.6c11.98 0 16.667 7.028 16.667 14.469 0 7.57-6.011 14.317-17.449 14.317h-13.13c-.239 0-.326-.152-.326-.282 0-.152.152-.282.37-.282h2.452c.76 0 1.259-.456 1.259-1.302V11.72c0-.63-.304-1.324-1.302-1.324h-2.496c-.196 0-.304-.13-.304-.282 0-.13.043-.304.325-.304Zm8.703 27.44c0 .63.282.825.695.825h3.69c9.093 0 12.392-6.963 12.392-13.948S46.65 10.374 38.968 10.374h-5.014c-.52 0-.564.434-.564.63l-.022 26.247ZM56.655 9.81c-.217 0-.412.087-.412.26 0 .174.109.283.304.283h2.452c.565 0 1.107.39 1.107 1.475v24.924c0 .52-.39 1.301-1.085 1.301h-2.43c-.283 0-.305.217-.305.304s-.021.239.304.239h11.807c.173 0 .412-.022.412-.196 0-.173-.043-.347-.347-.347h-2.279c-.326 0-1.215-.195-1.215-1.193V11.567c0-.716.455-1.193 1.28-1.193h2.236c.195 0 .303-.108.303-.26 0-.152-.108-.282-.369-.282H56.655V9.81Zm18.448 14.404c0-7.961 3.56-14.404 10.244-14.404 6.554 0 10.243 6.443 10.243 14.404 0 7.96-3.364 14.403-10.243 14.403-6.663.022-10.244-6.442-10.244-14.403Zm10.244 15.01c9.506 0 15.495-6.724 15.495-14.988 0-8.265-5.924-15.011-15.495-15.011-9.55 0-15.496 6.724-15.496 14.989 0 8.264 6.185 15.01 15.496 15.01Zm45.88-.802c-3.733.39-5.795-5.727-7.683-8.633-1.411-2.148-4.406-4.339-7.358-4.773 4.862-.282 10.309-1.843 10.309-7.353 0-4.469-2.756-7.853-12.87-7.853h-11.654c-.152 0-.304.087-.304.26 0 .174.152.283.304.283h2.669c.565 0 1.107.39 1.107 1.475v24.924c0 .52-.39 1.301-1.085 1.301h-2.626c-.217 0-.304.174-.304.26 0 .087.087.282.304.282h12.371c.173 0 .325-.086.325-.26 0-.173-.108-.282-.347-.282h-2.496c-.325 0-1.215-.217-1.215-1.193V25.081h1.28c6.121 0 6.576 6.638 9.615 10.434 2.604 3.254 6.011 3.666 7.943 3.666.825 0 1.389-.021 1.91-.152.325-.108.391-.672-.195-.607Zm-19.316-28.07h1.801c3.082 0 8.074 1.215 8.074 7.029 0 5.336-4.428 7.136-8.529 7.136h-2.627v-12.95c0-.737.456-1.214 1.281-1.214Z"/></g><defs><clipPath id="a"><path fill="#fff" d="M24.34 9.225h107.32v30H24.34z"/></clipPath></defs></svg>