<svg xmlns="http://www.w3.org/2000/svg" width="97" height="49" fill="none"><g clip-path="url(#a)"><path fill="#292931" d="m48.486.256-5.164 14.478 3.51.001c2.53 0 3.605 1.995 2.81 4.227l-5.136 14.396H39.34l5.649-15.84h-2.66l-5.65 15.84h-5.21L43.058.856C32.386 3.292 24.42 12.843 24.42 24.255c0 11.235 7.72 20.665 18.143 23.28l11.711-32.882h8.481c1.755 0 3.96 1.183 3.008 3.875L61 31.974c-.609 1.717-2.054 2.065-3.206 2.065H52.58l-5.057 14.198c.298.011.596.019.896.019 13.255 0 24-10.745 24-24 0-13.233-10.709-23.964-23.933-24Zm9.992 17.223-4.919 13.807h2.62l4.919-13.807h-2.62Z"/></g><defs><clipPath id="a"><path fill="#fff" d="M24 .45h49v48H24z"/></clipPath></defs></svg>