<svg xmlns="http://www.w3.org/2000/svg" width="167" height="49" fill="none"><g clip-path="url(#a)"><path fill="#292931" d="M111.064 11.593c0-1.215 1.011-2.2 2.257-2.2h26.027c1.247 0 2.257.985 2.257 2.2V37.9c0 1.215-1.01 2.2-2.257 2.2h-26.027c-1.246 0-2.257-.985-2.257-2.2V11.593Z"/><path fill="#292931" fill-rule="evenodd" d="M25.571 35.113h12.746v-4.18h-8.133v-15.95H25.57v20.13ZM44.77 35.113V21.248h-4.614v13.865h4.613Zm-2.307-15.758c1.609 0 2.61-1.065 2.61-2.396-.03-1.36-1.001-2.395-2.58-2.395-1.578 0-2.61 1.035-2.61 2.395 0 1.331 1.002 2.396 2.55 2.396h.03ZM46.911 35.113h4.613V27.37c0-.414.03-.828.152-1.125.333-.827 1.092-1.685 2.367-1.685 1.669 0 2.337 1.272 2.337 3.135v7.418h4.612v-7.95c0-4.259-2.276-6.24-5.31-6.24-2.489 0-3.582 1.389-4.189 2.336h.031v-2.011h-4.613c.06 1.301 0 13.865 0 13.865ZM67.5 14.983h-4.613v20.13H67.5v-4.495l1.153-1.45 3.611 5.945h5.675l-6.07-8.607 5.311-5.855h-5.553s-3.793 5.239-4.127 5.86V14.983Z" clip-rule="evenodd"/><path fill="#292931" fill-rule="evenodd" d="M90.275 29.331c.06-.356.152-1.04.152-1.811 0-3.585-1.821-7.223-6.616-7.223-5.129 0-7.496 4.052-7.496 7.728 0 4.546 2.883 7.385 7.92 7.385 2.004 0 3.855-.295 5.372-.916L89 31.45c-1.244.412-2.518.618-4.096.618-2.155 0-4.036-.883-4.188-2.766l9.56.028v.001Zm-9.59-3.118c.122-1.183.911-2.928 2.884-2.928 2.093 0 2.579 1.863 2.579 2.928h-5.462ZM101.812 14.983v6.97h-.06c-.668-.976-2.064-1.627-3.915-1.627-3.55 0-6.676 2.84-6.646 7.69 0 4.496 2.822 7.424 6.342 7.424 1.912 0 3.733-.829 4.643-2.426h.091l.182 2.1h4.098a76.518 76.518 0 0 1-.122-4.318V14.983h-4.613Zm0 13.713c0 .355-.03.71-.091 1.005-.273 1.272-1.366 2.16-2.7 2.16-1.912 0-3.157-1.538-3.157-3.964 0-2.277 1.063-4.11 3.187-4.11 1.426 0 2.427.975 2.701 2.188.06.266.06.562.06.828v1.893Z" clip-rule="evenodd"/><path fill="#fff" fill-rule="evenodd" d="M120.322 35.098V21.232h-4.613v13.866h4.613Zm-2.306-15.76c1.608 0 2.609-1.064 2.609-2.395-.03-1.36-1.001-2.395-2.579-2.395-1.578 0-2.609 1.035-2.609 2.396 0 1.33 1.001 2.395 2.549 2.395h.03ZM122.875 35.098h4.613v-7.743c0-.415.03-.829.152-1.125.333-.828 1.092-1.686 2.366-1.686 1.67 0 2.337 1.272 2.337 3.136v7.418h4.613v-7.95c0-4.26-2.276-6.241-5.311-6.241-2.488 0-3.581 1.39-4.188 2.336h.031v-2.011h-4.613c.061 1.301 0 13.866 0 13.866Z" clip-rule="evenodd"/></g><defs><clipPath id="a"><path fill="#fff" d="M24.852 8.674H142.15v32H24.852z"/></clipPath></defs></svg>