<svg xmlns="http://www.w3.org/2000/svg" width="163" height="49" fill="none"><path fill="#292931" d="M129.729 14.938c.931 0 1.68-.751 1.68-1.68a1.678 1.678 0 1 0-3.357 0c0 .929.751 1.68 1.677 1.68Zm.015-3.106c.785 0 1.423.636 1.423 1.426a1.425 1.425 0 1 1-2.847 0c0-.79.638-1.426 1.424-1.426Zm-.452 1.55h.54c.097 0 .168.011.211.035.084.037.126.113.13.23l.014.29c.004.069.007.116.01.14.008.023.014.043.023.059h.29v-.041c-.038-.017-.064-.052-.076-.107a.784.784 0 0 1-.02-.15l-.007-.235c-.004-.102-.023-.174-.058-.22a.331.331 0 0 0-.155-.11.458.458 0 0 0 .182-.16.46.46 0 0 0 .067-.26c0-.203-.082-.34-.249-.412a.756.756 0 0 0-.327-.06h-.812v1.755h.237v-.754Zm0-.796h.578c.083 0 .148.01.197.034.089.047.135.133.135.257-.005.117-.033.196-.098.241a.478.478 0 0 1-.265.067h-.547v-.6ZM55.92 24.636c-.123-.182-.063-.433.06-.59l6.607-8.034c.4-.423.674-.962.857-1.505a2.472 2.472 0 0 0-.503-2.098c-.47-.562-1.229-.932-1.919-.768-1.056.072-1.7 1.127-2.301 1.89l-4.13 5.464a18.827 18.827 0 0 1-1.504 1.86c-.3.123-.564-.07-.709-.297L46.713 13l-.766-.885c-.586-.505-1.462-.653-2.066-.443-.855.167-1.35.928-1.533 1.711L42.33 23.1c.089.668-.147 1.214-.398 1.744-.625 1.167-2.006 1.684-3.215 1.564-1.136-.175-2.347-1.15-2.566-2.303V13.916c-.08-.401-.112-.83-.296-1.181-.425-.794-1.254-1.192-2.066-1.182-.787.102-1.526.566-1.86 1.299a9.14 9.14 0 0 0-.176.502v9.568c.003 1.038.159 2.02.5 2.925.794 2.453 3.301 4.15 5.725 4.577 2.65.495 5.436-.434 7.23-2.687 1.518-2.052 1.327-4.855 1.327-7.562l.088-.117c.943.97 1.726 2.121 2.598 3.189.241.393.7.703.648 1.242-.908 1.264-1.948 2.517-2.89 3.72L42.7 33.494c-.339.563-.501 1.388-.207 2.04.429.794 1.276 1.348 2.213 1.328.823-.03 1.46-.811 1.948-1.388l4.601-5.787 1.212-1.509c.135-.203.358-.323.589-.264.92.924 1.575 1.987 2.42 3.011l4.012 5.257c.352.48.977.723 1.594.828.88.08 1.566-.386 2.038-1.093.415-.635.31-1.669-.061-2.275l-7.14-9.005Zm-16.142 8.015-9.53-.012c-.496.042-.478-.295-.56-.473V14.241c-.012-.536-.101-1.044-.325-1.479-.447-.76-1.236-1.3-2.184-1.15a2.164 2.164 0 0 0-1.71 1.476l-.032 21.941.12.416c.194.649.931 1.26 1.622 1.389l12.6-.002c.581-.148 1.097-.458 1.443-1.004.334-.51.357-1.358.09-1.89-.302-.627-.944-1.095-1.534-1.287ZM103.88 18c-1.228 0-2.266.824-2.266 1.838l.021 15.536c0 1.016.995 1.837 2.226 1.837 1.229 0 2.228-.82 2.228-1.837l.02-15.536c0-1.014-.999-1.838-2.229-1.838Zm32.06-5.827c-1.085-.224-1.955.352-2.566 1.034-1.496 1.858-2.891 3.806-4.25 5.729l-5.162 7.118c-1.673 2.275-3.406 4.717-5.106 6.999-.542.006-1.058-.163-1.505-.326-3.064-1.068-5.623-4.118-5.753-7.382-.378-3.092 1.045-5.794 3.421-7.62.847-.594 1.784-1.162 2.862-1.358 1.893-.706 4.211-.263 6.021.414.489.13 1.181.277 1.653-.118.689-.182 1.093-.956 1.267-1.597.19-1.059-.432-2.023-1.208-2.51-3.725-1.802-8.834-1.432-12.305.71-4.331 2.52-7.038 7.43-6.462 12.67.442 5.086 4.514 9.855 9.443 11.25 1.708.288 4.104 1.343 5.517-.324 3.691-4.998 7.126-10.156 10.918-15.15l.147-.03c.015.039.098.085.148.15l.011 13.88c0 1.015 1.06 1.84 2.289 1.84 1.23 0 2.227-.825 2.227-1.84l.015-22.004c-.25-.725-.923-1.367-1.622-1.535Zm-31.482-.354v-.03h-19.6c-.363.063-.946.314-1.233.475-.616.572-.954 1.385-.738 2.243.101.787.678 1.622 1.634 1.759.05-.003.396.006 2.853.006.128.02.376.095.398.36l.13 18.72c0 1.015.885 1.835 2.116 1.835 1.228 0 2.187-.82 2.187-1.836l.037-18.482.059-.265c.083-.174.2-.233.382-.326h2.302c.137.056.44.183.414.552l-.005 18.538c0 1.012.998 1.837 2.228 1.837 1.228 0 2.227-.825 2.227-1.837l.006-18.735a.67.67 0 0 1 .352-.356l3.306.001c.883-.003 1.82-.239 2.331-.947.405-.532.524-1.3.354-1.976-.303-.742-.982-1.399-1.74-1.536Zm-31.324-.454c-7.215 0-13.067 5.853-13.067 13.078 0 7.223 5.852 13.077 13.067 13.077 7.216 0 13.067-5.855 13.067-13.077 0-7.225-5.851-13.078-13.067-13.078Zm-.038 21.81c-4.818 0-8.725-3.91-8.725-8.732 0-4.823 3.907-8.732 8.725-8.732 4.819 0 8.725 3.91 8.725 8.732 0 4.822-3.906 8.732-8.725 8.732Z"/></svg>