<svg xmlns="http://www.w3.org/2000/svg" width="151" height="49" fill="none"><g clip-path="url(#a)"><path fill="#292931" d="M42.426 11.687c-.25.304-.39.643-.39 1.233v16.213h-.09S33.11 13.312 32.682 12.58c-.302-.52-.64-.876-1.085-1.144-.445-.25-.907-.41-1.795-.41h-2.916c-.677 0-1.103.231-1.405.59-.25.302-.392.642-.392 1.23V35.83c0 .59.142.929.392 1.233.302.356.728.588 1.405.588h1.653c.675 0 1.103-.232 1.405-.588.248-.304.39-.643.39-1.233V19.222h.09S39.6 35.543 39.973 36.15c.515.857 1.386 1.5 2.631 1.5h2.828c.675 0 1.102-.232 1.405-.588.248-.304.39-.643.39-1.233V15.097h37.146c.375 0 .658-.106.872-.284.231-.216.338-.502.338-.93v-1.57c0-.43-.107-.716-.338-.93-.214-.178-.497-.285-.872-.285H43.831c-.675 0-1.102.232-1.405.59Zm16.218 6.142c-6.17 0-9.639 4.84-9.639 9.947 0 5.446 3.718 10.232 9.674 10.232 2.97 0 5.886-1.125 7.557-3.108.73-.856 1.316-2.053 1.316-2.785 0-.25-.054-.464-.195-.625-.142-.178-.356-.286-.73-.286h-2.862c-.57 0-.96.214-1.245.643-.836 1.232-2.045 1.875-3.823 1.875-2.668 0-4.392-2.036-4.517-4.268h12.377c.55 0 .941-.125 1.209-.392.302-.286.444-.697.444-1.465 0-2.339-.73-4.767-2.258-6.625-1.565-1.875-3.948-3.143-7.308-3.143Zm19.079 0c-4.872 0-8.072 2.322-8.072 6.036 0 1.321.48 2.393 1.262 3.232.907.983 2.205 1.661 4.09 2.143l4.072 1.035c1.12.286 2.115.625 2.115 1.607 0 1.519-1.6 2.036-3.306 2.036-.837 0-1.707-.16-2.42-.517a3.018 3.018 0 0 1-1.225-1.09c-.268-.41-.356-.715-.765-.946-.25-.143-.552-.16-.96-.16h-2.206c-.48 0-.71.142-.87.338-.16.196-.215.482-.215.768 0 .714.25 1.607.837 2.41 1.35 1.822 4.179 3.287 7.787 3.287 3.558 0 8.483-1.483 8.483-6.269 0-1.23-.356-2.285-1.014-3.142-.835-1.089-2.026-1.84-4.054-2.357l-4.036-1.036c-1.672-.428-2.454-.732-2.454-1.768 0-1 .89-1.803 2.95-1.803 1.21 0 2.313.268 3.025 1.018.586.626.48.947.942 1.196.284.143.604.143 1.103.143h2.009c.32 0 .552-.053.728-.25.144-.161.232-.41.232-.821 0-.93-.605-2.125-1.671-3.036-1.423-1.233-3.663-2.054-6.367-2.054Zm11.078.68h-.995c-.373 0-.658.106-.87.284-.233.216-.34.502-.34.93v1.232c0 .429.107.713.34.929.212.178.497.285.87.285h.995v8.91c0 2.285.623 3.714 1.778 4.858 1.068 1.052 2.455 1.713 4.873 1.713h1.511c.374 0 .658-.106.872-.285.23-.215.373-.5.373-.929v-1.553c0-.43-.142-.714-.373-.93-.214-.178-.498-.285-.872-.285h-.213c-.96 0-1.618-.25-2.063-.678-.533-.5-.8-1.268-.8-2.268v-8.553h3.237c.373 0 .658-.107.871-.285.23-.216.338-.5.338-.93v-1.232c0-.428-.107-.713-.338-.929-.213-.178-.498-.284-.87-.284h-3.22v-5.822c0-.465-.143-.804-.356-1.07-.267-.322-.64-.52-1.19-.52h-2.01c-.552 0-.925.198-1.192.52-.213.266-.356.605-.356 1.07v5.822ZM99.685 36.06c0 .464.14.803.355 1.071.266.322.64.518 1.191.518h2.116c.551 0 .924-.196 1.192-.518.213-.268.355-.607.355-1.071V12.688c0-.464-.142-.804-.355-1.072-.268-.321-.641-.518-1.192-.518h-2.116c-.551 0-.925.197-1.191.518-.214.268-.355.608-.355 1.072v23.373Zm-45.47-10.41c.231-2.197 1.903-3.84 4.446-3.84 2.49 0 4.214 1.643 4.446 3.84h-8.891Zm69.937-10.554c.373 0 .658-.106.871-.284.231-.216.339-.502.339-.93v-1.66c0-.643-.125-.965-.339-1.196-.196-.215-.516-.34-.871-.34-.285 0-.568.036-1.049.09l-14.191 1.41c-.408.035-.603.16-.746.321-.16.179-.231.412-.231.733v.928c0 .358.071.518.196.661.159.179.391.267.711.267h15.31Zm-7.842 2.732c-6.17 0-9.638 4.84-9.638 9.947 0 5.446 3.717 10.232 9.674 10.232 2.97 0 5.885-1.125 7.556-3.108.73-.856 1.317-2.053 1.317-2.785 0-.25-.054-.464-.196-.625-.142-.178-.356-.286-.729-.286h-2.863c-.569 0-.96.214-1.245.643-.835 1.232-2.045 1.875-3.823 1.875-2.667 0-4.392-2.036-4.516-4.268h12.412c.551 0 .943-.125 1.208-.392.303-.286.445-.697.445-1.465 0-2.339-.729-4.767-2.258-6.625-1.565-1.875-3.983-3.143-7.344-3.143Zm-4.428 7.821c.232-2.196 1.903-3.839 4.446-3.839 2.49 0 4.214 1.643 4.446 3.84h-8.892Z"/></g><defs><clipPath id="a"><path fill="#fff" d="M24.75 10.348h101.5v28H24.75z"/></clipPath></defs></svg>