<svg xmlns="http://www.w3.org/2000/svg" width="106" height="49" fill="none"><path fill="#292931" d="M43.487.898c-2.074 0-4.597.857-6.39 2.428-1.414 1.24-2.144 2.224-3.21 4.371h-.13V1.956H24.96v1.676h3.222v28.676h5.573V13.316c0-.715.569-2.446 1.516-4.077.888-1.527 2.125-2.957 3.073-3.63 1.443-1.025 2.88-1.705 4.58-1.538 3.442.337 3.673 4.506 3.673 7.12v21.117h5.574V10.602c-.055-2.827-.387-4.93-1.688-6.558-.714-.96-1.757-1.728-2.6-2.157-1.051-.534-2.737-.989-4.397-.989Zm12.59 1.058v30.352h5.577V20.005h13.45v12.303h5.573V1.956h-5.574v15.567H61.654V1.956h-5.577ZM41.208 38.943c-1.115 0-2.108.45-2.874 1.298-.826.918-1.264 2.192-1.264 3.68 0 1.474.437 2.743 1.26 3.676.762.842 1.756 1.286 2.878 1.286a3.792 3.792 0 0 0 2.878-1.283c.826-.918 1.264-2.19 1.264-3.68 0-1.474-.437-2.745-1.26-3.676a3.767 3.767 0 0 0-2.882-1.301Zm36.209 0c-1.711 0-2.86.95-2.86 2.359 0 1.422 1.038 2.104 2.71 2.74l.375.134c.573.21 1.111.41 1.596.76.344.246.534.647.534 1.126 0 .997-.85 1.668-2.111 1.668-1.307 0-2.159-.718-2.668-1.855l-.947.603c.59 1.562 1.872 2.42 3.63 2.42 1.98 0 3.364-1.179 3.364-2.863 0-.807-.318-1.491-.917-1.977-.633-.51-1.325-.769-1.996-1.023l-.313-.122c-1.527-.596-2.004-.9-2.004-1.65 0-.699.661-1.187 1.607-1.187.953 0 1.651.443 2.332 1.482l.993-.642.019-.023-.118-.183c-.775-1.188-1.83-1.767-3.226-1.767Zm-49.234.198v9.547H29.4v-4.355H34.1v4.355h1.23v-9.547H34.1v3.997h-4.7v-3.997h-1.217Zm17.45 0v1.206H48.4v8.341h1.252v-8.34h2.756V39.14h-6.775Zm8.066 0v9.547h5.512v-1.194h-4.29v-3.15h3.847v-1.19H54.92v-2.807h4.295v-1.206h-5.516Zm7.65 0v9.547h5.215v-1.194h-3.96V39.14H61.35Zm6.215 0v9.547h5.508v-1.194h-4.29v-3.15h3.851v-1.19h-3.851v-2.807h4.298v-1.206h-5.516Zm-26.356.997c.796 0 1.524.358 2.046 1.007.552.686.852 1.673.852 2.775 0 2.221-1.192 3.772-2.898 3.772-1.699 0-2.882-1.55-2.882-3.772 0-2.227 1.183-3.782 2.882-3.782Z"/></svg>