<svg xmlns="http://www.w3.org/2000/svg" width="208" height="49" fill="none"><g clip-path="url(#a)"><path fill="#292931" d="M92.98 27.93h10.555l-5.575-9.008-10.251 16.269h-4.662l12.468-19.519a2.972 2.972 0 0 1 4.848-.034l12.502 19.553h-4.661l-2.196-3.638h-10.68L93 27.93m48.437 3.623V14.598h-3.962v18.625a1.911 1.911 0 0 0 .588 1.386 2.004 2.004 0 0 0 1.441.603h18.009l2.348-3.638h-18.445m-65.482-3.049a6.96 6.96 0 0 0 6.96-6.963 6.965 6.965 0 0 0-6.96-6.964H58.618v20.593h3.955V18.243H75.69a3.331 3.331 0 0 1 2.356 5.69 3.33 3.33 0 0 1-2.356.976H64.533L76.349 35.19h5.742l-7.938-6.666h1.78Zm-41.642 6.666h11.962A10.29 10.29 0 0 0 56.28 24.898a10.298 10.298 0 0 0-10.026-10.293H34.292a10.289 10.289 0 0 0-9.75 6.291 10.3 10.3 0 0 0 5.73 13.59c1.28.5 2.646.74 4.02.705Zm11.692-3.624H34.555a6.662 6.662 0 0 1-6.448-6.662 6.667 6.667 0 0 1 6.448-6.662h11.429a6.66 6.66 0 0 1 6.35 4.062 6.668 6.668 0 0 1-6.35 9.262Zm75.144 3.624h12.212l2.313-3.624h-14.254a6.668 6.668 0 0 1-6.351-4.061 6.674 6.674 0 0 1 1.501-7.39 6.654 6.654 0 0 1 4.85-1.873H133l2.341-3.638h-14.213a10.293 10.293 0 0 0-9.75 14.295 10.296 10.296 0 0 0 9.75 6.291Zm48.395-3.624a6.67 6.67 0 0 1-6.414-4.85h16.915l2.327-3.63h-19.242a6.664 6.664 0 0 1 6.414-4.85h11.609l2.32-3.638h-14.199a10.291 10.291 0 0 0-10.026 10.292 10.297 10.297 0 0 0 10.026 10.293h12.211l2.321-3.624h-14.269"/></g><defs><clipPath id="a"><path fill="#fff" d="M24 14.403h160V35.19H24z"/></clipPath></defs></svg>