<svg xmlns="http://www.w3.org/2000/svg" width="196" height="49" fill="none"><path fill="#292931" fill-rule="evenodd" d="M53.18 10.488h10.385s7.854.121 7.854 8.937c0 8.39-8.025 8.937-8.025 8.937h-4.135v5.107h-6.08V10.488Zm6.079 12.646h2.432s3.222-.304 3.222-3.83c0-3.526-3.465-3.77-3.465-3.77H59.26l-.001 7.6Zm76.499-12.646h10.58s7.661.486 7.661 8.937c0 7.66-7.721 8.937-7.721 8.937h-4.439v5.107h-6.08l-.001-22.981Zm6.081 12.646h2.431s3.222-.304 3.222-3.83c0-3.526-3.465-3.77-3.465-3.77h-2.188v7.6ZM74.094 10.671h6.018v8.39h6.385v-8.39h5.775v22.8h-5.715v-9.243h-6.384v9.242h-6.08V10.671Zm23.863-.06h5.745v22.86h-5.745V10.61Zm26.507 0h5.746v22.86h-5.746V10.61Zm-15.107.06h5.774v17.387h6.263v5.412h-12.037V10.671Zm59.947-.244s-2.25-.304-4.316-.304c-3.163 0-8.695.851-8.757 7.418 0 0-.404 5.141 5.23 6.566 5.289 1.337 4.103 2.402 4.256 2.553 0 0 .122 1.64-3.892 1.64-4.013 0-4.924-.729-4.924-.729v5.35s.925.406 4.864.73c5.167.425 10.092-1.818 10.092-7.356 0-2.188-1.095-5.715-6.14-6.931-3.228-.778-3.673-1.7-3.648-2.128 0 0-.143-1.844 3.526-1.763 3.404.075 3.769.547 3.769.547l-.06-5.593ZM34.24 38.122c-6.944 0-10.097-5.848-10.097-10.423V10.466h20.66v17.233c0 4.575-3.403 10.423-10.347 10.423h-.216Zm.127-.594c6.533 0 9.828-5.531 9.828-9.835V11.059H24.75v16.634c0 4.304 3.062 9.835 9.595 9.835h.022Z" clip-rule="evenodd"/><path fill="#292931" fill-rule="evenodd" d="M25.253 27.784a9.219 9.219 0 1 1 18.438 0 9.219 9.219 0 0 1-18.438 0Zm9.22 8.677a8.676 8.676 0 1 0 0-17.353 8.676 8.676 0 0 0 0 17.353Z" clip-rule="evenodd"/><path fill="#292931" fill-rule="evenodd" d="m30.197 20.089.519 2.878 2.878.518-2.878.52-.52 2.877-.518-2.878-2.878-.519 2.878-.518.519-2.878Z" clip-rule="evenodd"/><path fill="#292931" fill-rule="evenodd" d="m32.354 19.158.33 1.828 1.828.33-1.828.33-.33 1.828-.33-1.829-1.828-.329 1.828-.33.33-1.828Zm6.458 16.394-.519-2.879-2.877-.519 2.877-.519.52-2.877.518 2.878 2.878.518-2.878.519-.519 2.879Z" clip-rule="evenodd"/><path fill="#292931" fill-rule="evenodd" d="m36.655 36.483-.33-1.827-1.829-.33 1.829-.33.33-1.828.33 1.828 1.828.33-1.829.33-.329 1.827Zm6.413-9.944s-1.199.551-2.11.551c-.91 0-1.94-.526-1.94-.526s-1.127-.672-2.468-.672c-1.15 0-2.182.694-2.182.694s-1.198.552-2.204.552c-1.007 0-1.893-.552-1.893-.552s-.983-.694-2.325-.694-2.13.61-2.13.61l-.05.684s.838-.63 2.18-.63 2.325.695 2.325.695.886.551 1.893.551c1.006 0 2.204-.55 2.204-.55s1.032-.696 2.182-.696c1.342 0 2.468.671 2.468.671s1.03.528 1.94.528c.911 0 2.181-.593 2.181-.593l-.071-.623Zm.088 2.037s-1.286.606-2.196.606c-.91 0-1.941-.528-1.941-.528s-1.127-.67-2.468-.67c-1.15 0-2.182.694-2.182.694s-1.198.551-2.204.551c-1.007 0-1.894-.551-1.894-.551s-.982-.695-2.324-.695c-1.342 0-2.213.618-2.213.618l.032.676s.839-.63 2.181-.63 2.324.696 2.324.696.887.55 1.894.55c1.006 0 2.204-.55 2.204-.55s1.031-.695 2.182-.695c1.342 0 2.468.671 2.468.671s1.03.527 1.94.527c.911 0 2.181-.593 2.181-.593l.016-.677Z" clip-rule="evenodd"/><path fill="#292931" fill-rule="evenodd" d="M43.18 27.523s-1.31.615-2.22.615c-.91 0-1.94-.528-1.94-.528s-1.127-.672-2.468-.672c-1.15 0-2.182.696-2.182.696s-1.198.551-2.204.551c-1.007 0-1.894-.551-1.894-.551s-.982-.696-2.324-.696c-1.342 0-2.213.633-2.213.633l.032.662s.839-.63 2.18-.63c1.343 0 2.325.696 2.325.696s.887.55 1.894.55c1.006 0 2.204-.55 2.204-.55s1.031-.695 2.182-.695c1.342 0 2.468.671 2.468.671s1.03.527 1.94.527c.91 0 2.245-.632 2.245-.632l-.024-.647ZM25.589 13.148h1.602s1.16.074 1.16 1.353c0 1.16-1.17 1.354-1.17 1.354h-.671v.773h-.921v-3.48Zm.92 1.914h.368s.488-.046.488-.58c0-.533-.525-.57-.525-.57h-.331v1.15Zm11.583-1.914h1.602s1.16.074 1.16 1.353c0 1.16-1.17 1.354-1.17 1.354h-.671v.773h-.92v-3.48Zm.92 1.914h.37s.487-.046.487-.58c0-.533-.525-.57-.525-.57h-.331v1.15Zm-10.256-1.886h.91v1.27h.967v-1.27h.875v3.452h-.865v-1.4h-.967v1.4h-.92v-3.452Zm3.609-.01h.874v3.462h-.865l-.01-3.462Zm4.013 0h.875v3.462h-.866l-.009-3.462Zm-2.283.01h.875v2.632h.948v.82h-1.823v-3.452Zm9.076-.037s-.34-.046-.653-.046c-.479 0-1.317.129-1.326 1.123 0 0-.06.778.792.994.801.202.621.363.644.386 0 0 .018.248-.59.248-.607 0-.745-.11-.745-.11v.81s.14.061.737.11c.782.065 1.528-.275 1.528-1.114 0-.331-.166-.865-.93-1.049-.489-.118-.58-.257-.553-.322.03-.068.019-.267.534-.267.516 0 .571.083.571.083l-.009-.846Z" clip-rule="evenodd"/></svg>