<svg xmlns="http://www.w3.org/2000/svg" width="205" height="49" fill="none"><g clip-path="url(#a)"><mask id="b" width="182" height="49" x="11" y="0" maskUnits="userSpaceOnUse" style="mask-type:luminance"><path fill="#fff" d="M11.98.016h180.97V48.02H11.98V.016Z"/></mask><g mask="url(#b)"><path fill="#292931" d="M172.987 22.56v3.268h2.299v3.241c.007.29-.009.602-.059.852-.091.605-.666 1.634-2.298 1.634-1.623 0-2.187-1.03-2.285-1.634a5.45 5.45 0 0 1-.059-.852V18.831c0-.362.024-.758.101-1.059.112-.545.596-1.621 2.231-1.621 1.716 0 2.144 1.134 2.242 1.621.065.323.068.865.068.865v1.243h5.65v-.735s.026-.767-.043-1.483c-.424-4.202-3.892-5.531-7.868-5.531-3.983 0-7.38 1.341-7.874 5.531-.045.383-.113 1.073-.113 1.483v9.418c0 .41.013.728.089 1.477.369 4.087 3.915 5.535 7.883 5.535 3.991 0 7.514-1.448 7.889-5.535.066-.75.073-1.067.082-1.477V22.56h-7.935Zm-38.956-9.827h-5.674v16.572c.009.29 0 .614-.049.851-.119.557-.591 1.627-2.156 1.627-1.545 0-2.03-1.07-2.139-1.627-.057-.237-.064-.562-.057-.85V12.732h-5.672v16.058c-.007.414.025 1.26.05 1.481.391 4.184 3.694 5.543 7.818 5.543 4.132 0 7.432-1.358 7.831-5.543a11.86 11.86 0 0 0 .048-1.481V12.733Zm-52.13 0-2.83 17.51-2.829-17.51H67.09l-.485 22.401h5.607l.152-20.737 3.857 20.737h5.689l3.861-20.737.152 20.737h5.621l-.501-22.4H81.9Zm-33.885 0-4.155 22.401h6.06l3.131-20.737 3.056 20.737h6.018l-4.138-22.4h-9.972ZM153.86 30.77l-5.283-18.036h-8.325v22.168h5.507l-.319-18.613 5.673 18.613h7.984V12.733h-5.543l.306 18.036Zm-50.94-12.206a3.025 3.025 0 0 1-.019-1.158c.161-.717.643-1.5 2.033-1.5 1.296 0 2.056.807 2.056 2.018v1.37h5.53V17.73c0-4.826-4.333-5.585-7.471-5.585-3.951 0-7.178 1.301-7.768 4.933-.156.988-.194 1.866.054 2.985.96 4.529 8.855 5.842 10.001 8.706.203.543.145 1.234.042 1.642-.172.745-.674 1.495-2.163 1.495-1.396 0-2.236-.802-2.236-2.01l-.002-2.15h-5.953v1.71c0 4.951 3.885 6.446 8.068 6.446 4.007 0 7.316-1.368 7.847-5.074.253-1.915.062-3.162-.04-3.632-.927-4.644-9.342-6.041-9.979-8.634Zm-72.957-.055a2.78 2.78 0 0 1-.023-1.177c.153-.713.639-1.51 2.053-1.51 1.312 0 2.085.815 2.085 2.035v1.387h5.596v-1.574c0-4.873-4.4-5.65-7.572-5.65-3.985 0-7.24 1.321-7.836 4.98-.163 1.004-.191 1.887.044 3.019.972 4.58 8.945 5.904 10.104 8.802.218.539.152 1.23.044 1.654-.184.753-.69 1.513-2.19 1.513-1.402 0-2.24-.815-2.24-2.04l-.008-2.155h-6.02v1.713c0 5.008 3.94 6.515 8.155 6.515 4.053 0 7.382-1.38 7.925-5.129.27-1.932.068-3.19-.024-3.666-.946-4.702-9.454-6.095-10.093-8.717Z"/></g></g><defs><clipPath id="a"><path fill="#fff" d="M24 12.021h156.923v24H24z"/></clipPath></defs></svg>