<svg xmlns="http://www.w3.org/2000/svg" width="96" height="49" fill="none"><g clip-path="url(#a)"><path fill="#292931" d="M24 24.226C24 11.384 34.745.973 48 .973s24 10.41 24 23.253c0 12.842-10.745 23.252-24 23.252s-24-10.41-24-23.252Z"/><path fill="#fff" d="M24.709 24.226c0-12.462 10.429-22.566 23.29-22.566 12.862 0 23.291 10.104 23.291 22.566 0 12.461-10.429 22.571-23.29 22.571-12.862 0-23.291-10.104-23.291-22.571Z"/><path fill="#292931" d="M25.466 24.226C25.466 12.167 35.555 2.393 48 2.393c12.446 0 22.535 9.774 22.535 21.833 0 12.058-10.09 21.833-22.535 21.833s-22.534-9.775-22.534-21.833Z"/><path fill="#fff" d="M34.071 24.135c0-7.429 6.214-13.444 13.876-13.444 7.662 0 13.876 6.02 13.876 13.444 0 7.424-6.214 13.444-13.876 13.444-7.662 0-13.876-6.02-13.876-13.444ZM40.63 11.05c-.673-1.597-1.506-3.471-2.115-4.97.768-.313 1.794-.739 2.65-1.091.79-.33 1.828-.313 2.532.386.352.38.492.966.451 1.335-.04.33-.17.625-.416.931.563.5 1.301 1.17 1.929 1.738l-1.847.386c-.627-.488-.967-.744-1.518-1.187-.217.091-.393.16-.622.25l.669 1.437-1.718.773m.956-4.85c-.323.13-.68.278-.956.391.158.352.293.63.504 1.074l.956-.392c.205-.137.217-.466.123-.699-.135-.278-.422-.437-.627-.375ZM62.11 9.191c.328.398.557.886.703 1.391-.41.21-.727.41-1.113.625-.1-.585-.428-1.181-1.026-1.476-.282-.16-.704-.188-1.026-.086a1.926 1.926 0 0 0-1.114 1.074c-.164.466.023.914.293 1.278.381.414.885.63 1.466.653a40.76 40.76 0 0 1-.645.994c-.956-.13-1.853-.642-2.398-1.5-.469-.726-.498-1.845-.088-2.607.428-.84 1.278-1.38 2.199-1.505 1.031-.108 2.098.387 2.749 1.165M65.036 12.53c-.51.37-1.155.83-1.66 1.2.786.084 1.73.175 2.545.266.3.534.545.983.88 1.573l-2.932-.204c-.58 1.017-1.143 1.982-1.7 2.953-.34-.482-.604-1.107-.938-1.641.375-.716.81-1.556 1.184-2.255-.597.426-1.19.858-1.811 1.306l-1.073-1.385 4.415-3.187 1.078 1.38M29.692 17.358c-.603.454-1.031 1.113-.908 1.869.023.113.111.295.299.318.48.028.691-.489.873-.83.282-.539.768-1.18 1.466-1.249.598-.034 1.102.114 1.489.568.598.693.486 1.806.205 2.607-.264.596-.674 1.198-1.26 1.59l-1.056-.625c.575-.386 1.179-1.022 1.26-1.732 0-.255-.058-.596-.38-.625-.551-.022-.739.972-1.202 1.42-.352.352-.792.614-1.348.54-.516-.029-.956-.34-1.26-.738-.575-.852-.294-2.096.058-2.75.217-.369.469-.738.82-1.022.294.205.616.438.938.653M67.903 18.096c.51.796.703 1.846.44 2.806l-1.085-.056c.146-.637.252-1.426-.206-1.954-.134-.16-.38-.256-.55-.17-.593.46.029 1.482-.317 2.317-.158.397-.34.67-.827.857-.615.227-1.371.114-1.84-.34-.915-.926-1.349-2.363-.763-3.573H63.9c-.194.477-.329 1.142-.147 1.704.1.238.217.54.498.625.92.096.346-1.33.51-1.892.112-.426.358-.909.833-1.113.88-.415 1.905.057 2.31.795M37.706 35.278c.146.267.293.506.393.898-.329.159-.739.352-1.097.522-.088-.625-.656-1.232-1.29-1.397-.527-.13-1.101.113-1.494.568-.323.369-.416.897-.323 1.357.141.54.944 1.108 1.665 1.125h.206c-.212.426-.34.681-.528 1.028-1.178-.04-2.368-.71-2.808-1.812-.381-.897-.211-2.062.38-2.806.722-.886 1.871-1.136 2.985-.909.797.182 1.454.75 1.9 1.42M41.833 38.169c.598.738.604 1.88.235 2.72-.416.852-1.208 1.398-2.081 1.59-1.056.16-2.046-.17-2.808-.88-.675-.72-1.044-1.749-.704-2.749.3-1.084 1.395-1.88 2.515-2.016 1.16-.068 2.234.454 2.837 1.33m-1.84.09c-.417-.187-.897-.04-1.231.227-.546.517-.903 1.227-.686 1.982.093.307.404.546.709.665.445.159.885.023 1.237-.273.533-.528.92-1.266.586-2.01-.076-.245-.363-.523-.615-.597M52.25 40.05c-.82.114-1.6.21-2.38.33.03.351.053.647.076.942.733-.096 1.39-.187 2.07-.284l.21 1.25c-.68.096-1.477.21-2.174.306.035.546.093 1.244.14 1.846-.586.046-1.172.08-1.77.114l-.357-5.333a61.912 61.912 0 0 0 3.968-.494c.07.403.135.806.217 1.323ZM56.787 37.817l-2.11 1 .37.84 1.863-.83c.14.308.305.66.47 1.012-.61.278-1.244.54-1.877.824.13.284.211.47.416.92l2.299-1.034.498 1.09c-1.33.591-2.773 1.233-4.028 1.767l-1.975-4.873a55.162 55.162 0 0 0 3.629-1.687c.146.295.451.97.451.97M47.273 40.532c-.815-.13-1.589-.273-2.374-.386-.088.363-.164.766-.24 1.045.726.125 1.307.215 2.063.34l-.194 1.216c-.697-.114-1.436-.222-2.169-.352-.14.54-.275 1.175-.433 1.772a95.19 95.19 0 0 1-1.724-.42l1.33-5.237a61.85 61.85 0 0 0 3.893.693c-.046.403-.105.857-.158 1.329"/><path fill="#292931" d="M61.554 46.218c0-.96.797-1.743 1.788-1.743.99 0 1.782.783 1.782 1.743 0 .96-.792 1.75-1.782 1.75-.991 0-1.788-.784-1.788-1.75Zm3.353 0c0-.846-.704-1.533-1.565-1.533-.862 0-1.571.687-1.571 1.533 0 .847.697 1.54 1.57 1.54.874 0 1.566-.688 1.566-1.54Zm-.68.983h-.287l-.569-.903h-.451v.903h-.24v-1.954h.867c.17 0 .334.006.486.097.153.08.223.255.223.42 0 .38-.275.528-.633.534l.604.903Zm-.932-1.09c.281 0 .715.045.715-.353 0-.3-.27-.34-.516-.34h-.569v.692h.376-.006Z"/><path fill="#fff" d="m31.668 11.52 1.167.664-.862 1.357 3.377 2.153-.891 1.409-3.436-2.068-.82 1.295-1.132-.732 2.597-4.079ZM35.191 9.844l.727 1.63.827-.71-1.554-.92Zm-1.846-.085 2.087-1.704 5.047 3.067-1.454.931-1.114-.568-1.407 1.193.487 1.136-1.272 1.38-2.374-5.441v.006ZM50.216 4.323c.381.33.457.87.393 1.239-.076.335-.305.67-.616.908.381.273.75.517.833 1.045.1.512-.053.92-.34 1.278-.592.654-1.495.54-2.357.568h-2.31l-.017-.198-.24-5.112h2.673c1.495 0 1.7.09 1.97.272m-1.76.722h-.99c.012.318.03.693.047 1.005h.99c.358-.023.364-.37.364-.494-.012-.17-.053-.46-.41-.506m.093 1.994h-.99c.011.318.03.755.04 1.068h.992c.357-.023.363-.398.363-.534-.012-.165-.053-.489-.41-.534M46.88 16.773c.598.051 1.407.057 2.046-.011l-1.032-.739-1.008.744M65.054 27.884h-1.742l1.36 1.057-.486 1.613 1.512-.91 1.519.91-.487-1.619 1.349-1.05h-1.73l-.65-1.563-.645 1.562ZM29.587 27.884H27.84l1.366 1.057-.487 1.613 1.513-.91 1.518.91-.487-1.619 1.349-1.05h-1.73l-.65-1.563-.645 1.562ZM60.556 34.767 58.81 36.29l.592.71c.545-.448 1.002-.829 1.553-1.289.223.256.48.551.733.846-.504.426-1.038.852-1.565 1.295.199.233.334.398.662.773l1.917-1.608.791.915a271.909 271.909 0 0 1-3.37 2.777l-3.295-4.163a50.408 50.408 0 0 0 3.02-2.59c.228.244.709.807.709.807M53.258 7.965c-.193.483-.27.846.563 1.107.452.142.733-.056.927-.545l1.242-2.953 1.753.744-1.172 2.85c-.64 1.62-1.636 1.83-3.342 1.21-1.905-.692-2.356-1.533-1.776-2.998l1.09-2.937 1.835.585-1.12 2.937Z"/><path fill="#292931" d="m46.892 23.34.03.17c.38.244.498.659 1.026.625.469.028.82-.398 1.055-.738-.633-.086-1.401.045-2.105-.057h-.006Zm13.93 1.278c-1.513.58-2.51-.892-3.952-.88-.182-.21-.235-.46-.322-.71 1.63-.512 2.702 1.766 4.296.596-.123-1.92-.545-3.72-1.46-5.328-.955-1.834-2.72-3.64-4.566-4.737-3.47-2.38-9.127-2.55-12.815-.51-4.127 2.032-6.612 6.162-6.935 10.433 0 0-.04.142.117.227 1.566.812 2.556-.966 4.069-.767.393.085.04.404-.059.625-.117.284-.545.12-.791.227-1.038.438-2.099 1.272-3.306.824a116.849 116.849 0 0 0 .088 1.102c1.354.414 2.233-.955 3.511-.796-.03.273-.047.568-.205.767-1.173.057-1.9 1.125-3.13 1.051l.234.909c1.032.136 1.747-.954 2.808-.852l-.03.681c-.937.085-1.541.938-2.485.994.129 2.096 1.63-.318 2.573.085.036.228.176.444.088.682-.762-.011-1.236.63-1.905.852.117.267.194.642.498.738.563-.227 1.026-.71 1.7-.681a2.81 2.81 0 0 1-.117-.795c.85.215 1.337-.426 1.929-.796.135-1.164.979-2.05 1.495-3.06.094-.205.076-.455.07-.665-.023-1.233-.71-2.454-.205-3.71.188-.488.528-1.152 1.073-1.294-1.008 1.164-.827 2.942-.293 4.254.058.148.146.517.134.75-.046 1.039-1.043 1.828-1.424 2.766-.475.937-.035 2.005.498 2.777-.768.58-1.782 1.505-2.485 1.335-.282-.13-.293-.511-.44-.767-.598-.114-1.073.284-1.553.568l.556.681c.41-.187 1.015-.647 1.343-.312.692.795-.674.398-.85.88.193.256.428.444.674.654.281-.085.61-.347.85-.256.076.029.293.324.352.511l-.528.313c.381.38.856.738 1.32.908.269-.886.99-1.607 1.342-2.436.146-.426.175-.744.175-1.023.985 1.483-1.084 2.363-1.084 3.772.217.187.475.295.733.397-.041-1.101.914-1.811 1.319-2.749.733-1.482-.956-2.408-1.495-3.6-.51-1.08.205-2.09.903-2.892.486-.51.615-1.01.574-1.516-.1-1.136-1.008-2.215-.686-3.556.205-.823.61-1.743 1.454-2.073-.615.688-.938 1.494-.996 2.409-.094 1.363.861 2.107.92 3.214.012.222.012.449-.1.693-.475 1-1.56 1.76-1.547 2.948-.13 1.573 1.987 2.164 1.753 3.771-.018 1.398-1.677 2.17-1.32 3.687l.91.283c-.517-1.698 1.306-2.646 1.318-4.168.088-1.284-1.337-1.954-1.694-3.062-.381-1.096.446-1.976 1.079-2.806.31-.471.387-.914.334-1.346-.123-1.068-1.02-2.073-.98-3.243-.017-1.08.47-2.136 1.437-2.635-.293.403-.621.795-.791 1.244-.604 1.59.41 2.947.908 4.31.041.114.065.222.082.324.188 1.261-1.143 2.068-1.395 3.22-.346 1.398 1.208 2.04 1.548 3.204.733 1.897-1.642 3.005-1.085 4.902.13.494.663.431 1.026.454-.88-1.568.534-2.862.967-4.226.475-1.454-.955-2.277-1.553-3.402-.622-1.266.803-2.05 1.114-3.118.264-.727.89-.125 1.389-.125.616 0 1.448-.545 1.595-.074.246.966 1.395 1.556 1.4 2.607-.04 1.625-2.467 2.477-1.7 4.254.634 1.239 1.718 2.658.997 4.084l.903-.199c.604-1.465-.551-2.635-1.055-3.771-.487-1.352.732-2.363 1.465-3.402.733-1.193-.422-2.29-1.055-3.26a1.789 1.789 0 0 1-.21-1.148c.11-.778.662-1.5.914-2.226.533-1.238.234-2.778-.763-3.715l.03-.028c.498.284.944.784 1.172 1.278.856 1.664-.37 3.135-.668 4.691-.018.074-.023.25-.035.307.035.863.903 1.494 1.348 2.368.75 1.415-.574 2.42-1.319 3.488-1.196 1.993 1.67 3.17 1.085 5.163l.879-.284c.223-1.068-.627-1.931-1.143-2.806-.739-1.454.586-2.579 1.342-3.686.75-1.255-.498-2.545-1.172-3.601a1.485 1.485 0 0 1-.264-.954c.035-.62.422-1.222.645-1.773.504-1.323.152-2.93-.733-3.913.592.239 1.073.875 1.266 1.414.58 1.443-.181 2.812-.463 4.135 0 .04-.017.102-.011.13-.042 1.216 1.236 1.977 1.582 3.113.346 1.17-.55 2.034-1.196 2.835-1.653 2.044.968 3.044.938 4.765.252-.102.587-.154.733-.398-.123-.954-.967-1.624-1.319-2.493-.14-.437-.117-.926.176-1.25l.059.057c-.106 1.386 1.143 2.232 1.524 3.43.27-.124.838-.5 1.26-.88a2.082 2.082 0 0 0-.527-.312c-.1-.21.187-.403.322-.596l.82.284c.241-.216.452-.387.675-.67a2.547 2.547 0 0 0-.997-.41c-.011-.215.117-.386.264-.54.498-.022.885.205 1.29.398.152-.142.434-.437.55-.692l-1.078-.529c-.756-.38-.527.523-.88.739-.984-.04-1.688-.71-2.432-1.307.053-.323.41-.75.557-1.187.428-1.391-.715-2.442-1.348-3.544a1.567 1.567 0 0 1-.217-.812c0-.75.445-1.5.533-2.283.135-1.028-.27-1.983-.668-2.806.275.165.51.272.733.653.545 1.04.727 2.38.205 3.6-.158.37-.164.575-.147.836.082 1.306 1.595 2.22 1.612 3.618.587.426 1.114 1.136 1.9.909.058.272-.082.5-.088.823.703-.04 1.172.472 1.782.653.147-.25.399-.494.381-.766-.692-.2-1.19-.858-1.964-.875l.147-.653c.809-.023 1.43.647 2.192.829.229-.221.323-.545.41-.858-.932-.142-1.612-.908-2.544-1.05.012-.284-.082-.506.024-.699.885 0 1.278.596 2.31.903.633.165.703-.619.75-.88-1.237.045-2.029-1.074-3.23-1.113l-.147-.71c1.296-.205 2.21 1.158 3.547.789a5.15 5.15 0 0 0 .053-.92v-.21h.023Zm-19.311-4.34c-.498.472-1.102 1.046-1.46 1.648-1.22-.239-2.198.454-3.218.852-.352.107-.903.113-1.231-.142.967-1.54 2.333-2.96 1.987-4.987-.041-.245.293-.029.41.028.75.568 1.114 1.352 1.202 2.21.944-.347 2.234-.955 3.248-.313-.317.227-.633.454-.938.71v-.006Zm4.215.284c.457-.102.973.029 1.202.37v.113c-.335-.028-.868-.352-1.173.057-.193.085-.217-.125-.217-.256 0-.164.065-.255.188-.284Zm4.602-.948c.052.12.187.318.082.5-.575-.17-1.466-.051-1.782.142-.499.357-.417 1.096-.294 1.618l.147.114c.246-.057.252-.358.469-.426.363.085.862.21 1.196 0 .305.011.358.432.322.625-.217 1.096-.691 2.289-1.84 2.806-.481.227-1.284.062-1.548-.086-1.131-.653-1.764-1.948-1.641-3.118a.29.29 0 0 1 .44-.199c.457.301.955-.238 1.377.142.504-.215.205-.823.205-1.272-.41-.511-1.114-.437-1.73-.397-.287-.097 0-.438.089-.597.662-.909 1.934-.926 3.042-.79.516.063 1.15.404 1.471.95l-.005-.012Zm-.036 1.488c-.369-.142-.885-.34-1.26-.057-.21-.443.381-.352.586-.483.3-.011.651-.017.792.228.012.056.017.244-.117.312Zm2.545-1.931c-.985-.358-2-.795-3.101-.966-2.351-.386-4.614.114-6.554 1.023-.165-.955-.645-1.784-1.232-2.579.27-.159.81.057 1.144.17.34.12.586.228.879.341.059-.568-.281-1.124-.528-1.647.223-.12.428-.028.616.028.768.284 1.46.727 2.163 1.13l.645-1.527-1.196-1.045c-.135-.12-.147-.114-.047-.12.158-.01 1.63-.085 1.63-.085s.686-1.442.697-1.46c0-.016.018 0 .018 0l.698 1.432s1.623.09 1.67.09c.047 0 0 .035 0 .035l-1.283 1.181.61 1.437c.884-.494 1.764-1.13 2.837-1.198-.06.312-.481 1.085-.493 1.681.563-.227 1.266-.574 1.987-.54-.345.58-1.102 1.608-1.143 2.608l-.017.01Zm.703.511c.053-.284.504-.33.82-.37.886-.062 1.63.262 2.34.626.076-.37.2-.66.293-.994.234-.557.692-1.125 1.29-1.363.152-.052.21.085.176.284-.382 1.93.984 3.288 1.899 4.765-1.055.681-2.046-.37-3.042-.625a3.868 3.868 0 0 0-1.372-.057c-.604-.909-1.413-1.76-2.398-2.266h-.006Zm-6.114 2.891c.017.08-.053.187.058.227.311-.068.88.16 1.056-.199-.246-.26-.803-.238-1.114-.028Zm-.645-5.725c-.146.096.012.21.088.284.633-.046 1.465-.102 2.192-.029l.147-.142c-.37-.352-.856-.681-1.319-.937l-1.114.824h.006Z"/></g><defs><clipPath id="a"><path fill="#fff" d="M24 .97h48v47H24z"/></clipPath></defs></svg>