<svg xmlns="http://www.w3.org/2000/svg" width="208" height="49" fill="none"><g clip-path="url(#a)"><path fill="#292931" d="M66.01 2.252H24v42h42.01v-42ZM165.119 24.558l2.357-6.178 2.354 6.178h-4.711Zm4.804-9.687h-4.895l-6.84 16.754h4.24l1.558-4.089h6.978l1.558 4.089h4.239l-6.838-16.754ZM135.4 28.712c-2.762 0-4.998-2.491-4.998-5.565 0-3.075 2.236-5.568 4.998-5.568 2.758 0 4.996 2.493 4.996 5.568 0 3.074-2.238 5.565-4.996 5.565Zm0-14.415c-4.89 0-8.853 3.962-8.853 8.85 0 4.887 3.963 8.848 8.853 8.848 4.887 0 8.852-3.96 8.852-8.848 0-4.888-3.965-8.85-8.852-8.85Zm-34.93 14.415c-2.757 0-4.994-2.491-4.994-5.565 0-3.075 2.237-5.568 4.994-5.568 2.761 0 4.998 2.493 4.998 5.568 0 3.074-2.237 5.565-4.998 5.565Zm0-14.415a8.848 8.848 0 0 0-8.848 8.85 8.847 8.847 0 0 0 8.848 8.848c4.888 0 8.852-3.96 8.852-8.848 0-4.888-3.964-8.85-8.852-8.85Zm21.879.574-4.337 6.779-4.34-6.779h-4.243l6.715 10.507v6.247h3.734v-6.246l6.713-10.508h-4.242Zm36.731 0h-14.327v3.213h5.307v13.541h3.737V18.084h5.284V14.87h-.001Zm-82.568 3.213h5.308v13.54h3.736v-13.54h5.285V14.87H76.51v3.213Z"/><path fill="#fff" d="M45.004 13.715c-7.932 0-14.003 4.09-14.003 9.534 0 5.266 5.916 9.535 14.003 9.535s14.004-4.269 14.004-9.535c0-5.445-6.072-9.534-14.004-9.534Zm8.732 4.09c.292 1.175-1.078 2.644-5.484 3.124-.294-2.993-1.181-5.522-2.653-6.058 1.981.056 3.86.39 5.497.985 1.531.577 2.483 1.314 2.64 1.948Zm-6.527 5.398c0 3.793-1.14 5.365-2.205 5.365-1.065 0-2.204-1.572-2.204-5.365v-.04c.708.06 1.445.092 2.204.092.76 0 1.497-.031 2.205-.091v.04Zm-2.206-2.114c-.742 0-1.43-.021-2.065-.06.334-2.48 1.223-3.922 2.066-3.922.843 0 1.732 1.442 2.067 3.922-.636.039-1.324.06-2.067.06Zm-8.731-3.285c.156-.63 1.099-1.363 2.616-1.94 1.643-.6 3.53-.937 5.522-.993-1.472.535-2.36 3.065-2.653 6.058-4.408-.48-5.777-1.95-5.485-3.125Zm-3.206 5.102c0-1.606.538-2.994 1.474-4.142.121 2.128 3.001 3.716 7.109 4.274v.165c0 5.137 1.316 7.86 2.776 8.422-6.27-.225-11.359-4.086-11.359-8.72Zm12.492 8.72c1.47-.587 2.803-3.508 2.803-8.423l-.001-.165c4.107-.558 6.988-2.146 7.109-4.274a6.42 6.42 0 0 1 1.474 4.142c0 4.64-5.104 8.505-11.385 8.72Z"/></g><defs><clipPath id="a"><path fill="#fff" d="M24 2.172h160V46.32H24z"/></clipPath></defs></svg>