<svg xmlns="http://www.w3.org/2000/svg" width="160" height="160" fill="none" xmlns:v="https://vecta.io/nano"><path d="M0 32C0 14.327 14.327 0 32 0h96c17.673 0 32 14.327 32 32v96c0 17.673-14.327 32-32 32H32c-17.673 0-32-14.327-32-32V32z" fill="#f5f5fa"/><g fill="#292931"><path d="M16 79.852c0-3.168.854-5.667 2.508-7.559 1.708-1.892 3.843-2.839 6.5-2.839.854 0 1.665.096 2.423.33.758.191 1.324.468 1.75.808l1.142.946c.331.33.566.563.715.808l.139.33h.096l-.096-1.318v-9.314h3.843v27.781h-3.65v-1.892l.043-1.318h-.096c-.043.096-.139.234-.235.383a15.87 15.87 0 0 1-.662.893c-.331.425-.758.808-1.238 1.138-.47.33-1.089.617-1.9.893-.811.287-1.665.383-2.562.383-2.701 0-4.835-.946-6.404-2.881C16.811 85.476 16 82.977 16 79.852zm3.939 0c0 2.169.523 3.87 1.569 5.199a5.05 5.05 0 0 0 4.077 1.935c1.612 0 2.989-.617 4.131-1.797 1.089-1.18 1.665-2.977 1.665-5.391 0-1.935-.47-3.594-1.473-4.965-.993-1.414-2.37-2.126-4.173-2.126-1.612 0-2.989.617-4.131 1.892-1.142 1.34-1.665 3.041-1.665 5.252zm18.359-13.928v-3.881h3.885v3.87h-3.885v.011zm.043 23.901V69.889h3.843v19.935H38.34zm9.68 3.592c1.665.893 3.512 1.318 5.497 1.318 1.9 0 3.416-.468 4.6-1.372 1.142-.893 1.751-2.318 1.751-4.253v-1.467l.043-1.276h-.096c-1.238 2.073-3.224 3.115-5.924 3.115s-4.889-.946-6.5-2.881-2.423-4.348-2.423-7.325c0-2.924.758-5.337 2.327-7.177S51 69.314 53.7 69.314a9.99 9.99 0 0 1 2.466.287c.758.191 1.377.425 1.804.755.427.287.811.617 1.142.893s.523.521.619.755l.192.287h.096c-.043-.191-.043-.383-.043-.617v-1.839h3.65V88.92c0 1.563-.288 2.977-.854 4.157-.566 1.233-1.324 2.169-2.327 2.839-.993.712-2.039 1.233-3.181 1.563S54.842 98 53.561 98a14.76 14.76 0 0 1-6.831-1.659l1.292-2.924zm6.586-7.134c1.569 0 2.85-.521 3.789-1.605.993-1.085 1.473-2.839 1.473-5.242 0-4.444-1.9-6.709-5.647-6.709-1.708 0-3.031.564-4.035 1.744-.95 1.18-1.42 2.786-1.42 4.816 0 2.073.523 3.774 1.569 5.05s2.466 1.946 4.27 1.946zm12.19-20.359v-3.881h3.885v3.87h-3.885v.011zm.043 23.901V69.889h3.843v19.935H66.84zm6.638-9.974c0-2.977.993-5.433 3.031-7.421 1.996-1.988 4.558-2.977 7.685-2.977 1.473 0 2.85.234 4.077.712 1.238.468 2.135.989 2.658 1.467l.758.712-1.804 2.69c-.139-.138-.384-.383-.715-.617-.288-.287-.95-.617-1.9-1.042a7.14 7.14 0 0 0-2.935-.617c-1.996 0-3.65.659-4.985 1.988-1.324 1.318-1.996 3.019-1.996 5.05s.662 3.732 1.996 5.103c1.323 1.372 3.031 2.031 5.07 2.031a8.19 8.19 0 0 0 3.181-.659c1.046-.425 1.751-.893 2.231-1.318l.715-.659 1.516 2.786-.331.33c-.139.138-.47.383-.95.755-.523.383-1.046.712-1.612.946-.566.287-1.323.521-2.231.755-.897.234-1.847.33-2.85.33-3.127 0-5.689-.989-7.685-2.924-1.921-1.892-2.925-4.391-2.925-7.421zm19.16 0c0-3.115.95-5.624 2.85-7.559s4.269-2.881 7.162-2.881c2.7 0 4.835.893 6.351 2.647 1.515 1.744 2.273 3.966 2.273 6.709l-.096 1.659H96.63c.096 2.073.811 3.732 2.135 4.87 1.28 1.138 2.892 1.701 4.739 1.701 1.046 0 2.038-.191 3.031-.564.993-.383 1.708-.755 2.178-1.138l.715-.563 1.569 2.786c-.192.191-.523.468-.95.808s-1.281.755-2.658 1.276c-1.324.521-2.7.808-4.131.808-3.127 0-5.646-.989-7.632-2.977-1.985-2.094-2.989-4.604-2.989-7.581zm4.088-2.307H107.4c-.043-1.659-.523-2.924-1.42-3.774s-2.039-1.276-3.362-1.276c-1.516 0-2.797.425-3.843 1.318-1.153.893-1.814 2.126-2.049 3.732zm17.302 12.28V69.889h3.704v3.445l-.096 1.51h.096c.469-1.51 1.281-2.786 2.369-3.732 1.142-.989 2.423-1.467 3.939-1.467l.993.096v3.774c-.331-.096-.715-.096-1.089-.096-1.238 0-2.37.425-3.416 1.276s-1.75 1.988-2.231 3.402c-.33 1.042-.469 2.222-.469 3.594v8.123l-3.8.011zm15.936-7.272v-9.303h-2.604v-3.073h2.7v-5.762h3.704v5.762h4.835v3.073h-4.835v8.835c0 .755.096 1.414.331 1.988.192.564.469.989.758 1.318s.661.563 1.046.755c.427.191.757.287 1.088.33l.993.096.897-.096v3.402l-1.324.096a19.45 19.45 0 0 1-1.804-.096c-.566-.096-1.238-.287-1.996-.564-.758-.33-1.377-.712-1.9-1.233s-.992-1.233-1.377-2.169a11.05 11.05 0 0 1-.512-3.36zM141.107 62c-1.611 0-2.892 1.276-2.892 2.881s1.281 2.881 2.892 2.881A2.87 2.87 0 0 0 144 64.881c0-1.605-1.281-2.881-2.893-2.881zm0 5.199a2.33 2.33 0 0 1-2.326-2.318 2.33 2.33 0 0 1 2.326-2.318 2.33 2.33 0 0 1 2.327 2.318 2.33 2.33 0 0 1-2.327 2.318z"/><path d="M140.115 66.444v-3.168h.992a1.75 1.75 0 0 1 .62.096c.149.053.288.191.384.33s.139.33.139.521-.043.383-.139.521-.235.287-.427.33c.043.043.043.096.096.138l.662 1.233h-.523l-.662-1.276h-.662v1.276h-.48zm.427-1.659h.662c.192 0 .33-.043.426-.138s.139-.234.139-.425c0-.234-.096-.383-.235-.468a1.01 1.01 0 0 0-.427-.096h-.523l-.042 1.127z"/></g></svg>