<svg xmlns="http://www.w3.org/2000/svg" width="160" height="160" fill="none" xmlns:v="https://vecta.io/nano"><style><![CDATA[.B{fill:#f5f5fa}.C{fill:#292931}.D{fill-rule:evenodd}]]></style><path d="M0 32C0 14.327 14.327 0 32 0h96c17.673 0 32 14.327 32 32v96c0 17.673-14.327 32-32 32H32c-17.673 0-32-14.327-32-32V32z" class="B"/><g class="C"><path d="M32.892 86.452c-.831.503-1.387 1.214-1.64 2.156a2.37 2.37 0 0 0-.096.622l.004 4.618c0 .215-.062.268-.271.268-3.253-.006-6.503.023-9.755-.021-1.101-.015-2.023-.85-2.288-1.972a2.97 2.97 0 0 1-.064-.684l-.008-22.804c-.004-1.529 1.165-2.579 2.366-2.654.091-.034.185-.017.279-.017h25.707c.094 0 .188-.013.279.013.215.043.439.058.643.13a2.47 2.47 0 0 1 1.672 1.811 3.27 3.27 0 0 1 .083.803l.002 22.702c0 1.37-.805 2.292-1.887 2.592-.145.045-.13-.058-.13-.141v-.867-3.621c0-.094.015-.187-.015-.279-.117-1.114-.663-1.966-1.6-2.565-.149-.096-.202-.192-.202-.364l-.006-3.391c-.023-.758-.041-1.521-.209-2.269-.392-1.744-1.517-2.822-3.142-3.429-.639-.239-1.31-.339-1.996-.388-.562-.04-1.12-.058-1.68-.028-1.001.053-1.992.175-2.94.532-1.472.556-2.388 1.604-2.797 3.112a7.56 7.56 0 0 0-.268 1.902c-.034.356-.013.711-.015 1.067l-.002 2.899c0 .092.026.188-.025.275v-.009zm98.555-11.016c.032.616.373 1.054.822 1.427.365.303.799.479 1.229.663l4.12 1.67c.945.452 1.825.984 2.481 1.825.563.724.903 1.544 1.059 2.441.1.582.168 1.169.155 1.762-.07 2.959-1.405 5.323-4.554 6.558-.862.339-1.761.535-2.681.648-.245.03-.488.025-.731.051h-2.102c-1.123-.006-2.22-.187-3.298-.477a15.82 15.82 0 0 1-1.823-.616c-.117-.047-.145-.117-.14-.232.019-.381.1-.754.179-1.123.176-.833.415-1.651.685-2.458.06-.177.118-.221.301-.145a14.17 14.17 0 0 0 2.705.837c.856.175 1.729.198 2.605.164.828-.032 1.625-.192 2.368-.564.838-.42 1.321-1.095 1.432-2.03a3.53 3.53 0 0 0 .002-.822c-.134-1.069-.773-1.751-1.7-2.211-.675-.334-1.386-.575-2.087-.846-1.234-.475-2.488-.905-3.596-1.651-.965-.65-1.64-1.531-2.002-2.624-.179-.541-.294-1.114-.285-1.696a5.82 5.82 0 0 1 0-1.022c.117-2.89 1.906-4.952 4.551-5.732.776-.228 1.568-.341 2.375-.405.733-.058 1.46-.041 2.184.017 1.205.096 2.392.311 3.548.69l.982.315c.171.047.209.096.183.294a9.5 9.5 0 0 1-.334 1.659l-.573 1.593c-.072.158-.155.134-.281.085-.603-.241-1.206-.492-1.845-.624-.677-.141-1.359-.256-2.055-.243-.288.006-.571-.083-.861-.051-.585.066-1.182.055-1.74.305-.782.347-1.205.937-1.284 1.781a3.91 3.91 0 0 0 0 .78l.006.006zM78.88 68.993c.569.021 1.133.096 1.698.16.064.006.128.036.19.055.051.087.026.183.026.275v22.361c0 .091.023.187-.026.275-.556.113-1.116.183-1.685.196-.405-.034-.809-.004-1.216-.017-.092-.002-.185.017-.277-.017a6.76 6.76 0 0 1-1.482-.16c-.03-.092-.015-.185-.015-.279V69.444c0-.094-.047-.2.045-.283l1.868-.17a4.41 4.41 0 0 1 .871 0l.004.002zm-38.825 10c.739.058 1.427.247 1.947.814.479.522.667 1.172.75 1.857l.058.707.015 2.309-.017 1.319c-.055.032-.115.021-.175.021h-6.371c-.051 0-.102.004-.151-.013-.055-.087-.028-.183-.028-.273v-3.34c0-.094.013-.187-.015-.279.119-1.28.375-2.369 1.702-2.899a3.1 3.1 0 0 1 1.039-.222c.415-.032.829-.028 1.244-.002h.002z"/><path d="M47.404 65.975l-.307.011H21.42c-.094 0-.187-.004-.281-.006.104-.055.217-.045.326-.045h25.613c.111 0 .221-.013.326.04z"/></g><path d="M76.141 69.162l-.021.407V91.74l-.008.381c-.055-.102-.04-.215-.04-.326V69.499c0-.115-.032-.241.072-.337h-.002zm9.218.034l.008.432.002 22.487c-.077-.077-.051-.175-.051-.266V69.466c0-.092-.017-.187.041-.273v.002z" class="B"/><g class="C"><path d="M80.766 92.116v-22.91c.089.072.051.175.051.262v22.389c0 .087.038.189-.049.262l-.002-.002zm-19.005-6.849c.13-.062.266-.038.403-.038l10.171-.002c-.053.081-.138.051-.211.051H61.889c-.043 0-.085-.006-.128-.011zm-25.645.72h6.682c.032.017.032.036 0 .051l-6.511.006c-.075 0-.156.008-.215-.055.013-.034.028-.036.047-.002h-.002zm11.653 3.117c.06.111.04.232.04.349l.002 4.247c0 .111-.045.245.104.311-.06.034-.117.045-.143-.036-.013-.038-.013-.083-.013-.126l.009-4.746zm-14.878-2.65v-3.889c0-.117-.019-.239.041-.349l.008 4.047c0 .068 0 .136-.051.192h.002z"/><path d="M36.116 85.988l-.047.002v-3.874c.06.111.038.232.038.352l.006 3.521h.002z"/></g><path d="M42.797 86.037v-.051l.013-3.617c.049.085.045.179.045.273v3.129c0 .094.008.187-.057.266z" class="B"/><path d="M89.555 92.481l2.662.002c-.479.09-.965.038-1.446.043-.405.004-.814.03-1.216-.045zm41.692.001h2.102c-.701.077-1.401.07-2.102 0zm-66.219-.001h1.896a7.71 7.71 0 0 1-1.896 0zm12.563-.202c.496.004.997-.045 1.491.034-.498.002-.997.053-1.491-.034zm43.694.033a4.76 4.76 0 0 1 1.38 0h-1.38zm-81.23-13.32l-1.244.002c.413-.077.829-.075 1.244-.002zm66.516 13.326c.409-.07.818-.068 1.227 0h-1.227zm-2.856-10.964v-1.133a2.77 2.77 0 0 1 0 1.133z" class="C"/><path d="M126.594 74.969v1.022a2.48 2.48 0 0 1 0-1.022zm-11.335-5.978c-.341 0-.682 0-1.025-.002.341-.068.682-.07 1.025.002zM57.261 83.545l-.002.869a1.85 1.85 0 0 1 .002-.869zM78.88 68.993h-.871c.29-.068.579-.068.871 0z" class="B"/><path d="M136.268 85.018a1.6 1.6 0 0 1-.003.822l.003-.822zM65.601 75.27h-.829a1.52 1.52 0 0 1 .829 0zm65.846.166c-.073-.26-.07-.52 0-.78v.78z" class="C"/><path d="M39.923 72.74l-1.563-1.048c-.207-.149-.352-.147-.56 0l-1.587 1.067c-.026-.149.034-.245.068-.343l.524-1.465c.066-.175.034-.273-.124-.377l-1.646-1.101c.096-.094.192-.062.275-.062h1.787c.181.002.277-.062.334-.236l.522-1.493.102-.277c.119.094.123.209.16.307l.456 1.274c.168.469.081.42.605.422h1.583c.081 0 .168-.028.247.036-.023.109-.126.132-.198.181l-1.425.946a.26.26 0 0 0-.123.377l.541 1.512.072.239-.049.038v.004zm-11.438 1.601l.605-1.696c.092-.234.064-.356-.158-.492l-1.604-1.061c.085-.075.164-.049.234-.049l1.838.002c.196.004.288-.07.347-.254l.52-1.493c.03-.083.034-.185.151-.258l.279.763.343.988c.06.204.175.256.373.254l1.761-.004h.26c-.041.13-.139.153-.211.202l-1.425.946a.27.27 0 0 0-.128.381l.532 1.489c.032.094.092.183.068.326l-.807-.537-.888-.599a.27.27 0 0 0-.364 0l-1.668 1.127-.055-.034-.004-.002zm-5.961 12.113l.63-1.755c.079-.207.041-.317-.147-.432l-1.404-.929c-.068-.045-.153-.072-.204-.202h.383l1.659.006c.194.004.29-.068.349-.251l.53-1.514c.028-.077.04-.164.14-.247l.46 1.282c.173.486.523.728 1.048.728h1.495c-.026.126-.124.153-.194.2l-1.446.959c-.151.096-.181.189-.119.356l.635 1.77c-.102.053-.147-.017-.198-.051l-1.502-1.012c-.149-.104-.26-.104-.409 0l-1.414.959c-.077.051-.143.123-.294.136v-.002zm20.342-15.466h.381l1.583.004c.232.006.352-.062.424-.292l.522-1.491.087-.211c.121.047.117.153.147.234l.528 1.517c.062.185.166.245.356.243l2.013-.004c.011.113-.075.124-.126.158l-1.51 1.001c-.149.096-.177.194-.115.36l.635 1.77c-.1.053-.141-.021-.192-.055l-1.525-1.025c-.145-.1-.245-.087-.383.011l-1.666 1.114c-.051-.119.008-.2.036-.279l.541-1.512c.079-.202.028-.302-.145-.413l-1.404-.929c-.066-.045-.158-.068-.19-.2h.002zm-18.05 19.039l.739-2.036.743 2.038c.377.055.758.015 1.135.023l.988.004c.062 0 .16-.049.177.075l-1.64 1.082c-.172.111-.192.219-.123.4l.552 1.536c.021.062.062.121.045.2-.098.032-.153-.051-.217-.094l-1.442-.965c-.16-.111-.277-.104-.432.004l-1.399.939-.275.17c.026-.23.109-.388.166-.552l.456-1.274c.064-.166.034-.26-.115-.356l-1.7-1.133c.081-.07.179-.032.268-.034l2.077-.028-.002-.002zm3.368-13.731l-1.636 1.084c-.153.098-.177.189-.115.354l.631 1.764c-.126.034-.19-.047-.26-.094l-1.333-.895a.44.44 0 0 0-.607-.006L23.32 79.54c-.079-.09-.017-.156.006-.219l.564-1.585c.062-.166.028-.262-.121-.358l-1.423-.944c-.083-.055-.16-.126-.239-.187.354-.055.707-.011 1.063-.023l1.242-.021c.256-.582.422-1.195.652-1.787l.107-.266.724 2.047c.417.064.839.017 1.259.028l.886.004c.053 0 .143-.043.147.073l-.002-.004z" class="B"/><g class="C"><path d="M28.183 76.296c-.1-.066-.213-.049-.322-.049H26.21c-.109 0-.221.015-.319-.053l2.064.008c.075 0 .217-.087.228.096v-.002zm.419 13.831c-.098-.068-.213-.049-.322-.051h-1.657c-.109 0-.224.019-.322-.049l2.066.004c.081 0 .215-.072.236.098l-.002-.002zm-4.188-13.93c-.092.055-.196.047-.296.047h-2.006c.055-.079.141-.049.211-.049h2.092v.002zm.405 13.83c-.098.073-.211.051-.32.051l-2.028.011c.094-.077.209-.06.315-.06h2.03l.002-.002z"/><path d="M103.227 85.166c.334-1.248.472-2.522.489-3.811v-.002a5.8 5.8 0 0 0 0-1.133c.037-.763-.066-1.519-.172-2.268-.16-1.137-.458-2.245-.933-3.297-1.246-2.75-3.421-4.394-6.264-5.229-.722-.213-1.463-.341-2.213-.447-.731-.103-1.462-.133-2.192-.162l-.255-.01c-.631-.027-1.264-.004-1.896.019l-.828.026-.051.001-.077.003-.625.05-1.697.148-.316.029c-.28.023-.561.046-.836.114-.021.07-.019.14-.016.212l.001.067v22.367l-.003.069c-.005.07-.01.14.029.206l.042.016c.034.013.068.027.103.031l.514.061 1.409.144.537.04 1.582.073c.134.033.271.028.407.023l.148-.004.715.003 1.391-.02 1.438-.104c.99-.121 1.97-.292 2.927-.577 3.406-1.02 5.704-3.148 6.642-6.635zm-4.736-1.472c.185-.748.239-1.517.277-2.283V80.02c0-.492-.064-.978-.132-1.461-.085-.596-.234-1.18-.432-1.755-.46-1.333-1.235-2.407-2.465-3.131-1.071-.63-2.262-.782-3.468-.835-.668-.031-1.336.024-2.002.079l-.201.017c-.038.066-.033.136-.029.206l.003.069V88.15l-.001.057c-.001.066-.003.132.014.197.299.083.605.088.912.093l.377.011c.309.023.616.03.922-.002.422-.004.841-.043 1.259-.109.92-.147 1.811-.373 2.592-.914 1.335-.924 1.998-2.271 2.373-3.789z" class="D"/></g><path d="M90.069 72.93l-.002 15.038-.013.432c-.055-.094-.036-.198-.036-.298v-14.88c0-.098-.028-.207.051-.292zm8.697 8.479v-1.391a5.25 5.25 0 0 1 0 1.391z" class="B"/><g class="C"><path d="M91.344 88.504l.922-.002c-.307.07-.613.068-.922.002z"/><path d="M119.729 92.144c.514.096 1.031.156 1.553.17l-.004-.008a12.94 12.94 0 0 1 1.38 0c.484 0 .959-.066 1.434-.134.039-.006.085-.002.131.002.109.009.219.019.256-.098.029-.092-.013-.21-.053-.322l-.03-.089-.315-.98-.379-1.186-.475-1.544-.475-1.544-.519-1.632-.363-1.135-.896-2.869-.105-.338-.311-1.008-.584-1.882-.391-1.222-.318-.993-1.037-3.299-.829-2.703c-.036-.117-.092-.17-.211-.179l-1.162-.097-.774-.065c-.343-.034-.684-.028-1.025-.002l-.191.022c-.154.019-.309.039-.463.033-.277-.011-.548.025-.819.061l-.495.054c-.085.004-.149.032-.179.141l-.377 1.235h0l-.405 1.265-.406 1.265-.776 2.458-.387 1.229-.613 1.939-.612 1.94-.422 1.352-.662 2.118-.629 1.976-.483 1.513-.435 1.393-.34 1.091-.597 1.877c-.032.1-.047.181.094.2l.395.056c.379.056.757.112 1.141.11a9.46 9.46 0 0 1 1.227 0c.361 0 .717-.053 1.072-.105l.434-.061c.132-.016.158-.107.187-.207l.006-.023.311-1.086.882-3.125c.049-.184.134-.183.25-.181h.031 1.571l5.499-.007c.238 0 .326.089.379.296l.445 1.659.122.445.524 1.869c.008.027.013.057.019.087.023.116.047.242.204.271zm-7.598-9.55l-.292 1.036h.002c.036.059.089.052.14.046l.045-.004h5.029c.014 0 .029.002.045.004.051.006.104.013.14-.046l-.016-.031c-.01-.02-.021-.039-.026-.061l-.221-.82-.32-1.182-.276-.975-.357-1.268-.445-1.647-.207-.773-.485-1.781-.156-.551-.113-.395-.028.028c-.014.014-.022.022-.025.031l-.161.541-.527 1.787-.39 1.365-.319 1.119-.308 1.043-.308 1.043-.421 1.49z" class="D"/><path d="M111.843 83.627l.228.017h4.943c.077 0 .152-.011.228-.017-.078.089-.187.068-.287.068h-4.827c-.1 0-.206.019-.287-.068h.002z"/><path d="M71.526 78.852c-1.286-2.32-3.278-3.495-5.926-3.581-.277-.034-.552-.038-.829 0a5.82 5.82 0 0 0-1.359.134c-3.086.667-4.927 2.629-5.783 5.591-.239.829-.366 1.681-.371 2.545-.032.29-.03.579-.002.869l.006.155.049.731c.13 1.061.343 2.096.809 3.069.624 1.306 1.551 2.324 2.822 3.027s2.643 1.02 4.083 1.084c.633.034 1.263.036 1.896 0 .788-.006 1.561-.128 2.332-.277.684-.132 1.353-.324 2.013-.543.2-.066.298-.166.258-.383-.028-.149-.043-.3-.055-.452-.075-.905-.375-1.742-.737-2.565-.068-.16-.151-.147-.296-.098-1.421.479-2.873.765-4.379.741a7.33 7.33 0 0 1-.581-.042l-.075-.007c-.767-.079-1.483-.302-2.141-.705-.454-.277-.797-.652-1.063-1.112-.228-.396-.337-.831-.418-1.267a.87.87 0 0 0-.037-.124c-.042-.121-.088-.253.016-.379.075-.022.151-.02.228-.017l.077.002h9.968l.077.004c.076.005.152.011.223-.029.092-.55.132-1.106.156-1.661a10.83 10.83 0 0 0-.141-2.145c-.141-.901-.381-1.772-.822-2.567zm-8.297.349c-.95.635-1.303 1.61-1.427 2.694h.002c-.06.196.058.194.178.192h.035 5.977l.045.002c.053.003.107.007.153-.03-.03-.56-.113-1.11-.345-1.623-.441-.971-1.137-1.6-2.256-1.704-.844-.079-1.651-.006-2.362.469z" class="D"/></g><path d="M61.804 81.897c.041.209.207.166.345.166h4.795l1.25-.002c-.062.087-.156.053-.234.053h-5.934c-.136 0-.33.043-.219-.217h-.002z" class="B"/></svg>