<svg xmlns="http://www.w3.org/2000/svg" width="160" height="160" fill="none" xmlns:v="https://vecta.io/nano"><g fill="#f5f5fa"><path d="M0 32C0 14.327 14.327 0 32 0h96c17.673 0 32 14.327 32 32v96c0 17.673-14.327 32-32 32H32c-17.673 0-32-14.327-32-32V32z"/><circle cx="32.539" cy="79.26" r="15.573"/></g><g clip-path="url(#A)" fill="#292931"><path d="M71.131 77.918h9.168v11.669a25.5 25.5 0 0 1-3.776.944c-1.357.237-2.833.356-4.429.356-3.253 0-5.817-.954-7.692-2.863s-2.813-4.751-2.813-8.527c0-2.311.446-4.313 1.336-6.005s2.201-3.002 3.931-3.931 3.849-1.393 6.356-1.393c1.264 0 2.492.124 3.683.371s2.243.578 3.154.99l-1.709 4.179a12.41 12.41 0 0 0-2.377-.851c-.86-.217-1.777-.325-2.751-.325-1.347 0-2.481.304-3.403.913s-1.611 1.444-2.067 2.507-.684 2.275-.684 3.637c0 2.125.44 3.812 1.321 5.061s2.253 1.873 4.118 1.873a11.92 11.92 0 0 0 1.507-.093l1.228-.186v-4.086H71.13v-4.24zm32.663 1.268c0 3.797-1.056 6.644-3.17 8.543s-5.024 2.848-8.733 2.848h-6.682v-22.1h7.304c3.502 0 6.257.913 8.267 2.739s3.014 4.483 3.014 7.97zm-5.469.186c0-2.249-.482-3.91-1.445-4.983s-2.367-1.61-4.211-1.61h-2.175v13.464h1.709c2.093 0 3.636-.573 4.631-1.718s1.492-2.863 1.492-5.154zm17.155-10.895c2.839 0 4.937.609 6.294 1.826s2.035 2.93 2.035 5.138c0 1.3-.269 2.523-.808 3.668s-1.429 2.074-2.673 2.786-2.931 1.068-5.065 1.068h-1.865v7.614h-5.283v-22.1h7.365zm-.186 4.302h-1.896v5.881h1.398c1.078 0 1.958-.237 2.642-.712s1.026-1.259 1.026-2.352c0-1.878-1.057-2.817-3.17-2.817zm19.237-4.302c5.967 0 8.951 2.198 8.951 6.593 0 1.444-.378 2.641-1.134 3.59a8.49 8.49 0 0 1-2.844 2.29l6.495 9.626h-5.936l-5.003-8.295h-2.083v8.295h-5.283v-22.1h6.837zm-.217 4.148h-1.337v5.54h1.337c1.264 0 2.212-.232 2.844-.696s.947-1.202.947-2.213c0-.887-.3-1.548-.901-1.981s-1.564-.65-2.89-.65zM32.267 57.887a1.77 1.77 0 0 1 1.345 0l17.185 7.072c.655.269 1.081.903 1.081 1.605v8.597c0 11.837-7.219 22.485-18.276 26.958-.425.172-.901.172-1.325 0-11.057-4.473-18.276-15.121-18.276-26.958v-8.597a1.74 1.74 0 0 1 1.081-1.605l17.185-7.072zm.672 31.42l-.58 1.076-1.297.172.939.838-.222 1.183 1.16-.558 1.16.558-.222-1.183.939-.838-1.297-.172-.58-1.076zm6.102-1.401l-.58 1.076-1.297.173.939.837-.222 1.183 1.16-.558 1.16.558-.222-1.183.939-.837-1.297-.173-.58-1.076zm-12.205 0l-.58 1.076-1.297.173.939.837-.222 1.183 1.16-.558 1.16.558-.222-1.183.939-.837-1.297-.173-.58-1.076zm16.43-4.669l-.58 1.076-1.297.172.939.837-.222 1.183 1.16-.558 1.16.558-.222-1.183.939-.837-1.297-.172-.58-1.076zm-20.654 0l-.58 1.076-1.297.172.939.837-.222 1.183 1.16-.558 1.161.558-.222-1.183.939-.837-1.297-.172-.58-1.076zm22.532-5.603l-.58 1.076-1.297.173.939.838-.222 1.183 1.16-.558 1.16.558-.222-1.183.939-.838-1.297-.173-.58-1.076zm-24.41 0l-.58 1.076-1.297.173.939.838-.222 1.183 1.16-.558 1.16.558-.222-1.183.939-.838-1.297-.173-.58-1.076zm23.001-6.537l-.58 1.076-1.297.172.939.838-.222 1.183 1.16-.558 1.16.558-.222-1.183.939-.838-1.297-.172-.58-1.076zm-21.593 0l-.58 1.076-1.297.172.939.838-.222 1.183 1.161-.558 1.16.558-.222-1.183.939-.838-1.297-.172-.58-1.076zm16.899-4.203l-.58 1.076-1.297.173.939.837-.222 1.183 1.16-.558 1.16.558-.222-1.183.939-.837-1.297-.173-.58-1.076zm-12.205 0l-.58 1.076-1.297.173.939.837-.222 1.183 1.16-.558 1.16.558-.222-1.183.939-.837-1.297-.173-.58-1.076zm6.102-1.401l-.58 1.076-1.297.172.939.838-.222 1.183 1.16-.558 1.16.558-.222-1.183.939-.838-1.297-.172-.58-1.076z"/></g><defs><clipPath id="A"><path fill="#fff" transform="translate(14.001 57.754)" d="M0 0h131.999v44.494H0z"/></clipPath></defs></svg>