<svg xmlns="http://www.w3.org/2000/svg" width="160" height="160" fill="none" xmlns:v="https://vecta.io/nano"><path d="M0 32C0 14.327 14.327 0 32 0h96c17.673 0 32 14.327 32 32v96c0 17.673-14.327 32-32 32H32c-17.673 0-32-14.327-32-32V32z" fill="#f5f5fa"/><path d="M116.284 109.958c3.083 0 5.583 2.5 5.583 5.583s-2.5 5.582-5.583 5.582-5.582-2.5-5.582-5.582 2.5-5.583 5.582-5.583zM40.472 78.225c-3.083 0-5.583 2.5-5.583 5.583s2.5 5.583 5.583 5.583 5.583-2.5 5.583-5.583c-.015-3.098-2.515-5.583-5.583-5.583zm-4.279 14.999h8.558v27.668h-8.558V93.224zm56.656 19.355c3.083 0 5.583-2.5 5.583-5.582s-2.5-5.583-5.583-5.583-5.583 2.5-5.583 5.583c.015 3.082 2.5 5.582 5.583 5.582zm10.905-15.306c2.346 2.485 3.803 5.966 3.803 9.77s-1.457 7.285-3.803 9.77c-2.347 2.5-5.614 4.049-9.203 4.049-2.684 0-5.184-.875-7.27-2.362v2.408h-8.558V77.457h8.558v18.129c2.071-1.488 4.586-2.362 7.27-2.362 3.589-.015 6.856 1.549 9.203 4.049zm-41.963 15.306c3.083 0 5.583-2.5 5.583-5.582s-2.5-5.583-5.583-5.583-5.583 2.5-5.583 5.583c0 3.098 2.5 5.582 5.583 5.582zm14.141-19.355v27.668h-8.558v-2.423c-2.071 1.503-4.586 2.393-7.285 2.393h-.015c-3.574 0-6.841-1.549-9.187-4.049-2.347-2.485-3.804-5.967-3.804-9.77s1.457-7.286 3.804-9.77c2.347-2.5 5.614-4.049 9.187-4.049 2.699 0 5.215.889 7.285 2.393V93.24h8.574v-.015zm38.972-46.994c-1.58.291-2.638 1.488-2.638 2.975s1.12 2.715 2.638 2.975v-5.95zm3.589-1.733a6.27 6.27 0 0 1 1.641 1.242c.828.92 1.242 2.07 1.242 3.374 0 2.439-1.533 5-5.291 5-3.021 0-5.368-1.856-5.368-4.908 0-1.979.981-3.221 1.856-3.834.905-.629 2.469-.997 3.803-.951v7.883c2.102-.031 3.436-1.472 3.436-3.221 0-.828-.245-1.488-.736-2.071a3.93 3.93 0 0 0-1.396-1.043l.813-1.472zm1.319 16.181c0-2.055-1.702-3.297-3.742-3.297-2.485 0-3.804 1.687-3.804 3.313 0 1.641 1.35 3.374 3.788 3.374 2.071.015 3.758-1.304 3.758-3.39zm6.887 3.298v1.764h-15.752v-1.764h1.411c-1.488-1.196-1.656-2.73-1.656-3.466 0-3.175 2.638-4.939 5.368-4.939 2.776 0 5.291 1.779 5.291 4.862 0 1.641-.736 2.776-1.702 3.543h7.04zm-14.433 9.233c0 1.856 1.319 3.558 3.788 3.558 2.485 0 3.758-1.764 3.758-3.558 0-1.825-1.288-3.558-3.758-3.558-2.484 0-3.788 1.703-3.788 3.558zm9.11 0c0 3.083-2.239 5.368-5.322 5.368s-5.352-2.27-5.352-5.368 2.27-5.368 5.352-5.368 5.322 2.285 5.322 5.368zM110.948 83.99v-1.764h1.104c-.276-.169-1.349-.92-1.349-2.301 0-.537.199-1.12.414-1.564l1.579.828a1.72 1.72 0 0 0-.337 1.028c0 .706.291 1.15.629 1.411.383.291 1.073.583 2.73.583h5.353v1.764h-10.123v.015zm5.92 9.034c.706 0 1.534 0 2.178-.491.338-.276.782-.813.782-1.779 0-.982-.444-1.518-.782-1.779-.629-.491-1.457-.491-2.178-.491h-5.92V86.72h6.104c1.243 0 2.178.123 3.052.936.951.905 1.273 2.101 1.273 3.098s-.322 2.193-1.273 3.098c-.874.813-1.809.92-3.052.92h-6.104v-1.764h5.92v.015zm-1.963 5.675c-1.58.291-2.638 1.488-2.638 2.975s1.12 2.715 2.638 2.976v-5.951zm3.589-1.733a6.27 6.27 0 0 1 1.641 1.242c.828.936 1.242 2.071 1.242 3.374 0 2.439-1.533 5-5.291 5-3.021 0-5.368-1.855-5.368-4.908 0-1.978.981-3.22 1.856-3.834.905-.629 2.469-.997 3.803-.951v7.884c2.102-.031 3.436-1.473 3.436-3.221 0-.828-.245-1.488-.736-2.071a3.93 3.93 0 0 0-1.396-1.043l.813-1.472z" fill="#292931"/></svg>