<svg xmlns="http://www.w3.org/2000/svg" width="160" height="160" fill="none" xmlns:v="https://vecta.io/nano"><path d="M0 32C0 14.327 14.327 0 32 0h96c17.673 0 32 14.327 32 32v96c0 17.673-14.327 32-32 32H32c-17.673 0-32-14.327-32-32V32z" fill="#f5f5fa"/><path d="M99.637 86.278V84.17H95.52c.278-.648 1.132-1.362 2.264-2.432 1.444-1.362 1.836-2.01 1.836-3.73 0-1.8-.771-3.21-3.592-3.21-2.494 0-3.74 1.152-3.74 3.453v.373h2.559c0-.875 0-2.108 1.05-2.108.787 0 .968.6.968 1.508 0 .86-.034 1.33-2.017 3.082-.968.86-2.624 2.465-2.624 5.173h7.414v-.002zm6.013 0c.114-2.547 1.362-6.551 3.15-9.227v-2.027h-7.397v2.303h4.757c-1.673 2.157-3.198 6.308-3.362 8.951h2.854l-.002-.002zm8.704.227c3.461 0 3.805-2.562 3.821-5.853 0-3.697-.343-5.853-3.821-5.853-3.462 0-3.805 2.562-3.822 5.853 0 3.697.344 5.853 3.822 5.853zm0-1.718c-.903 0-1.057-.815-1.065-3.78v-.338c0-3.275.131-4.152 1.066-4.152s1.067.875 1.067 4.152c0 3.243-.131 4.118-1.067 4.118h-.001zm9.211 1.718c3.461 0 3.805-2.562 3.822-5.853 0-3.697-.344-5.853-3.822-5.853-3.461 0-3.805 2.562-3.822 5.853 0 3.697.344 5.853 3.822 5.853zm0-1.718c-.902 0-1.057-.815-1.065-3.78v-.338c0-3.275.131-4.152 1.067-4.152.902 0 1.056.817 1.064 3.822v.33c0 3.243-.13 4.118-1.066 4.118zm10.933 1.492v-11.48h-1.935c-.131.73-.624 1.8-2.706 1.8h-.344v1.718h2.23v7.962h2.757-.002zM56.723 55.089a13.9 13.9 0 0 0-2.827-.032c-.349-.032-.763 0-1.175.032-7.801.602-14.858 4.83-19.036 11.405.319-.032.699.095 1.016-.032.784-1.112 1.644-2.169 2.574-3.163.827-.798 1.59-1.565 2.479-2.14l2.542 1.502c-.984 1.247-2.002 2.492-2.733 3.833.223.095.636.063.954 0 .795-1.182 1.652-2.363 2.67-3.418l4.1 1.438.127.128-.795 1.853c.349.063.572.032.922 0l.827-1.693c1.843.415 3.782.638 5.752.703.255.223.064.703.159.99h.859c.096-.32-.032-.672.096-.958 1.843-.097 3.781-.288 5.561-.735l.159.032.859 1.662c.287 0 .667.063.891-.063l-.795-1.853.064-.063c1.462-.383 2.829-.958 4.227-1.533.984 1.053 1.907 2.3 2.733 3.513.349 0 .699.032.954-.063a12.44 12.44 0 0 0-1.367-2.013 13.84 13.84 0 0 0-1.399-1.725v-.162l2.225-1.31.319-.128c1.939 1.502 3.654 3.323 5.021 5.335.381 0 .699.128 1.016-.032-4.264-6.517-11.287-10.702-18.882-11.308l-.032.063-.064-.063zm3.273 1.438v.063c-2.765 2.045-7.246 2.237-10.169.352-.159-.128-.476-.192-.508-.415 3.369-.798 7.341-.863 10.679 0h-.002zm8.738 3.897l-.064.128-2.193 1.247h-.159a27.57 27.57 0 0 0-5.656-4.408c.064-.223.381-.383.604-.543 2.67.703 5.18 1.917 7.467 3.578l.002-.002zm-20.021-3.035c-1.97 1.247-3.909 2.715-5.688 4.505-.858-.32-1.652-.798-2.415-1.342v-.063c2.002-1.502 4.226-2.62 6.578-3.387.096-.095.159-.192.287-.192v.063c.255.063.444-.223.667-.032.191.16.413.288.572.447h-.002zm16.684 4.823l-.064.097c-1.239.543-2.51 1.055-3.877 1.342-.997-1.73-2.09-3.404-3.273-5.015.444-.255.984-.447 1.462-.703 2.066 1.055 4.068 2.555 5.752 4.28zM51.097 58.57l-.096.255c-1.207 1.533-2.161 3.195-3.114 4.823l-.127.032a25.18 25.18 0 0 1-3.782-1.31l.064-.192c1.747-1.693 3.59-3.098 5.624-4.185.476.192.954.352 1.43.575v.002zm3.082.607c.096 1.662.032 3.578.032 5.335-.89.128-1.684-.032-2.574-.095-.859-.128-1.938-.223-2.797-.512.922-1.757 2.002-3.45 3.305-5.015l2.034.287zm2.987-.255c1.239 1.597 2.447 3.227 3.273 4.983a22.23 22.23 0 0 1-5.244.638c-.064-1.693-.032-3.578 0-5.335l1.97-.287zM43.025 70.455c-2.066 1.533-2.702 4.28-2.162 6.708.413 2.3 2.574 3.993 4.64 4.792 2.829 1.022 5.784 1.757 8.645 2.748.287.128.667.415.604.767 0 .288-.287.447-.508.575-2.987.83-6.228.192-8.39-2.108-.255-.32-.413-.703-.667-1.022l-4.289.032c-.064 2.588-.096 5.558 0 8.113l4.767-.032.064-1.533c.54.255 1.08.575 1.62.863 3.305 1.405 7.563 1.725 10.836 0 2.383-1.342 3.654-3.93 3.305-6.708-.349-2.715-2.891-5.175-5.465-5.847l-7.69-2.268-.572-.287c-.255-.223-.412-.512-.349-.863.604-1.055 2.002-.735 3.05-.703 2.225.32 4.513 1.087 5.816 3.163 1.399 0 3.018.032 4.544-.032.064-2.62-.032-4.92-.064-7.571-1.536-.037-3.073-.027-4.608.032-.064.383.064.927-.096 1.31l-1.462-.798c-3.498-1.503-8.391-1.663-11.569.67zm38.515.35c-4.132-2.683-10.424-2.875-14.681-.447-2.319 1.213-3.845 3.61-4.321 6.07-.859 4.057-.636 8.882 2.415 11.916 3.56 3.195 8.738 3.897 13.346 2.588.482-.103.949-.265 1.39-.483l.136-.06c1.506-.634 2.82-1.647 3.813-2.938 2.351-3.513 2.51-8.785 1.08-12.746-.572-1.533-1.747-2.907-3.178-3.897v-.003zm-4.672 4.6c.476.735.444 1.693.54 2.555-.032 1.822.127 3.993-.191 5.847-.159.767-.667 1.565-1.462 1.853-1.271.575-2.987.415-4.162-.255-.986-.703-1.112-1.885-1.239-3.003-.096-2.205-.255-4.537.349-6.548.476-1.247 1.779-1.565 2.956-1.662 1.239 0 2.447.192 3.21 1.213zM27.55 68.889l-1.97.032c-.032 1.693-.032 3.673 0 5.398 1.08.032 2.098 0 3.146.095v10.861l-.032.447-3.146.063c-.064 1.757-.064 3.515 0 5.271h14.014v-5.271c-1.048-.063-2.225.032-3.242-.095l.032-11.213.064-.097 3.146-.032c.032-1.822.064-3.77-.032-5.432l-11.98-.032v.003zm20.148 24.535c-.319 0-.667-.063-.89.032l.795 1.885-.096.095c-1.43.415-2.829.927-4.196 1.502l-.127-.063c-.89-.99-1.747-2.077-2.447-3.162-.159-.543-.795-.223-1.144-.288.763 1.405 1.779 2.652 2.797 3.93-.859.512-1.715 1.087-2.606 1.502a23.15 23.15 0 0 1-5.021-5.398c-.381-.063-.636-.032-1.016 0 2.287 3.642 5.847 6.837 9.565 8.722 0 0 0-.032.032-.032s.096.063.032.097c2.51 1.245 5.18 2.14 8.007 2.523 9.756 1.31 19.067-2.938 24.469-11.308a5.44 5.44 0 0 0-1.016 0c-1.335 1.948-3.018 3.833-4.861 5.303-.064.095-.255.063-.319-.032-.795-.512-1.652-.927-2.415-1.438 1.016-1.247 2.002-2.492 2.765-3.865h-.986c-.795 1.182-1.62 2.428-2.67 3.482-1.399-.575-2.67-1.087-4.1-1.47l-.159-.128c.223-.638.636-1.245.763-1.885h-.858l-.859 1.725c-1.875-.415-3.941-.638-5.847-.767-.096-.288.032-.703-.096-.958h-.827c-.064.383.096.67-.096.99-1.922.085-3.835.32-5.72.703l-.859-1.693.003-.002zm6.674 7.348c-.667.16-1.399.16-2.034.32-1.303-1.565-2.383-3.258-3.305-5.015l.159-.128c1.652-.32 3.369-.575 5.148-.575l.032 5.398zm6.26-4.76l.032.095c-.89 1.725-2.002 3.387-3.21 4.952-.54.065-1.05-.16-1.59-.192l-.54-.063c-.064-1.885-.096-3.547 0-5.43 1.811.032 3.622.223 5.307.638zm-12.553.287c.922 1.757 2.066 3.418 3.21 5.08-.444.255-.984.415-1.43.671a21.44 21.44 0 0 1-5.784-4.28v-.097c1.239-.607 2.542-1.053 3.877-1.405l.127.032v-.002zm17.478 1.342c-1.016 1.182-2.321 2.205-3.528 3.067-.731.447-1.462.927-2.225 1.31l-1.367-.607.096-.223a38.8 38.8 0 0 0 3.05-4.855l.096-.065c1.367.32 2.67.767 3.877 1.373h.002zm3.401 1.82c-1.779 1.438-3.845 2.396-5.943 3.194l-1.494.48c-.255-.128-.476-.32-.699-.511l.064-.095a28.5 28.5 0 0 0 5.624-4.44c.859.352 1.684.83 2.447 1.373l.002-.002zm-20.148 3.163c-.159.191-.413.383-.636.511-2.67-.703-5.148-1.916-7.437-3.578v-.097c.763-.48 1.526-.99 2.351-1.342 1.811 1.82 3.686 3.195 5.72 4.505h.002zm11.376.735c.096.191-.159.128-.223.191-3.369.735-7.119.767-10.487-.063-.064-.16.159-.192.255-.287 2.955-1.948 7.563-1.948 10.456.16v-.001z" fill="#292931"/></svg>