<svg xmlns="http://www.w3.org/2000/svg" width="160" height="160" fill="none" xmlns:v="https://vecta.io/nano"><path d="M0 32C0 14.327 14.327 0 32 0h96c17.673 0 32 14.327 32 32v96c0 17.673-14.327 32-32 32H32c-17.673 0-32-14.327-32-32V32z" fill="#f5f5fa"/><g clip-path="url(#A)" fill="#292931"><path d="M65.875 79.599a9.82 9.82 0 0 1-1.373-.603 4.08 4.08 0 0 1-1.034-.784 3.21 3.21 0 0 1-.665-1.091 4.4 4.4 0 0 1-.227-1.525c-.014-.655.121-1.306.395-1.908.252-.537.633-1.012 1.113-1.387.508-.388 1.094-.677 1.722-.847.739-.199 1.504-.296 2.272-.287a11.39 11.39 0 0 1 2.15.186 17.42 17.42 0 0 1 2.104.558c-.095.839-.338 1.657-.72 2.42l-.686-.253a5.43 5.43 0 0 0-.743-.212 8.91 8.91 0 0 0-.888-.138c-.374-.037-.749-.054-1.125-.052a4.8 4.8 0 0 0-.777.063 2.24 2.24 0 0 0-.708.233c-.216.12-.395.291-.518.497-.144.265-.212.561-.198.858a1.43 1.43 0 0 0 .158.709 1.5 1.5 0 0 0 .427.488 2.72 2.72 0 0 0 .603.328l.674.264 1.351.488 1.552.655a4.21 4.21 0 0 1 1.187.838c.33.353.581.764.74 1.21a4.95 4.95 0 0 1 .279 1.757 4.59 4.59 0 0 1-.417 1.97 4.26 4.26 0 0 1-1.202 1.525c-.573.449-1.234.787-1.946.996a9.01 9.01 0 0 1-2.668.35 17.66 17.66 0 0 1-1.327-.043c-.374-.025-.746-.071-1.113-.138a10.58 10.58 0 0 1-1.046-.242l-1.08-.361c.049-.432.132-.86.247-1.281l.427-1.344a12.46 12.46 0 0 0 1.78.54 8.45 8.45 0 0 0 1.78.186c.945 0 1.688-.166 2.227-.497s.81-.836.811-1.514a1.73 1.73 0 0 0-.198-.849c-.123-.219-.291-.413-.494-.572-.209-.158-.44-.29-.686-.391l-.791-.307-1.368-.495zm9.427-8.175h9.18a6.26 6.26 0 0 1 .134 1.292 6.43 6.43 0 0 1-.134 1.333h-5.887v3.305h4.681a6.8 6.8 0 0 1 .135 1.314 6.64 6.64 0 0 1-.135 1.333h-4.681v4.025h6.053c.09.426.135.858.135 1.292.001.448-.044.895-.135 1.335h-9.346V71.424zm22.633 12.349a8.11 8.11 0 0 1 .484 1.217 8.23 8.23 0 0 1 .281 1.261 11.31 11.31 0 0 1-2.11.529 15.1 15.1 0 0 1-2.013.127 8.88 8.88 0 0 1-3.362-.583 6.63 6.63 0 0 1-2.418-1.631 6.84 6.84 0 0 1-1.473-2.487 9.57 9.57 0 0 1-.496-3.135 9.33 9.33 0 0 1 .534-3.148 7.23 7.23 0 0 1 1.497-2.51 6.73 6.73 0 0 1 2.407-1.651c1.027-.41 2.135-.613 3.251-.594.666-.003 1.332.039 1.991.127a9.17 9.17 0 0 1 1.968.532c-.03.422-.121.839-.269 1.238l-.496 1.219a10.47 10.47 0 0 0-1.394-.361 8.48 8.48 0 0 0-1.44-.106c-1.44 0-2.546.441-3.318 1.324s-1.159 2.193-1.159 3.93c0 3.444 1.552 5.167 4.657 5.168a8.93 8.93 0 0 0 1.461-.106 10.22 10.22 0 0 0 1.418-.359zm3.129-12.35l.831-.086.832-.02.791.02.833.086v7.9a20.72 20.72 0 0 0 .101 2.214 4.45 4.45 0 0 0 .405 1.525c.175.376.475.688.854.89.443.207.934.306 1.428.287a3.02 3.02 0 0 0 1.418-.287c.375-.205.67-.517.845-.89a4.51 4.51 0 0 0 .395-1.525 20.21 20.21 0 0 0 .103-2.214v-7.9l.854-.086.791-.02.821.02.844.086v8.564a13.59 13.59 0 0 1-.269 2.822c-.149.788-.479 1.536-.967 2.191a4.52 4.52 0 0 1-1.866 1.409c-.78.331-1.768.497-2.967.497s-2.187-.166-2.966-.497A4.53 4.53 0 0 1 102.306 85a5.36 5.36 0 0 1-.969-2.191 13.78 13.78 0 0 1-.269-2.828l-.004-8.559zm15.342 0l1.857-.186 1.924-.075a14.13 14.13 0 0 1 2.44.212 6.88 6.88 0 0 1 2.176.745 4.36 4.36 0 0 1 1.564 1.462c.396.614.593 1.394.593 2.34a4.52 4.52 0 0 1-.225 1.489 4.45 4.45 0 0 1-.574 1.134 4.73 4.73 0 0 1-.753.836c-.237.207-.493.394-.765.559l-.382.233 3.937 6.438-.945.086-1.013.043a11.05 11.05 0 0 1-1.686-.129l-4.232-7.054.539-.253.766-.372a4.83 4.83 0 0 0 .87-.588c.286-.242.525-.529.708-.847a2.27 2.27 0 0 0 .281-1.178c0-.89-.271-1.543-.811-1.96-.597-.434-1.339-.655-2.092-.624a5.78 5.78 0 0 0-.9.063v12.857l-.809.073-.791.034c-.257 0-.526 0-.811-.022l-.878-.084.012-15.229zm13.59.001h9.18a6.31 6.31 0 0 1 .134 1.292 6.43 6.43 0 0 1-.134 1.333h-5.896v3.305h4.679a6.68 6.68 0 0 1 .137 1.314 6.57 6.57 0 0 1-.137 1.333h-4.679v4.025h6.052c.09.425.135.858.134 1.292a6.31 6.31 0 0 1-.134 1.335h-9.336V71.424zm-66.27 23.055c-.216-.076-.426-.168-.627-.276a1.83 1.83 0 0 1-.473-.359 1.47 1.47 0 0 1-.305-.499 2.02 2.02 0 0 1-.107-.696 2 2 0 0 1 .18-.873 1.73 1.73 0 0 1 .508-.633 2.29 2.29 0 0 1 .791-.389 3.88 3.88 0 0 1 1.038-.13c.332-.002.663.027.989.088a7.76 7.76 0 0 1 .963.251c-.044.383-.156.756-.33 1.104l-.314-.115a2.52 2.52 0 0 0-.338-.097 3.96 3.96 0 0 0-.407-.063l-.514-.024c-.119 0-.237.01-.354.03a.98.98 0 0 0-.324.106.63.63 0 0 0-.237.227c-.067.121-.099.257-.093.393-.01.212.089.416.267.547.085.063.179.115.279.155l.309.121.617.223.71.3a1.88 1.88 0 0 1 .54.383 1.59 1.59 0 0 1 .346.559 2.3 2.3 0 0 1 .123.8 2.1 2.1 0 0 1-.198.899 1.93 1.93 0 0 1-.552.698 2.63 2.63 0 0 1-.89.456 4.1 4.1 0 0 1-1.218.164c-.227 0-.429 0-.607-.019l-.51-.063-.478-.112-.492-.166a3.66 3.66 0 0 1 .113-.585l.198-.616a5.43 5.43 0 0 0 .813.248 3.89 3.89 0 0 0 .823.071c.356.019.709-.06 1.018-.227.247-.151.388-.416.37-.693a.79.79 0 0 0-.087-.387c-.057-.1-.133-.189-.225-.263a1.4 1.4 0 0 0-.315-.186l-.36-.14-.637-.212zm5.402 0a4.56 4.56 0 0 1-.619-.276c-.177-.095-.337-.216-.473-.359a1.44 1.44 0 0 1-.303-.499 1.97 1.97 0 0 1-.109-.696 2 2 0 0 1 .18-.873c.116-.245.291-.462.51-.633.233-.179.502-.311.791-.389a3.88 3.88 0 0 1 1.04-.13c.332-.002.663.028.989.088a7.22 7.22 0 0 1 .961.251 3.3 3.3 0 0 1-.328 1.104l-.315-.115a2.55 2.55 0 0 0-.34-.097c-.134-.028-.269-.049-.405-.063l-.516-.024a2.1 2.1 0 0 0-.354.03 1.01 1.01 0 0 0-.324.106c-.1.053-.18.133-.237.227a.74.74 0 0 0-.091.393.67.67 0 0 0 .269.547 1.18 1.18 0 0 0 .277.155l.308.121.619.223.71.3c.202.097.385.227.54.384a1.61 1.61 0 0 1 .344.558 2.25 2.25 0 0 1 .125.8 2.1 2.1 0 0 1-.198.899 1.95 1.95 0 0 1-.55.698c-.263.205-.565.36-.89.456a4.12 4.12 0 0 1-1.22.164c-.225 0-.427 0-.607-.019l-.508-.063-.478-.112-.494-.166c.024-.197.061-.392.113-.585l.198-.616a5.58 5.58 0 0 0 .813.248c.267.055.539.083.813.082a1.93 1.93 0 0 0 1.019-.227.76.76 0 0 0 .372-.693.77.77 0 0 0-.089-.387.85.85 0 0 0-.225-.263 1.4 1.4 0 0 0-.314-.186l-.36-.14-.641-.223zm4.312-3.738c.241-.038.485-.058.73-.06a4.96 4.96 0 0 1 .751.06v5.744h2.571a2.32 2.32 0 0 1 .041.315v.287.303c-.007.106-.02.212-.041.317H73.44v-6.965zm7.33.001h4.198a2.81 2.81 0 0 1 .061.59c.001.205-.019.409-.061.611h-2.692v1.51h2.14a3.07 3.07 0 0 1 .061.601c0 .205-.02.409-.061.611h-2.14v1.84h2.769a2.8 2.8 0 0 1 .063.592 2.99 2.99 0 0 1-.063.611H80.77v-6.965zm5.468-.001a3.36 3.36 0 0 1 .607-.06 3.58 3.58 0 0 1 .637.06l2.861 4.437v-4.437a4.55 4.55 0 0 1 .71-.06c.207 0 .414.02.617.06v6.963a3.62 3.62 0 0 1-.593.058 3.87 3.87 0 0 1-.627-.058l-2.881-4.427v4.427a3.99 3.99 0 0 1-.668.058 3.78 3.78 0 0 1-.659-.058l-.004-6.963zm11.761 5.647a3.63 3.63 0 0 1 .219.558 3.59 3.59 0 0 1 .13.577c-.311.111-.634.192-.963.242a6.79 6.79 0 0 1-.922.058 4.09 4.09 0 0 1-1.533-.266 3.04 3.04 0 0 1-1.106-.745 3.12 3.12 0 0 1-.674-1.138c-.154-.464-.23-.948-.225-1.434-.004-.489.075-.974.235-1.439.146-.421.379-.81.684-1.147a3.08 3.08 0 0 1 1.102-.756c.47-.187.977-.28 1.487-.272a6.76 6.76 0 0 1 .91.058 4.18 4.18 0 0 1 .902.244c-.014.191-.056.378-.125.558l-.225.558a4.64 4.64 0 0 0-.639-.164 3.78 3.78 0 0 0-.659-.048c-.659 0-1.165.202-1.517.605s-.529 1.002-.53 1.797c0 1.575.71 2.362 2.13 2.362a3.92 3.92 0 0 0 .668-.048 4.16 4.16 0 0 0 .649-.162zm1.542-5.646l.849-.084a9.63 9.63 0 0 1 .88-.034 6.52 6.52 0 0 1 1.117.097c.348.06.683.177.989.344.293.163.539.393.714.668a1.94 1.94 0 0 1 .273 1.07 2.06 2.06 0 0 1-.103.683 2.1 2.1 0 0 1-.607.901c-.108.096-.225.181-.35.255l-.174.108 1.799 2.944-.431.039-.463.02a5.05 5.05 0 0 1-.771-.06l-1.926-3.234.247-.117.35-.175c.142-.074.275-.164.396-.266a1.46 1.46 0 0 0 .322-.387c.244-.478.151-1.048-.235-1.433a1.53 1.53 0 0 0-.957-.285 2.78 2.78 0 0 0-.412.028v5.879l-.371.034-.36.015c-.117 0-.24 0-.37-.011l-.395-.037-.01-6.963zm7.697 4.473l-2.306-4.468a6.45 6.45 0 0 1 .864-.06c.265 0 .53.02.791.06l1.462 3.165 1.439-3.165a5.13 5.13 0 0 1 .782-.06c.264.002.529.022.791.06l-2.304 4.468v2.5l-.396.039h-.37-.365c-.127 0-.256-.02-.396-.039l.008-2.5zm4.639-4.502l.958-.063.978-.024a5.9 5.9 0 0 1 1.043.097 2.73 2.73 0 0 1 .957.363 2.05 2.05 0 0 1 .696.745 2.5 2.5 0 0 1 .267 1.231c.019.423-.073.843-.267 1.225a2.09 2.09 0 0 1-.69.745 2.59 2.59 0 0 1-.942.372c-.337.064-.68.096-1.024.097h-.251c-.079 0-.154 0-.222-.013v2.234l-.381.037-.36.011c-.117 0-.23 0-.36-.011l-.396-.037-.006-7.008zm1.503 3.584a1.39 1.39 0 0 0 .232.02h.263c.17-.001.34-.022.504-.063s.308-.112.437-.209c.132-.104.235-.235.303-.384.08-.185.119-.384.112-.585a1.46 1.46 0 0 0-.112-.607c-.129-.303-.404-.529-.74-.609a2.01 2.01 0 0 0-.504-.063h-.212l-.283.024v2.474zm5.937-2.354h-1.841a2.85 2.85 0 0 1-.063-.611 2.79 2.79 0 0 1 .063-.59h5.195a2.79 2.79 0 0 1 .061.59c.001.205-.019.409-.061.611h-1.841v5.772l-.372.034-.36.015c-.117 0-.241 0-.376-.011l-.405-.037v-5.772zm4.392-1.202a4.97 4.97 0 0 1 .751-.06c.256.001.51.021.762.06v6.963c-.501.077-1.012.077-1.513 0v-6.963zm5.968 7.08c-.495.012-.987-.081-1.439-.272a2.65 2.65 0 0 1-.989-.745 3.18 3.18 0 0 1-.582-1.134 5.12 5.12 0 0 1-.197-1.428c-.002-.486.064-.97.197-1.439a3.2 3.2 0 0 1 .582-1.147c.259-.324.599-.583.989-.756a3.95 3.95 0 0 1 2.879 0c.39.173.729.432.989.756a3.2 3.2 0 0 1 .581 1.147 5.23 5.23 0 0 1 .198 1.439 5.12 5.12 0 0 1-.198 1.428c-.113.41-.311.795-.581 1.134a2.66 2.66 0 0 1-.989.745 3.52 3.52 0 0 1-1.44.272zm0-1.182c1.064 0 1.595-.801 1.594-2.402 0-.8-.132-1.401-.395-1.802-.249-.396-.711-.627-1.199-.599-1.076 0-1.614.801-1.615 2.402s.537 2.402 1.615 2.402zm4.456-5.898a3.43 3.43 0 0 1 .607-.06 3.58 3.58 0 0 1 .637.06l2.861 4.437v-4.437a4.69 4.69 0 0 1 .71-.06 3.2 3.2 0 0 1 .617.06v6.963a3.61 3.61 0 0 1-.593.058 3.88 3.88 0 0 1-.627-.058l-2.881-4.427v4.427c-.221.038-.444.057-.669.058s-.441-.019-.658-.058l-.004-6.963zM37.925 60c3.725 0 6.923 1.25 9.595 3.75s4.008 5.492 4.008 8.977v5.455h.971c.81 0 1.498.265 2.065.795s.851 1.174.851 1.932v16.364a2.55 2.55 0 0 1-.85 1.932A2.91 2.91 0 0 1 52.5 100H23.35c-.809 0-1.498-.265-2.065-.795s-.85-1.175-.85-1.932V80.909c0-.758.283-1.402.85-1.932s1.255-.795 2.065-.795h.972v-5.455c0-3.485 1.336-6.477 4.008-8.977S34.2 60 37.925 60zm5.683 24.194c-.674-.5-1.663-.4-2.205.229l-4.929 5.75-1.947-2.722a1.56 1.56 0 0 0-.994-.623c-.409-.076-.835.002-1.18.217-.721.448-.914 1.354-.435 2.027l3.135 4.388c.276.386.736.627 1.238.649h.066c.476-.004.926-.204 1.223-.547l6.272-7.312c.54-.631.43-1.555-.244-2.056zm-5.683-18.739c-2.146 0-3.978.71-5.496 2.13s-2.277 3.134-2.277 5.142v5.455h15.547v-5.455c0-2.007-.759-3.722-2.277-5.142s-3.35-2.13-5.496-2.13z"/></g><defs><clipPath id="A"><path fill="#fff" transform="translate(20.435 60)" d="M0 0h119.13v40H0z"/></clipPath></defs></svg>