<svg width="48" height="49" viewBox="0 0 48 49" fill="none" xmlns="http://www.w3.org/2000/svg">
<g clip-path="url(#clip0_5620_8291)">
<path opacity="0.5" d="M31.5 0.858398C40.6127 0.858399 48 8.2457 48 17.3584V18.3584C48 27.4711 40.6127 34.8584 31.5 34.8584C22.3873 34.8584 15 27.4711 15 18.3584L15 17.3584C15 8.2457 22.3873 0.858398 31.5 0.858398Z" fill="#FDE4DF"/>
<g clip-path="url(#clip1_5620_8291)">
<path d="M25.3333 23.5251H36C38.2053 23.5251 40 21.7304 40 19.5251V15.5251C40 13.3197 38.2053 11.5251 36 11.5251H32.552L30.6667 9.63973C30.1627 9.13573 29.4933 8.8584 28.7813 8.8584H25.3333C23.128 8.8584 21.3333 10.6531 21.3333 12.8584V15.5251H10.6667V10.1917C10.6667 9.4544 10.0693 8.8584 9.33333 8.8584C8.59733 8.8584 8 9.4544 8 10.1917V28.8584C8 32.5344 10.9907 35.5251 14.6667 35.5251H21.3333V36.8584C21.3333 39.0637 23.128 40.8584 25.3333 40.8584H36C38.2053 40.8584 40 39.0637 40 36.8584V32.8584C40 30.6531 38.2053 28.8584 36 28.8584H32.552L30.6667 26.9731C30.1627 26.4691 29.4933 26.1917 28.7813 26.1917H25.3333C23.128 26.1917 21.3333 27.9864 21.3333 30.1917V32.8584H14.6667C12.4613 32.8584 10.6667 31.0637 10.6667 28.8584V18.1917H21.3333V19.5251C21.3333 21.7304 23.128 23.5251 25.3333 23.5251ZM24 30.1917C24 29.4557 24.5987 28.8584 25.3333 28.8584H28.7813L30.6667 30.7437C31.1707 31.2477 31.84 31.5251 32.552 31.5251H36C36.7347 31.5251 37.3333 32.1224 37.3333 32.8584V36.8584C37.3333 37.5944 36.7347 38.1917 36 38.1917H25.3333C24.5987 38.1917 24 37.5944 24 36.8584V30.1917ZM24 12.8584C24 12.1224 24.5987 11.5251 25.3333 11.5251H28.7813L30.6667 13.4104C31.1707 13.9144 31.84 14.1917 32.552 14.1917H36C36.7347 14.1917 37.3333 14.7891 37.3333 15.5251V19.5251C37.3333 20.2611 36.7347 20.8584 36 20.8584H25.3333C24.5987 20.8584 24 20.2611 24 19.5251V12.8584Z" fill="url(#paint0_linear_5620_8291)"/>
</g>
</g>
<defs>
<linearGradient id="paint0_linear_5620_8291" x1="24" y1="8.8584" x2="24" y2="40.8584" gradientUnits="userSpaceOnUse">
<stop stop-color="#FF6A58"/>
<stop offset="1" stop-color="#BD060A"/>
</linearGradient>
<clipPath id="clip0_5620_8291">
<rect width="48" height="48" fill="white" transform="translate(0 0.858398)"/>
</clipPath>
<clipPath id="clip1_5620_8291">
<rect width="32" height="32" fill="white" transform="translate(8 8.8584)"/>
</clipPath>
</defs>
</svg>
