<svg width="48" height="49" viewBox="0 0 48 49" fill="none" xmlns="http://www.w3.org/2000/svg">
<g clip-path="url(#clip0_5620_1383)">
<path opacity="0.5" d="M31.5 0.858398C40.6127 0.858399 48 8.2457 48 17.3584V18.3584C48 27.4711 40.6127 34.8584 31.5 34.8584C22.3873 34.8584 15 27.4711 15 18.3584L15 17.3584C15 8.2457 22.3873 0.858398 31.5 0.858398Z" fill="#FFB6AD"/>
<g clip-path="url(#clip1_5620_1383)">
<path d="M33.084 22.1917C33.496 22.1917 33.8853 22.0011 34.1373 21.6757C34.3893 21.3504 34.4773 20.9264 34.376 20.5277C33.9613 18.9051 33.116 17.4224 31.932 16.2384L27.2853 11.5917C25.5227 9.82907 23.1787 8.8584 20.6853 8.8584H14.6653C10.9907 8.8584 8 11.8491 8 15.5251V34.1917C8 37.8677 10.9907 40.8584 14.6667 40.8584H18.6667C19.4027 40.8584 20 40.2611 20 39.5251C20 38.7891 19.4027 38.1917 18.6667 38.1917H14.6667C12.4613 38.1917 10.6667 36.3971 10.6667 34.1917V15.5251C10.6667 13.3197 12.4613 11.5251 14.6667 11.5251H20.6867C20.904 11.5251 21.12 11.5357 21.3333 11.5557V18.1917C21.3333 20.3971 23.128 22.1917 25.3333 22.1917H33.084ZM24 18.1917V12.4037C24.5053 12.6944 24.976 13.0544 25.4 13.4784L30.0467 18.1251C30.4653 18.5437 30.824 19.0157 31.1173 19.5251H25.3333C24.5987 19.5251 24 18.9264 24 18.1917ZM38.8293 24.6971C37.3173 23.1851 34.6827 23.1851 33.172 24.6971L24.2293 33.6397C23.2227 34.6464 22.6667 35.9864 22.6667 37.4117V39.5264C22.6667 40.2624 23.264 40.8597 24 40.8597H26.1147C27.54 40.8597 28.8787 40.3037 29.8853 39.2971L38.828 30.3544C39.584 29.5984 40 28.5944 40 27.5251C40 26.4557 39.584 25.4517 38.8293 24.6971ZM36.9427 28.4677L27.9987 37.4104C27.496 37.9144 26.8267 38.1917 26.1133 38.1917H25.332V37.4104C25.332 36.6984 25.6093 36.0291 26.1133 35.5251L35.0573 26.5824C35.56 26.0784 36.4387 26.0784 36.9427 26.5824C37.1947 26.8331 37.3333 27.1677 37.3333 27.5251C37.3333 27.8824 37.1947 28.2157 36.9427 28.4677Z" fill="url(#paint0_linear_5620_1383)"/>
</g>
</g>
<defs>
<linearGradient id="paint0_linear_5620_1383" x1="24" y1="8.8584" x2="24" y2="40.8597" gradientUnits="userSpaceOnUse">
<stop stop-color="#FF6A58"/>
<stop offset="1" stop-color="#BD060A"/>
</linearGradient>
<clipPath id="clip0_5620_1383">
<rect width="48" height="48" fill="white" transform="translate(0 0.858398)"/>
</clipPath>
<clipPath id="clip1_5620_1383">
<rect width="32" height="32" fill="white" transform="translate(8 8.8584)"/>
</clipPath>
</defs>
</svg>
