<svg width="48" height="49" viewBox="0 0 48 49" fill="none" xmlns="http://www.w3.org/2000/svg">
<g clip-path="url(#clip0_5620_5465)">
<path opacity="0.5" d="M31.5 0.858398C40.6127 0.858399 48 8.2457 48 17.3584V18.3584C48 27.4711 40.6127 34.8584 31.5 34.8584C22.3873 34.8584 15 27.4711 15 18.3584L15 17.3584C15 8.2457 22.3873 0.858398 31.5 0.858398Z" fill="#FFB6AD"/>
<path d="M26.6667 35.5251C26.6667 36.9979 25.4728 38.1918 24 38.1918C22.5272 38.1918 21.3333 36.9979 21.3333 35.5251M26.6667 35.5251C26.6667 34.0524 25.4728 32.8585 24 32.8585M26.6667 35.5251H36M21.3333 35.5251C21.3333 34.0524 22.5272 32.8585 24 32.8585M21.3333 35.5251H12M24 32.8585V27.5251M36 15.5251C36 17.7343 30.6274 19.5251 24 19.5251C17.3726 19.5251 12 17.7343 12 15.5251M36 15.5251C36 13.316 30.6274 11.5251 24 11.5251C17.3726 11.5251 12 13.316 12 15.5251M36 15.5251V23.5251C36 25.7385 30.6667 27.5251 24 27.5251M12 15.5251V23.5251C12 25.7385 17.3333 27.5251 24 27.5251" stroke="url(#paint0_linear_5620_5465)" stroke-width="2.4" stroke-linecap="round" stroke-linejoin="round"/>
</g>
<defs>
<linearGradient id="paint0_linear_5620_5465" x1="24" y1="11.5251" x2="24" y2="38.1918" gradientUnits="userSpaceOnUse">
<stop stop-color="#FF6A58"/>
<stop offset="1" stop-color="#BD060A"/>
</linearGradient>
<clipPath id="clip0_5620_5465">
<rect width="48" height="48" fill="white" transform="translate(0 0.858398)"/>
</clipPath>
</defs>
</svg>
