<svg width="544" height="425" viewBox="0 0 544 425" fill="none" xmlns="http://www.w3.org/2000/svg">
    <mask id="mask0_5620_4930" style="mask-type:alpha" maskUnits="userSpaceOnUse" x="0" y="0" width="544" height="425">
        <rect y="0.0917969" width="544" height="424" rx="16" fill="#292931"/>
    </mask>
    <g mask="url(#mask0_5620_4930)">
        <rect y="0.0917969" width="544" height="424" rx="16" fill="#F5F5FA"/>
        <path opacity="0.2" d="M126 168.092C126 34.9912 233.899 -72.9082 367 -72.9082C500.101 -72.9082 608 34.9912 608 168.092C608 301.192 500.101 409.092 367 409.092C233.899 409.092 126 301.192 126 168.092Z" fill="#BCD1E6"/>
        <path opacity="0.45" d="M259 168.092C259 108.445 307.353 60.0918 367 60.0918C426.647 60.0918 475 108.445 475 168.092C475 227.739 426.647 276.092 367 276.092C307.353 276.092 259 227.739 259 168.092Z" fill="#BCD1E6"/>
        <path opacity="0.5" d="M282 168.092C282 121.148 320.056 83.0918 367 83.0918C413.944 83.0918 452 121.148 452 168.092C452 215.036 413.944 253.092 367 253.092C320.056 253.092 282 215.036 282 168.092Z" fill="#4A7AAB"/>
        <path d="M313 168.092C313 138.268 337.177 114.092 367 114.092C396.823 114.092 421 138.268 421 168.092C421 197.915 396.823 222.092 367 222.092C337.177 222.092 313 197.915 313 168.092Z" fill="#1D4772"/>
        <path d="M378.667 159.425V154.758C378.667 148.315 373.443 143.092 367 143.092C360.557 143.092 355.333 148.315 355.333 154.758V159.425M367 169.925V174.592M359.533 185.092H374.467C378.387 185.092 380.347 185.092 381.845 184.329C383.162 183.658 384.233 182.587 384.904 181.27C385.667 179.772 385.667 177.812 385.667 173.892V170.625C385.667 166.705 385.667 164.745 384.904 163.247C384.233 161.93 383.162 160.859 381.845 160.188C380.347 159.425 378.387 159.425 374.467 159.425H359.533C355.613 159.425 353.653 159.425 352.155 160.188C350.838 160.859 349.767 161.93 349.096 163.247C348.333 164.745 348.333 166.705 348.333 170.625V173.892C348.333 177.812 348.333 179.772 349.096 181.27C349.767 182.587 350.838 183.658 352.155 184.329C353.653 185.092 355.613 185.092 359.533 185.092Z" stroke="white" stroke-width="3.5" stroke-linecap="round" stroke-linejoin="round"/>
        <g filter="url(#filter0_d_5620_4930)">
            <rect x="72.6374" y="189.051" width="135.927" height="186.939" rx="8" fill="white"/>
        </g>
        <g filter="url(#filter1_d_5620_4930)">
            <rect x="58" y="167.092" width="135.927" height="186.939" rx="8" fill="white"/>
        </g>
        <rect x="75.0518" y="193.092" width="25.5433" height="3.6476" rx="1.8238" fill="#1D4772"/>
        <rect x="75.0518" y="263.553" width="25.5433" height="3.64758" rx="1.82379" fill="#1D4772"/>
        <rect x="75.0518" y="202.873" width="88.4892" height="3.6476" rx="1.8238" fill="#D6D6DF"/>
        <rect x="75.0518" y="273.334" width="88.4892" height="3.64758" rx="1.82379" fill="#D6D6DF"/>
        <rect x="75" y="229.561" width="88.4892" height="3.6476" rx="1.8238" fill="#D6D6DF"/>
        <rect x="75.0518" y="212.631" width="56.5601" height="3.6476" rx="1.8238" fill="#D6D6DF"/>
        <rect x="75.0518" y="283.092" width="56.5601" height="3.64758" rx="1.82379" fill="#D6D6DF"/>
        <rect x="75" y="247.803" width="56.5601" height="3.6476" rx="1.8238" fill="#D6D6DF"/>
        <rect x="75" y="238.686" width="56.5601" height="3.6476" rx="1.8238" fill="#D6D6DF"/>
        <rect x="136.122" y="213.154" width="41.0517" height="3.6476" rx="1.8238" fill="#D6D6DF"/>
        <rect x="136.122" y="247.803" width="41.0517" height="3.6476" rx="1.8238" fill="#D6D6DF"/>
        <g filter="url(#filter2_d_5620_4930)">
            <rect x="152.381" y="296.834" width="167.935" height="40" rx="8" fill="#4A7AAB" shape-rendering="crispEdges"/>
            <path d="M180.66 308.584H180.087C179.701 308.584 179.389 308.897 179.389 309.283V324.385C179.389 324.771 179.701 325.084 180.087 325.084H180.66C181.046 325.084 181.358 324.771 181.358 324.385V309.283C181.358 308.897 181.046 308.584 180.66 308.584Z" fill="white" stroke="white" stroke-width="0.5"/>
            <path d="M188.618 317.122V316.548C188.618 316.163 188.305 315.85 187.919 315.85H172.829C172.443 315.85 172.131 316.163 172.131 316.548V317.122C172.131 317.507 172.443 317.82 172.829 317.82H187.919C188.305 317.82 188.618 317.507 188.618 317.122Z" fill="white" stroke="white" stroke-width="0.5"/>
            <path d="M186.001 322.869L186.406 322.464C186.679 322.191 186.679 321.748 186.406 321.475L175.736 310.796C175.463 310.523 175.021 310.523 174.748 310.796L174.343 311.202C174.07 311.475 174.07 311.917 174.343 312.19L185.013 322.869C185.286 323.142 185.728 323.142 186.001 322.869Z" fill="white" stroke="white" stroke-width="0.5"/>
            <path d="M186.406 311.203L186.001 310.797C185.728 310.525 185.286 310.525 185.013 310.797L174.343 321.477C174.07 321.749 174.07 322.192 174.343 322.465L174.748 322.87C175.021 323.143 175.463 323.143 175.736 322.87L186.406 312.191C186.679 311.918 186.679 311.476 186.406 311.203Z" fill="white" stroke="white" stroke-width="0.5"/>
            <path d="M208.648 308.584H208.075C207.689 308.584 207.377 308.897 207.377 309.283V324.385C207.377 324.771 207.689 325.084 208.075 325.084H208.648C209.034 325.084 209.347 324.771 209.347 324.385V309.283C209.347 308.897 209.034 308.584 208.648 308.584Z" fill="white" stroke="white" stroke-width="0.5"/>
            <path d="M216.605 317.122V316.548C216.605 316.163 216.292 315.85 215.906 315.85H200.816C200.43 315.85 200.118 316.163 200.118 316.548V317.122C200.118 317.507 200.43 317.82 200.816 317.82H215.906C216.292 317.82 216.605 317.507 216.605 317.122Z" fill="white" stroke="white" stroke-width="0.5"/>
            <path d="M213.988 322.869L214.393 322.464C214.666 322.191 214.666 321.748 214.393 321.475L203.722 310.796C203.45 310.523 203.008 310.523 202.735 310.796L202.33 311.202C202.057 311.475 202.057 311.917 202.33 312.19L213 322.869C213.273 323.142 213.715 323.142 213.988 322.869Z" fill="white" stroke="white" stroke-width="0.5"/>
            <path d="M214.393 311.203L213.988 310.797C213.715 310.525 213.273 310.525 213 310.797L202.33 321.477C202.057 321.749 202.057 322.192 202.33 322.465L202.735 322.87C203.008 323.143 203.45 323.143 203.723 322.87L214.393 312.191C214.666 311.918 214.666 311.476 214.393 311.203Z" fill="white" stroke="white" stroke-width="0.5"/>
            <path d="M236.636 308.584H236.063C235.677 308.584 235.365 308.897 235.365 309.283V324.385C235.365 324.771 235.677 325.084 236.063 325.084H236.636C237.022 325.084 237.334 324.771 237.334 324.385V309.283C237.334 308.897 237.022 308.584 236.636 308.584Z" fill="white" stroke="white" stroke-width="0.5"/>
            <path d="M244.592 317.122V316.548C244.592 316.163 244.279 315.85 243.893 315.85H228.803C228.417 315.85 228.105 316.163 228.105 316.548V317.122C228.105 317.507 228.417 317.82 228.803 317.82H243.893C244.279 317.82 244.592 317.507 244.592 317.122Z" fill="white" stroke="white" stroke-width="0.5"/>
            <path d="M241.975 322.869L242.38 322.464C242.653 322.191 242.653 321.748 242.38 321.475L231.71 310.796C231.437 310.523 230.995 310.523 230.723 310.796L230.318 311.202C230.045 311.475 230.045 311.917 230.318 312.19L240.988 322.869C241.261 323.142 241.703 323.142 241.975 322.869Z" fill="white" stroke="white" stroke-width="0.5"/>
            <path d="M242.381 311.203L241.976 310.797C241.703 310.525 241.261 310.525 240.988 310.797L230.318 321.477C230.045 321.749 230.045 322.192 230.318 322.465L230.723 322.87C230.995 323.143 231.438 323.143 231.71 322.87L242.381 312.191C242.653 311.918 242.653 311.476 242.381 311.203Z" fill="white" stroke="white" stroke-width="0.5"/>
            <path d="M264.621 308.584H264.048C263.662 308.584 263.35 308.897 263.35 309.283V324.385C263.35 324.771 263.662 325.084 264.048 325.084H264.621C265.007 325.084 265.319 324.771 265.319 324.385V309.283C265.319 308.897 265.007 308.584 264.621 308.584Z" fill="white" stroke="white" stroke-width="0.5"/>
            <path d="M272.579 317.122V316.548C272.579 316.163 272.266 315.85 271.88 315.85H256.79C256.404 315.85 256.092 316.163 256.092 316.548V317.122C256.092 317.507 256.404 317.82 256.79 317.82H271.88C272.266 317.82 272.579 317.507 272.579 317.122Z" fill="white" stroke="white" stroke-width="0.5"/>
            <path d="M269.963 322.869L270.368 322.464C270.64 322.191 270.64 321.748 270.368 321.475L259.697 310.796C259.424 310.523 258.982 310.523 258.71 310.796L258.305 311.202C258.032 311.475 258.032 311.917 258.305 312.19L268.975 322.869C269.248 323.142 269.69 323.142 269.963 322.869Z" fill="white" stroke="white" stroke-width="0.5"/>
            <path d="M270.366 311.203L269.961 310.797C269.688 310.525 269.246 310.525 268.973 310.797L258.303 321.477C258.03 321.749 258.03 322.192 258.303 322.465L258.708 322.87C258.98 323.143 259.423 323.143 259.695 322.87L270.366 312.191C270.638 311.918 270.638 311.476 270.366 311.203Z" fill="white" stroke="white" stroke-width="0.5"/>
            <path d="M292.608 308.584H292.035C291.649 308.584 291.337 308.897 291.337 309.283V324.385C291.337 324.771 291.649 325.084 292.035 325.084H292.608C292.994 325.084 293.306 324.771 293.306 324.385V309.283C293.306 308.897 292.994 308.584 292.608 308.584Z" fill="white" stroke="white" stroke-width="0.5"/>
            <path d="M300.566 317.122V316.548C300.566 316.163 300.253 315.85 299.867 315.85H284.777C284.391 315.85 284.079 316.163 284.079 316.548V317.122C284.079 317.507 284.391 317.82 284.777 317.82H299.867C300.253 317.82 300.566 317.507 300.566 317.122Z" fill="white" stroke="white" stroke-width="0.5"/>
            <path d="M297.95 322.869L298.355 322.464C298.627 322.191 298.627 321.748 298.355 321.475L287.684 310.796C287.411 310.523 286.969 310.523 286.697 310.796L286.292 311.202C286.019 311.475 286.019 311.917 286.292 312.19L296.962 322.869C297.235 323.142 297.677 323.142 297.95 322.869Z" fill="white" stroke="white" stroke-width="0.5"/>
            <path d="M298.353 311.203L297.948 310.797C297.675 310.525 297.233 310.525 296.96 310.797L286.29 321.477C286.017 321.749 286.017 322.192 286.29 322.465L286.695 322.87C286.967 323.143 287.41 323.143 287.682 322.87L298.353 312.191C298.625 311.918 298.625 311.476 298.353 311.203Z" fill="white" stroke="white" stroke-width="0.5"/>
        </g>
        <g filter="url(#filter3_d_5620_4930)">
            <path d="M77.4883 96.5918C77.4883 81.9563 89.3527 70.0918 103.988 70.0918H178.182C192.818 70.0918 204.682 81.9563 204.682 96.5918C204.682 111.227 192.818 123.092 178.182 123.092H103.988C89.3527 123.092 77.4883 111.227 77.4883 96.5918Z" fill="#4A7AAB" shape-rendering="crispEdges"/>
            <path d="M122.488 96.5918C122.488 104.6 115.996 111.092 107.988 111.092C99.9802 111.092 93.4883 104.6 93.4883 96.5918C93.4883 88.5837 99.9802 82.0918 107.988 82.0918C115.996 82.0918 122.488 88.5837 122.488 96.5918Z" fill="#C0FDDC"/>
            <path fill-rule="evenodd" clip-rule="evenodd" d="M105.501 98.2776L112.187 91.5653C112.75 90.9984 113.667 90.9984 114.23 91.5653C114.795 92.1303 114.795 93.0514 114.23 93.6164L106.522 101.356C105.957 101.923 105.044 101.923 104.479 101.356L101.589 98.4537C101.024 97.8887 101.024 96.9677 101.589 96.4027C102.152 95.8357 103.069 95.8357 103.631 96.4027L105.501 98.2776Z" fill="#1D9D58"/>
            <path d="M175.112 90.5122L172.492 99.0345H177.704L175.112 90.5122ZM165.983 106.591L172.464 86.8716H178.284L184.682 106.591H180.021L178.67 102.206H171.526L170.175 106.591H165.983Z" fill="white"/>
            <path d="M152.009 106.591V86.8716H164.668V90.3743H156.477V95.5869H162.958V98.9517H156.477V106.591H152.009Z" fill="white"/>
            <path d="M132.488 106.587V105.87L139.714 98.2307C141.617 96.2173 142.831 94.4798 142.831 92.687C142.831 91.0598 141.921 90.0117 140.211 90.0117C138.473 90.0117 137.37 91.0322 137.067 93.6248H133.012C133.233 89.074 135.991 86.5918 140.404 86.5918C144.761 86.5918 147.244 89.0189 147.244 92.5767C147.244 95.1968 145.727 97.3481 143.438 99.5545L139.714 103.195H147.382V106.587H132.488Z" fill="white"/>
        </g>
    </g>
    <defs>
        <filter id="filter0_d_5620_4930" x="57.6374" y="179.051" width="165.927" height="216.939" filterUnits="userSpaceOnUse" color-interpolation-filters="sRGB">
            <feFlood flood-opacity="0" result="BackgroundImageFix"/>
            <feColorMatrix in="SourceAlpha" type="matrix" values="0 0 0 0 0 0 0 0 0 0 0 0 0 0 0 0 0 0 127 0" result="hardAlpha"/>
            <feOffset dy="5"/>
            <feGaussianBlur stdDeviation="7.5"/>
            <feComposite in2="hardAlpha" operator="out"/>
            <feColorMatrix type="matrix" values="0 0 0 0 0.0862745 0 0 0 0 0.0862745 0 0 0 0 0.0862745 0 0 0 0.1 0"/>
            <feBlend mode="normal" in2="BackgroundImageFix" result="effect1_dropShadow_5620_4930"/>
            <feBlend mode="normal" in="SourceGraphic" in2="effect1_dropShadow_5620_4930" result="shape"/>
        </filter>
        <filter id="filter1_d_5620_4930" x="43" y="157.092" width="165.927" height="216.939" filterUnits="userSpaceOnUse" color-interpolation-filters="sRGB">
            <feFlood flood-opacity="0" result="BackgroundImageFix"/>
            <feColorMatrix in="SourceAlpha" type="matrix" values="0 0 0 0 0 0 0 0 0 0 0 0 0 0 0 0 0 0 127 0" result="hardAlpha"/>
            <feOffset dy="5"/>
            <feGaussianBlur stdDeviation="7.5"/>
            <feComposite in2="hardAlpha" operator="out"/>
            <feColorMatrix type="matrix" values="0 0 0 0 0.0862745 0 0 0 0 0.0862745 0 0 0 0 0.0862745 0 0 0 0.1 0"/>
            <feBlend mode="normal" in2="BackgroundImageFix" result="effect1_dropShadow_5620_4930"/>
            <feBlend mode="normal" in="SourceGraphic" in2="effect1_dropShadow_5620_4930" result="shape"/>
        </filter>
        <filter id="filter2_d_5620_4930" x="137.381" y="286.834" width="197.935" height="70" filterUnits="userSpaceOnUse" color-interpolation-filters="sRGB">
            <feFlood flood-opacity="0" result="BackgroundImageFix"/>
            <feColorMatrix in="SourceAlpha" type="matrix" values="0 0 0 0 0 0 0 0 0 0 0 0 0 0 0 0 0 0 127 0" result="hardAlpha"/>
            <feOffset dy="5"/>
            <feGaussianBlur stdDeviation="7.5"/>
            <feComposite in2="hardAlpha" operator="out"/>
            <feColorMatrix type="matrix" values="0 0 0 0 0.0862745 0 0 0 0 0.0862745 0 0 0 0 0.0862745 0 0 0 0.1 0"/>
            <feBlend mode="normal" in2="BackgroundImageFix" result="effect1_dropShadow_5620_4930"/>
            <feBlend mode="normal" in="SourceGraphic" in2="effect1_dropShadow_5620_4930" result="shape"/>
        </filter>
        <filter id="filter3_d_5620_4930" x="62.4883" y="60.0918" width="157.194" height="83" filterUnits="userSpaceOnUse" color-interpolation-filters="sRGB">
            <feFlood flood-opacity="0" result="BackgroundImageFix"/>
            <feColorMatrix in="SourceAlpha" type="matrix" values="0 0 0 0 0 0 0 0 0 0 0 0 0 0 0 0 0 0 127 0" result="hardAlpha"/>
            <feOffset dy="5"/>
            <feGaussianBlur stdDeviation="7.5"/>
            <feComposite in2="hardAlpha" operator="out"/>
            <feColorMatrix type="matrix" values="0 0 0 0 0.0862745 0 0 0 0 0.0862745 0 0 0 0 0.0862745 0 0 0 0.1 0"/>
            <feBlend mode="normal" in2="BackgroundImageFix" result="effect1_dropShadow_5620_4930"/>
            <feBlend mode="normal" in="SourceGraphic" in2="effect1_dropShadow_5620_4930" result="shape"/>
        </filter>
    </defs>
</svg>